<svg width="12" height="12" viewBox="0 0 12 12" fill="none" xmlns="http://www.w3.org/2000/svg">
<path d="M11.39 1.18001V0.840012C11.39 0.630012 11.2 0.450012 10.98 0.450012H8.18997C7.95997 0.450012 7.77997 0.620012 7.77997 0.840012V4.20001C7.77997 4.41001 7.96997 4.59001 8.18997 4.59001H10.98C11.21 4.59001 11.39 4.42001 11.39 4.20001V3.34001V1.18001Z" fill="black"/>
<path d="M0.609985 7.12H1.21999C1.69999 7.12 2.16998 6.96 2.53998 6.65L3.82999 5.61C4.11999 5.37 4.45999 5.2 4.82999 5.11C5.33999 4.98 6.04999 4.8 6.35999 4.73C6.85999 4.61 7.07998 4.89 7.16998 5.11C7.25998 5.33 7.21998 5.49 7.11998 5.64" stroke="black" stroke-width="0.5" stroke-miterlimit="10"/>
<path d="M10.01 6.18002H10.32C10.68 6.18002 10.98 6.48002 10.98 6.85002C10.98 7.22002 10.68 7.52002 10.32 7.52002H7.10999" stroke="black" stroke-width="0.5" stroke-miterlimit="10"/>
<path d="M5.64996 6.18002H9.10997" stroke="black" stroke-width="0.5" stroke-miterlimit="10"/>
<path d="M8.10997 7.90002V8.16002C8.10997 8.48002 7.84997 8.75002 7.52997 8.75002H7.21997" stroke="black" stroke-width="0.5" stroke-miterlimit="10"/>
<path d="M7.92998 9.24002V9.50002C7.92998 9.82002 7.66998 10.09 7.34998 10.09H7.03998" stroke="black" stroke-width="0.5" stroke-miterlimit="10"/>
<path d="M7.50998 10.46C7.57998 10.68 7.52998 10.91 7.38998 11.08C7.27998 11.22 7.10999 11.29 6.93999 11.29H3.68999C3.46999 11.29 3.25998 11.24 3.05998 11.16L2.24998 10.81C2.07998 10.73 1.88999 10.69 1.68999 10.69H0.609985" stroke="black" stroke-width="0.5" stroke-miterlimit="10"/>
<path d="M9.87997 4.10002H9.26997C9.10997 4.10002 8.97998 3.97002 8.97998 3.81002C8.97998 3.65002 9.10997 3.52002 9.26997 3.52002H9.87997C10.04 3.52002 10.17 3.65002 10.17 3.81002C10.17 3.97002 10.04 4.10002 9.87997 4.10002Z" fill="white"/>
<path d="M9.54999 5.32002C9.29999 5.32002 9.10999 5.12002 9.10999 4.88002V4.43002H9.99998V4.88002C9.98998 5.12002 9.79999 5.32002 9.54999 5.32002Z" stroke="black" stroke-width="0.5" stroke-miterlimit="10"/>
<path d="M9.56998 6.18002V5.30002" stroke="black" stroke-width="0.5" stroke-miterlimit="10"/>
<path d="M9.55001 3.07C8.79001 3.07 8.35 2.21 8.78 1.58L9.14 1.06C9.34 0.769999 9.76999 0.769999 9.95999 1.06L10.32 1.58C10.75 2.21 10.3 3.07 9.55001 3.07Z" fill="white"/>
</svg>
