<svg width="12" height="12" viewBox="0 0 12 12" fill="none" xmlns="http://www.w3.org/2000/svg">
<path d="M9.29001 0.410004C8.13001 1.57 6.46001 1.59 5.62001 2.43C4.83001 3.22 5.41 4.5 6.97 4.7C7.15 4.72 7.29001 4.87 7.32001 5.05C7.52001 6.61 8.80001 7.18001 9.59001 6.40001C10.43 5.56001 10.45 3.89 11.61 2.73" fill="black"/>
<path d="M9.29001 0.410004C8.13001 1.57 6.46001 1.59 5.62001 2.43C4.83001 3.22 5.41 4.5 6.97 4.7C7.15 4.72 7.29001 4.87 7.32001 5.05C7.52001 6.61 8.80001 7.18001 9.59001 6.40001C10.43 5.56001 10.45 3.89 11.61 2.73" stroke="black" stroke-width="0.5" stroke-miterlimit="10"/>
<path d="M2.71999 11.58C3.87999 10.42 5.54998 10.4 6.38998 9.55999C7.17998 8.76999 6.59999 7.48999 5.03999 7.28999C4.85999 7.26999 4.71999 7.11999 4.68999 6.93999C4.48999 5.37999 3.21 4.80999 2.42 5.58999C1.58 6.42999 1.55999 8.09999 0.399994 9.25999" fill="black"/>
<path d="M2.71999 11.58C3.87999 10.42 5.54998 10.4 6.38998 9.55999C7.17998 8.76999 6.59999 7.48999 5.03999 7.28999C4.85999 7.26999 4.71999 7.11999 4.68999 6.93999C4.48999 5.37999 3.21 4.80999 2.42 5.58999C1.58 6.42999 1.55999 8.09999 0.399994 9.25999" stroke="black" stroke-width="0.5" stroke-miterlimit="10"/>
<path d="M2.85999 5.34001C2.85999 3.96001 3.96999 2.85001 5.34999 2.85001" stroke="black" stroke-width="0.5" stroke-miterlimit="10"/>
<path d="M9.14998 6.66C9.14998 8.04 8.03997 9.15001 6.65997 9.15001" stroke="black" stroke-width="0.5" stroke-miterlimit="10"/>
</svg>
