<svg width="12" height="12" viewBox="0 0 12 12" fill="none" xmlns="http://www.w3.org/2000/svg">
<path d="M10.76 5.23L10.91 5.14C11.36 4.88 11.51 4.3 11.25 3.85C10.99 3.4 10.42 3.24 9.98001 3.5L9.75 3.64" stroke="black" stroke-width="0.5" stroke-miterlimit="10"/>
<path d="M7.92998 1.69999V1.51999C7.92998 0.999987 7.50998 0.579987 6.98998 0.579987C6.47998 0.579987 6.06 1.00999 6.07 1.52999V1.79999" stroke="black" stroke-width="0.5" stroke-miterlimit="10"/>
<path d="M10.47 3.36998C10.47 3.36998 10.38 1.18997 7.88 1.22997" stroke="black" stroke-width="0.5" stroke-miterlimit="10"/>
<path d="M6.19995 1.03C5.35995 0.510002 4.00995 0.160001 3.19995 1.97" stroke="black" stroke-width="0.5" stroke-miterlimit="10"/>
<path d="M1.35999 4.72C1.04999 4.54 0.850006 4.2 0.850006 3.81C0.850006 3.23 1.31998 2.75 1.88998 2.75C2.17998 2.75 2.44 2.87 2.63 3.06" stroke="black" stroke-width="0.5" stroke-miterlimit="10"/>
<path d="M1.54999 2.75C1.54999 2.03 2.13 1.44 2.84 1.44C3.05 1.44 3.24 1.49 3.41 1.58" stroke="black" stroke-width="0.5" stroke-miterlimit="10"/>
<path d="M3.41 7.49999C3.15 7.60999 2.87999 7.66998 2.57999 7.66998C1.37999 7.66998 0.399994 6.67999 0.399994 5.45999C0.399994 4.93999 0.580005 4.44999 0.880005 4.07999" stroke="black" stroke-width="0.5" stroke-miterlimit="10"/>
<path d="M11.29 4.71997C11.49 4.99997 11.61 5.33997 11.61 5.70997C11.61 6.63997 10.87 7.39997 9.94995 7.39997C9.52995 7.39997 9.13998 7.23997 8.84998 6.97997" stroke="black" stroke-width="0.5" stroke-miterlimit="10"/>
<path d="M9.05002 5.82999C9.28002 6.25999 9.12001 6.78999 8.70001 7.01999C8.28001 7.24999 7.75003 7.08999 7.53003 6.65999" stroke="black" stroke-width="0.5" stroke-miterlimit="10"/>
<path d="M8.11002 8.00998C7.83002 8.19998 7.49004 8.31998 7.13004 8.31998C6.64004 8.31998 6.30002 8.10998 6.30002 8.10998C5.98002 8.45998 5.53003 8.66998 5.03003 8.66998C4.07003 8.66998 3.29004 7.87998 3.29004 6.89998C3.29004 6.54998 3.39003 6.22998 3.56003 5.94998" stroke="black" stroke-width="0.5" stroke-miterlimit="10"/>
<path d="M11.23 6.79999C11.07 7.83999 10.25 8.64999 9.21997 8.77999" stroke="black" stroke-width="0.5" stroke-miterlimit="10"/>
<path d="M3.28 6.68C2.78 6.71 2.35001 6.32 2.32001 5.81" stroke="black" stroke-width="0.5" stroke-miterlimit="10"/>
<path d="M7.17999 8.31998C7.18999 8.92998 7.41999 9.36998 8.57999 9.80998C9.73999 10.25 9.79001 11.42 9.79001 11.42H10.77C10.77 11.42 10.79 9.54998 9.82999 8.61998" stroke="black" stroke-width="0.5" stroke-miterlimit="10"/>
<path d="M4.60999 5.00999L6.34 2.54999V4.32999H7.23001L5.47 6.84999V4.99999L4.60999 5.00999Z" fill="black"/>
</svg>
