<svg width="12" height="12" viewBox="0 0 12 12" fill="none" xmlns="http://www.w3.org/2000/svg">
<path d="M7.16003 0.359985C7.16003 0.359985 7.34003 1.78998 8.34003 2.30998C9.34003 2.82998 10.61 2.36998 11.15 4.88998C11.69 7.40998 10.6 10.12 7.89005 11.1C7.36005 11.29 6.81003 11.4 6.25003 11.41C6.10003 11.41 5.94004 11.41 5.79004 11.39C5.21004 11.34 4.62003 11.19 4.12003 10.88C4.10003 10.87 4.08004 10.86 4.07004 10.85C3.85004 10.71 3.65002 10.54 3.46002 10.35C3.37002 10.25 3.28004 10.15 3.20004 10.04C3.12004 9.93999 3.06004 9.81998 2.98004 9.72998C2.87004 9.61998 2.74004 9.49998 2.57004 9.49998C2.16004 9.49998 1.86005 9.91998 1.86005 11.09" stroke="black" stroke-width="0.5" stroke-miterlimit="10"/>
<path d="M5.84002 0.689972C5.84002 0.689972 6.01002 2.27997 7.03002 3.19997C6.74002 3.79997 6.73003 3.84997 6.66003 4.02997C6.59003 4.20997 6.17001 6.17997 4.30001 7.06997C3.53001 7.42997 3.46002 7.74997 2.78002 8.07997C2.10002 8.40997 1.42003 8.08997 1.04003 8.87997C0.660032 9.66997 0.690036 10.88 0.700036 11.1" stroke="black" stroke-width="0.5" stroke-miterlimit="10"/>
<path d="M9.83999 5.78998C10.07 5.83998 10.22 6.25998 10.26 6.44998C10.33 6.74998 10.31 7.05998 10.24 7.35998C9.95998 8.48998 9.12 9.74998 7.48 10.27C5.84 10.79 4.49998 10.32 4.11998 10.02C3.72998 9.71998 3.33 8.99998 3.76 8.44998C4.36 7.68998 5.58998 8.14998 7.23998 7.68998C8.04998 7.46998 8.68 6.95998 9.23 6.32998C9.35 6.18998 9.45999 6.02998 9.58999 5.89998C9.64999 5.83998 9.71998 5.79998 9.79998 5.78998C9.80998 5.78998 9.82999 5.78998 9.83999 5.78998Z" fill="black"/>
</svg>
