<svg width="12" height="12" viewBox="0 0 12 12" fill="none" xmlns="http://www.w3.org/2000/svg">
<path d="M6.00998 11.42C8.97575 11.42 11.38 8.99337 11.38 5.99999C11.38 3.0066 8.97575 0.579987 6.00998 0.579987C3.04421 0.579987 0.639984 3.0066 0.639984 5.99999C0.639984 8.99337 3.04421 11.42 6.00998 11.42Z" stroke="black" stroke-width="0.5" stroke-miterlimit="10"/>
<path d="M4.20999 5.07999C4.48061 5.07999 4.69998 4.85613 4.69998 4.57999C4.69998 4.30384 4.48061 4.07999 4.20999 4.07999C3.93937 4.07999 3.72 4.30384 3.72 4.57999C3.72 4.85613 3.93937 5.07999 4.20999 5.07999Z" stroke="black" stroke-width="0.5" stroke-miterlimit="10"/>
<path d="M7.75 5.07999C8.02062 5.07999 8.23999 4.85613 8.23999 4.57999C8.23999 4.30384 8.02062 4.07999 7.75 4.07999C7.47938 4.07999 7.25998 4.30384 7.25998 4.57999C7.25998 4.85613 7.47938 5.07999 7.75 5.07999Z" stroke="black" stroke-width="0.5" stroke-miterlimit="10"/>
<path d="M8.88998 7.31C8.38998 8.42 7.28998 9.18999 6.00998 9.18999C4.72998 9.18999 3.61997 8.42 3.12997 7.31" stroke="black" stroke-width="0.5" stroke-miterlimit="10"/>
</svg>
