<svg width="12" height="8" viewBox="0 0 12 8" fill="none" xmlns="http://www.w3.org/2000/svg">
<path d="M1.67004 3.37C4.59004 1.52 6.89002 0.55 10.4 3.37" stroke="black" stroke-width="0.5" stroke-miterlimit="10"/>
<path d="M6.03998 1.65997C5.59998 1.65997 5.20997 1.86997 4.96997 2.19997C5.13997 2.24997 5.25998 2.38997 5.25998 2.56997C5.25998 2.77997 5.07999 2.95997 4.85999 2.95997C4.80999 2.95997 4.76998 2.94997 4.72998 2.93997C4.72998 3.63997 5.31999 4.20997 6.04999 4.20997C6.77999 4.20997 7.36996 3.63997 7.36996 2.93997C7.36996 2.23997 6.75998 1.65997 6.03998 1.65997Z" fill="black"/>
<path d="M11.5 3.35999C8.24002 0.389987 5.08003 0.129987 1.20003 2.92999L0.780014 3.24999C0.570014 3.37999 0.510018 3.70999 0.690018 3.94999C0.870018 4.18999 1.21001 4.23999 1.46001 4.06999L1.68001 3.90999C3.34001 5.24999 5.03001 6.16999 7.03001 5.80999" stroke="black" stroke-width="0.5" stroke-miterlimit="10"/>
<path d="M8.20999 3.24998C8.23999 3.11998 8.25 2.97998 8.25 2.82998C8.25 2.52998 8.19001 2.23998 8.07001 1.97998" stroke="black" stroke-width="0.5" stroke-miterlimit="10"/>
<path d="M3.97 2.09998C3.86 2.34998 3.82001 2.57998 3.82001 2.86998C3.82001 4.04998 4.81 5.00997 6.03 5.00997C6.33 5.00997 6.62 4.94998 6.88 4.83998" stroke="black" stroke-width="0.5" stroke-miterlimit="10"/>
<path d="M10.1 5.01998H9.58002V4.50998H8.92001V5.01998H8.39001V5.65998H8.92001V6.15998H9.58002V5.65998H10.1V5.01998Z" fill="black"/>
<path d="M9.25 7.01997C10.211 7.01997 10.99 6.26781 10.99 5.33997C10.99 4.41214 10.211 3.65997 9.25 3.65997C8.28902 3.65997 7.51001 4.41214 7.51001 5.33997C7.51001 6.26781 8.28902 7.01997 9.25 7.01997Z" stroke="black" stroke-width="0.5" stroke-miterlimit="10"/>
</svg>


