<svg width="12" height="12" viewBox="0 0 12 12" fill="none" xmlns="http://www.w3.org/2000/svg">
<path d="M5.52002 8.46001C6.69639 8.46001 7.65002 7.50638 7.65002 6.33001C7.65002 5.15365 6.69639 4.20001 5.52002 4.20001C4.34365 4.20001 3.39001 5.15365 3.39001 6.33001C3.39001 7.50638 4.34365 8.46001 5.52002 8.46001Z" stroke="black" stroke-width="0.5" stroke-miterlimit="10"/>
<path d="M2.47002 11.24C2.87318 11.24 3.20002 10.9132 3.20002 10.51C3.20002 10.1068 2.87318 9.78 2.47002 9.78C2.06685 9.78 1.74002 10.1068 1.74002 10.51C1.74002 10.9132 2.06685 11.24 2.47002 11.24Z" fill="black"/>
<path d="M1.47002 5.44C1.92841 5.44 2.30002 5.0684 2.30002 4.61C2.30002 4.1516 1.92841 3.78 1.47002 3.78C1.01162 3.78 0.640015 4.1516 0.640015 4.61C0.640015 5.0684 1.01162 5.44 1.47002 5.44Z" fill="black"/>
<path d="M8.66001 3.27C9.29514 3.27 9.81001 2.75513 9.81001 2.12C9.81001 1.48488 9.29514 0.970001 8.66001 0.970001C8.02488 0.970001 7.51001 1.48488 7.51001 2.12C7.51001 2.75513 8.02488 3.27 8.66001 3.27Z" fill="black"/>
<path d="M10.37 9.69C10.9057 9.69 11.34 9.25572 11.34 8.72C11.34 8.18428 10.9057 7.75 10.37 7.75C9.83431 7.75 9.40002 8.18428 9.40002 8.72C9.40002 9.25572 9.83431 9.69 10.37 9.69Z" fill="black"/>
<path d="M8.05002 2.92001L6.86002 4.46001" stroke="black" stroke-width="0.5" stroke-miterlimit="10"/>
<path d="M2.17001 4.91L3.56001 5.49" stroke="black" stroke-width="0.5" stroke-miterlimit="10"/>
<path d="M2.86002 10.01L4.36002 8.11002" stroke="black" stroke-width="0.5" stroke-miterlimit="10"/>
<path d="M9.54002 8.29L7.43002 7.25" stroke="black" stroke-width="0.5" stroke-miterlimit="10"/>
</svg>
