<svg width="11" height="12" viewBox="0 0 11 12" fill="none" xmlns="http://www.w3.org/2000/svg">
<path d="M5.53 8.79999C5.66 8.79999 5.77 8.72999 5.82 8.62999H6.13C6.16 8.99999 6.31 9.32999 6.53 9.59999L6.31001 9.81999C6.20001 9.78999 6.07 9.81999 5.98 9.90999C5.85 10.04 5.85 10.26 5.98 10.39C6.11 10.52 6.33 10.52 6.46 10.39C6.55 10.3 6.58 10.17 6.55 10.06L6.77 9.83999C7.04 10.06 7.37001 10.21 7.74001 10.24V10.55C7.64001 10.61 7.57 10.72 7.57 10.84C7.57 11.03 7.72 11.18 7.91 11.18C8.1 11.18 8.25 11.03 8.25 10.84C8.25 10.71 8.18 10.6 8.08 10.55V10.24C8.45 10.21 8.78 10.06 9.05 9.83999L9.27 10.06C9.24 10.17 9.27 10.3 9.36 10.39C9.49 10.52 9.71 10.52 9.84 10.39C9.97 10.26 9.97 10.04 9.84 9.90999C9.75 9.81999 9.62 9.78999 9.51 9.81999L9.29 9.59999C9.51 9.32999 9.66 8.99999 9.69 8.62999H10C10.06 8.72999 10.17 8.79999 10.29 8.79999C10.48 8.79999 10.63 8.64999 10.63 8.45999C10.63 8.26999 10.48 8.11999 10.29 8.11999C10.16 8.11999 10.05 8.18999 10 8.28999H9.69C9.66 7.91999 9.51 7.58999 9.29 7.31999L9.51 7.09999C9.62 7.12999 9.75 7.09999 9.84 7.00999C9.97 6.87999 9.97 6.65999 9.84 6.52999C9.71 6.39999 9.49 6.39999 9.36 6.52999C9.27 6.61999 9.24 6.74999 9.27 6.85999L9.05 7.07999C8.78 6.85999 8.45 6.70999 8.08 6.67999V6.36999C8.18 6.30999 8.25 6.19999 8.25 6.07999C8.25 5.88999 8.1 5.73999 7.91 5.73999C7.72 5.73999 7.57 5.88999 7.57 6.07999C7.57 6.20999 7.64001 6.31999 7.74001 6.36999V6.67999C7.37001 6.70999 7.04 6.85999 6.77 7.07999L6.55 6.85999C6.58 6.74999 6.55 6.61999 6.46 6.52999C6.33 6.39999 6.11 6.39999 5.98 6.52999C5.85 6.65999 5.85 6.87999 5.98 7.00999C6.07 7.09999 6.20001 7.12999 6.31001 7.09999L6.53 7.31999C6.31 7.58999 6.16 7.91999 6.13 8.28999H5.82C5.76 8.18999 5.65 8.11999 5.53 8.11999C5.34 8.11999 5.19 8.26999 5.19 8.45999C5.19 8.64999 5.34 8.79999 5.53 8.79999ZM8.47 8.54999C8.63 8.54999 8.77 8.67999 8.77 8.84999C8.77 9.01999 8.64 9.14999 8.47 9.14999C8.3 9.14999 8.17001 9.01999 8.17001 8.84999C8.17001 8.67999 8.31 8.54999 8.47 8.54999ZM7.74001 7.52999C7.93001 7.52999 8.08 7.67999 8.08 7.86999C8.08 8.05999 7.93001 8.20999 7.74001 8.20999C7.55001 8.20999 7.4 8.05999 7.4 7.86999C7.4 7.67999 7.55001 7.52999 7.74001 7.52999ZM7.14 8.71999C7.28 8.71999 7.4 8.82999 7.4 8.97999C7.4 9.12999 7.29 9.23999 7.14 9.23999C7 9.23999 6.88 9.12999 6.88 8.97999C6.88 8.82999 7 8.71999 7.14 8.71999Z" fill="black"/>
<path d="M8.21 5.24C8.32 4.37 8.34 3.41 8.34 2.34C6.21 2.27 4.35 0.970001 4.35 0.970001C4.35 0.970001 2.48 2.27 0.360001 2.34C0.360001 6.21 0.589998 8.52 4.35 11.03C4.71 10.79 5.04 10.55 5.34 10.31" stroke="black" stroke-width="0.5" stroke-miterlimit="10"/>
<path d="M5.13 7.66V6.78H5.32" stroke="black" stroke-width="0.5" stroke-miterlimit="10"/>
<path d="M4.75001 8.00999H3.75001C3.64001 8.00999 3.56001 7.91999 3.56001 7.81999V6.77999H2.51001C2.40001 6.77999 2.32001 6.68999 2.32001 6.58999V5.40999C2.32001 5.29999 2.41001 5.21999 2.51001 5.21999H3.56001V4.17999C3.56001 4.06999 3.65001 3.98999 3.75001 3.98999H4.93001C5.04001 3.98999 5.12001 4.07999 5.12001 4.17999V5.21999H6.17001C6.28001 5.21999 6.36001 5.30999 6.36001 5.40999V5.89999" stroke="black" stroke-width="0.5" stroke-miterlimit="10"/>
</svg>
