<svg width="10" height="12" viewBox="0 0 10 12" fill="none" xmlns="http://www.w3.org/2000/svg">
<path d="M5.55002 0.630005C5.55002 0.630005 1.66001 1.08 1.92001 6.96C1.20001 6.61 0.480011 5.90001 0.480011 5.90001C0.480011 5.90001 -0.359989 11.43 4.73001 11.43C9.82001 11.43 9.58002 6.85 9.58002 6.85C9.58002 6.85 8.90001 7.20001 8.12001 7.36001C8.86001 5.44001 8.20001 4.01001 7.48001 3.54001C7.47001 5.17001 3.64002 5.22001 5.55002 0.630005Z" stroke="black" stroke-width="0.5" stroke-miterlimit="10"/>
<path d="M6.65001 10.67C7.59001 9.53002 7.33001 7.36002 6.65001 6.35002C6.65001 6.35002 6.39001 6.85002 5.65001 7.18002C5.74001 5.12002 3.73 4.33002 3.73 4.33002C4.05 5.88002 2.25 7.11002 2.25 8.65002C2.25 9.42002 2.52 10.17 3.02 10.69" stroke="black" stroke-width="0.5" stroke-miterlimit="10"/>
<path d="M6.28002 9.94002C6.46002 9.47002 6.42002 8.93002 5.99002 8.45002C5.28002 9.48002 3.80002 8.50002 4.50002 7.24002C3.69002 7.36002 3.13002 8.66002 3.32002 9.71002" stroke="black" stroke-width="0.5" stroke-miterlimit="10"/>
</svg>
