<svg width="14" height="12" viewBox="0 0 14 12" fill="none" xmlns="http://www.w3.org/2000/svg">
<path d="M8.31 5.86001C8.31 5.86001 8.31 4.74001 8.31 3.83001C8.31 2.92001 8.75 2.15001 10.35 2.12001C11.95 2.09001 13.75 2.31001 13.7 3.06001C13.66 3.81001 12.63 3.74001 11.45 5.71001C10.27 7.68001 8.88 7.20001 8.67 6.93001C8.48 6.67001 8.31 6.46001 8.31 5.86001Z" stroke="black" stroke-width="0.5" stroke-miterlimit="10"/>
<path d="M7.64999 6.23003C7.64999 6.23003 7.71999 4.41003 7.51999 3.61003C7.30999 2.82003 6.64999 1.08003 4.11999 1.85003C1.58999 2.62003 0.609992 4.89003 0.409992 5.89003C0.209992 6.89003 0.0399934 10.93 1.39999 10.9C2.74999 10.87 3.48999 9.19003 4.83999 8.89003C6.18999 8.59003 7.55999 8.12003 7.64999 6.23003Z" stroke="black" stroke-width="0.5" stroke-miterlimit="10"/>
<path d="M8.60999 6.84003C8.60999 6.84003 9.11999 7.30003 9.06999 7.74003C9.00999 8.18003 8.74999 8.62003 8.41999 8.62003C7.82999 8.62003 8.25999 8.04003 7.95999 7.73003C7.66999 7.42003 7.45999 7.19003 7.45999 7.19003" stroke="black" stroke-width="0.5" stroke-miterlimit="10"/>
<path d="M4.11999 1.85001C4.11999 1.85001 3.73999 0.910013 5.58999 1.13001C7.43999 1.35001 6.85999 2.14001 8.25999 1.85001C9.65999 1.56001 10.26 1.59001 10.25 2.13001" stroke="black" stroke-width="0.5" stroke-miterlimit="10"/>
</svg>
