<svg width="16" height="12" viewBox="0 0 16 12" fill="none" xmlns="http://www.w3.org/2000/svg">
<path d="M3.74001 6.13C3.09001 6.13 2.57001 5.6 2.57001 4.96V1.76C2.57001 1.11 3.10001 0.589996 3.74001 0.589996C4.39001 0.589996 4.91002 1.12 4.91002 1.76V4.96C4.91002 5.6 4.39001 6.13 3.74001 6.13Z" stroke="black" stroke-width="0.5" stroke-miterlimit="10"/>
<path d="M2.59999 1.48999C1.96999 1.50999 1.47 2.02999 1.47 2.66999V4.02999C1.47 4.66999 1.96999 5.17999 2.59999 5.20999" stroke="black" stroke-width="0.5" stroke-miterlimit="10"/>
<path d="M1.47 2.57999H1.29999C0.869988 2.57999 0.529999 2.92999 0.529999 3.35999C0.529999 3.78999 0.879988 4.13999 1.29999 4.13999H1.47" stroke="black" stroke-width="0.5" stroke-miterlimit="10"/>
<path d="M12.27 6.13C12.92 6.13 13.44 5.6 13.44 4.96V1.76C13.44 1.11 12.91 0.589996 12.27 0.589996C11.62 0.589996 11.1 1.12 11.1 1.76V4.96C11.1 5.6 11.62 6.13 12.27 6.13Z" stroke="black" stroke-width="0.5" stroke-miterlimit="10"/>
<path d="M13.41 1.48999C14.04 1.50999 14.54 2.02999 14.54 2.66999V4.02999C14.54 4.66999 14.04 5.17999 13.41 5.20999" stroke="black" stroke-width="0.5" stroke-miterlimit="10"/>
<path d="M14.54 2.57999H14.71C15.14 2.57999 15.48 2.92999 15.48 3.35999C15.48 3.78999 15.13 4.13999 14.71 4.13999H14.54" stroke="black" stroke-width="0.5" stroke-miterlimit="10"/>
<path d="M6.32999 3.89999C6.02999 3.89999 5.79001 3.65999 5.79001 3.35999V2.02999C5.79001 1.72999 6.02999 1.48999 6.32999 1.48999C6.62999 1.48999 6.87 1.72999 6.87 2.02999V3.35999C6.86 3.65999 6.61999 3.89999 6.32999 3.89999Z" stroke="black" stroke-width="0.5" stroke-miterlimit="10"/>
<path d="M7.39999 3.90001C7.09999 3.90001 6.85999 3.66001 6.85999 3.36001V1.58001C6.85999 1.28001 7.09999 1.04001 7.39999 1.04001C7.69999 1.04001 7.94 1.28001 7.94 1.58001V3.36001C7.94 3.66001 7.69999 3.90001 7.39999 3.90001Z" stroke="black" stroke-width="0.5" stroke-miterlimit="10"/>
<path d="M4.91 2.16998H5.79001" stroke="black" stroke-width="0.5" stroke-miterlimit="10"/>
<path d="M10.09 2.16998H11.1" stroke="black" stroke-width="0.5" stroke-miterlimit="10"/>
<path d="M4.91 4.5H8.76999" stroke="black" stroke-width="0.5" stroke-miterlimit="10"/>
<path d="M7.39999 5.92999C7.39999 5.92999 7.84999 4.87999 8.76999 4.50999C8.92999 4.43999 8.99998 4.25999 8.91998 4.10999L8.39999 3.19999C8.23999 2.91999 8.31001 2.55999 8.57001 2.36999C8.86001 2.14999 9.27 2.21999 9.47 2.51999L10.5 3.99999C10.84 4.48999 10.9 5.12999 10.65 5.66999L9.92999 7.26999C9.69999 7.77999 9.58 8.32999 9.59 8.88999L9.60999 11.67" stroke="black" stroke-width="0.5" stroke-miterlimit="10"/>
<path d="M9.01001 1.47998V1.39998C9.01001 1.09998 8.77 0.859985 8.47 0.859985C8.17 0.859985 7.92999 1.09998 7.92999 1.39998V3.16998C7.92999 3.46998 8.17 3.70998 8.47 3.70998C8.54 3.70998 8.60998 3.69998 8.66998 3.66998" stroke="black" stroke-width="0.5" stroke-miterlimit="10"/>
<path d="M10.07 3.37C10.08 3.33 10.08 3.29 10.08 3.25V1.48C10.08 1.18 9.84001 0.940002 9.54001 0.940002C9.24001 0.940002 9 1.18 9 1.48V2.23" stroke="black" stroke-width="0.5" stroke-miterlimit="10"/>
<path d="M5.22998 4.5V4.86C5.22998 5.29 5.28998 5.72 5.41998 6.13L5.79001 7.34C5.97001 7.93 6.06 8.54 6.06 9.16V11.66" stroke="black" stroke-width="0.5" stroke-miterlimit="10"/>
<path d="M10.74 4.5H11.1" stroke="black" stroke-width="0.5" stroke-miterlimit="10"/>
</svg>
