<svg width="14" height="12" viewBox="0 0 14 12" fill="none" xmlns="http://www.w3.org/2000/svg">
<path d="M7.28999 9.21001C9.06282 9.21001 10.5 7.77284 10.5 6.00001C10.5 4.22717 9.06282 2.79001 7.28999 2.79001C5.51715 2.79001 4.07999 4.22717 4.07999 6.00001C4.07999 7.77284 5.51715 9.21001 7.28999 9.21001Z" stroke="black" stroke-width="0.5" stroke-miterlimit="10"/>
<path d="M2.26999 10.44C1.97999 10.44 1.73999 10.2 1.73999 9.91V5.28C1.73999 4.99 1.97999 4.75 2.26999 4.75C2.55999 4.75 2.79999 4.99 2.79999 5.28V9.91C2.79999 10.21 2.56999 10.44 2.26999 10.44Z" stroke="black" stroke-width="0.5" stroke-miterlimit="10"/>
<path d="M12.54 10.44C12.25 10.44 12.01 10.2 12.01 9.91V7.03C12.01 6.74 12.25 6.5 12.54 6.5C12.83 6.5 13.07 6.74 13.07 7.03V9.91C13.07 10.21 12.83 10.44 12.54 10.44Z" stroke="black" stroke-width="0.5" stroke-miterlimit="10"/>
<path d="M3.54999 1.33002V3.45002C3.54999 4.17002 2.95999 4.76002 2.23999 4.76002C1.51999 4.76002 0.929993 4.17002 0.929993 3.45002V1.33002" stroke="black" stroke-width="0.5" stroke-miterlimit="10"/>
<path d="M1.87999 1.33002V3.33002" stroke="black" stroke-width="0.5" stroke-miterlimit="10"/>
<path d="M2.7 1.33002V3.33002" stroke="black" stroke-width="0.5" stroke-miterlimit="10"/>
<path d="M12.76 1.5C12.64 1.5 12.53 1.6 12.45 1.81C12.45 1.81 11.86 3.34 11.6 5.66V6.08C11.6 6.31 11.79 6.5 12.02 6.5H12.66C12.89 6.5 13.08 6.31 13.08 6.08V1.81C13.07 1.64 12.93 1.5 12.76 1.5Z" stroke="black" stroke-width="0.5" stroke-miterlimit="10"/>
<path d="M11.13 8.86002C10.26 10.03 8.86 10.78 7.29 10.78C5.88 10.78 4.61 10.17 3.73 9.20002" stroke="black" stroke-width="0.5" stroke-miterlimit="10"/>
<path d="M4.42999 2.15001C5.22999 1.56001 6.21999 1.20001 7.28999 1.20001C8.87999 1.20001 10.28 1.97001 11.15 3.16001" stroke="black" stroke-width="0.5" stroke-miterlimit="10"/>
</svg>
