<svg width="11" height="12" viewBox="0 0 11 12" fill="none" xmlns="http://www.w3.org/2000/svg">
<path d="M6.01 2.54001C6.5181 2.54001 6.93 2.12811 6.93 1.62001C6.93 1.11191 6.5181 0.700012 6.01 0.700012C5.50189 0.700012 5.09 1.11191 5.09 1.62001C5.09 2.12811 5.50189 2.54001 6.01 2.54001Z" stroke="black" stroke-width="0.5" stroke-miterlimit="10"/>
<path d="M2.46 4.52C3.17245 4.52 3.75 3.94245 3.75 3.23C3.75 2.51755 3.17245 1.94 2.46 1.94C1.74755 1.94 1.17 2.51755 1.17 3.23C1.17 3.94245 1.74755 4.52 2.46 4.52Z" stroke="black" stroke-width="0.5" stroke-miterlimit="10"/>
<path d="M5.22 11.3C7.02597 11.3 8.49 9.83598 8.49 8.03001C8.49 6.22404 7.02597 4.76001 5.22 4.76001C3.41403 4.76001 1.95 6.22404 1.95 8.03001C1.95 9.83598 3.41403 11.3 5.22 11.3Z" stroke="black" stroke-width="0.5" stroke-miterlimit="10"/>
<path d="M5.12 5.74002C3.86 5.74002 2.83 6.76002 2.83 8.03002" stroke="black" stroke-width="0.5" stroke-miterlimit="10"/>
<path d="M9.01999 9.35C9.01999 8.9 9.38999 8.53 9.83999 8.53C10.29 8.53 10.66 8.82 10.66 9.35C10.66 10.11 9.01999 10.21 9.01999 11.29H10.85" stroke="black" stroke-width="0.5" stroke-miterlimit="10"/>
</svg>
