<svg width="12" height="12" viewBox="0 0 12 12" fill="none" xmlns="http://www.w3.org/2000/svg">
<path d="M2.53001 0.470001C2.68001 0.680001 2.81001 0.910001 2.92001 1.14C3.10001 1.5 3.20001 1.85 3.23001 2.25C3.29001 3.05 3.10001 3.87 2.70001 4.57C2.14001 5.53 1.77002 6.51 1.77002 7.63C1.77002 9.08 2.55002 11.59 2.55002 11.59" stroke="black" stroke-width="0.5" stroke-miterlimit="10"/>
<path d="M9.47002 0.470001C9.32002 0.680001 9.19002 0.910001 9.08002 1.14C8.90002 1.5 8.80003 1.85 8.77003 2.25C8.71003 3.05 8.90002 3.87 9.30002 4.57C9.86002 5.53 10.23 6.51 10.23 7.63C10.23 9.08 9.45002 11.59 9.45002 11.59" stroke="black" stroke-width="0.5" stroke-miterlimit="10"/>
<path d="M2.60001 4.75H9.42" stroke="black" stroke-width="0.5" stroke-miterlimit="10"/>
<path d="M5.5 11.59V8.66H6.47V11.59" stroke="black" stroke-width="0.5" stroke-miterlimit="10"/>
<path d="M5.5 8.66C3.83 6.69 1.89999 6.5 1.89999 6.5" stroke="black" stroke-width="0.5" stroke-miterlimit="10"/>
<path d="M6.47 8.66C8.14 6.69 10.07 6.5 10.07 6.5" stroke="black" stroke-width="0.5" stroke-miterlimit="10"/>
<path d="M5.99002 3.61999C6.11152 3.61999 6.21002 3.52149 6.21002 3.39999C6.21002 3.27849 6.11152 3.17999 5.99002 3.17999C5.86852 3.17999 5.77002 3.27849 5.77002 3.39999C5.77002 3.52149 5.86852 3.61999 5.99002 3.61999Z" stroke="black" stroke-width="0.5" stroke-miterlimit="10"/>
<path d="M1.32001 2.06L1.76001 2.5L1.32001 2.93" stroke="black" stroke-width="0.5" stroke-miterlimit="10"/>
<path d="M1.72 2.5H0.369995" stroke="black" stroke-width="0.5" stroke-miterlimit="10"/>
<path d="M10.67 2.93L10.24 2.5L10.67 2.06" stroke="black" stroke-width="0.5" stroke-miterlimit="10"/>
<path d="M10.28 2.5H11.63" stroke="black" stroke-width="0.5" stroke-miterlimit="10"/>
</svg>
