<svg width="10" height="12" viewBox="0 0 10 12" fill="none" xmlns="http://www.w3.org/2000/svg">
<path d="M2.81 6.11001C3.53 8.03001 5.62997 7.54001 5.62997 7.54001C5.62997 7.54001 7.28998 7.07001 7.22998 5.26001C7.16998 3.45001 6.60998 2.67001 5.56998 2.69001C4.51998 2.71001 3.90998 2.81001 3.63998 3.88001C3.36998 4.95001 2.86998 5.39001 2.34998 5.66001" stroke="black" stroke-width="0.5" stroke-miterlimit="10"/>
<path d="M1.26 9.03L1.01 8.69C0.889996 8.52 0.880017 8.29001 1.00002 8.11001L1.21001 7.80001C1.33001 7.61001 1.32001 7.36 1.18001 7.19L0.819994 6.76C0.659994 6.56 0.660013 6.27001 0.840013 6.09001L1.28002 5.60001C1.40002 5.46001 1.45 5.27001 1.39 5.09001L1.11 4.22001C1.03 3.97001 1.14999 3.70001 1.37999 3.59001L1.83 3.39001C2.05 3.29001 2.17001 3.05001 2.12001 2.81001L1.95 2.02001C1.89 1.74001 2.06999 1.46001 2.34999 1.41001L3.33 1.24001C3.44 1.22001 3.53 1.17001 3.61 1.09001L3.93001 0.740006C4.12001 0.540006 4.42999 0.520005 4.62999 0.710005L4.98 1.04001C5.13 1.18001 5.34001 1.21001 5.52001 1.13001L5.77001 1.02001C6.05001 0.890007 6.38 1.06001 6.45 1.37001L6.56999 1.87001C6.61999 2.08001 6.80001 2.24001 7.02001 2.26001L7.50002 2.30001C7.84002 2.33001 8.06 2.69001 7.92 3.02001C7.81 3.27001 7.91001 3.56001 8.15001 3.68001L8.61 3.91001C8.86 4.04001 8.96 4.35001 8.83 4.60001L8.50002 5.23001C8.39002 5.45001 8.43999 5.72001 8.62999 5.87001L9.14 6.28C9.39 6.48 9.39 6.88001 9.14 7.08001L8.8 7.35C8.57 7.53 8.54001 7.87001 8.74001 8.09001L9.14 8.53" stroke="black" stroke-width="0.5" stroke-miterlimit="10"/>
<path d="M4.07999 7.42999C4.07999 7.42999 4.16998 8.47999 3.09998 8.53999C2.02998 8.59999 1.55 9.42999 1.47 10.18C1.39 10.93 1.47 11.63 1.47 11.63" stroke="black" stroke-width="0.5" stroke-miterlimit="10"/>
<path d="M5.85003 7.45001C5.85003 7.45001 5.74005 8.45001 6.78005 8.57001C7.82005 8.69001 8.50005 9.22001 8.49005 10.09C8.48005 10.96 8.52004 11.6 8.52004 11.6" stroke="black" stroke-width="0.5" stroke-miterlimit="10"/>
<path d="M3.25 8.53C3.25 8.53 5.00999 10.88 6.85999 8.58" stroke="black" stroke-width="0.5" stroke-miterlimit="10"/>
</svg>
