<?xml version="1.0" encoding="utf-8"?>
<!-- Generator: Adobe Illustrator 19.0.0, SVG Export Plug-In . SVG Version: 6.00 Build 0)  -->
<svg version="1.1" id="bold" xmlns="http://www.w3.org/2000/svg" xmlns:xlink="http://www.w3.org/1999/xlink" x="0px" y="0px"
	 viewBox="-49 653 480 300" style="enable-background:new -49 653 480 300;" xml:space="preserve">
<style type="text/css">
	.st0{fill:#62a8ea;}
</style>
<g>
	<path class="st0" d="M415,953h-64c-8.8,0-16-7.2-16-16.1V669.1c0-8.9,7.2-16.1,16-16.1h64c8.8,0,16,7.2,16,16.1v267.9
		C431,945.8,423.8,953,415,953z"/>
</g>
<g>
	<path class="st0" d="M287,953h-64c-8.8,0-16-7.2-16-16.1v-225c0-8.9,7.2-16.1,16-16.1h64c8.8,0,16,7.2,16,16.1v225
		C303,945.8,295.8,953,287,953z"/>
</g>
<g>
	<path class="st0" d="M159,953H95c-8.8,0-16-7.2-16-16.1V776.2c0-8.9,7.2-16.1,16-16.1h64c8.8,0,16,7.2,16,16.1v160.7
		C175,945.8,167.8,953,159,953z"/>
</g>
<g>
	<path class="st0" d="M31,953h-64c-8.8,0-16-7.2-16-16.1v-96.4c0-8.9,7.2-16.1,16-16.1h64c8.8,0,16,7.2,16,16.1v96.4
		C47,945.8,39.8,953,31,953z"/>
</g>
</svg>
