<svg xmlns="http://www.w3.org/2000/svg" xmlns:xlink="http://www.w3.org/1999/xlink" preserveAspectRatio="xMidYMid" width="24" height="19" viewBox="0 0 24 19">
  <defs>
    <style>

      .cls-3 {
        fill: #d9d9d9;
      }

      .cls-4 {
        fill: #62a8ea;
      }
    </style>
  </defs>
  <g id="icon-down-2">
    <path d="M20.000,18.999 C20.000,18.999 16.000,14.999 16.000,14.999 C16.000,14.999 18.000,14.999 18.000,14.999 C18.000,14.999 18.000,-0.002 18.000,-0.002 C18.000,-0.002 22.000,-0.002 22.000,-0.002 C22.000,-0.002 22.000,14.999 22.000,14.999 C22.000,14.999 24.000,14.999 24.000,14.999 C24.000,14.999 20.000,18.999 20.000,18.999 ZM-0.000,7.999 C-0.000,7.999 2.000,7.999 2.000,7.999 C2.000,7.999 2.000,-0.002 2.000,-0.002 C2.000,-0.002 6.000,-0.002 6.000,-0.002 C6.000,-0.002 6.000,7.999 6.000,7.999 C6.000,7.999 8.000,7.999 8.000,7.999 C8.000,7.999 4.000,11.999 4.000,11.999 C4.000,11.999 -0.000,7.999 -0.000,7.999 Z" id="path-1" class="cls-3" fill-rule="evenodd"/>
    <path d="M12.000,15.999 C12.000,15.999 16.000,11.999 16.000,11.999 C16.000,11.999 14.000,11.999 14.000,11.999 C14.000,11.999 14.000,-0.002 14.000,-0.002 C14.000,-0.002 10.000,-0.002 10.000,-0.002 C10.000,-0.002 10.000,11.999 10.000,11.999 C10.000,11.999 8.000,11.999 8.000,11.999 C8.000,11.999 12.000,15.999 12.000,15.999 Z" id="path-2" class="cls-4" fill-rule="evenodd"/>
    <path d="M4.000,11.999 C4.000,11.999 8.000,7.999 8.000,7.999 C8.000,7.999 6.000,7.999 6.000,7.999 C6.000,7.999 6.000,-0.002 6.000,-0.002 C6.000,-0.002 2.000,-0.002 2.000,-0.002 C2.000,-0.002 2.000,7.999 2.000,7.999 C2.000,7.999 -0.000,7.999 -0.000,7.999 C-0.000,7.999 4.000,11.999 4.000,11.999 Z" id="path-3" class="cls-4" fill-rule="evenodd"/>
  </g>
</svg>
