<svg xmlns="http://www.w3.org/2000/svg" xmlns:xlink="http://www.w3.org/1999/xlink" preserveAspectRatio="xMidYMid" width="24" height="19" viewBox="0 0 24 19">
  <defs>
    <style>

      .cls-3 {
        fill: #d9d9d9;
      }

      .cls-4 {
        fill: #62a8ea;
      }
    </style>
  </defs>
  <g id="icon-up-2">
    <path d="M22.000,3.999 C22.000,3.999 22.000,18.998 22.000,18.998 C22.000,18.998 18.000,18.998 18.000,18.998 C18.000,18.998 18.000,3.999 18.000,3.999 C18.000,3.999 16.000,3.999 16.000,3.999 C16.000,3.999 20.000,-0.001 20.000,-0.001 C20.000,-0.001 24.000,3.999 24.000,3.999 C24.000,3.999 22.000,3.999 22.000,3.999 ZM14.000,6.999 C14.000,6.999 14.000,18.998 14.000,18.998 C14.000,18.998 10.000,18.998 10.000,18.998 C10.000,18.998 10.000,6.999 10.000,6.999 C10.000,6.999 8.000,6.999 8.000,6.999 C8.000,6.999 12.000,2.998 12.000,2.998 C12.000,2.998 16.000,6.999 16.000,6.999 C16.000,6.999 14.000,6.999 14.000,6.999 ZM6.000,10.998 C6.000,10.998 6.000,18.998 6.000,18.998 C6.000,18.998 2.000,18.998 2.000,18.998 C2.000,18.998 2.000,10.998 2.000,10.998 C2.000,10.998 -0.000,10.998 -0.000,10.998 C-0.000,10.998 4.000,6.999 4.000,6.999 C4.000,6.999 8.000,10.998 8.000,10.998 C8.000,10.998 6.000,10.998 6.000,10.998 Z" id="path-1" class="cls-3" fill-rule="evenodd"/>
    <path d="M14.000,6.999 C14.000,6.999 14.000,18.998 14.000,18.998 C14.000,18.998 10.000,18.998 10.000,18.998 C10.000,18.998 10.000,6.999 10.000,6.999 C10.000,6.999 8.000,6.999 8.000,6.999 C8.000,6.999 12.000,2.998 12.000,2.998 C12.000,2.998 16.000,6.999 16.000,6.999 C16.000,6.999 14.000,6.999 14.000,6.999 ZM6.000,10.998 C6.000,10.998 6.000,18.998 6.000,18.998 C6.000,18.998 2.000,18.998 2.000,18.998 C2.000,18.998 2.000,10.998 2.000,10.998 C2.000,10.998 -0.000,10.998 -0.000,10.998 C-0.000,10.998 4.000,6.999 4.000,6.999 C4.000,6.999 8.000,10.998 8.000,10.998 C8.000,10.998 6.000,10.998 6.000,10.998 Z" id="path-2" class="cls-4" fill-rule="evenodd"/>
  </g>
</svg>
