<svg width="300" height="400" viewBox="0 0 300 400" fill="none" xmlns="http://www.w3.org/2000/svg">
<rect width="300" height="400" fill="white"/>
<path d="M231.09 69.1599H69.19V83.3699H231.09V69.1599Z" fill="#D1D3D4"/>
<path d="M234.84 382.72H65.44C49.73 382.72 37 369.99 37 354.28V111.81C37 96.1001 49.73 83.3701 65.44 83.3701H234.84C250.55 83.3701 263.28 96.1001 263.28 111.81V354.28C263.28 369.99 250.55 382.72 234.84 382.72Z" fill="#EDF0F2" stroke="#D1D3D4" stroke-miterlimit="10"/>
<path d="M244.82 69.16H55.46V29.87C55.46 22.76 61.22 17 68.33 17H231.96C239.07 17 244.83 22.76 244.83 29.87V69.16H244.82Z" fill="#EDF0F2" stroke="#D1D3D4" stroke-miterlimit="10"/>
<path d="M244.83 71.3H55.46V79.8601H244.83V71.3Z" fill="#EDF0F2" stroke="#D1D3D4" stroke-miterlimit="10"/>
<path d="M106.677 243.684C112.847 243.684 116.948 240.043 116.948 234.558C116.948 229.738 113.582 226.269 108.899 226.269C106.233 226.269 104.336 227.448 103.447 229.277H103.311L103.687 223.808H115.359V218.339H98.1152L97.0215 232.917H103.362C104.08 231.789 105.327 231.123 106.729 231.123C108.796 231.123 110.164 232.575 110.164 234.729C110.164 236.779 108.779 238.215 106.729 238.215C104.9 238.215 103.43 237.155 103.14 235.634H96.6284C96.6626 240.351 100.815 243.684 106.677 243.684ZM131.577 235.925V229.978H120.315V235.925H131.577ZM158.801 243V218.339H151.555V227.705H142.874V218.339H135.627V243H142.874V233.464H151.555V243H158.801ZM175.02 243V224.099H181.514V218.339H161.279V224.099H167.773V243H175.02ZM183.992 218.339V243H191.238V236.267H194.758C200.518 236.267 204.431 232.763 204.431 227.329C204.431 221.843 200.74 218.339 195.254 218.339H183.992ZM191.238 223.791H193.323C195.681 223.791 197.117 225.004 197.117 227.346C197.117 229.704 195.681 230.917 193.271 230.917H191.238V223.791Z" fill="#4B87CE"/>
</svg>
