<svg width="300" height="400" viewBox="0 0 300 400" fill="none" xmlns="http://www.w3.org/2000/svg">
<rect width="300" height="400" fill="white"/>
<path d="M231.09 69.1599H69.19V83.3699H231.09V69.1599Z" fill="#D1D3D4"/>
<path d="M234.84 382.72H65.44C49.73 382.72 37 369.99 37 354.28V111.81C37 96.1001 49.73 83.3701 65.44 83.3701H234.84C250.55 83.3701 263.28 96.1001 263.28 111.81V354.28C263.28 369.99 250.55 382.72 234.84 382.72Z" fill="#EDF0F2" stroke="#D1D3D4" stroke-miterlimit="10"/>
<path d="M244.82 69.16H55.46V29.87C55.46 22.76 61.22 17 68.33 17H231.96C239.07 17 244.83 22.76 244.83 29.87V69.16H244.82Z" fill="#EDF0F2" stroke="#D1D3D4" stroke-miterlimit="10"/>
<path d="M244.83 71.3H55.46V79.8601H244.83V71.3Z" fill="#EDF0F2" stroke="#D1D3D4" stroke-miterlimit="10"/>
<path d="M125.203 243H132.927L124.878 218.339H115.786L107.737 243H115.12L116.401 238.095H123.921L125.203 243ZM120.093 224.03H120.229L122.605 232.985H117.717L120.093 224.03ZM145.078 243.427C151.726 243.427 156.528 239.206 156.562 233.054H149.624C149.402 235.908 147.59 237.736 145.095 237.736C142.087 237.736 140.225 235.104 140.225 230.644C140.225 226.235 142.104 223.603 145.078 223.603C147.59 223.603 149.419 225.466 149.59 228.269H156.528C156.511 222.15 151.589 217.912 145.078 217.912C137.542 217.912 132.842 222.526 132.842 230.661C132.842 238.796 137.524 243.427 145.078 243.427ZM173.875 243H181.599L173.55 218.339H164.458L156.409 243H163.792L165.073 238.095H172.593L173.875 243ZM168.765 224.03H168.901L171.277 232.985H166.389L168.765 224.03ZM191.067 243V218.339H183.821V243H191.067Z" fill="#434F77"/>
</svg>
