<svg width="300" height="400" viewBox="0 0 300 400" fill="none" xmlns="http://www.w3.org/2000/svg">
<rect width="300" height="400" fill="white"/>
<path d="M231.09 69.1599H69.19V83.3699H231.09V69.1599Z" fill="#D1D3D4"/>
<path d="M234.84 382.72H65.44C49.73 382.72 37 369.99 37 354.28V111.81C37 96.1001 49.73 83.3701 65.44 83.3701H234.84C250.55 83.3701 263.28 96.1001 263.28 111.81V354.28C263.28 369.99 250.55 382.72 234.84 382.72Z" fill="#EDF0F2" stroke="#D1D3D4" stroke-miterlimit="10"/>
<path d="M244.82 69.16H55.46V29.87C55.46 22.76 61.22 17 68.33 17H231.96C239.07 17 244.83 22.76 244.83 29.87V69.16H244.82Z" fill="#EDF0F2" stroke="#D1D3D4" stroke-miterlimit="10"/>
<path d="M244.83 71.3H55.46V79.8601H244.83V71.3Z" fill="#EDF0F2" stroke="#D1D3D4" stroke-miterlimit="10"/>
<path d="M76.1206 243H83.8452L75.7959 218.339H66.7041L58.6548 243H66.0376L67.3193 238.095H74.8389L76.1206 243ZM71.0107 224.03H71.1475L73.5229 232.985H68.6353L71.0107 224.03ZM107.634 232.507V229.26H96.9019V234.079H100.662L100.627 234.421C100.422 236.403 98.7476 237.719 96.3892 237.719C93.2104 237.719 91.1426 235.036 91.1426 230.542C91.1426 226.149 92.9541 223.62 96.0303 223.62C98.1152 223.62 99.7388 224.799 100.217 226.611H107.344C106.797 221.552 102.183 217.912 95.9961 217.912C88.3911 217.912 83.7598 222.561 83.7598 230.644C83.7598 238.83 88.3911 243.427 96.2183 243.427C103.379 243.427 107.634 239.257 107.634 232.507ZM138.413 243V218.339H130.039L124.536 232.729H124.399L118.879 218.339H110.505V243H116.829V228.713H116.965L122.52 242.709H126.399L131.953 228.713H132.09V243H138.413ZM158.118 243H165.842L157.793 218.339H148.701L140.652 243H148.035L149.316 238.095H156.836L158.118 243ZM153.008 224.03H153.145L155.52 232.985H150.632L153.008 224.03ZM177.617 243V224.099H184.111V218.339H163.877V224.099H170.371V243H177.617ZM193.835 243V218.339H186.589V243H193.835ZM204.089 243V230.012H204.226L213.813 243H219.368V218.339H212.532V231.123H212.395L202.876 218.339H197.253V243H204.089ZM240.183 237.241H230.032V233.276H239.551V228.081H230.032V224.099H240.183V218.339H222.786V243H240.183V237.241Z" fill="#636A73"/>
</svg>
