<svg width="300" height="400" viewBox="0 0 300 400" fill="none" xmlns="http://www.w3.org/2000/svg">
<rect width="300" height="400" fill="white"/>
<path d="M231.09 69.1599H69.19V83.3699H231.09V69.1599Z" fill="#D1D3D4"/>
<path d="M234.84 382.72H65.44C49.73 382.72 37 369.99 37 354.28V111.81C37 96.1001 49.73 83.3701 65.44 83.3701H234.84C250.55 83.3701 263.28 96.1001 263.28 111.81V354.28C263.28 369.99 250.55 382.72 234.84 382.72Z" fill="#EDF0F2" stroke="#D1D3D4" stroke-miterlimit="10"/>
<path d="M244.82 69.16H55.46V29.87C55.46 22.76 61.22 17 68.33 17H231.96C239.07 17 244.83 22.76 244.83 29.87V69.16H244.82Z" fill="#EDF0F2" stroke="#D1D3D4" stroke-miterlimit="10"/>
<path d="M244.83 71.3H55.46V79.8601H244.83V71.3Z" fill="#EDF0F2" stroke="#D1D3D4" stroke-miterlimit="10"/>
<path d="M121.631 222H129.355L121.306 197.339H112.214L104.165 222H111.548L112.83 217.095H120.349L121.631 222ZM116.521 203.03H116.658L119.033 211.985H114.146L116.521 203.03ZM148.496 216.241H138.823V197.339H131.577V222H148.496V216.241ZM162.031 196.912C154.409 196.912 149.607 201.8 149.607 209.678C149.607 217.557 154.392 222.427 162.031 222.427C169.653 222.427 174.456 217.557 174.456 209.678C174.456 201.8 169.653 196.912 162.031 196.912ZM162.031 202.688C165.056 202.688 167.073 205.406 167.073 209.678C167.073 213.934 165.073 216.651 162.031 216.651C158.989 216.651 156.99 213.934 156.99 209.678C156.99 205.406 159.006 202.688 162.031 202.688ZM194.673 216.241H184.521V212.276H194.041V207.081H184.521V203.099H194.673V197.339H177.275V222H194.673V216.241ZM119.272 264L126.758 239.339H118.76L114.812 257.13H114.675L110.728 239.339H102.388L109.873 264H119.272ZM146.377 258.241H136.226V254.276H145.745V249.081H136.226V245.099H146.377V239.339H128.979V264H146.377V258.241ZM157.007 244.688H160.015C161.963 244.688 163.279 246.004 163.279 247.833C163.279 249.696 162.031 250.943 159.998 250.943H157.007V244.688ZM157.007 255.729H159.382L163.279 264H171.379L166.697 254.652C169.277 253.421 170.679 250.619 170.679 247.713C170.679 242.433 167.295 239.339 160.715 239.339H149.761V264H157.007V255.729ZM189.888 264H197.612L189.563 239.339H180.471L172.422 264H179.805L181.086 259.095H188.606L189.888 264ZM184.778 245.03H184.915L187.29 253.985H182.402L184.778 245.03Z" fill="#569770"/>
</svg>
