<svg width="300" height="400" viewBox="0 0 300 400" fill="none" xmlns="http://www.w3.org/2000/svg">
<rect width="300" height="400" fill="white"/>
<path d="M231.09 69.1599H69.1899V83.3699H231.09V69.1599Z" fill="#D1D3D4"/>
<path d="M234.84 382.72H65.44C49.73 382.72 37 369.99 37 354.28V111.81C37 96.1001 49.73 83.3701 65.44 83.3701H234.84C250.55 83.3701 263.28 96.1001 263.28 111.81V354.28C263.28 369.99 250.55 382.72 234.84 382.72Z" fill="#EDF0F2" stroke="#D1D3D4" stroke-miterlimit="10"/>
<path d="M244.82 69.16H55.46V29.87C55.46 22.76 61.22 17 68.33 17H231.96C239.07 17 244.83 22.76 244.83 29.87V69.16H244.82Z" fill="#EDF0F2" stroke="#D1D3D4" stroke-miterlimit="10"/>
<path d="M244.83 71.3H55.46V79.8601H244.83V71.3Z" fill="#EDF0F2" stroke="#D1D3D4" stroke-miterlimit="10"/>
<path d="M99.6875 201H107.412L99.3628 176.339H90.271L82.2217 201H89.6045L90.8862 196.095H98.4058L99.6875 201ZM94.5776 182.03H94.7144L97.0898 190.985H92.2021L94.5776 182.03ZM126.553 195.241H116.88V176.339H109.634V201H126.553V195.241ZM129.287 176.339V201H136.533V194.267H140.054C145.813 194.267 149.727 190.763 149.727 185.329C149.727 179.843 146.035 176.339 140.549 176.339H129.287ZM136.533 181.791H138.618C140.977 181.791 142.412 183.004 142.412 185.346C142.412 187.704 140.977 188.917 138.567 188.917H136.533V181.791ZM175.464 201V176.339H168.218V185.705H159.536V176.339H152.29V201H159.536V191.464H168.218V201H175.464ZM195.151 201H202.876L194.827 176.339H185.735L177.686 201H185.068L186.35 196.095H193.87L195.151 201ZM190.042 182.03H190.178L192.554 190.985H187.666L190.042 182.03ZM215.95 193.925V187.978H204.688V193.925H215.95ZM106.831 237.241H97.1582V218.339H89.9121V243H106.831V237.241ZM116.812 243V218.339H109.565V243H116.812ZM120.229 218.339V243H127.476V236.267H130.996C136.755 236.267 140.669 232.763 140.669 227.329C140.669 221.843 136.978 218.339 131.492 218.339H120.229ZM127.476 223.791H129.561C131.919 223.791 133.354 225.004 133.354 227.346C133.354 229.704 131.919 230.917 129.509 230.917H127.476V223.791ZM155.059 217.912C147.437 217.912 142.634 222.8 142.634 230.678C142.634 238.557 147.419 243.427 155.059 243.427C162.681 243.427 167.483 238.557 167.483 230.678C167.483 222.8 162.681 217.912 155.059 217.912ZM155.059 223.688C158.083 223.688 160.1 226.406 160.1 230.678C160.1 234.934 158.101 237.651 155.059 237.651C152.017 237.651 150.017 234.934 150.017 230.678C150.017 226.406 152.034 223.688 155.059 223.688ZM177.549 243V218.339H170.303V243H177.549ZM192.605 243.427C199.253 243.427 204.055 239.206 204.089 233.054H197.151C196.929 235.908 195.117 237.736 192.622 237.736C189.614 237.736 187.751 235.104 187.751 230.644C187.751 226.235 189.631 223.603 192.605 223.603C195.117 223.603 196.946 225.466 197.117 228.269H204.055C204.038 222.15 199.116 217.912 192.605 217.912C185.068 217.912 180.369 222.526 180.369 230.661C180.369 238.796 185.051 243.427 192.605 243.427ZM124.827 285H132.551L124.502 260.339H115.41L107.361 285H114.744L116.025 280.095H123.545L124.827 285ZM119.717 266.03H119.854L122.229 274.985H117.341L119.717 266.03ZM144.702 285.427C151.35 285.427 156.152 281.206 156.187 275.054H149.248C149.026 277.908 147.214 279.736 144.719 279.736C141.711 279.736 139.849 277.104 139.849 272.644C139.849 268.235 141.729 265.603 144.702 265.603C147.214 265.603 149.043 267.466 149.214 270.269H156.152C156.135 264.15 151.213 259.912 144.702 259.912C137.166 259.912 132.466 264.526 132.466 272.661C132.466 280.796 137.148 285.427 144.702 285.427ZM166.184 285V260.339H158.938V285H166.184ZM169.602 260.339V285H180.146C187.615 285 192.024 280.386 192.024 272.49C192.024 264.595 187.632 260.339 180.146 260.339H169.602ZM176.848 266.099H179.121C182.59 266.099 184.641 268.337 184.641 272.49C184.641 277.036 182.744 279.241 179.121 279.241H176.848V266.099Z" fill="#B4AF97"/>
</svg>
