<svg width="300" height="400" viewBox="0 0 300 400" fill="none" xmlns="http://www.w3.org/2000/svg">
<rect width="300" height="400" fill="white"/>
<path d="M231.09 69.1599H69.1899V83.3699H231.09V69.1599Z" fill="#D1D3D4"/>
<path d="M234.84 382.72H65.44C49.73 382.72 37 369.99 37 354.28V111.81C37 96.1001 49.73 83.3701 65.44 83.3701H234.84C250.55 83.3701 263.28 96.1001 263.28 111.81V354.28C263.28 369.99 250.55 382.72 234.84 382.72Z" fill="#EDF0F2" stroke="#D1D3D4" stroke-miterlimit="10"/>
<path d="M244.82 69.16H55.46V29.87C55.46 22.76 61.22 17 68.33 17H231.96C239.07 17 244.83 22.76 244.83 29.87V69.16H244.82Z" fill="#EDF0F2" stroke="#D1D3D4" stroke-miterlimit="10"/>
<path d="M244.83 71.3H55.46V79.8601H244.83V71.3Z" fill="#EDF0F2" stroke="#D1D3D4" stroke-miterlimit="10"/>
<path d="M99.6875 222H107.412L99.3628 197.339H90.271L82.2217 222H89.6045L90.8862 217.095H98.4058L99.6875 222ZM94.5776 203.03H94.7144L97.0898 211.985H92.2021L94.5776 203.03ZM126.553 216.241H116.88V197.339H109.634V222H126.553V216.241ZM129.287 197.339V222H136.533V215.267H140.054C145.813 215.267 149.727 211.763 149.727 206.329C149.727 200.843 146.035 197.339 140.549 197.339H129.287ZM136.533 202.791H138.618C140.977 202.791 142.412 204.004 142.412 206.346C142.412 208.704 140.977 209.917 138.567 209.917H136.533V202.791ZM175.464 222V197.339H168.218V206.705H159.536V197.339H152.29V222H159.536V212.464H168.218V222H175.464ZM195.151 222H202.876L194.827 197.339H185.735L177.686 222H185.068L186.35 217.095H193.87L195.151 222ZM190.042 203.03H190.178L192.554 211.985H187.666L190.042 203.03ZM215.95 214.925V208.978H204.688V214.925H215.95ZM137.473 253.507V250.26H126.741V255.079H130.5L130.466 255.421C130.261 257.403 128.586 258.719 126.228 258.719C123.049 258.719 120.981 256.036 120.981 251.542C120.981 247.149 122.793 244.62 125.869 244.62C127.954 244.62 129.578 245.799 130.056 247.611H137.183C136.636 242.552 132.021 238.912 125.835 238.912C118.23 238.912 113.599 243.561 113.599 251.644C113.599 259.83 118.23 264.427 126.057 264.427C133.218 264.427 137.473 260.257 137.473 253.507ZM140.344 239.339V264H147.59V257.267H151.111C156.87 257.267 160.784 253.763 160.784 248.329C160.784 242.843 157.092 239.339 151.606 239.339H140.344ZM147.59 244.791H149.675C152.034 244.791 153.469 246.004 153.469 248.346C153.469 250.704 152.034 251.917 149.624 251.917H147.59V244.791ZM174.985 264.427C181.633 264.427 186.436 260.206 186.47 254.054H179.531C179.309 256.908 177.498 258.736 175.002 258.736C171.995 258.736 170.132 256.104 170.132 251.644C170.132 247.235 172.012 244.603 174.985 244.603C177.498 244.603 179.326 246.466 179.497 249.269H186.436C186.418 243.15 181.497 238.912 174.985 238.912C167.449 238.912 162.749 243.526 162.749 251.661C162.749 259.796 167.432 264.427 174.985 264.427Z" fill="#574FBA"/>
</svg>
