<svg width="300" height="400" viewBox="0 0 300 400" fill="none" xmlns="http://www.w3.org/2000/svg">
<rect width="300" height="400" fill="white"/>
<path d="M231.09 69.1599H69.1899V83.3699H231.09V69.1599Z" fill="#D1D3D4"/>
<path d="M234.84 382.72H65.44C49.73 382.72 37 369.99 37 354.28V111.81C37 96.1001 49.73 83.3701 65.44 83.3701H234.84C250.55 83.3701 263.28 96.1001 263.28 111.81V354.28C263.28 369.99 250.55 382.72 234.84 382.72Z" fill="#EDF0F2" stroke="#D1D3D4" stroke-miterlimit="10"/>
<path d="M244.82 69.16H55.46V29.87C55.46 22.76 61.22 17 68.33 17H231.96C239.07 17 244.83 22.76 244.83 29.87V69.16H244.82Z" fill="#EDF0F2" stroke="#D1D3D4" stroke-miterlimit="10"/>
<path d="M244.83 71.3H55.46V79.8601H244.83V71.3Z" fill="#EDF0F2" stroke="#D1D3D4" stroke-miterlimit="10"/>
<path d="M83.2812 243H91.0059L82.9565 218.339H73.8647L65.8154 243H73.1982L74.48 238.095H81.9995L83.2812 243ZM78.1714 224.03H78.3081L80.6836 232.985H75.7959L78.1714 224.03ZM100.474 223.688H103.481C105.43 223.688 106.746 225.004 106.746 226.833C106.746 228.696 105.498 229.943 103.464 229.943H100.474V223.688ZM100.474 234.729H102.849L106.746 243H114.846L110.164 233.652C112.744 232.421 114.146 229.619 114.146 226.713C114.146 221.433 110.762 218.339 104.182 218.339H93.2275V243H100.474V234.729ZM140.361 232.507V229.26H129.629V234.079H133.389L133.354 234.421C133.149 236.403 131.475 237.719 129.116 237.719C125.938 237.719 123.87 235.036 123.87 230.542C123.87 226.149 125.681 223.62 128.757 223.62C130.842 223.62 132.466 224.799 132.944 226.611H140.071C139.524 221.552 134.91 217.912 128.723 217.912C121.118 217.912 116.487 222.561 116.487 230.644C116.487 238.83 121.118 243.427 128.945 243.427C136.106 243.427 140.361 239.257 140.361 232.507ZM150.479 243V218.339H143.232V243H150.479ZM160.732 243V230.012H160.869L170.457 243H176.011V218.339H169.175V231.123H169.038L159.519 218.339H153.896V243H160.732ZM186.675 243V218.339H179.429V243H186.675ZM196.929 243V230.012H197.065L206.653 243H212.207V218.339H205.371V231.123H205.234L195.715 218.339H190.093V243H196.929ZM233.022 237.241H222.871V233.276H232.39V228.081H222.871V224.099H233.022V218.339H215.625V243H233.022V237.241Z" fill="#EC6363"/>
</svg>
