<svg width="300" height="400" viewBox="0 0 300 400" fill="none" xmlns="http://www.w3.org/2000/svg">
<rect width="300" height="400" fill="white"/>
<path d="M231.09 69.1599H69.1899V83.3699H231.09V69.1599Z" fill="#D1D3D4"/>
<path d="M234.84 382.72H65.44C49.73 382.72 37 369.99 37 354.28V111.81C37 96.1001 49.73 83.3701 65.44 83.3701H234.84C250.55 83.3701 263.28 96.1001 263.28 111.81V354.28C263.28 369.99 250.55 382.72 234.84 382.72Z" fill="#EDF0F2" stroke="#D1D3D4" stroke-miterlimit="10"/>
<path d="M244.82 69.16H55.46V29.87C55.46 22.76 61.22 17 68.33 17H231.96C239.07 17 244.83 22.76 244.83 29.87V69.16H244.82Z" fill="#EDF0F2" stroke="#D1D3D4" stroke-miterlimit="10"/>
<path d="M244.83 71.3H55.46V79.8601H244.83V71.3Z" fill="#EDF0F2" stroke="#D1D3D4" stroke-miterlimit="10"/>
<path d="M93.3984 222H101.123L93.0737 197.339H83.9819L75.9326 222H83.3154L84.5972 217.095H92.1167L93.3984 222ZM88.2886 203.03H88.4253L90.8008 211.985H85.9131L88.2886 203.03ZM101.636 214.737C101.653 219.659 105.601 222.427 112.214 222.427C118.777 222.427 122.998 219.214 122.998 214.173C122.998 210.174 120.759 207.901 115.974 207.063L112.59 206.482C110.249 206.072 109.241 205.457 109.241 204.278C109.241 203.047 110.437 202.261 112.334 202.261C114.282 202.261 115.803 203.167 115.854 204.705H122.468C122.434 199.92 118.76 196.912 112.197 196.912C106.318 196.912 102.046 200.057 102.046 205.047C102.046 208.909 104.507 211.507 109.036 212.293L112.3 212.874C114.949 213.353 115.854 213.848 115.854 214.993C115.854 216.189 114.521 217.061 112.351 217.061C110.403 217.061 108.694 216.138 108.489 214.737H101.636ZM148.906 222V197.339H141.66V206.705H132.979V197.339H125.732V222H132.979V212.464H141.66V222H148.906ZM168.167 207.884H168.303L171.978 222H178.813L185.171 197.339H177.686L174.849 212.925H174.712L171.038 197.339H165.432L161.758 212.925H161.621L158.784 197.339H151.299L157.656 222H164.492L168.167 207.884ZM201.44 222H209.165L201.116 197.339H192.024L183.975 222H191.357L192.639 217.095H200.159L201.44 222ZM196.331 203.03H196.467L198.843 211.985H193.955L196.331 203.03ZM222.239 214.925V208.978H210.977V214.925H222.239ZM97.688 253.507V250.26H86.9556V255.079H90.7153L90.6812 255.421C90.4761 257.403 88.8013 258.719 86.4429 258.719C83.2642 258.719 81.1963 256.036 81.1963 251.542C81.1963 247.149 83.0078 244.62 86.084 244.62C88.1689 244.62 89.7925 245.799 90.271 247.611H97.3975C96.8506 242.552 92.2363 238.912 86.0498 238.912C78.4448 238.912 73.8135 243.561 73.8135 251.644C73.8135 259.83 78.4448 264.427 86.272 264.427C93.4326 264.427 97.688 260.257 97.688 253.507ZM115.461 264H123.186L115.137 239.339H106.045L97.9956 264H105.378L106.66 259.095H114.18L115.461 264ZM110.352 245.03H110.488L112.864 253.985H107.976L110.352 245.03ZM132.244 264V251.012H132.38L141.968 264H147.522V239.339H140.686V252.123H140.549L131.03 239.339H125.408V264H132.244ZM150.94 239.339V264H161.484C168.953 264 173.362 259.386 173.362 251.49C173.362 243.595 168.97 239.339 161.484 239.339H150.94ZM158.186 245.099H160.459C163.928 245.099 165.979 247.337 165.979 251.49C165.979 256.036 164.082 258.241 160.459 258.241H158.186V245.099ZM199.373 264V239.339H192.126V248.705H183.445V239.339H176.199V264H183.445V254.464H192.126V264H199.373ZM219.06 264H226.785L218.735 239.339H209.644L201.594 264H208.977L210.259 259.095H217.778L219.06 264ZM213.95 245.03H214.087L216.462 253.985H211.575L213.95 245.03Z" fill="#C5A15B"/>
</svg>
