<svg width="300" height="400" viewBox="0 0 300 400" fill="none" xmlns="http://www.w3.org/2000/svg">
<rect width="300" height="400" fill="white"/>
<path d="M231.09 69.1599H69.1899V83.3699H231.09V69.1599Z" fill="#D1D3D4"/>
<path d="M234.84 382.72H65.44C49.73 382.72 37 369.99 37 354.28V111.81C37 96.1001 49.73 83.3701 65.44 83.3701H234.84C250.55 83.3701 263.28 96.1001 263.28 111.81V354.28C263.28 369.99 250.55 382.72 234.84 382.72Z" fill="#EDF0F2" stroke="#D1D3D4" stroke-miterlimit="10"/>
<path d="M244.82 69.16H55.46V29.87C55.46 22.76 61.22 17 68.33 17H231.96C239.07 17 244.83 22.76 244.83 29.87V69.16H244.82Z" fill="#EDF0F2" stroke="#D1D3D4" stroke-miterlimit="10"/>
<path d="M244.83 71.3H55.46V79.8601H244.83V71.3Z" fill="#EDF0F2" stroke="#D1D3D4" stroke-miterlimit="10"/>
<path d="M100.303 201H108.027L99.978 176.339H90.8862L82.8369 201H90.2197L91.5015 196.095H99.021L100.303 201ZM95.1929 182.03H95.3296L97.7051 190.985H92.8174L95.1929 182.03ZM108.54 193.737C108.557 198.659 112.505 201.427 119.119 201.427C125.681 201.427 129.902 198.214 129.902 193.173C129.902 189.174 127.664 186.901 122.878 186.063L119.495 185.482C117.153 185.072 116.145 184.457 116.145 183.278C116.145 182.047 117.341 181.261 119.238 181.261C121.187 181.261 122.708 182.167 122.759 183.705H129.373C129.338 178.92 125.664 175.912 119.102 175.912C113.223 175.912 108.95 179.057 108.95 184.047C108.95 187.909 111.411 190.507 115.94 191.293L119.204 191.874C121.853 192.353 122.759 192.848 122.759 193.993C122.759 195.189 121.426 196.061 119.255 196.061C117.307 196.061 115.598 195.138 115.393 193.737H108.54ZM145.437 201V182.099H151.931V176.339H131.697V182.099H138.191V201H145.437ZM161.655 181.688H164.663C166.611 181.688 167.927 183.004 167.927 184.833C167.927 186.696 166.68 187.943 164.646 187.943H161.655V181.688ZM161.655 192.729H164.031L167.927 201H176.028L171.345 191.652C173.926 190.421 175.327 187.619 175.327 184.713C175.327 179.433 171.943 176.339 165.364 176.339H154.409V201H161.655V192.729ZM194.536 201H202.261L194.211 176.339H185.12L177.07 201H184.453L185.735 196.095H193.254L194.536 201ZM189.426 182.03H189.563L191.938 190.985H187.051L189.426 182.03ZM215.334 193.925V187.978H204.072V193.925H215.334ZM115.547 232.507V229.26H104.814V234.079H108.574L108.54 234.421C108.335 236.403 106.66 237.719 104.302 237.719C101.123 237.719 99.0552 235.036 99.0552 230.542C99.0552 226.149 100.867 223.62 103.943 223.62C106.028 223.62 107.651 224.799 108.13 226.611H115.256C114.709 221.552 110.095 217.912 103.909 217.912C96.3037 217.912 91.6724 222.561 91.6724 230.644C91.6724 238.83 96.3037 243.427 104.131 243.427C111.292 243.427 115.547 239.257 115.547 232.507ZM133.32 243H141.045L132.996 218.339H123.904L115.854 243H123.237L124.519 238.095H132.039L133.32 243ZM128.21 224.03H128.347L130.723 232.985H125.835L128.21 224.03ZM160.186 237.241H150.513V218.339H143.267V243H160.186V237.241ZM169.824 218.339H162.578V234.216C162.578 239.838 166.936 243.427 173.447 243.427C179.958 243.427 184.316 239.838 184.316 234.216V218.339H177.07V233.413C177.07 236.01 175.789 237.429 173.447 237.429C171.106 237.429 169.824 236.01 169.824 233.413V218.339ZM187.051 235.737C187.068 240.659 191.016 243.427 197.629 243.427C204.192 243.427 208.413 240.214 208.413 235.173C208.413 231.174 206.174 228.901 201.389 228.063L198.005 227.482C195.664 227.072 194.656 226.457 194.656 225.278C194.656 224.047 195.852 223.261 197.749 223.261C199.697 223.261 201.218 224.167 201.27 225.705H207.883C207.849 220.92 204.175 217.912 197.612 217.912C191.733 217.912 187.461 221.057 187.461 226.047C187.461 229.909 189.922 232.507 194.451 233.293L197.715 233.874C200.364 234.353 201.27 234.848 201.27 235.993C201.27 237.189 199.937 238.061 197.766 238.061C195.818 238.061 194.109 237.138 193.904 235.737H187.051ZM109.668 265.688H112.676C114.624 265.688 115.94 267.004 115.94 268.833C115.94 270.696 114.692 271.943 112.659 271.943H109.668V265.688ZM109.668 276.729H112.043L115.94 285H124.041L119.358 275.652C121.938 274.421 123.34 271.619 123.34 268.713C123.34 263.433 119.956 260.339 113.376 260.339H102.422V285H109.668V276.729ZM138.105 259.912C130.483 259.912 125.681 264.8 125.681 272.678C125.681 280.557 130.466 285.427 138.105 285.427C145.728 285.427 150.53 280.557 150.53 272.678C150.53 264.8 145.728 259.912 138.105 259.912ZM138.105 265.688C141.13 265.688 143.147 268.406 143.147 272.678C143.147 276.934 141.147 279.651 138.105 279.651C135.063 279.651 133.064 276.934 133.064 272.678C133.064 268.406 135.081 265.688 138.105 265.688ZM165.176 259.912C157.554 259.912 152.751 264.8 152.751 272.678C152.751 280.557 157.537 285.427 165.176 285.427C172.798 285.427 177.6 280.557 177.6 272.678C177.6 264.8 172.798 259.912 165.176 259.912ZM165.176 265.688C168.201 265.688 170.217 268.406 170.217 272.678C170.217 276.934 168.218 279.651 165.176 279.651C162.134 279.651 160.134 276.934 160.134 272.678C160.134 268.406 162.151 265.688 165.176 265.688ZM192.024 285V266.099H198.518V260.339H178.284V266.099H184.778V285H192.024Z" fill="#A36981"/>
</svg>
