<svg width="300" height="400" viewBox="0 0 300 400" fill="none" xmlns="http://www.w3.org/2000/svg">
<rect width="300" height="400" fill="white"/>
<path d="M231.09 69.1599H69.1899V83.3699H231.09V69.1599Z" fill="#D1D3D4"/>
<path d="M234.84 382.72H65.44C49.73 382.72 37 369.99 37 354.28V111.81C37 96.1001 49.73 83.3701 65.44 83.3701H234.84C250.55 83.3701 263.28 96.1001 263.28 111.81V354.28C263.28 369.99 250.55 382.72 234.84 382.72Z" fill="#EDF0F2" stroke="#D1D3D4" stroke-miterlimit="10"/>
<path d="M244.82 69.16H55.46V29.87C55.46 22.76 61.22 17 68.33 17H231.96C239.07 17 244.83 22.76 244.83 29.87V69.16H244.82Z" fill="#EDF0F2" stroke="#D1D3D4" stroke-miterlimit="10"/>
<path d="M244.83 71.3H55.46V79.8601H244.83V71.3Z" fill="#EDF0F2" stroke="#D1D3D4" stroke-miterlimit="10"/>
<path d="M90.459 243C95.7397 243 99.1577 240.146 99.1577 235.822C99.1577 232.558 96.3721 230.046 93.0396 229.96V229.824C95.8936 229.465 98.0469 227.329 98.0469 224.492C98.0469 220.646 95.0903 218.339 90.0488 218.339H77.9321V243H90.459ZM85.1782 223.312H88.0835C89.9121 223.312 91.0059 224.235 91.0059 225.756C91.0059 227.243 89.8438 228.217 87.981 228.217H85.1782V223.312ZM85.1782 238.027V232.37H88.3228C90.4932 232.37 91.792 233.396 91.792 235.156C91.792 237.019 90.5103 238.027 88.2715 238.027H85.1782ZM117.82 243H125.544L117.495 218.339H108.403L100.354 243H107.737L109.019 238.095H116.538L117.82 243ZM112.71 224.03H112.847L115.222 232.985H110.334L112.71 224.03ZM137.695 243.427C144.343 243.427 149.146 239.206 149.18 233.054H142.241C142.019 235.908 140.208 237.736 137.712 237.736C134.705 237.736 132.842 235.104 132.842 230.644C132.842 226.235 134.722 223.603 137.695 223.603C140.208 223.603 142.036 225.466 142.207 228.269H149.146C149.128 222.15 144.207 217.912 137.695 217.912C130.159 217.912 125.459 222.526 125.459 230.661C125.459 238.796 130.142 243.427 137.695 243.427ZM163.757 217.912C156.135 217.912 151.333 222.8 151.333 230.678C151.333 238.557 156.118 243.427 163.757 243.427C171.379 243.427 176.182 238.557 176.182 230.678C176.182 222.8 171.379 217.912 163.757 217.912ZM163.757 223.688C166.782 223.688 168.799 226.406 168.799 230.678C168.799 234.934 166.799 237.651 163.757 237.651C160.715 237.651 158.716 234.934 158.716 230.678C158.716 226.406 160.732 223.688 163.757 223.688ZM179.001 218.339V243H186.248V236.267H189.768C195.527 236.267 199.441 232.763 199.441 227.329C199.441 221.843 195.75 218.339 190.264 218.339H179.001ZM186.248 223.791H188.333C190.691 223.791 192.126 225.004 192.126 227.346C192.126 229.704 190.691 230.917 188.281 230.917H186.248V223.791ZM215.54 243H223.264L215.215 218.339H206.123L198.074 243H205.457L206.738 238.095H214.258L215.54 243ZM210.43 224.03H210.566L212.942 232.985H208.054L210.43 224.03Z" fill="#3EB920"/>
</svg>
