<svg width="300" height="400" viewBox="0 0 300 400" fill="none" xmlns="http://www.w3.org/2000/svg">
<rect width="300" height="400" fill="white"/>
<path d="M231.09 69.1599H69.1899V83.3699H231.09V69.1599Z" fill="#D1D3D4"/>
<path d="M234.84 382.72H65.44C49.73 382.72 37 369.99 37 354.28V111.81C37 96.1001 49.73 83.3701 65.44 83.3701H234.84C250.55 83.3701 263.28 96.1001 263.28 111.81V354.28C263.28 369.99 250.55 382.72 234.84 382.72Z" fill="#EDF0F2" stroke="#D1D3D4" stroke-miterlimit="10"/>
<path d="M244.82 69.16H55.46V29.87C55.46 22.76 61.22 17 68.33 17H231.96C239.07 17 244.83 22.76 244.83 29.87V69.16H244.82Z" fill="#EDF0F2" stroke="#D1D3D4" stroke-miterlimit="10"/>
<path d="M244.83 71.3H55.46V79.8601H244.83V71.3Z" fill="#EDF0F2" stroke="#D1D3D4" stroke-miterlimit="10"/>
<path d="M100.73 243C106.011 243 109.429 240.146 109.429 235.822C109.429 232.558 106.643 230.046 103.311 229.96V229.824C106.165 229.465 108.318 227.329 108.318 224.492C108.318 220.646 105.361 218.339 100.32 218.339H88.2031V243H100.73ZM95.4492 223.312H98.3545C100.183 223.312 101.277 224.235 101.277 225.756C101.277 227.243 100.115 228.217 98.252 228.217H95.4492V223.312ZM95.4492 238.027V232.37H98.5938C100.764 232.37 102.063 233.396 102.063 235.156C102.063 237.019 100.781 238.027 98.5425 238.027H95.4492ZM123.459 243.427C130.107 243.427 134.91 239.206 134.944 233.054H128.005C127.783 235.908 125.972 237.736 123.477 237.736C120.469 237.736 118.606 235.104 118.606 230.644C118.606 226.235 120.486 223.603 123.459 223.603C125.972 223.603 127.8 225.466 127.971 228.269H134.91C134.893 222.15 129.971 217.912 123.459 217.912C115.923 217.912 111.223 222.526 111.223 230.661C111.223 238.796 115.906 243.427 123.459 243.427ZM152.256 243H159.98L151.931 218.339H142.839L134.79 243H142.173L143.455 238.095H150.974L152.256 243ZM147.146 224.03H147.283L149.658 232.985H144.771L147.146 224.03ZM178.472 243H186.196L178.147 218.339H169.055L161.006 243H168.389L169.67 238.095H177.19L178.472 243ZM173.362 224.03H173.499L175.874 232.985H170.986L173.362 224.03ZM192.366 228.884V218.339H186.555V228.884H192.366ZM194.741 229.995C194.741 232.985 196.775 235.002 200.586 235.754L204.226 236.472C205.508 236.711 206.003 237.053 206.003 237.651C206.003 238.437 205.183 238.898 203.816 238.898C202.244 238.898 201.218 238.129 201.082 236.882H194.314C194.553 240.898 197.834 243.479 203.73 243.479C209.25 243.479 212.942 240.915 212.942 236.813C212.942 233.942 211.267 232.336 207.524 231.601L203.269 230.764C202.056 230.542 201.44 230.114 201.44 229.533C201.44 228.747 202.261 228.234 203.525 228.234C205.046 228.234 206.021 229.003 206.021 230.234H212.378C212.378 226.115 209.08 223.654 203.577 223.654C198.074 223.654 194.741 226.064 194.741 229.995Z" fill="#EB9B61"/>
</svg>
