<svg width="300" height="400" viewBox="0 0 300 400" fill="none" xmlns="http://www.w3.org/2000/svg">
<rect width="300" height="400" fill="white"/>
<path d="M231.09 69.1599H69.1899V83.3699H231.09V69.1599Z" fill="#D1D3D4"/>
<path d="M234.84 382.72H65.44C49.73 382.72 37 369.99 37 354.28V111.81C37 96.1001 49.73 83.3701 65.44 83.3701H234.84C250.55 83.3701 263.28 96.1001 263.28 111.81V354.28C263.28 369.99 250.55 382.72 234.84 382.72Z" fill="#EDF0F2" stroke="#D1D3D4" stroke-miterlimit="10"/>
<path d="M244.82 69.16H55.46V29.87C55.46 22.76 61.22 17 68.33 17H231.96C239.07 17 244.83 22.76 244.83 29.87V69.16H244.82Z" fill="#EDF0F2" stroke="#D1D3D4" stroke-miterlimit="10"/>
<path d="M244.83 71.3H55.46V79.8601H244.83V71.3Z" fill="#EDF0F2" stroke="#D1D3D4" stroke-miterlimit="10"/>
<path d="M112.214 222C117.495 222 120.913 219.146 120.913 214.822C120.913 211.558 118.127 209.046 114.795 208.96V208.824C117.649 208.465 119.802 206.329 119.802 203.492C119.802 199.646 116.846 197.339 111.804 197.339H99.6875V222H112.214ZM106.934 202.312H109.839C111.667 202.312 112.761 203.235 112.761 204.756C112.761 206.243 111.599 207.217 109.736 207.217H106.934V202.312ZM106.934 217.027V211.37H110.078C112.249 211.37 113.547 212.396 113.547 214.156C113.547 216.019 112.266 217.027 110.027 217.027H106.934ZM140.703 216.241H130.552V212.276H140.071V207.081H130.552V203.099H140.703V197.339H123.306V222H140.703V216.241ZM156.887 222V203.099H163.381V197.339H143.147V203.099H149.641V222H156.887ZM178.882 222H186.606L178.557 197.339H169.465L161.416 222H168.799L170.081 217.095H177.6L178.882 222ZM173.772 203.03H173.909L176.284 211.985H171.396L173.772 203.03ZM199.68 214.925V208.978H188.418V214.925H199.68ZM90.6812 264H98.4058L90.3564 239.339H81.2646L73.2153 264H80.5981L81.8799 259.095H89.3994L90.6812 264ZM85.5713 245.03H85.708L88.0835 253.985H83.1958L85.5713 245.03ZM117.546 258.241H107.874V239.339H100.627V264H117.546V258.241ZM136.55 264H144.275L136.226 239.339H127.134L119.084 264H126.467L127.749 259.095H135.269L136.55 264ZM131.44 245.03H131.577L133.953 253.985H129.065L131.44 245.03ZM153.333 264V251.012H153.469L163.057 264H168.611V239.339H161.775V252.123H161.638L152.119 239.339H146.497V264H153.333ZM179.275 264V239.339H172.029V264H179.275ZM189.529 264V251.012H189.666L199.253 264H204.807V239.339H197.971V252.123H197.834L188.315 239.339H182.693V264H189.529ZM225.623 258.241H215.471V254.276H224.99V249.081H215.471V245.099H225.623V239.339H208.225V264H225.623V258.241Z" fill="#8F59C6"/>
</svg>
