<svg width="300" height="400" viewBox="0 0 300 400" fill="none" xmlns="http://www.w3.org/2000/svg">
<rect width="300" height="400" fill="white"/>
<path d="M231.09 69.1602H69.1899V83.3702H231.09V69.1602Z" fill="#D1D3D4"/>
<path d="M234.84 382.72H65.44C49.73 382.72 37 369.99 37 354.28V111.81C37 96.1001 49.73 83.3701 65.44 83.3701H234.84C250.55 83.3701 263.28 96.1001 263.28 111.81V354.28C263.28 369.99 250.55 382.72 234.84 382.72Z" fill="#EDF0F2" stroke="#D1D3D4" stroke-miterlimit="10"/>
<path d="M244.82 69.16H55.46V29.87C55.46 22.76 61.22 17 68.33 17H231.96C239.07 17 244.83 22.76 244.83 29.87V69.16H244.82Z" fill="#EDF0F2" stroke="#D1D3D4" stroke-miterlimit="10"/>
<path d="M244.83 71.2998H55.46V79.8598H244.83V71.2998Z" fill="#EDF0F2" stroke="#D1D3D4" stroke-miterlimit="10"/>
<path d="M97.688 222C102.969 222 106.387 219.146 106.387 214.822C106.387 211.558 103.601 209.046 100.269 208.96V208.824C103.123 208.465 105.276 206.329 105.276 203.492C105.276 199.646 102.319 197.339 97.2778 197.339H85.1611V222H97.688ZM92.4072 202.312H95.3125C97.1411 202.312 98.2349 203.235 98.2349 204.756C98.2349 206.243 97.0728 207.217 95.21 207.217H92.4072V202.312ZM92.4072 217.027V211.37H95.5518C97.7222 211.37 99.021 212.396 99.021 214.156C99.021 216.019 97.7393 217.027 95.5005 217.027H92.4072ZM116.025 222V197.339H108.779V222H116.025ZM126.689 222V213.267H135.815V207.833H126.689V203.099H136.772V197.339H119.443V222H126.689ZM146.582 222V197.339H139.336V222H146.582ZM150 197.339V222H160.544C168.013 222 172.422 217.386 172.422 209.49C172.422 201.595 168.03 197.339 160.544 197.339H150ZM157.246 203.099H159.519C162.988 203.099 165.039 205.337 165.039 209.49C165.039 214.036 163.142 216.241 159.519 216.241H157.246V203.099ZM187.085 196.912C179.463 196.912 174.661 201.8 174.661 209.678C174.661 217.557 179.446 222.427 187.085 222.427C194.707 222.427 199.509 217.557 199.509 209.678C199.509 201.8 194.707 196.912 187.085 196.912ZM187.085 202.688C190.11 202.688 192.126 205.406 192.126 209.678C192.126 213.934 190.127 216.651 187.085 216.651C184.043 216.651 182.043 213.934 182.043 209.678C182.043 205.406 184.06 202.688 187.085 202.688ZM214.207 214.925V208.978H202.944V214.925H214.207ZM60.6201 264C65.9009 264 69.3188 261.146 69.3188 256.822C69.3188 253.558 66.5332 251.046 63.2007 250.96V250.824C66.0547 250.465 68.208 248.329 68.208 245.492C68.208 241.646 65.2515 239.339 60.21 239.339H48.0933V264H60.6201ZM55.3394 244.312H58.2446C60.0732 244.312 61.167 245.235 61.167 246.756C61.167 248.243 60.0049 249.217 58.1421 249.217H55.3394V244.312ZM55.3394 259.027V253.37H58.4839C60.6543 253.37 61.9531 254.396 61.9531 256.156C61.9531 258.019 60.6714 259.027 58.4326 259.027H55.3394ZM87.981 264H95.7056L87.6562 239.339H78.5645L70.5151 264H77.8979L79.1797 259.095H86.6992L87.981 264ZM82.8711 245.03H83.0078L85.3833 253.985H80.4956L82.8711 245.03ZM107.856 264.427C114.504 264.427 119.307 260.206 119.341 254.054H112.402C112.18 256.908 110.369 258.736 107.874 258.736C104.866 258.736 103.003 256.104 103.003 251.644C103.003 247.235 104.883 244.603 107.856 244.603C110.369 244.603 112.197 246.466 112.368 249.269H119.307C119.29 243.15 114.368 238.912 107.856 238.912C100.32 238.912 95.6201 243.526 95.6201 251.661C95.6201 259.796 100.303 264.427 107.856 264.427ZM134.551 264V245.099H141.045V239.339H120.811V245.099H127.305V264H134.551ZM160.92 258.241H150.769V254.276H160.288V249.081H150.769V245.099H160.92V239.339H143.523V264H160.92V258.241ZM171.55 244.688H174.558C176.506 244.688 177.822 246.004 177.822 247.833C177.822 249.696 176.575 250.943 174.541 250.943H171.55V244.688ZM171.55 255.729H173.926L177.822 264H185.923L181.24 254.652C183.821 253.421 185.222 250.619 185.222 247.713C185.222 242.433 181.838 239.339 175.259 239.339H164.304V264H171.55V255.729ZM195.408 264V239.339H188.162V264H195.408ZM206.072 239.339H198.826V255.216C198.826 260.838 203.184 264.427 209.695 264.427C216.206 264.427 220.564 260.838 220.564 255.216V239.339H213.318V254.413C213.318 257.01 212.036 258.429 209.695 258.429C207.354 258.429 206.072 257.01 206.072 254.413V239.339ZM251.89 264V239.339H243.516L238.013 253.729H237.876L232.356 239.339H223.982V264H230.305V249.713H230.442L235.996 263.709H239.875L245.43 249.713H245.566V264H251.89Z" fill="#66AA55"/>
</svg>
