<svg width="300" height="400" viewBox="0 0 300 400" fill="none" xmlns="http://www.w3.org/2000/svg">
<rect width="300" height="400" fill="white"/>
<path d="M231.09 69.1599H69.1899V83.3699H231.09V69.1599Z" fill="#D1D3D4"/>
<path d="M234.84 382.72H65.44C49.73 382.72 37 369.99 37 354.28V111.81C37 96.1001 49.73 83.3701 65.44 83.3701H234.84C250.55 83.3701 263.28 96.1001 263.28 111.81V354.28C263.28 369.99 250.55 382.72 234.84 382.72Z" fill="#EDF0F2" stroke="#D1D3D4" stroke-miterlimit="10"/>
<path d="M244.82 69.16H55.46V29.87C55.46 22.76 61.22 17 68.33 17H231.96C239.07 17 244.83 22.76 244.83 29.87V69.16H244.82Z" fill="#EDF0F2" stroke="#D1D3D4" stroke-miterlimit="10"/>
<path d="M244.83 71.3H55.46V79.8601H244.83V71.3Z" fill="#EDF0F2" stroke="#D1D3D4" stroke-miterlimit="10"/>
<path d="M105.173 243C110.454 243 113.872 240.146 113.872 235.822C113.872 232.558 111.086 230.046 107.754 229.96V229.824C110.608 229.465 112.761 227.329 112.761 224.492C112.761 220.646 109.805 218.339 104.763 218.339H92.6465V243H105.173ZM99.8926 223.312H102.798C104.626 223.312 105.72 224.235 105.72 225.756C105.72 227.243 104.558 228.217 102.695 228.217H99.8926V223.312ZM99.8926 238.027V232.37H103.037C105.208 232.37 106.506 233.396 106.506 235.156C106.506 237.019 105.225 238.027 102.986 238.027H99.8926ZM123.511 243V218.339H116.265V243H123.511ZM138.755 217.912C131.133 217.912 126.331 222.8 126.331 230.678C126.331 238.557 131.116 243.427 138.755 243.427C146.377 243.427 151.179 238.557 151.179 230.678C151.179 222.8 146.377 217.912 138.755 217.912ZM138.755 223.688C141.78 223.688 143.796 226.406 143.796 230.678C143.796 234.934 141.797 237.651 138.755 237.651C135.713 237.651 133.713 234.934 133.713 230.678C133.713 226.406 135.73 223.688 138.755 223.688ZM165.603 243V224.099H172.097V218.339H151.863V224.099H158.357V243H165.603ZM181.821 243V218.339H174.575V243H181.821ZM192.075 243V230.012H192.212L201.799 243H207.354V218.339H200.518V231.123H200.381L190.862 218.339H185.239V243H192.075Z" fill="#723CE4"/>
</svg>
