<svg width="300" height="400" viewBox="0 0 300 400" fill="none" xmlns="http://www.w3.org/2000/svg">
<rect width="300" height="400" fill="white"/>
<path d="M231.09 69.1599H69.19V83.3699H231.09V69.1599Z" fill="#D1D3D4"/>
<path d="M234.84 382.72H65.44C49.73 382.72 37 369.99 37 354.28V111.81C37 96.1001 49.73 83.3701 65.44 83.3701H234.84C250.55 83.3701 263.28 96.1001 263.28 111.81V354.28C263.28 369.99 250.55 382.72 234.84 382.72Z" fill="#EDF0F2" stroke="#D1D3D4" stroke-miterlimit="10"/>
<path d="M244.82 69.16H55.46V29.87C55.46 22.76 61.22 17 68.33 17H231.96C239.07 17 244.83 22.76 244.83 29.87V69.16H244.82Z" fill="#EDF0F2" stroke="#D1D3D4" stroke-miterlimit="10"/>
<path d="M244.83 71.3H55.46V79.8601H244.83V71.3Z" fill="#EDF0F2" stroke="#D1D3D4" stroke-miterlimit="10"/>
<path d="M61.6968 243C66.9775 243 70.3955 240.146 70.3955 235.822C70.3955 232.558 67.6099 230.046 64.2773 229.96V229.824C67.1313 229.465 69.2847 227.329 69.2847 224.492C69.2847 220.646 66.3281 218.339 61.2866 218.339H49.1699V243H61.6968ZM56.416 223.312H59.3213C61.1499 223.312 62.2437 224.235 62.2437 225.756C62.2437 227.243 61.0815 228.217 59.2188 228.217H56.416V223.312ZM56.416 238.027V232.37H59.5605C61.731 232.37 63.0298 233.396 63.0298 235.156C63.0298 237.019 61.748 238.027 59.5093 238.027H56.416ZM89.707 237.241H80.0342V218.339H72.7881V243H89.707V237.241ZM99.3457 218.339H92.0996V234.216C92.0996 239.838 96.4575 243.427 102.969 243.427C109.48 243.427 113.838 239.838 113.838 234.216V218.339H106.592V233.413C106.592 236.01 105.31 237.429 102.969 237.429C100.627 237.429 99.3457 236.01 99.3457 233.413V218.339ZM134.653 237.241H124.502V233.276H134.021V228.081H124.502V224.099H134.653V218.339H117.256V243H134.653V237.241ZM150.564 243C155.845 243 159.263 240.146 159.263 235.822C159.263 232.558 156.477 230.046 153.145 229.96V229.824C155.999 229.465 158.152 227.329 158.152 224.492C158.152 220.646 155.195 218.339 150.154 218.339H138.037V243H150.564ZM145.283 223.312H148.188C150.017 223.312 151.111 224.235 151.111 225.756C151.111 227.243 149.949 228.217 148.086 228.217H145.283V223.312ZM145.283 238.027V232.37H148.428C150.598 232.37 151.897 233.396 151.897 235.156C151.897 237.019 150.615 238.027 148.376 238.027H145.283ZM179.053 237.241H168.901V233.276H178.42V228.081H168.901V224.099H179.053V218.339H161.655V243H179.053V237.241ZM189.683 223.688H192.69C194.639 223.688 195.955 225.004 195.955 226.833C195.955 228.696 194.707 229.943 192.673 229.943H189.683V223.688ZM189.683 234.729H192.058L195.955 243H204.055L199.373 233.652C201.953 232.421 203.354 229.619 203.354 226.713C203.354 221.433 199.971 218.339 193.391 218.339H182.437V243H189.683V234.729ZM213.54 223.688H216.548C218.496 223.688 219.812 225.004 219.812 226.833C219.812 228.696 218.564 229.943 216.531 229.943H213.54V223.688ZM213.54 234.729H215.916L219.812 243H227.913L223.23 233.652C225.811 232.421 227.212 229.619 227.212 226.713C227.212 221.433 223.828 218.339 217.249 218.339H206.294V243H213.54V234.729ZM243.601 243V235.19L252.026 218.339H244.456L240.132 228.337H239.995L235.671 218.339H227.93L236.355 235.19V243H243.601Z" fill="#375185"/>
</svg>
