<svg width="300" height="400" viewBox="0 0 300 400" fill="none" xmlns="http://www.w3.org/2000/svg">
<rect width="300" height="400" fill="white"/>
<path d="M231.09 69.1599H69.19V83.3699H231.09V69.1599Z" fill="#D1D3D4"/>
<path d="M234.84 382.72H65.44C49.73 382.72 37 369.99 37 354.28V111.81C37 96.1001 49.73 83.3701 65.44 83.3701H234.84C250.55 83.3701 263.28 96.1001 263.28 111.81V354.28C263.28 369.99 250.55 382.72 234.84 382.72Z" fill="#EDF0F2" stroke="#D1D3D4" stroke-miterlimit="10"/>
<path d="M244.82 69.16H55.46V29.87C55.46 22.76 61.22 17 68.33 17H231.96C239.07 17 244.83 22.76 244.83 29.87V69.16H244.82Z" fill="#EDF0F2" stroke="#D1D3D4" stroke-miterlimit="10"/>
<path d="M244.83 71.3H55.46V79.8601H244.83V71.3Z" fill="#EDF0F2" stroke="#D1D3D4" stroke-miterlimit="10"/>
<path d="M61.3379 243C66.6187 243 70.0366 240.146 70.0366 235.822C70.0366 232.558 67.251 230.046 63.9185 229.96V229.824C66.7725 229.465 68.9258 227.329 68.9258 224.492C68.9258 220.646 65.9692 218.339 60.9277 218.339H48.811V243H61.3379ZM56.0571 223.312H58.9624C60.791 223.312 61.8848 224.235 61.8848 225.756C61.8848 227.243 60.7227 228.217 58.8599 228.217H56.0571V223.312ZM56.0571 238.027V232.37H59.2017C61.3721 232.37 62.6709 233.396 62.6709 235.156C62.6709 237.019 61.3892 238.027 59.1504 238.027H56.0571ZM84.2554 217.912C76.6333 217.912 71.8311 222.8 71.8311 230.678C71.8311 238.557 76.6162 243.427 84.2554 243.427C91.8774 243.427 96.6797 238.557 96.6797 230.678C96.6797 222.8 91.8774 217.912 84.2554 217.912ZM84.2554 223.688C87.2803 223.688 89.2969 226.406 89.2969 230.678C89.2969 234.934 87.2974 237.651 84.2554 237.651C81.2134 237.651 79.2139 234.934 79.2139 230.678C79.2139 226.406 81.2305 223.688 84.2554 223.688ZM98.8159 235.737C98.833 240.659 102.781 243.427 109.395 243.427C115.957 243.427 120.178 240.214 120.178 235.173C120.178 231.174 117.939 228.901 113.154 228.063L109.771 227.482C107.429 227.072 106.421 226.457 106.421 225.278C106.421 224.047 107.617 223.261 109.514 223.261C111.462 223.261 112.983 224.167 113.035 225.705H119.648C119.614 220.92 115.94 217.912 109.377 217.912C103.499 217.912 99.2261 221.057 99.2261 226.047C99.2261 229.909 101.687 232.507 106.216 233.293L109.48 233.874C112.129 234.353 113.035 234.848 113.035 235.993C113.035 237.189 111.702 238.061 109.531 238.061C107.583 238.061 105.874 237.138 105.669 235.737H98.8159ZM138.242 228.884H138.379L142.053 243H148.889L155.247 218.339H147.761L144.924 233.925H144.788L141.113 218.339H135.508L131.833 233.925H131.697L128.86 218.339H121.375L127.732 243H134.568L138.242 228.884ZM175.037 237.241H164.885V233.276H174.404V228.081H164.885V224.099H175.037V218.339H157.639V243H175.037V237.241ZM195.339 237.241H185.667V218.339H178.42V243H195.339V237.241ZM214.993 237.241H205.32V218.339H198.074V243H214.993V237.241ZM224.973 243V218.339H217.727V243H224.973ZM244.661 243H252.385L244.336 218.339H235.244L227.195 243H234.578L235.859 238.095H243.379L244.661 243ZM239.551 224.03H239.688L242.063 232.985H237.175L239.551 224.03Z" fill="#D5CB72"/>
</svg>
