<svg width="300" height="400" viewBox="0 0 300 400" fill="none" xmlns="http://www.w3.org/2000/svg">
<rect width="300" height="400" fill="white"/>
<path d="M231.09 69.1599H69.19V83.3699H231.09V69.1599Z" fill="#D1D3D4"/>
<path d="M234.84 382.72H65.44C49.73 382.72 37 369.99 37 354.28V111.81C37 96.1001 49.73 83.3701 65.44 83.3701H234.84C250.55 83.3701 263.28 96.1001 263.28 111.81V354.28C263.28 369.99 250.55 382.72 234.84 382.72Z" fill="#EDF0F2" stroke="#D1D3D4" stroke-miterlimit="10"/>
<path d="M244.82 69.16H55.46V29.87C55.46 22.76 61.22 17 68.33 17H231.96C239.07 17 244.83 22.76 244.83 29.87V69.16H244.82Z" fill="#EDF0F2" stroke="#D1D3D4" stroke-miterlimit="10"/>
<path d="M244.83 71.3H55.46V79.8601H244.83V71.3Z" fill="#EDF0F2" stroke="#D1D3D4" stroke-miterlimit="10"/>
<path d="M59.8682 243C65.1489 243 68.5669 240.146 68.5669 235.822C68.5669 232.558 65.7812 230.046 62.4487 229.96V229.824C65.3027 229.465 67.4561 227.329 67.4561 224.492C67.4561 220.646 64.4995 218.339 59.458 218.339H47.3413V243H59.8682ZM54.5874 223.312H57.4927C59.3213 223.312 60.415 224.235 60.415 225.756C60.415 227.243 59.2529 228.217 57.3901 228.217H54.5874V223.312ZM54.5874 238.027V232.37H57.7319C59.9023 232.37 61.2012 233.396 61.2012 235.156C61.2012 237.019 59.9194 238.027 57.6807 238.027H54.5874ZM78.2056 223.688H81.2134C83.1616 223.688 84.4775 225.004 84.4775 226.833C84.4775 228.696 83.23 229.943 81.1963 229.943H78.2056V223.688ZM78.2056 234.729H80.5811L84.4775 243H92.5781L87.8955 233.652C90.4761 232.421 91.8774 229.619 91.8774 226.713C91.8774 221.433 88.4937 218.339 81.9141 218.339H70.9595V243H78.2056V234.729ZM106.643 217.912C99.021 217.912 94.2188 222.8 94.2188 230.678C94.2188 238.557 99.0039 243.427 106.643 243.427C114.265 243.427 119.067 238.557 119.067 230.678C119.067 222.8 114.265 217.912 106.643 217.912ZM106.643 223.688C109.668 223.688 111.685 226.406 111.685 230.678C111.685 234.934 109.685 237.651 106.643 237.651C103.601 237.651 101.602 234.934 101.602 230.678C101.602 226.406 103.618 223.688 106.643 223.688ZM149.795 243V218.339H141.421L135.918 232.729H135.781L130.261 218.339H121.887V243H128.21V228.713H128.347L133.901 242.709H137.781L143.335 228.713H143.472V243H149.795ZM170.627 237.241H160.476V233.276H169.995V228.081H160.476V224.099H170.627V218.339H153.23V243H170.627V237.241ZM190.93 237.241H181.257V218.339H174.011V243H190.93V237.241ZM209.934 243H217.659L209.609 218.339H200.518L192.468 243H199.851L201.133 238.095H208.652L209.934 243ZM204.824 224.03H204.961L207.336 232.985H202.449L204.824 224.03ZM227.126 243V218.339H219.88V243H227.126ZM237.38 243V230.012H237.517L247.104 243H252.659V218.339H245.823V231.123H245.686L236.167 218.339H230.544V243H237.38Z" fill="#FEC24E"/>
</svg>
