<svg width="300" height="400" viewBox="0 0 300 400" fill="none" xmlns="http://www.w3.org/2000/svg">
<rect width="300" height="400" fill="white"/>
<path d="M231.09 69.1599H69.19V83.3699H231.09V69.1599Z" fill="#D1D3D4"/>
<path d="M234.84 382.72H65.44C49.73 382.72 37 369.99 37 354.28V111.81C37 96.1001 49.73 83.3701 65.44 83.3701H234.84C250.55 83.3701 263.28 96.1001 263.28 111.81V354.28C263.28 369.99 250.55 382.72 234.84 382.72Z" fill="#EDF0F2" stroke="#D1D3D4" stroke-miterlimit="10"/>
<path d="M244.82 69.16H55.46V29.87C55.46 22.76 61.22 17 68.33 17H231.96C239.07 17 244.83 22.76 244.83 29.87V69.16H244.82Z" fill="#EDF0F2" stroke="#D1D3D4" stroke-miterlimit="10"/>
<path d="M244.83 71.3H55.46V79.8601H244.83V71.3Z" fill="#EDF0F2" stroke="#D1D3D4" stroke-miterlimit="10"/>
<path d="M79.3848 243.427C86.0327 243.427 90.835 239.206 90.8691 233.054H83.9307C83.7085 235.908 81.897 237.736 79.4019 237.736C76.394 237.736 74.5312 235.104 74.5312 230.644C74.5312 226.235 76.4111 223.603 79.3848 223.603C81.897 223.603 83.7256 225.466 83.8965 228.269H90.835C90.8179 222.15 85.896 217.912 79.3848 217.912C71.8481 217.912 67.1484 222.526 67.1484 230.661C67.1484 238.796 71.8311 243.427 79.3848 243.427ZM108.181 243H115.906L107.856 218.339H98.7646L90.7153 243H98.0981L99.3799 238.095H106.899L108.181 243ZM103.071 224.03H103.208L105.583 232.985H100.696L103.071 224.03ZM125.374 243V234.267H134.5V228.833H125.374V224.099H135.457V218.339H118.127V243H125.374ZM145.266 243V234.267H154.392V228.833H145.266V224.099H155.349V218.339H138.02V243H145.266ZM175.31 237.241H165.159V233.276H174.678V228.081H165.159V224.099H175.31V218.339H157.913V243H175.31V237.241ZM185.94 243V218.339H178.694V243H185.94ZM196.194 243V230.012H196.331L205.918 243H211.472V218.339H204.636V231.123H204.5L194.98 218.339H189.358V243H196.194ZM232.288 237.241H222.136V233.276H231.655V228.081H222.136V224.099H232.288V218.339H214.89V243H232.288V237.241Z" fill="#A07B4F"/>
</svg>
