<svg width="300" height="400" viewBox="0 0 300 400" fill="none" xmlns="http://www.w3.org/2000/svg">
<rect width="300" height="400" fill="white"/>
<path d="M231.09 69.1599H69.19V83.3699H231.09V69.1599Z" fill="#D1D3D4"/>
<path d="M234.84 382.72H65.44C49.73 382.72 37 369.99 37 354.28V111.81C37 96.1001 49.73 83.3701 65.44 83.3701H234.84C250.55 83.3701 263.28 96.1001 263.28 111.81V354.28C263.28 369.99 250.55 382.72 234.84 382.72Z" fill="#EDF0F2" stroke="#D1D3D4" stroke-miterlimit="10"/>
<path d="M244.82 69.16H55.46V29.87C55.46 22.76 61.22 17 68.33 17H231.96C239.07 17 244.83 22.76 244.83 29.87V69.16H244.82Z" fill="#EDF0F2" stroke="#D1D3D4" stroke-miterlimit="10"/>
<path d="M244.83 71.3H55.46V79.8601H244.83V71.3Z" fill="#EDF0F2" stroke="#D1D3D4" stroke-miterlimit="10"/>
<path d="M82.3242 243.427C88.9722 243.427 93.7744 239.206 93.8086 233.054H86.8701C86.6479 235.908 84.8364 237.736 82.3413 237.736C79.3335 237.736 77.4707 235.104 77.4707 230.644C77.4707 226.235 79.3506 223.603 82.3242 223.603C84.8364 223.603 86.665 225.466 86.8359 228.269H93.7744C93.7573 222.15 88.8354 217.912 82.3242 217.912C74.7876 217.912 70.0879 222.526 70.0879 230.661C70.0879 238.796 74.7705 243.427 82.3242 243.427ZM111.121 243H118.845L110.796 218.339H101.704L93.6548 243H101.038L102.319 238.095H109.839L111.121 243ZM106.011 224.03H106.147L108.523 232.985H103.635L106.011 224.03ZM137.986 237.241H128.313V218.339H121.067V243H137.986V237.241ZM151.333 243.427C157.981 243.427 162.783 239.206 162.817 233.054H155.879C155.657 235.908 153.845 237.736 151.35 237.736C148.342 237.736 146.479 235.104 146.479 230.644C146.479 226.235 148.359 223.603 151.333 223.603C153.845 223.603 155.674 225.466 155.845 228.269H162.783C162.766 222.15 157.844 217.912 151.333 217.912C143.796 217.912 139.097 222.526 139.097 230.661C139.097 238.796 143.779 243.427 151.333 243.427ZM172.815 243V218.339H165.569V243H172.815ZM183.479 218.339H176.233V234.216C176.233 239.838 180.591 243.427 187.102 243.427C193.613 243.427 197.971 239.838 197.971 234.216V218.339H190.725V233.413C190.725 236.01 189.443 237.429 187.102 237.429C184.761 237.429 183.479 236.01 183.479 233.413V218.339ZM229.297 243V218.339H220.923L215.42 232.729H215.283L209.763 218.339H201.389V243H207.712V228.713H207.849L213.403 242.709H217.283L222.837 228.713H222.974V243H229.297Z" fill="#E3B847"/>
</svg>
