<svg width="300" height="400" viewBox="0 0 300 400" fill="none" xmlns="http://www.w3.org/2000/svg">
<rect width="300" height="400" fill="white"/>
<path d="M231.09 69.1599H69.1899V83.3699H231.09V69.1599Z" fill="#D1D3D4"/>
<path d="M234.84 382.72H65.44C49.73 382.72 37 369.99 37 354.28V111.81C37 96.1001 49.73 83.3701 65.44 83.3701H234.84C250.55 83.3701 263.28 96.1001 263.28 111.81V354.28C263.28 369.99 250.55 382.72 234.84 382.72Z" fill="#EDF0F2" stroke="#D1D3D4" stroke-miterlimit="10"/>
<path d="M244.82 69.16H55.46V29.87C55.46 22.76 61.22 17 68.33 17H231.96C239.07 17 244.83 22.76 244.83 29.87V69.16H244.82Z" fill="#EDF0F2" stroke="#D1D3D4" stroke-miterlimit="10"/>
<path d="M244.83 71.3H55.46V79.8601H244.83V71.3Z" fill="#EDF0F2" stroke="#D1D3D4" stroke-miterlimit="10"/>
<path d="M68.7549 243.427C75.4028 243.427 80.2051 239.206 80.2393 233.054H73.3008C73.0786 235.908 71.2671 237.736 68.772 237.736C65.7642 237.736 63.9014 235.104 63.9014 230.644C63.9014 226.235 65.7812 223.603 68.7549 223.603C71.2671 223.603 73.0957 225.466 73.2666 228.269H80.2051C80.188 222.15 75.2661 217.912 68.7549 217.912C61.2183 217.912 56.5186 222.526 56.5186 230.661C56.5186 238.796 61.2012 243.427 68.7549 243.427ZM97.5513 243H105.276L97.2266 218.339H88.1348L80.0854 243H87.4683L88.75 238.095H96.2695L97.5513 243ZM92.4414 224.03H92.5781L94.9536 232.985H90.0659L92.4414 224.03ZM114.744 223.688H117.751C119.7 223.688 121.016 225.004 121.016 226.833C121.016 228.696 119.768 229.943 117.734 229.943H114.744V223.688ZM114.744 234.729H117.119L121.016 243H129.116L124.434 233.652C127.014 232.421 128.416 229.619 128.416 226.713C128.416 221.433 125.032 218.339 118.452 218.339H107.498V243H114.744V234.729ZM138.191 243V230.012H138.328L147.915 243H153.469V218.339H146.633V231.123H146.497L136.978 218.339H131.355V243H138.191ZM164.133 243V218.339H156.887V243H164.133ZM180.352 243V224.099H186.846V218.339H166.611V224.099H173.105V243H180.352ZM196.57 243V218.339H189.324V243H196.57ZM206.824 243V230.012H206.96L216.548 243H222.102V218.339H215.266V231.123H215.129L205.61 218.339H199.988V243H206.824ZM242.917 237.241H232.766V233.276H242.285V228.081H232.766V224.099H242.917V218.339H225.52V243H242.917V237.241Z" fill="#AA36AC"/>
</svg>
