<svg width="300" height="400" viewBox="0 0 300 400" fill="none" xmlns="http://www.w3.org/2000/svg">
<rect width="300" height="400" fill="white"/>
<path d="M231.09 69.1599H69.1899V83.3699H231.09V69.1599Z" fill="#D1D3D4"/>
<path d="M234.84 382.72H65.44C49.73 382.72 37 369.99 37 354.28V111.81C37 96.1001 49.73 83.3701 65.44 83.3701H234.84C250.55 83.3701 263.28 96.1001 263.28 111.81V354.28C263.28 369.99 250.55 382.72 234.84 382.72Z" fill="#EDF0F2" stroke="#D1D3D4" stroke-miterlimit="10"/>
<path d="M244.82 69.16H55.46V29.87C55.46 22.76 61.22 17 68.33 17H231.96C239.07 17 244.83 22.76 244.83 29.87V69.16H244.82Z" fill="#EDF0F2" stroke="#D1D3D4" stroke-miterlimit="10"/>
<path d="M244.83 71.3H55.46V79.8601H244.83V71.3Z" fill="#EDF0F2" stroke="#D1D3D4" stroke-miterlimit="10"/>
<path d="M118.572 222.427C125.22 222.427 130.022 218.206 130.056 212.054H123.118C122.896 214.908 121.084 216.736 118.589 216.736C115.581 216.736 113.718 214.104 113.718 209.644C113.718 205.235 115.598 202.603 118.572 202.603C121.084 202.603 122.913 204.466 123.083 207.269H130.022C130.005 201.15 125.083 196.912 118.572 196.912C111.035 196.912 106.335 201.526 106.335 209.661C106.335 217.796 111.018 222.427 118.572 222.427ZM132.808 197.339V222H143.352C150.82 222 155.229 217.386 155.229 209.49C155.229 201.595 150.837 197.339 143.352 197.339H132.808ZM140.054 203.099H142.327C145.796 203.099 147.847 205.337 147.847 209.49C147.847 214.036 145.95 216.241 142.327 216.241H140.054V203.099ZM158.066 197.339V222H165.312V215.267H168.833C174.592 215.267 178.506 211.763 178.506 206.329C178.506 200.843 174.814 197.339 169.329 197.339H158.066ZM165.312 202.791H167.397C169.756 202.791 171.191 204.004 171.191 206.346C171.191 208.704 169.756 209.917 167.346 209.917H165.312V202.791ZM192.434 214.925V208.978H181.172V214.925H192.434ZM85.2637 264.427C91.9116 264.427 96.7139 260.206 96.748 254.054H89.8096C89.5874 256.908 87.7759 258.736 85.2808 258.736C82.2729 258.736 80.4102 256.104 80.4102 251.644C80.4102 247.235 82.29 244.603 85.2637 244.603C87.7759 244.603 89.6045 246.466 89.7754 249.269H96.7139C96.6968 243.15 91.7749 238.912 85.2637 238.912C77.7271 238.912 73.0273 243.526 73.0273 251.661C73.0273 259.796 77.71 264.427 85.2637 264.427ZM122.673 264V239.339H115.427V248.705H106.746V239.339H99.4995V264H106.746V254.464H115.427V264H122.673ZM137.917 238.912C130.295 238.912 125.493 243.8 125.493 251.678C125.493 259.557 130.278 264.427 137.917 264.427C145.54 264.427 150.342 259.557 150.342 251.678C150.342 243.8 145.54 238.912 137.917 238.912ZM137.917 244.688C140.942 244.688 142.959 247.406 142.959 251.678C142.959 255.934 140.959 258.651 137.917 258.651C134.875 258.651 132.876 255.934 132.876 251.678C132.876 247.406 134.893 244.688 137.917 244.688ZM170.081 258.241H160.408V239.339H153.162V264H170.081V258.241ZM180.061 264V239.339H172.815V264H180.061ZM190.315 264V251.012H190.452L200.039 264H205.593V239.339H198.757V252.123H198.621L189.102 239.339H183.479V264H190.315ZM226.409 258.241H216.257V254.276H225.776V249.081H216.257V245.099H226.409V239.339H209.011V264H226.409V258.241Z" fill="#4183D1"/>
</svg>
