<svg width="300" height="400" viewBox="0 0 300 400" fill="none" xmlns="http://www.w3.org/2000/svg">
<rect width="300" height="400" fill="white"/>
<path d="M231.09 69.1599H69.1899V83.3699H231.09V69.1599Z" fill="#D1D3D4"/>
<path d="M234.84 382.72H65.44C49.73 382.72 37 369.99 37 354.28V111.81C37 96.1001 49.73 83.3701 65.44 83.3701H234.84C250.55 83.3701 263.28 96.1001 263.28 111.81V354.28C263.28 369.99 250.55 382.72 234.84 382.72Z" fill="#EDF0F2" stroke="#D1D3D4" stroke-miterlimit="10"/>
<path d="M244.82 69.16H55.46V29.87C55.46 22.76 61.22 17 68.33 17H231.96C239.07 17 244.83 22.76 244.83 29.87V69.16H244.82Z" fill="#EDF0F2" stroke="#D1D3D4" stroke-miterlimit="10"/>
<path d="M244.83 71.3H55.46V79.8601H244.83V71.3Z" fill="#EDF0F2" stroke="#D1D3D4" stroke-miterlimit="10"/>
<path d="M99.3628 243.427C106.011 243.427 110.813 239.206 110.847 233.054H103.909C103.687 235.908 101.875 237.736 99.3799 237.736C96.3721 237.736 94.5093 235.104 94.5093 230.644C94.5093 226.235 96.3892 223.603 99.3628 223.603C101.875 223.603 103.704 225.466 103.875 228.269H110.813C110.796 222.15 105.874 217.912 99.3628 217.912C91.8262 217.912 87.1265 222.526 87.1265 230.661C87.1265 238.796 91.8091 243.427 99.3628 243.427ZM136.772 243V218.339H129.526V227.705H120.845V218.339H113.599V243H120.845V233.464H129.526V243H136.772ZM156.46 243H164.185L156.135 218.339H147.043L138.994 243H146.377L147.659 238.095H155.178L156.46 243ZM151.35 224.03H151.487L153.862 232.985H148.975L151.35 224.03ZM187.974 232.507V229.26H177.241V234.079H181.001L180.967 234.421C180.762 236.403 179.087 237.719 176.729 237.719C173.55 237.719 171.482 235.036 171.482 230.542C171.482 226.149 173.293 223.62 176.37 223.62C178.455 223.62 180.078 224.799 180.557 226.611H187.683C187.136 221.552 182.522 217.912 176.335 217.912C168.73 217.912 164.099 222.561 164.099 230.644C164.099 238.83 168.73 243.427 176.558 243.427C183.718 243.427 187.974 239.257 187.974 232.507ZM205.747 243H213.472L205.422 218.339H196.331L188.281 243H195.664L196.946 238.095H204.465L205.747 243ZM200.637 224.03H200.774L203.149 232.985H198.262L200.637 224.03Z" fill="#3D3D3D"/>
</svg>
