<svg width="300" height="400" viewBox="0 0 300 400" fill="none" xmlns="http://www.w3.org/2000/svg">
<rect width="300" height="400" fill="white"/>
<path d="M231.09 69.1599H69.1899V83.3699H231.09V69.1599Z" fill="#D1D3D4"/>
<path d="M234.84 382.72H65.44C49.73 382.72 37 369.99 37 354.28V111.81C37 96.1001 49.73 83.3701 65.44 83.3701H234.84C250.55 83.3701 263.28 96.1001 263.28 111.81V354.28C263.28 369.99 250.55 382.72 234.84 382.72Z" fill="#EDF0F2" stroke="#D1D3D4" stroke-miterlimit="10"/>
<path d="M244.82 69.16H55.46V29.87C55.46 22.76 61.22 17 68.33 17H231.96C239.07 17 244.83 22.76 244.83 29.87V69.16H244.82Z" fill="#EDF0F2" stroke="#D1D3D4" stroke-miterlimit="10"/>
<path d="M244.83 71.3H55.46V79.8601H244.83V71.3Z" fill="#EDF0F2" stroke="#D1D3D4" stroke-miterlimit="10"/>
<path d="M59.1846 243.427C65.8325 243.427 70.6348 239.206 70.6689 233.054H63.7305C63.5083 235.908 61.6968 237.736 59.2017 237.736C56.1938 237.736 54.3311 235.104 54.3311 230.644C54.3311 226.235 56.2109 223.603 59.1846 223.603C61.6968 223.603 63.5254 225.466 63.6963 228.269H70.6348C70.6177 222.15 65.6958 217.912 59.1846 217.912C51.6479 217.912 46.9482 222.526 46.9482 230.661C46.9482 238.796 51.6309 243.427 59.1846 243.427ZM96.5942 243V218.339H89.3481V227.705H80.6665V218.339H73.4204V243H80.6665V233.464H89.3481V243H96.5942ZM116.931 237.241H107.258V218.339H100.012V243H116.931V237.241ZM130.466 217.912C122.844 217.912 118.042 222.8 118.042 230.678C118.042 238.557 122.827 243.427 130.466 243.427C138.088 243.427 142.891 238.557 142.891 230.678C142.891 222.8 138.088 217.912 130.466 217.912ZM130.466 223.688C133.491 223.688 135.508 226.406 135.508 230.678C135.508 234.934 133.508 237.651 130.466 237.651C127.424 237.651 125.425 234.934 125.425 230.678C125.425 226.406 127.441 223.688 130.466 223.688ZM152.957 223.688H155.964C157.913 223.688 159.229 225.004 159.229 226.833C159.229 228.696 157.981 229.943 155.947 229.943H152.957V223.688ZM152.957 234.729H155.332L159.229 243H167.329L162.646 233.652C165.227 232.421 166.628 229.619 166.628 226.713C166.628 221.433 163.245 218.339 156.665 218.339H145.71V243H152.957V234.729ZM186.965 237.241H176.814V233.276H186.333V228.081H176.814V224.099H186.965V218.339H169.568V243H186.965V237.241ZM207.268 237.241H197.595V218.339H190.349V243H207.268V237.241ZM226.921 237.241H217.249V218.339H210.002V243H226.921V237.241ZM245.925 243H253.65L245.601 218.339H236.509L228.459 243H235.842L237.124 238.095H244.644L245.925 243ZM240.815 224.03H240.952L243.328 232.985H238.44L240.815 224.03Z" fill="#5EAB22"/>
</svg>
