<svg width="300" height="400" viewBox="0 0 300 400" fill="none" xmlns="http://www.w3.org/2000/svg">
<rect width="300" height="400" fill="white"/>
<path d="M231.09 69.1599H69.1899V83.3699H231.09V69.1599Z" fill="#D1D3D4"/>
<path d="M234.84 382.72H65.44C49.73 382.72 37 369.99 37 354.28V111.81C37 96.1001 49.73 83.3701 65.44 83.3701H234.84C250.55 83.3701 263.28 96.1001 263.28 111.81V354.28C263.28 369.99 250.55 382.72 234.84 382.72Z" fill="#EDF0F2" stroke="#D1D3D4" stroke-miterlimit="10"/>
<path d="M244.82 69.16H55.46V29.87C55.46 22.76 61.22 17 68.33 17H231.96C239.07 17 244.83 22.76 244.83 29.87V69.16H244.82Z" fill="#EDF0F2" stroke="#D1D3D4" stroke-miterlimit="10"/>
<path d="M244.83 71.3H55.46V79.8601H244.83V71.3Z" fill="#EDF0F2" stroke="#D1D3D4" stroke-miterlimit="10"/>
<path d="M64.7559 222.427C71.4038 222.427 76.2061 218.206 76.2402 212.054H69.3018C69.0796 214.908 67.2681 216.736 64.7729 216.736C61.7651 216.736 59.9023 214.104 59.9023 209.644C59.9023 205.235 61.7822 202.603 64.7559 202.603C67.2681 202.603 69.0967 204.466 69.2676 207.269H76.2061C76.189 201.15 71.2671 196.912 64.7559 196.912C57.2192 196.912 52.5195 201.526 52.5195 209.661C52.5195 217.796 57.2021 222.427 64.7559 222.427ZM102.166 222V197.339H94.9194V206.705H86.2378V197.339H78.9917V222H86.2378V212.464H94.9194V222H102.166ZM117.41 196.912C109.788 196.912 104.985 201.8 104.985 209.678C104.985 217.557 109.771 222.427 117.41 222.427C125.032 222.427 129.834 217.557 129.834 209.678C129.834 201.8 125.032 196.912 117.41 196.912ZM117.41 202.688C120.435 202.688 122.451 205.406 122.451 209.678C122.451 213.934 120.452 216.651 117.41 216.651C114.368 216.651 112.368 213.934 112.368 209.678C112.368 205.406 114.385 202.688 117.41 202.688ZM139.49 222V209.012H139.626L149.214 222H154.768V197.339H147.932V210.123H147.795L138.276 197.339H132.654V222H139.49ZM158.186 197.339V222H168.73C176.199 222 180.608 217.386 180.608 209.49C180.608 201.595 176.216 197.339 168.73 197.339H158.186ZM165.432 203.099H167.705C171.174 203.099 173.225 205.337 173.225 209.49C173.225 214.036 171.328 216.241 167.705 216.241H165.432V203.099ZM190.691 202.688H193.699C195.647 202.688 196.963 204.004 196.963 205.833C196.963 207.696 195.715 208.943 193.682 208.943H190.691V202.688ZM190.691 213.729H193.066L196.963 222H205.063L200.381 212.652C202.961 211.421 204.363 208.619 204.363 205.713C204.363 200.433 200.979 197.339 194.399 197.339H183.445V222H190.691V213.729ZM219.128 196.912C211.506 196.912 206.704 201.8 206.704 209.678C206.704 217.557 211.489 222.427 219.128 222.427C226.75 222.427 231.553 217.557 231.553 209.678C231.553 201.8 226.75 196.912 219.128 196.912ZM219.128 202.688C222.153 202.688 224.17 205.406 224.17 209.678C224.17 213.934 222.17 216.651 219.128 216.651C216.086 216.651 214.087 213.934 214.087 209.678C214.087 205.406 216.104 202.688 219.128 202.688ZM246.25 214.925V208.978H234.988V214.925H246.25ZM124.639 264V239.339H117.393V264H124.639ZM140.857 264V245.099H147.351V239.339H127.117V245.099H133.611V264H140.857ZM157.075 264V239.339H149.829V264H157.075ZM167.329 264V251.012H167.466L177.053 264H182.607V239.339H175.771V252.123H175.635L166.116 239.339H160.493V264H167.329Z" fill="#768FA2"/>
</svg>
