<svg width="300" height="400" viewBox="0 0 300 400" fill="none" xmlns="http://www.w3.org/2000/svg">
<rect width="300" height="400" fill="white"/>
<path d="M231.09 69.1599H69.1899V83.3699H231.09V69.1599Z" fill="#D1D3D4"/>
<path d="M234.84 382.72H65.44C49.73 382.72 37 369.99 37 354.28V111.81C37 96.1001 49.73 83.3701 65.44 83.3701H234.84C250.55 83.3701 263.28 96.1001 263.28 111.81V354.28C263.28 369.99 250.55 382.72 234.84 382.72Z" fill="#EDF0F2" stroke="#D1D3D4" stroke-miterlimit="10"/>
<path d="M244.82 69.16H55.46V29.87C55.46 22.76 61.22 17 68.33 17H231.96C239.07 17 244.83 22.76 244.83 29.87V69.16H244.82Z" fill="#EDF0F2" stroke="#D1D3D4" stroke-miterlimit="10"/>
<path d="M244.83 71.3H55.46V79.8601H244.83V71.3Z" fill="#EDF0F2" stroke="#D1D3D4" stroke-miterlimit="10"/>
<path d="M62.3975 243.427C69.0454 243.427 73.8477 239.206 73.8818 233.054H66.9434C66.7212 235.908 64.9097 237.736 62.4146 237.736C59.4067 237.736 57.5439 235.104 57.5439 230.644C57.5439 226.235 59.4238 223.603 62.3975 223.603C64.9097 223.603 66.7383 225.466 66.9092 228.269H73.8477C73.8306 222.15 68.9087 217.912 62.3975 217.912C54.8608 217.912 50.1611 222.526 50.1611 230.661C50.1611 238.796 54.8438 243.427 62.3975 243.427ZM99.8071 243V218.339H92.561V227.705H83.8794V218.339H76.6333V243H83.8794V233.464H92.561V243H99.8071ZM110.471 223.688H113.479C115.427 223.688 116.743 225.004 116.743 226.833C116.743 228.696 115.496 229.943 113.462 229.943H110.471V223.688ZM110.471 234.729H112.847L116.743 243H124.844L120.161 233.652C122.742 232.421 124.143 229.619 124.143 226.713C124.143 221.433 120.759 218.339 114.18 218.339H103.225V243H110.471V234.729ZM138.909 217.912C131.287 217.912 126.484 222.8 126.484 230.678C126.484 238.557 131.27 243.427 138.909 243.427C146.531 243.427 151.333 238.557 151.333 230.678C151.333 222.8 146.531 217.912 138.909 217.912ZM138.909 223.688C141.934 223.688 143.95 226.406 143.95 230.678C143.95 234.934 141.951 237.651 138.909 237.651C135.867 237.651 133.867 234.934 133.867 230.678C133.867 226.406 135.884 223.688 138.909 223.688ZM182.061 243V218.339H173.687L168.184 232.729H168.047L162.527 218.339H154.153V243H160.476V228.713H160.613L166.167 242.709H170.046L175.601 228.713H175.737V243H182.061ZM192.742 243V218.339H185.496V243H192.742ZM203.406 218.339H196.16V234.216C196.16 239.838 200.518 243.427 207.029 243.427C213.54 243.427 217.898 239.838 217.898 234.216V218.339H210.652V233.413C210.652 236.01 209.37 237.429 207.029 237.429C204.688 237.429 203.406 236.01 203.406 233.413V218.339ZM249.224 243V218.339H240.85L235.347 232.729H235.21L229.69 218.339H221.316V243H227.639V228.713H227.776L233.33 242.709H237.209L242.764 228.713H242.9V243H249.224Z" fill="#979797"/>
</svg>
