<svg width="300" height="400" viewBox="0 0 300 400" fill="none" xmlns="http://www.w3.org/2000/svg">
<rect width="300" height="400" fill="white"/>
<path d="M231.09 69.1599H69.1899V83.3699H231.09V69.1599Z" fill="#D1D3D4"/>
<path d="M234.84 382.72H65.44C49.73 382.72 37 369.99 37 354.28V111.81C37 96.1001 49.73 83.3701 65.44 83.3701H234.84C250.55 83.3701 263.28 96.1001 263.28 111.81V354.28C263.28 369.99 250.55 382.72 234.84 382.72Z" fill="#EDF0F2" stroke="#D1D3D4" stroke-miterlimit="10"/>
<path d="M244.82 69.16H55.46V29.87C55.46 22.76 61.22 17 68.33 17H231.96C239.07 17 244.83 22.76 244.83 29.87V69.16H244.82Z" fill="#EDF0F2" stroke="#D1D3D4" stroke-miterlimit="10"/>
<path d="M244.83 71.3H55.46V79.8601H244.83V71.3Z" fill="#EDF0F2" stroke="#D1D3D4" stroke-miterlimit="10"/>
<path d="M64.4653 243.427C71.1133 243.427 75.9155 239.206 75.9497 233.054H69.0112C68.7891 235.908 66.9775 237.736 64.4824 237.736C61.4746 237.736 59.6118 235.104 59.6118 230.644C59.6118 226.235 61.4917 223.603 64.4653 223.603C66.9775 223.603 68.8062 225.466 68.9771 228.269H75.9155C75.8984 222.15 70.9766 217.912 64.4653 217.912C56.9287 217.912 52.229 222.526 52.229 230.661C52.229 238.796 56.9116 243.427 64.4653 243.427ZM85.9473 243V218.339H78.7012V243H85.9473ZM96.2012 243V230.012H96.3379L105.925 243H111.479V218.339H104.644V231.123H104.507L94.9878 218.339H89.3652V243H96.2012ZM121.733 243V230.012H121.87L131.458 243H137.012V218.339H130.176V231.123H130.039L120.52 218.339H114.897V243H121.733ZM156.699 243H164.424L156.375 218.339H147.283L139.233 243H146.616L147.898 238.095H155.417L156.699 243ZM151.589 224.03H151.726L154.102 232.985H149.214L151.589 224.03ZM194.553 243V218.339H186.179L180.676 232.729H180.54L175.02 218.339H166.646V243H172.969V228.713H173.105L178.66 242.709H182.539L188.093 228.713H188.23V243H194.553ZM209.814 217.912C202.192 217.912 197.39 222.8 197.39 230.678C197.39 238.557 202.175 243.427 209.814 243.427C217.437 243.427 222.239 238.557 222.239 230.678C222.239 222.8 217.437 217.912 209.814 217.912ZM209.814 223.688C212.839 223.688 214.856 226.406 214.856 230.678C214.856 234.934 212.856 237.651 209.814 237.651C206.772 237.651 204.773 234.934 204.773 230.678C204.773 226.406 206.79 223.688 209.814 223.688ZM231.895 243V230.012H232.031L241.619 243H247.173V218.339H240.337V231.123H240.2L230.681 218.339H225.059V243H231.895Z" fill="#9D735B"/>
</svg>
