<svg width="300" height="400" viewBox="0 0 300 400" fill="none" xmlns="http://www.w3.org/2000/svg">
<rect width="300" height="400" fill="white"/>
<path d="M231.09 69.1599H69.1899V83.3699H231.09V69.1599Z" fill="#D1D3D4"/>
<path d="M234.84 382.72H65.44C49.73 382.72 37 369.99 37 354.28V111.81C37 96.1001 49.73 83.3701 65.44 83.3701H234.84C250.55 83.3701 263.28 96.1001 263.28 111.81V354.28C263.28 369.99 250.55 382.72 234.84 382.72Z" fill="#EDF0F2" stroke="#D1D3D4" stroke-miterlimit="10"/>
<path d="M244.82 69.16H55.46V29.87C55.46 22.76 61.22 17 68.33 17H231.96C239.07 17 244.83 22.76 244.83 29.87V69.16H244.82Z" fill="#EDF0F2" stroke="#D1D3D4" stroke-miterlimit="10"/>
<path d="M244.83 71.3H55.46V79.8601H244.83V71.3Z" fill="#EDF0F2" stroke="#D1D3D4" stroke-miterlimit="10"/>
<path d="M97.3804 201.427C104.028 201.427 108.831 197.206 108.865 191.054H101.926C101.704 193.908 99.8926 195.736 97.3975 195.736C94.3896 195.736 92.5269 193.104 92.5269 188.644C92.5269 184.235 94.4067 181.603 97.3804 181.603C99.8926 181.603 101.721 183.466 101.892 186.269H108.831C108.813 180.15 103.892 175.912 97.3804 175.912C89.8438 175.912 85.144 180.526 85.144 188.661C85.144 196.796 89.8267 201.427 97.3804 201.427ZM118.862 201V176.339H111.616V201H118.862ZM121.597 193.737C121.614 198.659 125.562 201.427 132.175 201.427C138.738 201.427 142.959 198.214 142.959 193.173C142.959 189.174 140.72 186.901 135.935 186.063L132.551 185.482C130.21 185.072 129.202 184.457 129.202 183.278C129.202 182.047 130.398 181.261 132.295 181.261C134.243 181.261 135.764 182.167 135.815 183.705H142.429C142.395 178.92 138.721 175.912 132.158 175.912C126.279 175.912 122.007 179.057 122.007 184.047C122.007 187.909 124.468 190.507 128.997 191.293L132.261 191.874C134.91 192.353 135.815 192.848 135.815 193.993C135.815 195.189 134.482 196.061 132.312 196.061C130.364 196.061 128.655 195.138 128.45 193.737H121.597ZM145.01 193.737C145.027 198.659 148.975 201.427 155.588 201.427C162.151 201.427 166.372 198.214 166.372 193.173C166.372 189.174 164.133 186.901 159.348 186.063L155.964 185.482C153.623 185.072 152.615 184.457 152.615 183.278C152.615 182.047 153.811 181.261 155.708 181.261C157.656 181.261 159.177 182.167 159.229 183.705H165.842C165.808 178.92 162.134 175.912 155.571 175.912C149.692 175.912 145.42 179.057 145.42 184.047C145.42 187.909 147.881 190.507 152.41 191.293L155.674 191.874C158.323 192.353 159.229 192.848 159.229 193.993C159.229 195.189 157.896 196.061 155.725 196.061C153.777 196.061 152.068 195.138 151.863 193.737H145.01ZM176.353 176.339H169.106V192.216C169.106 197.838 173.464 201.427 179.976 201.427C186.487 201.427 190.845 197.838 190.845 192.216V176.339H183.599V191.413C183.599 194.01 182.317 195.429 179.976 195.429C177.634 195.429 176.353 194.01 176.353 191.413V176.339ZM193.579 193.737C193.596 198.659 197.544 201.427 204.158 201.427C210.72 201.427 214.941 198.214 214.941 193.173C214.941 189.174 212.703 186.901 207.917 186.063L204.534 185.482C202.192 185.072 201.184 184.457 201.184 183.278C201.184 182.047 202.38 181.261 204.277 181.261C206.226 181.261 207.747 182.167 207.798 183.705H214.412C214.377 178.92 210.703 175.912 204.141 175.912C198.262 175.912 193.989 179.057 193.989 184.047C193.989 187.909 196.45 190.507 200.979 191.293L204.243 191.874C206.892 192.353 207.798 192.848 207.798 193.993C207.798 195.189 206.465 196.061 204.294 196.061C202.346 196.061 200.637 195.138 200.432 193.737H193.579ZM79.7095 243.427C81.1963 243.427 82.6147 243.239 83.9307 242.846L85.1611 244.846H91.7236L88.7329 239.941C90.9546 237.89 92.1167 234.609 92.1167 230.678C92.1167 222.834 87.3145 217.912 79.7095 217.912C72.0874 217.912 67.2852 222.834 67.2852 230.678C67.2852 238.676 72.0703 243.427 79.7095 243.427ZM79.7095 237.753C76.6675 237.753 74.668 234.951 74.668 230.678C74.668 226.406 76.6675 223.586 79.7095 223.586C82.7344 223.586 84.7339 226.423 84.7339 230.678C84.7339 231.823 84.563 232.9 84.2383 233.908L84.187 233.84H78.291L80.6152 237.651C80.3418 237.719 80.0342 237.753 79.7095 237.753ZM102.2 218.339H94.9536V234.216C94.9536 239.838 99.3115 243.427 105.823 243.427C112.334 243.427 116.692 239.838 116.692 234.216V218.339H109.446V233.413C109.446 236.01 108.164 237.429 105.823 237.429C103.481 237.429 102.2 236.01 102.2 233.413V218.339ZM135.354 243H143.079L135.029 218.339H125.938L117.888 243H125.271L126.553 238.095H134.072L135.354 243ZM130.244 224.03H130.381L132.756 232.985H127.869L130.244 224.03ZM145.3 218.339V243H155.845C163.313 243 167.722 238.386 167.722 230.49C167.722 222.595 163.33 218.339 155.845 218.339H145.3ZM152.546 224.099H154.819C158.289 224.099 160.339 226.337 160.339 230.49C160.339 235.036 158.442 237.241 154.819 237.241H152.546V224.099ZM177.805 223.688H180.813C182.761 223.688 184.077 225.004 184.077 226.833C184.077 228.696 182.83 229.943 180.796 229.943H177.805V223.688ZM177.805 234.729H180.181L184.077 243H192.178L187.495 233.652C190.076 232.421 191.477 229.619 191.477 226.713C191.477 221.433 188.093 218.339 181.514 218.339H170.559V243H177.805V234.729ZM210.686 243H218.411L210.361 218.339H201.27L193.22 243H200.603L201.885 238.095H209.404L210.686 243ZM205.576 224.03H205.713L208.088 232.985H203.201L205.576 224.03ZM231.484 235.925V229.978H220.222V235.925H231.484ZM68.2251 285V272.012H68.3618L77.9492 285H83.5034V260.339H76.6675V273.123H76.5308L67.0117 260.339H61.3892V285H68.2251ZM110.198 274.507V271.26H99.4653V276.079H103.225L103.191 276.421C102.986 278.403 101.311 279.719 98.9526 279.719C95.7739 279.719 93.7061 277.036 93.7061 272.542C93.7061 268.149 95.5176 265.62 98.5938 265.62C100.679 265.62 102.302 266.799 102.781 268.611H109.907C109.36 263.552 104.746 259.912 98.5596 259.912C90.9546 259.912 86.3232 264.561 86.3232 272.644C86.3232 280.83 90.9546 285.427 98.7817 285.427C105.942 285.427 110.198 281.257 110.198 274.507ZM120.315 260.339H113.069V276.216C113.069 281.838 117.427 285.427 123.938 285.427C130.449 285.427 134.807 281.838 134.807 276.216V260.339H127.561V275.413C127.561 278.01 126.279 279.429 123.938 279.429C121.597 279.429 120.315 278.01 120.315 275.413V260.339ZM155.144 279.241H145.471V260.339H138.225V285H155.144V279.241ZM174.148 285H181.873L173.823 260.339H164.731L156.682 285H164.065L165.347 280.095H172.866L174.148 285ZM169.038 266.03H169.175L171.55 274.985H166.663L169.038 266.03ZM191.34 265.688H194.348C196.296 265.688 197.612 267.004 197.612 268.833C197.612 270.696 196.365 271.943 194.331 271.943H191.34V265.688ZM191.34 276.729H193.716L197.612 285H205.713L201.03 275.652C203.611 274.421 205.012 271.619 205.012 268.713C205.012 263.433 201.628 260.339 195.049 260.339H184.094V285H191.34V276.729ZM215.198 285V260.339H207.952V285H215.198ZM217.932 277.737C217.949 282.659 221.897 285.427 228.511 285.427C235.073 285.427 239.294 282.214 239.294 277.173C239.294 273.174 237.056 270.901 232.271 270.063L228.887 269.482C226.545 269.072 225.537 268.457 225.537 267.278C225.537 266.047 226.733 265.261 228.63 265.261C230.579 265.261 232.1 266.167 232.151 267.705H238.765C238.73 262.92 235.056 259.912 228.494 259.912C222.615 259.912 218.342 263.057 218.342 268.047C218.342 271.909 220.803 274.507 225.332 275.293L228.596 275.874C231.245 276.353 232.151 276.848 232.151 277.993C232.151 279.189 230.818 280.061 228.647 280.061C226.699 280.061 224.99 279.138 224.785 277.737H217.932Z" fill="#11B753"/>
</svg>
