<svg width="300" height="400" viewBox="0 0 300 400" fill="none" xmlns="http://www.w3.org/2000/svg">
<rect width="300" height="400" fill="white"/>
<path d="M231.09 69.1599H69.1899V83.3699H231.09V69.1599Z" fill="#D1D3D4"/>
<path d="M234.84 382.72H65.44C49.73 382.72 37 369.99 37 354.28V111.81C37 96.1001 49.73 83.3701 65.44 83.3701H234.84C250.55 83.3701 263.28 96.1001 263.28 111.81V354.28C263.28 369.99 250.55 382.72 234.84 382.72Z" fill="#EDF0F2" stroke="#D1D3D4" stroke-miterlimit="10"/>
<path d="M244.82 69.16H55.46V29.87C55.46 22.76 61.22 17 68.33 17H231.96C239.07 17 244.83 22.76 244.83 29.87V69.16H244.82Z" fill="#EDF0F2" stroke="#D1D3D4" stroke-miterlimit="10"/>
<path d="M244.83 71.3H55.46V79.8601H244.83V71.3Z" fill="#EDF0F2" stroke="#D1D3D4" stroke-miterlimit="10"/>
<path d="M60.543 243.427C67.1909 243.427 71.9932 239.206 72.0273 233.054H65.0889C64.8667 235.908 63.0552 237.736 60.5601 237.736C57.5522 237.736 55.6895 235.104 55.6895 230.644C55.6895 226.235 57.5693 223.603 60.543 223.603C63.0552 223.603 64.8838 225.466 65.0547 228.269H71.9932C71.9761 222.15 67.0542 217.912 60.543 217.912C53.0063 217.912 48.3066 222.526 48.3066 230.661C48.3066 238.796 52.9893 243.427 60.543 243.427ZM82.0249 243V218.339H74.7788V243H82.0249ZM98.2432 243V224.099H104.737V218.339H84.5029V224.099H90.9971V243H98.2432ZM114.461 223.688H117.469C119.417 223.688 120.733 225.004 120.733 226.833C120.733 228.696 119.486 229.943 117.452 229.943H114.461V223.688ZM114.461 234.729H116.837L120.733 243H128.834L124.151 233.652C126.732 232.421 128.133 229.619 128.133 226.713C128.133 221.433 124.75 218.339 118.17 218.339H107.215V243H114.461V234.729ZM138.319 218.339H131.073V234.216C131.073 239.838 135.431 243.427 141.942 243.427C148.453 243.427 152.811 239.838 152.811 234.216V218.339H145.565V233.413C145.565 236.01 144.283 237.429 141.942 237.429C139.601 237.429 138.319 236.01 138.319 233.413V218.339ZM173.148 237.241H163.475V218.339H156.229V243H173.148V237.241ZM192.801 237.241H183.128V218.339H175.882V243H192.801V237.241ZM202.782 243V218.339H195.536V243H202.782ZM213.036 243V230.012H213.172L222.76 243H228.314V218.339H221.478V231.123H221.341L211.822 218.339H206.2V243H213.036ZM249.129 237.241H238.978V233.276H248.497V228.081H238.978V224.099H249.129V218.339H231.732V243H249.129V237.241Z" fill="#C2C2C2"/>
</svg>
