<svg width="300" height="400" viewBox="0 0 300 400" fill="none" xmlns="http://www.w3.org/2000/svg">
<rect width="300" height="400" fill="white"/>
<path d="M231.09 69.1599H69.19V83.3699H231.09V69.1599Z" fill="#D1D3D4"/>
<path d="M234.84 382.72H65.44C49.73 382.72 37 369.99 37 354.28V111.81C37 96.1001 49.73 83.3701 65.44 83.3701H234.84C250.55 83.3701 263.28 96.1001 263.28 111.81V354.28C263.28 369.99 250.55 382.72 234.84 382.72Z" fill="#EDF0F2" stroke="#D1D3D4" stroke-miterlimit="10"/>
<path d="M244.82 69.16H55.46V29.87C55.46 22.76 61.22 17 68.33 17H231.96C239.07 17 244.83 22.76 244.83 29.87V69.16H244.82Z" fill="#EDF0F2" stroke="#D1D3D4" stroke-miterlimit="10"/>
<path d="M244.83 71.3H55.46V79.8601H244.83V71.3Z" fill="#EDF0F2" stroke="#D1D3D4" stroke-miterlimit="10"/>
<path d="M68.7378 243.427C75.3857 243.427 80.188 239.206 80.2222 233.054H73.2837C73.0615 235.908 71.25 237.736 68.7549 237.736C65.7471 237.736 63.8843 235.104 63.8843 230.644C63.8843 226.235 65.7642 223.603 68.7378 223.603C71.25 223.603 73.0786 225.466 73.2495 228.269H80.188C80.1709 222.15 75.249 217.912 68.7378 217.912C61.2012 217.912 56.5015 222.526 56.5015 230.661C56.5015 238.796 61.1841 243.427 68.7378 243.427ZM94.7998 217.912C87.1777 217.912 82.3755 222.8 82.3755 230.678C82.3755 238.557 87.1606 243.427 94.7998 243.427C102.422 243.427 107.224 238.557 107.224 230.678C107.224 222.8 102.422 217.912 94.7998 217.912ZM94.7998 223.688C97.8247 223.688 99.8413 226.406 99.8413 230.678C99.8413 234.934 97.8418 237.651 94.7998 237.651C91.7578 237.651 89.7583 234.934 89.7583 230.678C89.7583 226.406 91.7749 223.688 94.7998 223.688ZM126.963 237.241H117.29V218.339H110.044V243H126.963V237.241ZM146.616 237.241H136.943V218.339H129.697V243H146.616V237.241ZM165.62 243H173.345L165.295 218.339H156.204L148.154 243H155.537L156.819 238.095H164.338L165.62 243ZM160.51 224.03H160.647L163.022 232.985H158.135L160.51 224.03ZM197.134 232.507V229.26H186.401V234.079H190.161L190.127 234.421C189.922 236.403 188.247 237.719 185.889 237.719C182.71 237.719 180.642 235.036 180.642 230.542C180.642 226.149 182.454 223.62 185.53 223.62C187.615 223.62 189.238 224.799 189.717 226.611H196.843C196.296 221.552 191.682 217.912 185.496 217.912C177.891 217.912 173.259 222.561 173.259 230.644C173.259 238.83 177.891 243.427 185.718 243.427C192.878 243.427 197.134 239.257 197.134 232.507ZM217.402 237.241H207.251V233.276H216.77V228.081H207.251V224.099H217.402V218.339H200.005V243H217.402V237.241ZM227.622 243V230.012H227.759L237.346 243H242.9V218.339H236.064V231.123H235.928L226.409 218.339H220.786V243H227.622Z" fill="#A33A60"/>
</svg>
