<svg width="300" height="400" viewBox="0 0 300 400" fill="none" xmlns="http://www.w3.org/2000/svg">
<rect width="300" height="400" fill="white"/>
<path d="M231.09 69.1599H69.19V83.3699H231.09V69.1599Z" fill="#D1D3D4"/>
<path d="M234.84 382.72H65.44C49.73 382.72 37 369.99 37 354.28V111.81C37 96.1001 49.73 83.3701 65.44 83.3701H234.84C250.55 83.3701 263.28 96.1001 263.28 111.81V354.28C263.28 369.99 250.55 382.72 234.84 382.72Z" fill="#EDF0F2" stroke="#D1D3D4" stroke-miterlimit="10"/>
<path d="M244.82 69.16H55.46V29.87C55.46 22.76 61.22 17 68.33 17H231.96C239.07 17 244.83 22.76 244.83 29.87V69.16H244.82Z" fill="#EDF0F2" stroke="#D1D3D4" stroke-miterlimit="10"/>
<path d="M244.83 71.3H55.46V79.8601H244.83V71.3Z" fill="#EDF0F2" stroke="#D1D3D4" stroke-miterlimit="10"/>
<path d="M102.131 243.427C108.779 243.427 113.582 239.206 113.616 233.054H106.677C106.455 235.908 104.644 237.736 102.148 237.736C99.1406 237.736 97.2778 235.104 97.2778 230.644C97.2778 226.235 99.1577 223.603 102.131 223.603C104.644 223.603 106.472 225.466 106.643 228.269H113.582C113.564 222.15 108.643 217.912 102.131 217.912C94.5947 217.912 89.895 222.526 89.895 230.661C89.895 238.796 94.5776 243.427 102.131 243.427ZM128.193 217.912C120.571 217.912 115.769 222.8 115.769 230.678C115.769 238.557 120.554 243.427 128.193 243.427C135.815 243.427 140.618 238.557 140.618 230.678C140.618 222.8 135.815 217.912 128.193 217.912ZM128.193 223.688C131.218 223.688 133.235 226.406 133.235 230.678C133.235 234.934 131.235 237.651 128.193 237.651C125.151 237.651 123.152 234.934 123.152 230.678C123.152 226.406 125.168 223.688 128.193 223.688ZM155.264 243.427C156.75 243.427 158.169 243.239 159.485 242.846L160.715 244.846H167.278L164.287 239.941C166.509 237.89 167.671 234.609 167.671 230.678C167.671 222.834 162.869 217.912 155.264 217.912C147.642 217.912 142.839 222.834 142.839 230.678C142.839 238.676 147.625 243.427 155.264 243.427ZM155.264 237.753C152.222 237.753 150.222 234.951 150.222 230.678C150.222 226.406 152.222 223.586 155.264 223.586C158.289 223.586 160.288 226.423 160.288 230.678C160.288 231.823 160.117 232.9 159.792 233.908L159.741 233.84H153.845L156.169 237.651C155.896 237.719 155.588 237.753 155.264 237.753ZM176.318 243H183.564V218.339H176.318L170.132 222.475V228.542L176.182 224.543H176.318V243ZM199.048 243.684C205.713 243.684 209.9 238.728 209.9 230.593C209.9 222.39 205.662 217.639 199.048 217.639C192.434 217.639 188.179 222.407 188.179 230.61C188.179 238.762 192.383 243.684 199.048 243.684ZM199.048 238.112C197.031 238.112 195.562 235.686 195.562 230.61C195.562 225.517 197.031 223.21 199.048 223.21C201.064 223.21 202.517 225.517 202.517 230.61C202.517 235.686 201.064 238.112 199.048 238.112Z" fill="#3C91AC"/>
</svg>
