<svg width="300" height="400" viewBox="0 0 300 400" fill="none" xmlns="http://www.w3.org/2000/svg">
<rect width="300" height="400" fill="white"/>
<path d="M231.09 69.1599H69.19V83.3699H231.09V69.1599Z" fill="#D1D3D4"/>
<path d="M234.84 382.72H65.44C49.73 382.72 37 369.99 37 354.28V111.81C37 96.1001 49.73 83.3701 65.44 83.3701H234.84C250.55 83.3701 263.28 96.1001 263.28 111.81V354.28C263.28 369.99 250.55 382.72 234.84 382.72Z" fill="#EDF0F2" stroke="#D1D3D4" stroke-miterlimit="10"/>
<path d="M244.82 69.16H55.46V29.87C55.46 22.76 61.22 17 68.33 17H231.96C239.07 17 244.83 22.76 244.83 29.87V69.16H244.82Z" fill="#EDF0F2" stroke="#D1D3D4" stroke-miterlimit="10"/>
<path d="M244.83 71.3H55.46V79.8601H244.83V71.3Z" fill="#EDF0F2" stroke="#D1D3D4" stroke-miterlimit="10"/>
<path d="M77.2314 243.427C83.8794 243.427 88.6816 239.206 88.7158 233.054H81.7773C81.5552 235.908 79.7437 237.736 77.2485 237.736C74.2407 237.736 72.3779 235.104 72.3779 230.644C72.3779 226.235 74.2578 223.603 77.2314 223.603C79.7437 223.603 81.5723 225.466 81.7432 228.269H88.6816C88.6646 222.15 83.7427 217.912 77.2314 217.912C69.6948 217.912 64.9951 222.526 64.9951 230.661C64.9951 238.796 69.6777 243.427 77.2314 243.427ZM98.7134 223.688H101.721C103.669 223.688 104.985 225.004 104.985 226.833C104.985 228.696 103.738 229.943 101.704 229.943H98.7134V223.688ZM98.7134 234.729H101.089L104.985 243H113.086L108.403 233.652C110.984 232.421 112.385 229.619 112.385 226.713C112.385 221.433 109.001 218.339 102.422 218.339H91.4673V243H98.7134V234.729ZM132.722 237.241H122.571V233.276H132.09V228.081H122.571V224.099H132.722V218.339H115.325V243H132.722V237.241ZM152.375 243H160.1L152.051 218.339H142.959L134.91 243H142.292L143.574 238.095H151.094L152.375 243ZM147.266 224.03H147.402L149.778 232.985H144.89L147.266 224.03ZM171.875 243V224.099H178.369V218.339H158.135V224.099H164.629V243H171.875ZM188.093 243V218.339H180.847V243H188.093ZM198.347 243V230.012H198.484L208.071 243H213.625V218.339H206.79V231.123H206.653L197.134 218.339H191.511V243H198.347ZM234.441 237.241H224.29V233.276H233.809V228.081H224.29V224.099H234.441V218.339H217.043V243H234.441V237.241Z" fill="#BE6321"/>
</svg>
