<svg width="300" height="400" viewBox="0 0 300 400" fill="none" xmlns="http://www.w3.org/2000/svg">
<rect width="300" height="400" fill="white"/>
<path d="M231.09 69.1599H69.19V83.3699H231.09V69.1599Z" fill="#D1D3D4"/>
<path d="M234.84 382.72H65.44C49.73 382.72 37 369.99 37 354.28V111.81C37 96.1001 49.73 83.3701 65.44 83.3701H234.84C250.55 83.3701 263.28 96.1001 263.28 111.81V354.28C263.28 369.99 250.55 382.72 234.84 382.72Z" fill="#EDF0F2" stroke="#D1D3D4" stroke-miterlimit="10"/>
<path d="M244.82 69.16H55.46V29.87C55.46 22.76 61.22 17 68.33 17H231.96C239.07 17 244.83 22.76 244.83 29.87V69.16H244.82Z" fill="#EDF0F2" stroke="#D1D3D4" stroke-miterlimit="10"/>
<path d="M244.83 71.3H55.46V79.8601H244.83V71.3Z" fill="#EDF0F2" stroke="#D1D3D4" stroke-miterlimit="10"/>
<path d="M66.6187 243.427C73.2666 243.427 78.0688 239.206 78.103 233.054H71.1646C70.9424 235.908 69.1309 237.736 66.6357 237.736C63.6279 237.736 61.7651 235.104 61.7651 230.644C61.7651 226.235 63.645 223.603 66.6187 223.603C69.1309 223.603 70.9595 225.466 71.1304 228.269H78.0688C78.0518 222.15 73.1299 217.912 66.6187 217.912C59.082 217.912 54.3823 222.526 54.3823 230.661C54.3823 238.796 59.0649 243.427 66.6187 243.427ZM88.1006 218.339H80.8545V234.216C80.8545 239.838 85.2124 243.427 91.7236 243.427C98.2349 243.427 102.593 239.838 102.593 234.216V218.339H95.3467V233.413C95.3467 236.01 94.0649 237.429 91.7236 237.429C89.3823 237.429 88.1006 236.01 88.1006 233.413V218.339ZM113.257 223.688H116.265C118.213 223.688 119.529 225.004 119.529 226.833C119.529 228.696 118.281 229.943 116.248 229.943H113.257V223.688ZM113.257 234.729H115.632L119.529 243H127.629L122.947 233.652C125.527 232.421 126.929 229.619 126.929 226.713C126.929 221.433 123.545 218.339 116.965 218.339H106.011V243H113.257V234.729ZM141.506 243.427C148.154 243.427 152.957 239.206 152.991 233.054H146.052C145.83 235.908 144.019 237.736 141.523 237.736C138.516 237.736 136.653 235.104 136.653 230.644C136.653 226.235 138.533 223.603 141.506 223.603C144.019 223.603 145.847 225.466 146.018 228.269H152.957C152.939 222.15 148.018 217.912 141.506 217.912C133.97 217.912 129.27 222.526 129.27 230.661C129.27 238.796 133.953 243.427 141.506 243.427ZM162.988 218.339H155.742V234.216C155.742 239.838 160.1 243.427 166.611 243.427C173.123 243.427 177.48 239.838 177.48 234.216V218.339H170.234V233.413C170.234 236.01 168.953 237.429 166.611 237.429C164.27 237.429 162.988 236.01 162.988 233.413V218.339ZM208.806 243V218.339H200.432L194.929 232.729H194.792L189.272 218.339H180.898V243H187.222V228.713H187.358L192.913 242.709H196.792L202.346 228.713H202.483V243H208.806ZM219.487 243V218.339H212.241V243H219.487ZM229.741 243V230.012H229.878L239.465 243H245.02V218.339H238.184V231.123H238.047L228.528 218.339H222.905V243H229.741Z" fill="#E6D432"/>
</svg>
