<svg width="300" height="400" viewBox="0 0 300 400" fill="none" xmlns="http://www.w3.org/2000/svg">
<rect width="300" height="400" fill="white"/>
<path d="M231.09 69.1599H69.19V83.3699H231.09V69.1599Z" fill="#D1D3D4"/>
<path d="M234.84 382.72H65.44C49.73 382.72 37 369.99 37 354.28V111.81C37 96.1001 49.73 83.3701 65.44 83.3701H234.84C250.55 83.3701 263.28 96.1001 263.28 111.81V354.28C263.28 369.99 250.55 382.72 234.84 382.72Z" fill="#EDF0F2" stroke="#D1D3D4" stroke-miterlimit="10"/>
<path d="M244.82 69.16H55.46V29.87C55.46 22.76 61.22 17 68.33 17H231.96C239.07 17 244.83 22.76 244.83 29.87V69.16H244.82Z" fill="#EDF0F2" stroke="#D1D3D4" stroke-miterlimit="10"/>
<path d="M244.83 71.3H55.46V79.8601H244.83V71.3Z" fill="#EDF0F2" stroke="#D1D3D4" stroke-miterlimit="10"/>
<path d="M131.116 176.339V201H141.66C149.128 201 153.538 196.386 153.538 188.49C153.538 180.595 149.146 176.339 141.66 176.339H131.116ZM138.362 182.099H140.635C144.104 182.099 146.155 184.337 146.155 188.49C146.155 193.036 144.258 195.241 140.635 195.241H138.362V182.099ZM168.252 193.925V187.978H156.99V193.925H168.252ZM79.3506 243H87.0752L79.0259 218.339H69.9341L61.8848 243H69.2676L70.5493 238.095H78.0688L79.3506 243ZM74.2407 224.03H74.3774L76.7529 232.985H71.8652L74.2407 224.03ZM87.5879 235.737C87.605 240.659 91.5527 243.427 98.1665 243.427C104.729 243.427 108.95 240.214 108.95 235.173C108.95 231.174 106.711 228.901 101.926 228.063L98.5425 227.482C96.2012 227.072 95.1929 226.457 95.1929 225.278C95.1929 224.047 96.3892 223.261 98.2861 223.261C100.234 223.261 101.755 224.167 101.807 225.705H108.42C108.386 220.92 104.712 217.912 98.1494 217.912C92.2705 217.912 87.998 221.057 87.998 226.047C87.998 229.909 90.459 232.507 94.9878 233.293L98.252 233.874C100.901 234.353 101.807 234.848 101.807 235.993C101.807 237.189 100.474 238.061 98.3032 238.061C96.355 238.061 94.646 237.138 94.4409 235.737H87.5879ZM111.685 218.339V243H118.931V236.267H122.451C128.21 236.267 132.124 232.763 132.124 227.329C132.124 221.843 128.433 218.339 122.947 218.339H111.685ZM118.931 223.791H121.016C123.374 223.791 124.81 225.004 124.81 227.346C124.81 229.704 123.374 230.917 120.964 230.917H118.931V223.791ZM148.223 243H155.947L147.898 218.339H138.806L130.757 243H138.14L139.421 238.095H146.941L148.223 243ZM143.113 224.03H143.25L145.625 232.985H140.737L143.113 224.03ZM165.415 223.688H168.423C170.371 223.688 171.687 225.004 171.687 226.833C171.687 228.696 170.439 229.943 168.406 229.943H165.415V223.688ZM165.415 234.729H167.791L171.687 243H179.788L175.105 233.652C177.686 232.421 179.087 229.619 179.087 226.713C179.087 221.433 175.703 218.339 169.124 218.339H158.169V243H165.415V234.729ZM194.827 243V224.099H201.321V218.339H181.086V224.099H187.581V243H194.827ZM211.045 243V218.339H203.799V243H211.045ZM226.101 243.427C232.749 243.427 237.551 239.206 237.585 233.054H230.647C230.425 235.908 228.613 237.736 226.118 237.736C223.11 237.736 221.248 235.104 221.248 230.644C221.248 226.235 223.127 223.603 226.101 223.603C228.613 223.603 230.442 225.466 230.613 228.269H237.551C237.534 222.15 232.612 217.912 226.101 217.912C218.564 217.912 213.865 222.526 213.865 230.661C213.865 238.796 218.547 243.427 226.101 243.427ZM124.827 285H132.551L124.502 260.339H115.41L107.361 285H114.744L116.025 280.095H123.545L124.827 285ZM119.717 266.03H119.854L122.229 274.985H117.341L119.717 266.03ZM144.702 285.427C151.35 285.427 156.152 281.206 156.187 275.054H149.248C149.026 277.908 147.214 279.736 144.719 279.736C141.711 279.736 139.849 277.104 139.849 272.644C139.849 268.235 141.729 265.603 144.702 265.603C147.214 265.603 149.043 267.466 149.214 270.269H156.152C156.135 264.15 151.213 259.912 144.702 259.912C137.166 259.912 132.466 264.526 132.466 272.661C132.466 280.796 137.148 285.427 144.702 285.427ZM166.184 285V260.339H158.938V285H166.184ZM169.602 260.339V285H180.146C187.615 285 192.024 280.386 192.024 272.49C192.024 264.595 187.632 260.339 180.146 260.339H169.602ZM176.848 266.099H179.121C182.59 266.099 184.641 268.337 184.641 272.49C184.641 277.036 182.744 279.241 179.121 279.241H176.848V266.099Z" fill="#59A4CE"/>
</svg>
