<svg width="300" height="400" viewBox="0 0 300 400" fill="none" xmlns="http://www.w3.org/2000/svg">
<rect width="300" height="400" fill="white"/>
<path d="M231.09 69.1599H69.1899V83.3699H231.09V69.1599Z" fill="#D1D3D4"/>
<path d="M234.84 382.72H65.44C49.73 382.72 37 369.99 37 354.28V111.81C37 96.1001 49.73 83.3701 65.44 83.3701H234.84C250.55 83.3701 263.28 96.1001 263.28 111.81V354.28C263.28 369.99 250.55 382.72 234.84 382.72Z" fill="#EDF0F2" stroke="#D1D3D4" stroke-miterlimit="10"/>
<path d="M244.82 69.16H55.46V29.87C55.46 22.76 61.22 17 68.33 17H231.96C239.07 17 244.83 22.76 244.83 29.87V69.16H244.82Z" fill="#EDF0F2" stroke="#D1D3D4" stroke-miterlimit="10"/>
<path d="M244.83 71.3H55.46V79.8601H244.83V71.3Z" fill="#EDF0F2" stroke="#D1D3D4" stroke-miterlimit="10"/>
<path d="M66.4136 218.339V243H76.958C84.4263 243 88.8354 238.386 88.8354 230.49C88.8354 222.595 84.4434 218.339 76.958 218.339H66.4136ZM73.6597 224.099H75.9326C79.4019 224.099 81.4526 226.337 81.4526 230.49C81.4526 235.036 79.5557 237.241 75.9326 237.241H73.6597V224.099ZM103.55 235.925V229.978H92.2876V235.925H103.55ZM114.846 223.688H117.854C119.802 223.688 121.118 225.004 121.118 226.833C121.118 228.696 119.871 229.943 117.837 229.943H114.846V223.688ZM114.846 234.729H117.222L121.118 243H129.219L124.536 233.652C127.117 232.421 128.518 229.619 128.518 226.713C128.518 221.433 125.134 218.339 118.555 218.339H107.6V243H114.846V234.729ZM138.704 243V218.339H131.458V243H138.704ZM154.648 243C159.929 243 163.347 240.146 163.347 235.822C163.347 232.558 160.562 230.046 157.229 229.96V229.824C160.083 229.465 162.236 227.329 162.236 224.492C162.236 220.646 159.28 218.339 154.238 218.339H142.122V243H154.648ZM149.368 223.312H152.273C154.102 223.312 155.195 224.235 155.195 225.756C155.195 227.243 154.033 228.217 152.17 228.217H149.368V223.312ZM149.368 238.027V232.37H152.512C154.683 232.37 155.981 233.396 155.981 235.156C155.981 237.019 154.7 238.027 152.461 238.027H149.368ZM177.566 217.912C169.944 217.912 165.142 222.8 165.142 230.678C165.142 238.557 169.927 243.427 177.566 243.427C185.188 243.427 189.99 238.557 189.99 230.678C189.99 222.8 185.188 217.912 177.566 217.912ZM177.566 223.688C180.591 223.688 182.607 226.406 182.607 230.678C182.607 234.934 180.608 237.651 177.566 237.651C174.524 237.651 172.524 234.934 172.524 230.678C172.524 226.406 174.541 223.688 177.566 223.688ZM192.126 235.737C192.144 240.659 196.091 243.427 202.705 243.427C209.268 243.427 213.489 240.214 213.489 235.173C213.489 231.174 211.25 228.901 206.465 228.063L203.081 227.482C200.74 227.072 199.731 226.457 199.731 225.278C199.731 224.047 200.928 223.261 202.825 223.261C204.773 223.261 206.294 224.167 206.345 225.705H212.959C212.925 220.92 209.25 217.912 202.688 217.912C196.809 217.912 192.537 221.057 192.537 226.047C192.537 229.909 194.998 232.507 199.526 233.293L202.791 233.874C205.439 234.353 206.345 234.848 206.345 235.993C206.345 237.189 205.012 238.061 202.842 238.061C200.894 238.061 199.185 237.138 198.979 235.737H192.126ZM233.621 237.241H223.469V233.276H232.988V228.081H223.469V224.099H233.621V218.339H216.223V243H233.621V237.241Z" fill="#3D3D3D"/>
</svg>
