<svg width="300" height="400" viewBox="0 0 300 400" fill="none" xmlns="http://www.w3.org/2000/svg">
<rect width="300" height="400" fill="white"/>
<path d="M231.09 69.1599H69.1899V83.3699H231.09V69.1599Z" fill="#D1D3D4"/>
<path d="M234.84 382.72H65.44C49.73 382.72 37 369.99 37 354.28V111.81C37 96.1001 49.73 83.3701 65.44 83.3701H234.84C250.55 83.3701 263.28 96.1001 263.28 111.81V354.28C263.28 369.99 250.55 382.72 234.84 382.72Z" fill="#EDF0F2" stroke="#D1D3D4" stroke-miterlimit="10"/>
<path d="M244.82 69.16H55.46V29.87C55.46 22.76 61.22 17 68.33 17H231.96C239.07 17 244.83 22.76 244.83 29.87V69.16H244.82Z" fill="#EDF0F2" stroke="#D1D3D4" stroke-miterlimit="10"/>
<path d="M244.83 71.3H55.46V79.8601H244.83V71.3Z" fill="#EDF0F2" stroke="#D1D3D4" stroke-miterlimit="10"/>
<path d="M102.285 218.339V243H112.83C120.298 243 124.707 238.386 124.707 230.49C124.707 222.595 120.315 218.339 112.83 218.339H102.285ZM109.531 224.099H111.804C115.273 224.099 117.324 226.337 117.324 230.49C117.324 235.036 115.427 237.241 111.804 237.241H109.531V224.099ZM150.718 243V218.339H143.472V227.705H134.79V218.339H127.544V243H134.79V233.464H143.472V243H150.718ZM171.533 237.241H161.382V233.276H170.901V228.081H161.382V224.099H171.533V218.339H154.136V243H171.533V237.241ZM191.187 243H198.911L190.862 218.339H181.77L173.721 243H181.104L182.385 238.095H189.905L191.187 243ZM186.077 224.03H186.213L188.589 232.985H183.701L186.077 224.03Z" fill="#D23EEA"/>
</svg>
