<svg width="300" height="400" viewBox="0 0 300 400" fill="none" xmlns="http://www.w3.org/2000/svg">
<rect width="300" height="400" fill="white"/>
<path d="M231.09 69.1599H69.1899V83.3699H231.09V69.1599Z" fill="#D1D3D4"/>
<path d="M234.84 382.72H65.44C49.73 382.72 37 369.99 37 354.28V111.81C37 96.1001 49.73 83.3701 65.44 83.3701H234.84C250.55 83.3701 263.28 96.1001 263.28 111.81V354.28C263.28 369.99 250.55 382.72 234.84 382.72Z" fill="#EDF0F2" stroke="#D1D3D4" stroke-miterlimit="10"/>
<path d="M244.82 69.16H55.46V29.87C55.46 22.76 61.22 17 68.33 17H231.96C239.07 17 244.83 22.76 244.83 29.87V69.16H244.82Z" fill="#EDF0F2" stroke="#D1D3D4" stroke-miterlimit="10"/>
<path d="M244.83 71.3H55.46V79.8601H244.83V71.3Z" fill="#EDF0F2" stroke="#D1D3D4" stroke-miterlimit="10"/>
<path d="M65.6958 216.241H55.5444V212.276H65.0635V207.081H55.5444V203.099H65.6958V197.339H48.2983V222H65.6958V216.241ZM80.7178 222.427C87.3657 222.427 92.168 218.206 92.2021 212.054H85.2637C85.0415 214.908 83.23 216.736 80.7349 216.736C77.7271 216.736 75.8643 214.104 75.8643 209.644C75.8643 205.235 77.7441 202.603 80.7178 202.603C83.23 202.603 85.0586 204.466 85.2295 207.269H92.168C92.1509 201.15 87.229 196.912 80.7178 196.912C73.1812 196.912 68.4814 201.526 68.4814 209.661C68.4814 217.796 73.1641 222.427 80.7178 222.427ZM118.127 222V197.339H110.881V206.705H102.2V197.339H94.9536V222H102.2V212.464H110.881V222H118.127ZM128.792 222V197.339H121.545V222H128.792ZM139.045 222V209.012H139.182L148.77 222H154.324V197.339H147.488V210.123H147.351L137.832 197.339H132.209V222H139.045ZM174.011 222H181.736L173.687 197.339H164.595L156.545 222H163.928L165.21 217.095H172.729L174.011 222ZM168.901 203.03H169.038L171.414 211.985H166.526L168.901 203.03ZM193.887 222.427C200.535 222.427 205.337 218.206 205.371 212.054H198.433C198.21 214.908 196.399 216.736 193.904 216.736C190.896 216.736 189.033 214.104 189.033 209.644C189.033 205.235 190.913 202.603 193.887 202.603C196.399 202.603 198.228 204.466 198.398 207.269H205.337C205.32 201.15 200.398 196.912 193.887 196.912C186.35 196.912 181.65 201.526 181.65 209.661C181.65 217.796 186.333 222.427 193.887 222.427ZM225.52 216.241H215.369V212.276H224.888V207.081H215.369V203.099H225.52V197.339H208.123V222H225.52V216.241ZM245.173 222H252.898L244.849 197.339H235.757L227.708 222H235.09L236.372 217.095H243.892L245.173 222ZM240.063 203.03H240.2L242.576 211.985H237.688L240.063 203.03ZM56.1938 239.339V264H63.4399V257.267H66.9604C72.7197 257.267 76.6333 253.763 76.6333 248.329C76.6333 242.843 72.9419 239.339 67.4561 239.339H56.1938ZM63.4399 244.791H65.5249C67.8833 244.791 69.3188 246.004 69.3188 248.346C69.3188 250.704 67.8833 251.917 65.4736 251.917H63.4399V244.791ZM86.4429 239.339H79.1968V255.216C79.1968 260.838 83.5547 264.427 90.0659 264.427C96.5771 264.427 100.935 260.838 100.935 255.216V239.339H93.689V254.413C93.689 257.01 92.4072 258.429 90.0659 258.429C87.7246 258.429 86.4429 257.01 86.4429 254.413V239.339ZM111.599 244.688H114.607C116.555 244.688 117.871 246.004 117.871 247.833C117.871 249.696 116.624 250.943 114.59 250.943H111.599V244.688ZM111.599 255.729H113.975L117.871 264H125.972L121.289 254.652C123.87 253.421 125.271 250.619 125.271 247.713C125.271 242.433 121.887 239.339 115.308 239.339H104.353V264H111.599V255.729ZM128.21 239.339V264H135.457V257.267H138.977C144.736 257.267 148.65 253.763 148.65 248.329C148.65 242.843 144.958 239.339 139.473 239.339H128.21ZM135.457 244.791H137.542C139.9 244.791 141.335 246.004 141.335 248.346C141.335 250.704 139.9 251.917 137.49 251.917H135.457V244.791ZM158.459 239.339H151.213V255.216C151.213 260.838 155.571 264.427 162.083 264.427C168.594 264.427 172.952 260.838 172.952 255.216V239.339H165.706V254.413C165.706 257.01 164.424 258.429 162.083 258.429C159.741 258.429 158.459 257.01 158.459 254.413V239.339ZM183.616 244.688H186.624C188.572 244.688 189.888 246.004 189.888 247.833C189.888 249.696 188.64 250.943 186.606 250.943H183.616V244.688ZM183.616 255.729H185.991L189.888 264H197.988L193.306 254.652C195.886 253.421 197.288 250.619 197.288 247.713C197.288 242.433 193.904 239.339 187.324 239.339H176.37V264H183.616V255.729ZM217.625 258.241H207.473V254.276H216.992V249.081H207.473V245.099H217.625V239.339H200.227V264H217.625V258.241ZM237.278 264H245.002L236.953 239.339H227.861L219.812 264H227.195L228.477 259.095H235.996L237.278 264ZM232.168 245.03H232.305L234.68 253.985H229.792L232.168 245.03Z" fill="#CE2EE8"/>
</svg>
