<svg width="300" height="400" viewBox="0 0 300 400" fill="none" xmlns="http://www.w3.org/2000/svg">
<rect width="300" height="400" fill="white"/>
<path d="M231.09 69.1599H69.1899V83.3699H231.09V69.1599Z" fill="#D1D3D4"/>
<path d="M234.84 382.72H65.44C49.73 382.72 37 369.99 37 354.28V111.81C37 96.1001 49.73 83.3701 65.44 83.3701H234.84C250.55 83.3701 263.28 96.1001 263.28 111.81V354.28C263.28 369.99 250.55 382.72 234.84 382.72Z" fill="#EDF0F2" stroke="#D1D3D4" stroke-miterlimit="10"/>
<path d="M244.82 69.16H55.46V29.87C55.46 22.76 61.22 17 68.33 17H231.96C239.07 17 244.83 22.76 244.83 29.87V69.16H244.82Z" fill="#EDF0F2" stroke="#D1D3D4" stroke-miterlimit="10"/>
<path d="M244.83 71.3H55.46V79.8601H244.83V71.3Z" fill="#EDF0F2" stroke="#D1D3D4" stroke-miterlimit="10"/>
<path d="M119.631 237.241H109.48V233.276H118.999V228.081H109.48V224.099H119.631V218.339H102.234V243H119.631V237.241ZM146.292 232.507V229.26H135.559V234.079H139.319L139.285 234.421C139.08 236.403 137.405 237.719 135.046 237.719C131.868 237.719 129.8 235.036 129.8 230.542C129.8 226.149 131.611 223.62 134.688 223.62C136.772 223.62 138.396 224.799 138.875 226.611H146.001C145.454 221.552 140.84 217.912 134.653 217.912C127.048 217.912 122.417 222.561 122.417 230.644C122.417 238.83 127.048 243.427 134.875 243.427C142.036 243.427 146.292 239.257 146.292 232.507ZM160.801 243.427C167.449 243.427 172.251 239.206 172.285 233.054H165.347C165.125 235.908 163.313 237.736 160.818 237.736C157.81 237.736 155.947 235.104 155.947 230.644C155.947 226.235 157.827 223.603 160.801 223.603C163.313 223.603 165.142 225.466 165.312 228.269H172.251C172.234 222.15 167.312 217.912 160.801 217.912C153.264 217.912 148.564 222.526 148.564 230.661C148.564 238.796 153.247 243.427 160.801 243.427ZM198.313 232.507V229.26H187.581V234.079H191.34L191.306 234.421C191.101 236.403 189.426 237.719 187.068 237.719C183.889 237.719 181.821 235.036 181.821 230.542C181.821 226.149 183.633 223.62 186.709 223.62C188.794 223.62 190.417 224.799 190.896 226.611H198.022C197.476 221.552 192.861 217.912 186.675 217.912C179.07 217.912 174.438 222.561 174.438 230.644C174.438 238.83 179.07 243.427 186.897 243.427C194.058 243.427 198.313 239.257 198.313 232.507Z" fill="#75B8A4"/>
</svg>
