<svg width="300" height="400" viewBox="0 0 300 400" fill="none" xmlns="http://www.w3.org/2000/svg">
<rect width="300" height="400" fill="white"/>
<path d="M231.09 69.1599H69.1899V83.3699H231.09V69.1599Z" fill="#D1D3D4"/>
<path d="M234.84 382.72H65.44C49.73 382.72 37 369.99 37 354.28V111.81C37 96.1001 49.73 83.3701 65.44 83.3701H234.84C250.55 83.3701 263.28 96.1001 263.28 111.81V354.28C263.28 369.99 250.55 382.72 234.84 382.72Z" fill="#EDF0F2" stroke="#D1D3D4" stroke-miterlimit="10"/>
<path d="M244.82 69.16H55.46V29.87C55.46 22.76 61.22 17 68.33 17H231.96C239.07 17 244.83 22.76 244.83 29.87V69.16H244.82Z" fill="#EDF0F2" stroke="#D1D3D4" stroke-miterlimit="10"/>
<path d="M244.83 71.3H55.46V79.8601H244.83V71.3Z" fill="#EDF0F2" stroke="#D1D3D4" stroke-miterlimit="10"/>
<path d="M106.062 216.241H95.9106V212.276H105.43V207.081H95.9106V203.099H106.062V197.339H88.6646V222H106.062V216.241ZM126.365 216.241H116.692V197.339H109.446V222H126.365V216.241ZM129.099 197.339V222H139.644C147.112 222 151.521 217.386 151.521 209.49C151.521 201.595 147.129 197.339 139.644 197.339H129.099ZM136.345 203.099H138.618C142.087 203.099 144.138 205.337 144.138 209.49C144.138 214.036 142.241 216.241 138.618 216.241H136.345V203.099ZM171.755 216.241H161.604V212.276H171.123V207.081H161.604V203.099H171.755V197.339H154.358V222H171.755V216.241ZM182.385 202.688H185.393C187.341 202.688 188.657 204.004 188.657 205.833C188.657 207.696 187.41 208.943 185.376 208.943H182.385V202.688ZM182.385 213.729H184.761L188.657 222H196.758L192.075 212.652C194.656 211.421 196.057 208.619 196.057 205.713C196.057 200.433 192.673 197.339 186.094 197.339H175.139V222H182.385V213.729ZM210.703 214.925V208.978H199.441V214.925H210.703ZM90.7495 264C96.0303 264 99.4482 261.146 99.4482 256.822C99.4482 253.558 96.6626 251.046 93.3301 250.96V250.824C96.1841 250.465 98.3374 248.329 98.3374 245.492C98.3374 241.646 95.3809 239.339 90.3394 239.339H78.2227V264H90.7495ZM85.4688 244.312H88.374C90.2026 244.312 91.2964 245.235 91.2964 246.756C91.2964 248.243 90.1343 249.217 88.2715 249.217H85.4688V244.312ZM85.4688 259.027V253.37H88.6133C90.7837 253.37 92.0825 254.396 92.0825 256.156C92.0825 258.019 90.8008 259.027 88.562 259.027H85.4688ZM119.238 258.241H109.087V254.276H118.606V249.081H109.087V245.099H119.238V239.339H101.841V264H119.238V258.241ZM129.868 244.688H132.876C134.824 244.688 136.14 246.004 136.14 247.833C136.14 249.696 134.893 250.943 132.859 250.943H129.868V244.688ZM129.868 255.729H132.244L136.14 264H144.241L139.558 254.652C142.139 253.421 143.54 250.619 143.54 247.713C143.54 242.433 140.156 239.339 133.577 239.339H122.622V264H129.868V255.729ZM153.726 244.688H156.733C158.682 244.688 159.998 246.004 159.998 247.833C159.998 249.696 158.75 250.943 156.716 250.943H153.726V244.688ZM153.726 255.729H156.101L159.998 264H168.098L163.416 254.652C165.996 253.421 167.397 250.619 167.397 247.713C167.397 242.433 164.014 239.339 157.434 239.339H146.479V264H153.726V255.729ZM177.583 264V239.339H170.337V264H177.583ZM198.398 258.241H188.247V254.276H197.766V249.081H188.247V245.099H198.398V239.339H181.001V264H198.398V258.241ZM201.099 256.737C201.116 261.659 205.063 264.427 211.677 264.427C218.24 264.427 222.461 261.214 222.461 256.173C222.461 252.174 220.222 249.901 215.437 249.063L212.053 248.482C209.712 248.072 208.704 247.457 208.704 246.278C208.704 245.047 209.9 244.261 211.797 244.261C213.745 244.261 215.266 245.167 215.317 246.705H221.931C221.897 241.92 218.223 238.912 211.66 238.912C205.781 238.912 201.509 242.057 201.509 247.047C201.509 250.909 203.97 253.507 208.499 254.293L211.763 254.874C214.412 255.353 215.317 255.848 215.317 256.993C215.317 258.189 213.984 259.061 211.814 259.061C209.866 259.061 208.157 258.138 207.952 256.737H201.099Z" fill="#C878B6"/>
</svg>
