<svg width="300" height="400" viewBox="0 0 300 400" fill="none" xmlns="http://www.w3.org/2000/svg">
<rect width="300" height="400" fill="white"/>
<path d="M231.09 69.1599H69.1899V83.3699H231.09V69.1599Z" fill="#D1D3D4"/>
<path d="M234.84 382.72H65.44C49.73 382.72 37 369.99 37 354.28V111.81C37 96.1001 49.73 83.3701 65.44 83.3701H234.84C250.55 83.3701 263.28 96.1001 263.28 111.81V354.28C263.28 369.99 250.55 382.72 234.84 382.72Z" fill="#EDF0F2" stroke="#D1D3D4" stroke-miterlimit="10"/>
<path d="M244.82 69.16H55.46V29.87C55.46 22.76 61.22 17 68.33 17H231.96C239.07 17 244.83 22.76 244.83 29.87V69.16H244.82Z" fill="#EDF0F2" stroke="#D1D3D4" stroke-miterlimit="10"/>
<path d="M244.83 71.3H55.46V79.8601H244.83V71.3Z" fill="#EDF0F2" stroke="#D1D3D4" stroke-miterlimit="10"/>
<path d="M55.1343 243V234.267H64.2603V228.833H55.1343V224.099H65.2173V218.339H47.8882V243H55.1343ZM85.1782 237.241H75.0269V233.276H84.5459V228.081H75.0269V224.099H85.1782V218.339H67.7808V243H85.1782V237.241ZM95.3979 243V230.012H95.5347L105.122 243H110.676V218.339H103.84V231.123H103.704L94.1846 218.339H88.562V243H95.3979ZM121.34 218.339H114.094V234.216C114.094 239.838 118.452 243.427 124.963 243.427C131.475 243.427 135.833 239.838 135.833 234.216V218.339H128.586V233.413C128.586 236.01 127.305 237.429 124.963 237.429C122.622 237.429 121.34 236.01 121.34 233.413V218.339ZM162.527 232.507V229.26H151.794V234.079H155.554L155.52 234.421C155.315 236.403 153.64 237.719 151.282 237.719C148.103 237.719 146.035 235.036 146.035 230.542C146.035 226.149 147.847 223.62 150.923 223.62C153.008 223.62 154.631 224.799 155.11 226.611H162.236C161.689 221.552 157.075 217.912 150.889 217.912C143.284 217.912 138.652 222.561 138.652 230.644C138.652 238.83 143.284 243.427 151.111 243.427C158.271 243.427 162.527 239.257 162.527 232.507ZM172.644 223.688H175.652C177.6 223.688 178.916 225.004 178.916 226.833C178.916 228.696 177.668 229.943 175.635 229.943H172.644V223.688ZM172.644 234.729H175.02L178.916 243H187.017L182.334 233.652C184.915 232.421 186.316 229.619 186.316 226.713C186.316 221.433 182.932 218.339 176.353 218.339H165.398V243H172.644V234.729ZM206.653 237.241H196.501V233.276H206.021V228.081H196.501V224.099H206.653V218.339H189.255V243H206.653V237.241ZM227.434 237.241H217.283V233.276H226.802V228.081H217.283V224.099H227.434V218.339H210.037V243H227.434V237.241ZM238.064 243V236.54L239.995 233.942L245.378 243H253.804L245.31 229.294L253.428 218.339H245.823L238.201 228.798H238.064V218.339H230.818V243H238.064Z" fill="#DE921F"/>
</svg>
