<svg width="300" height="400" viewBox="0 0 300 400" fill="none" xmlns="http://www.w3.org/2000/svg">
<rect width="300" height="400" fill="white"/>
<path d="M231.09 69.1599H69.1899V83.3699H231.09V69.1599Z" fill="#D1D3D4"/>
<path d="M234.84 382.72H65.44C49.73 382.72 37 369.99 37 354.28V111.81C37 96.1001 49.73 83.3701 65.44 83.3701H234.84C250.55 83.3701 263.28 96.1001 263.28 111.81V354.28C263.28 369.99 250.55 382.72 234.84 382.72Z" fill="#EDF0F2" stroke="#D1D3D4" stroke-miterlimit="10"/>
<path d="M244.82 69.16H55.46V29.87C55.46 22.76 61.22 17 68.33 17H231.96C239.07 17 244.83 22.76 244.83 29.87V69.16H244.82Z" fill="#EDF0F2" stroke="#D1D3D4" stroke-miterlimit="10"/>
<path d="M244.83 71.3H55.46V79.8601H244.83V71.3Z" fill="#EDF0F2" stroke="#D1D3D4" stroke-miterlimit="10"/>
<path d="M60.8936 243V234.267H70.0195V228.833H60.8936V224.099H70.9766V218.339H53.6475V243H60.8936ZM85.3662 217.912C77.7441 217.912 72.9419 222.8 72.9419 230.678C72.9419 238.557 77.7271 243.427 85.3662 243.427C92.9883 243.427 97.7905 238.557 97.7905 230.678C97.7905 222.8 92.9883 217.912 85.3662 217.912ZM85.3662 223.688C88.3911 223.688 90.4077 226.406 90.4077 230.678C90.4077 234.934 88.4082 237.651 85.3662 237.651C82.3242 237.651 80.3247 234.934 80.3247 230.678C80.3247 226.406 82.3413 223.688 85.3662 223.688ZM117.529 237.241H107.856V218.339H100.61V243H117.529V237.241ZM127.51 243V218.339H120.264V243H127.51ZM142.566 243.427C149.214 243.427 154.016 239.206 154.05 233.054H147.112C146.89 235.908 145.078 237.736 142.583 237.736C139.575 237.736 137.712 235.104 137.712 230.644C137.712 226.235 139.592 223.603 142.566 223.603C145.078 223.603 146.907 225.466 147.078 228.269H154.016C153.999 222.15 149.077 217.912 142.566 217.912C135.029 217.912 130.33 222.526 130.33 230.661C130.33 238.796 135.012 243.427 142.566 243.427ZM179.736 243H187.461L179.412 218.339H170.32L162.271 243H169.653L170.935 238.095H178.455L179.736 243ZM174.626 224.03H174.763L177.139 232.985H172.251L174.626 224.03ZM199.612 243.427C206.26 243.427 211.062 239.206 211.096 233.054H204.158C203.936 235.908 202.124 237.736 199.629 237.736C196.621 237.736 194.758 235.104 194.758 230.644C194.758 226.235 196.638 223.603 199.612 223.603C202.124 223.603 203.953 225.466 204.124 228.269H211.062C211.045 222.15 206.123 217.912 199.612 217.912C192.075 217.912 187.375 222.526 187.375 230.661C187.375 238.796 192.058 243.427 199.612 243.427ZM221.094 243V218.339H213.848V243H221.094ZM224.512 218.339V243H235.056C242.524 243 246.934 238.386 246.934 230.49C246.934 222.595 242.542 218.339 235.056 218.339H224.512ZM231.758 224.099H234.031C237.5 224.099 239.551 226.337 239.551 230.49C239.551 235.036 237.654 237.241 234.031 237.241H231.758V224.099Z" fill="#2183CA"/>
</svg>
