<svg width="300" height="400" viewBox="0 0 300 400" fill="none" xmlns="http://www.w3.org/2000/svg">
<rect width="300" height="400" fill="white"/>
<path d="M231.09 69.1599H69.1899V83.3699H231.09V69.1599Z" fill="#D1D3D4"/>
<path d="M234.84 382.72H65.44C49.73 382.72 37 369.99 37 354.28V111.81C37 96.1001 49.73 83.3701 65.44 83.3701H234.84C250.55 83.3701 263.28 96.1001 263.28 111.81V354.28C263.28 369.99 250.55 382.72 234.84 382.72Z" fill="#EDF0F2" stroke="#D1D3D4" stroke-miterlimit="10"/>
<path d="M244.82 69.16H55.46V29.87C55.46 22.76 61.22 17 68.33 17H231.96C239.07 17 244.83 22.76 244.83 29.87V69.16H244.82Z" fill="#EDF0F2" stroke="#D1D3D4" stroke-miterlimit="10"/>
<path d="M244.83 71.3H55.46V79.8601H244.83V71.3Z" fill="#EDF0F2" stroke="#D1D3D4" stroke-miterlimit="10"/>
<path d="M123.767 243V234.267H132.893V228.833H123.767V224.099H133.85V218.339H116.521V243H123.767ZM148.24 217.912C140.618 217.912 135.815 222.8 135.815 230.678C135.815 238.557 140.601 243.427 148.24 243.427C155.862 243.427 160.664 238.557 160.664 230.678C160.664 222.8 155.862 217.912 148.24 217.912ZM148.24 223.688C151.265 223.688 153.281 226.406 153.281 230.678C153.281 234.934 151.282 237.651 148.24 237.651C145.198 237.651 143.198 234.934 143.198 230.678C143.198 226.406 145.215 223.688 148.24 223.688ZM162.8 235.737C162.817 240.659 166.765 243.427 173.379 243.427C179.941 243.427 184.163 240.214 184.163 235.173C184.163 231.174 181.924 228.901 177.139 228.063L173.755 227.482C171.414 227.072 170.405 226.457 170.405 225.278C170.405 224.047 171.602 223.261 173.499 223.261C175.447 223.261 176.968 224.167 177.019 225.705H183.633C183.599 220.92 179.924 217.912 173.362 217.912C167.483 217.912 163.21 221.057 163.21 226.047C163.21 229.909 165.671 232.507 170.2 233.293L173.464 233.874C176.113 234.353 177.019 234.848 177.019 235.993C177.019 237.189 175.686 238.061 173.516 238.061C171.567 238.061 169.858 237.138 169.653 235.737H162.8Z" fill="#3D3D3D"/>
</svg>
