<svg width="300" height="400" viewBox="0 0 300 400" fill="none" xmlns="http://www.w3.org/2000/svg">
<rect width="300" height="400" fill="white"/>
<path d="M231.09 69.1599H69.1899V83.3699H231.09V69.1599Z" fill="#D1D3D4"/>
<path d="M234.84 382.72H65.44C49.73 382.72 37 369.99 37 354.28V111.81C37 96.1001 49.73 83.3701 65.44 83.3701H234.84C250.55 83.3701 263.28 96.1001 263.28 111.81V354.28C263.28 369.99 250.55 382.72 234.84 382.72Z" fill="#EDF0F2" stroke="#D1D3D4" stroke-miterlimit="10"/>
<path d="M244.82 69.16H55.46V29.87C55.46 22.76 61.22 17 68.33 17H231.96C239.07 17 244.83 22.76 244.83 29.87V69.16H244.82Z" fill="#EDF0F2" stroke="#D1D3D4" stroke-miterlimit="10"/>
<path d="M244.83 71.3H55.46V79.8601H244.83V71.3Z" fill="#EDF0F2" stroke="#D1D3D4" stroke-miterlimit="10"/>
<path d="M109.463 232.507V229.26H98.7305V234.079H102.49L102.456 234.421C102.251 236.403 100.576 237.719 98.2178 237.719C95.0391 237.719 92.9712 235.036 92.9712 230.542C92.9712 226.149 94.7827 223.62 97.8589 223.62C99.9438 223.62 101.567 224.799 102.046 226.611H109.172C108.625 221.552 104.011 217.912 97.8247 217.912C90.2197 217.912 85.5884 222.561 85.5884 230.644C85.5884 238.83 90.2197 243.427 98.0469 243.427C105.208 243.427 109.463 239.257 109.463 232.507ZM127.236 243H134.961L126.912 218.339H117.82L109.771 243H117.153L118.435 238.095H125.955L127.236 243ZM122.126 224.03H122.263L124.639 232.985H119.751L122.126 224.03ZM144.429 223.688H147.437C149.385 223.688 150.701 225.004 150.701 226.833C150.701 228.696 149.453 229.943 147.419 229.943H144.429V223.688ZM144.429 234.729H146.804L150.701 243H158.801L154.119 233.652C156.699 232.421 158.101 229.619 158.101 226.713C158.101 221.433 154.717 218.339 148.137 218.339H137.183V243H144.429V234.729ZM177.959 237.241H168.286V218.339H161.04V243H177.959V237.241ZM187.939 243V218.339H180.693V243H187.939ZM202.996 243.427C209.644 243.427 214.446 239.206 214.48 233.054H207.542C207.319 235.908 205.508 237.736 203.013 237.736C200.005 237.736 198.142 235.104 198.142 230.644C198.142 226.235 200.022 223.603 202.996 223.603C205.508 223.603 207.336 225.466 207.507 228.269H214.446C214.429 222.15 209.507 217.912 202.996 217.912C195.459 217.912 190.759 222.526 190.759 230.661C190.759 238.796 195.442 243.427 202.996 243.427Z" fill="#3D3D3D"/>
</svg>
