<svg width="300" height="400" viewBox="0 0 300 400" fill="none" xmlns="http://www.w3.org/2000/svg">
<rect width="300" height="400" fill="white"/>
<path d="M231.09 69.1599H69.19V83.3699H231.09V69.1599Z" fill="#D1D3D4"/>
<path d="M234.84 382.72H65.44C49.73 382.72 37 369.99 37 354.28V111.81C37 96.1001 49.73 83.3701 65.44 83.3701H234.84C250.55 83.3701 263.28 96.1001 263.28 111.81V354.28C263.28 369.99 250.55 382.72 234.84 382.72Z" fill="#EDF0F2" stroke="#D1D3D4" stroke-miterlimit="10"/>
<path d="M244.82 69.16H55.46V29.87C55.46 22.76 61.22 17 68.33 17H231.96C239.07 17 244.83 22.76 244.83 29.87V69.16H244.82Z" fill="#EDF0F2" stroke="#D1D3D4" stroke-miterlimit="10"/>
<path d="M244.83 71.3H55.46V79.8601H244.83V71.3Z" fill="#EDF0F2" stroke="#D1D3D4" stroke-miterlimit="10"/>
<path d="M108.42 232.507V229.26H97.688V234.079H101.448L101.414 234.421C101.208 236.403 99.5337 237.719 97.1753 237.719C93.9966 237.719 91.9287 235.036 91.9287 230.542C91.9287 226.149 93.7402 223.62 96.8164 223.62C98.9014 223.62 100.525 224.799 101.003 226.611H108.13C107.583 221.552 102.969 217.912 96.7822 217.912C89.1772 217.912 84.5459 222.561 84.5459 230.644C84.5459 238.83 89.1772 243.427 97.0044 243.427C104.165 243.427 108.42 239.257 108.42 232.507ZM118.538 243V218.339H111.292V243H118.538ZM128.792 243V230.012H128.928L138.516 243H144.07V218.339H137.234V231.123H137.097L127.578 218.339H121.956V243H128.792ZM170.764 232.507V229.26H160.032V234.079H163.792L163.757 234.421C163.552 236.403 161.877 237.719 159.519 237.719C156.34 237.719 154.272 235.036 154.272 230.542C154.272 226.149 156.084 223.62 159.16 223.62C161.245 223.62 162.869 224.799 163.347 226.611H170.474C169.927 221.552 165.312 217.912 159.126 217.912C151.521 217.912 146.89 222.561 146.89 230.644C146.89 238.83 151.521 243.427 159.348 243.427C166.509 243.427 170.764 239.257 170.764 232.507ZM191.033 237.241H180.881V233.276H190.4V228.081H180.881V224.099H191.033V218.339H173.635V243H191.033V237.241ZM201.663 223.688H204.67C206.619 223.688 207.935 225.004 207.935 226.833C207.935 228.696 206.687 229.943 204.653 229.943H201.663V223.688ZM201.663 234.729H204.038L207.935 243H216.035L211.353 233.652C213.933 232.421 215.334 229.619 215.334 226.713C215.334 221.433 211.951 218.339 205.371 218.339H194.417V243H201.663V234.729Z" fill="#8C7575"/>
</svg>
