<svg width="300" height="400" viewBox="0 0 300 400" fill="none" xmlns="http://www.w3.org/2000/svg">
<rect width="300" height="400" fill="white"/>
<path d="M231.09 69.1599H69.19V83.3699H231.09V69.1599Z" fill="#D1D3D4"/>
<path d="M234.84 382.72H65.44C49.73 382.72 37 369.99 37 354.28V111.81C37 96.1001 49.73 83.3701 65.44 83.3701H234.84C250.55 83.3701 263.28 96.1001 263.28 111.81V354.28C263.28 369.99 250.55 382.72 234.84 382.72Z" fill="#EDF0F2" stroke="#D1D3D4" stroke-miterlimit="10"/>
<path d="M244.82 69.16H55.46V29.87C55.46 22.76 61.22 17 68.33 17H231.96C239.07 17 244.83 22.76 244.83 29.87V69.16H244.82Z" fill="#EDF0F2" stroke="#D1D3D4" stroke-miterlimit="10"/>
<path d="M244.83 71.3H55.46V79.8601H244.83V71.3Z" fill="#EDF0F2" stroke="#D1D3D4" stroke-miterlimit="10"/>
<path d="M105.361 211.507V208.26H94.6289V213.079H98.3887L98.3545 213.421C98.1494 215.403 96.4746 216.719 94.1162 216.719C90.9375 216.719 88.8696 214.036 88.8696 209.542C88.8696 205.149 90.6812 202.62 93.7573 202.62C95.8423 202.62 97.4658 203.799 97.9443 205.611H105.071C104.524 200.552 99.9097 196.912 93.7231 196.912C86.1182 196.912 81.4868 201.561 81.4868 209.644C81.4868 217.83 86.1182 222.427 93.9453 222.427C101.106 222.427 105.361 218.257 105.361 211.507ZM115.479 222V197.339H108.232V222H115.479ZM125.732 222V209.012H125.869L135.457 222H141.011V197.339H134.175V210.123H134.038L124.519 197.339H118.896V222H125.732ZM151.675 222V215.54L153.606 212.942L158.989 222H167.415L158.921 208.294L167.039 197.339H159.434L151.812 207.798H151.675V197.339H144.429V222H151.675ZM191.392 211.507V208.26H180.659V213.079H184.419L184.385 213.421C184.18 215.403 182.505 216.719 180.146 216.719C176.968 216.719 174.9 214.036 174.9 209.542C174.9 205.149 176.711 202.62 179.788 202.62C181.873 202.62 183.496 203.799 183.975 205.611H191.101C190.554 200.552 185.94 196.912 179.753 196.912C172.148 196.912 167.517 201.561 167.517 209.644C167.517 217.83 172.148 222.427 179.976 222.427C187.136 222.427 191.392 218.257 191.392 211.507ZM206.089 196.912C198.467 196.912 193.665 201.8 193.665 209.678C193.665 217.557 198.45 222.427 206.089 222.427C213.711 222.427 218.513 217.557 218.513 209.678C218.513 201.8 213.711 196.912 206.089 196.912ZM206.089 202.688C209.114 202.688 211.13 205.406 211.13 209.678C211.13 213.934 209.131 216.651 206.089 216.651C203.047 216.651 201.047 213.934 201.047 209.678C201.047 205.406 203.064 202.688 206.089 202.688ZM99.3286 264C104.609 264 108.027 261.146 108.027 256.822C108.027 253.558 105.242 251.046 101.909 250.96V250.824C104.763 250.465 106.917 248.329 106.917 245.492C106.917 241.646 103.96 239.339 98.9185 239.339H86.8018V264H99.3286ZM94.0479 244.312H96.9531C98.7817 244.312 99.8755 245.235 99.8755 246.756C99.8755 248.243 98.7134 249.217 96.8506 249.217H94.0479V244.312ZM94.0479 259.027V253.37H97.1924C99.3628 253.37 100.662 254.396 100.662 256.156C100.662 258.019 99.3799 259.027 97.1411 259.027H94.0479ZM117.666 264V239.339H110.42V264H117.666ZM138.003 258.241H128.33V239.339H121.084V264H138.003V258.241ZM151.538 238.912C143.916 238.912 139.114 243.8 139.114 251.678C139.114 259.557 143.899 264.427 151.538 264.427C159.16 264.427 163.962 259.557 163.962 251.678C163.962 243.8 159.16 238.912 151.538 238.912ZM151.538 244.688C154.563 244.688 156.58 247.406 156.58 251.678C156.58 255.934 154.58 258.651 151.538 258.651C148.496 258.651 146.497 255.934 146.497 251.678C146.497 247.406 148.513 244.688 151.538 244.688ZM179.309 264C184.59 264 188.008 261.146 188.008 256.822C188.008 253.558 185.222 251.046 181.89 250.96V250.824C184.744 250.465 186.897 248.329 186.897 245.492C186.897 241.646 183.94 239.339 178.899 239.339H166.782V264H179.309ZM174.028 244.312H176.934C178.762 244.312 179.856 245.235 179.856 246.756C179.856 248.243 178.694 249.217 176.831 249.217H174.028V244.312ZM174.028 259.027V253.37H177.173C179.343 253.37 180.642 254.396 180.642 256.156C180.642 258.019 179.36 259.027 177.122 259.027H174.028ZM206.67 264H214.395L206.345 239.339H197.253L189.204 264H196.587L197.869 259.095H205.388L206.67 264ZM201.56 245.03H201.697L204.072 253.985H199.185L201.56 245.03Z" fill="#13C866"/>
</svg>
