<svg width="300" height="400" viewBox="0 0 300 400" fill="none" xmlns="http://www.w3.org/2000/svg">
<rect width="300" height="400" fill="white"/>
<path d="M231.09 69.1599H69.19V83.3699H231.09V69.1599Z" fill="#D1D3D4"/>
<path d="M234.84 382.72H65.44C49.73 382.72 37 369.99 37 354.28V111.81C37 96.1001 49.73 83.3701 65.44 83.3701H234.84C250.55 83.3701 263.28 96.1001 263.28 111.81V354.28C263.28 369.99 250.55 382.72 234.84 382.72Z" fill="#EDF0F2" stroke="#D1D3D4" stroke-miterlimit="10"/>
<path d="M244.82 69.16H55.46V29.87C55.46 22.76 61.22 17 68.33 17H231.96C239.07 17 244.83 22.76 244.83 29.87V69.16H244.82Z" fill="#EDF0F2" stroke="#D1D3D4" stroke-miterlimit="10"/>
<path d="M244.83 71.3H55.46V79.8601H244.83V71.3Z" fill="#EDF0F2" stroke="#D1D3D4" stroke-miterlimit="10"/>
<path d="M105.242 211.507V208.26H94.5093V213.079H98.269L98.2349 213.421C98.0298 215.403 96.355 216.719 93.9966 216.719C90.8179 216.719 88.75 214.036 88.75 209.542C88.75 205.149 90.5615 202.62 93.6377 202.62C95.7227 202.62 97.3462 203.799 97.8247 205.611H104.951C104.404 200.552 99.79 196.912 93.6035 196.912C85.9985 196.912 81.3672 201.561 81.3672 209.644C81.3672 217.83 85.9985 222.427 93.8257 222.427C100.986 222.427 105.242 218.257 105.242 211.507ZM125.032 216.241H115.359V197.339H108.113V222H125.032V216.241ZM134.67 197.339H127.424V213.216C127.424 218.838 131.782 222.427 138.293 222.427C144.805 222.427 149.163 218.838 149.163 213.216V197.339H141.917V212.413C141.917 215.01 140.635 216.429 138.293 216.429C135.952 216.429 134.67 215.01 134.67 212.413V197.339ZM164.219 222.427C170.867 222.427 175.669 218.206 175.703 212.054H168.765C168.542 214.908 166.731 216.736 164.236 216.736C161.228 216.736 159.365 214.104 159.365 209.644C159.365 205.235 161.245 202.603 164.219 202.603C166.731 202.603 168.56 204.466 168.73 207.269H175.669C175.652 201.15 170.73 196.912 164.219 196.912C156.682 196.912 151.982 201.526 151.982 209.661C151.982 217.796 156.665 222.427 164.219 222.427ZM190.281 196.912C182.659 196.912 177.856 201.8 177.856 209.678C177.856 217.557 182.642 222.427 190.281 222.427C197.903 222.427 202.705 217.557 202.705 209.678C202.705 201.8 197.903 196.912 190.281 196.912ZM190.281 202.688C193.306 202.688 195.322 205.406 195.322 209.678C195.322 213.934 193.323 216.651 190.281 216.651C187.239 216.651 185.239 213.934 185.239 209.678C185.239 205.406 187.256 202.688 190.281 202.688ZM217.402 214.925V208.978H206.14V214.925H217.402ZM82.5635 256.737C82.5806 261.659 86.5283 264.427 93.1421 264.427C99.7046 264.427 103.926 261.214 103.926 256.173C103.926 252.174 101.687 249.901 96.9019 249.063L93.5181 248.482C91.1768 248.072 90.1685 247.457 90.1685 246.278C90.1685 245.047 91.3647 244.261 93.2617 244.261C95.21 244.261 96.731 245.167 96.7822 246.705H103.396C103.362 241.92 99.6875 238.912 93.125 238.912C87.2461 238.912 82.9736 242.057 82.9736 247.047C82.9736 250.909 85.4346 253.507 89.9634 254.293L93.2275 254.874C95.8765 255.353 96.7822 255.848 96.7822 256.993C96.7822 258.189 95.4492 259.061 93.2788 259.061C91.3306 259.061 89.6216 258.138 89.4165 256.737H82.5635ZM121.904 264H129.629L121.58 239.339H112.488L104.438 264H111.821L113.103 259.095H120.623L121.904 264ZM116.794 245.03H116.931L119.307 253.985H114.419L116.794 245.03ZM159.758 264V239.339H151.384L145.881 253.729H145.745L140.225 239.339H131.851V264H138.174V249.713H138.311L143.865 263.709H147.744L153.298 249.713H153.435V264H159.758ZM170.439 264V239.339H163.193V264H170.439ZM180.693 264V251.012H180.83L190.417 264H195.972V239.339H189.136V252.123H188.999L179.48 239.339H173.857V264H180.693ZM216.787 258.241H206.636V254.276H216.155V249.081H206.636V245.099H216.787V239.339H199.39V264H216.787V258.241Z" fill="#485287"/>
</svg>
