<svg width="300" height="400" viewBox="0 0 300 400" fill="none" xmlns="http://www.w3.org/2000/svg">
<rect width="300" height="400" fill="white"/>
<path d="M231.09 69.1599H69.19V83.3699H231.09V69.1599Z" fill="#D1D3D4"/>
<path d="M234.84 382.72H65.44C49.73 382.72 37 369.99 37 354.28V111.81C37 96.1001 49.73 83.3701 65.44 83.3701H234.84C250.55 83.3701 263.28 96.1001 263.28 111.81V354.28C263.28 369.99 250.55 382.72 234.84 382.72Z" fill="#EDF0F2" stroke="#D1D3D4" stroke-miterlimit="10"/>
<path d="M244.82 69.16H55.46V29.87C55.46 22.76 61.22 17 68.33 17H231.96C239.07 17 244.83 22.76 244.83 29.87V69.16H244.82Z" fill="#EDF0F2" stroke="#D1D3D4" stroke-miterlimit="10"/>
<path d="M244.83 71.3H55.46V79.8601H244.83V71.3Z" fill="#EDF0F2" stroke="#D1D3D4" stroke-miterlimit="10"/>
<path d="M73.147 232.507V229.26H62.4146V234.079H66.1743L66.1401 234.421C65.9351 236.403 64.2603 237.719 61.9019 237.719C58.7231 237.719 56.6553 235.036 56.6553 230.542C56.6553 226.149 58.4668 223.62 61.543 223.62C63.6279 223.62 65.2515 224.799 65.73 226.611H72.8564C72.3096 221.552 67.6953 217.912 61.5088 217.912C53.9038 217.912 49.2725 222.561 49.2725 230.644C49.2725 238.83 53.9038 243.427 61.731 243.427C68.8916 243.427 73.147 239.257 73.147 232.507ZM92.937 237.241H83.2642V218.339H76.0181V243H92.937V237.241ZM102.576 218.339H95.3296V234.216C95.3296 239.838 99.6875 243.427 106.199 243.427C112.71 243.427 117.068 239.838 117.068 234.216V218.339H109.822V233.413C109.822 236.01 108.54 237.429 106.199 237.429C103.857 237.429 102.576 236.01 102.576 233.413V218.339ZM133.286 243V224.099H139.78V218.339H119.546V224.099H126.04V243H133.286ZM155.281 243H163.005L154.956 218.339H145.864L137.815 243H145.198L146.479 238.095H153.999L155.281 243ZM150.171 224.03H150.308L152.683 232.985H147.795L150.171 224.03ZM193.135 243V218.339H184.761L179.258 232.729H179.121L173.601 218.339H165.227V243H171.55V228.713H171.687L177.241 242.709H181.121L186.675 228.713H186.812V243H193.135ZM203.816 243V218.339H196.57V243H203.816ZM214.07 243V230.012H214.207L223.794 243H229.348V218.339H222.512V231.123H222.375L212.856 218.339H207.234V243H214.07ZM250.164 237.241H240.012V233.276H249.531V228.081H240.012V224.099H250.164V218.339H232.766V243H250.164V237.241Z" fill="#3D3D3D"/>
</svg>
