<svg width="300" height="400" viewBox="0 0 300 400" fill="none" xmlns="http://www.w3.org/2000/svg">
<rect width="300" height="400" fill="white"/>
<path d="M231.09 69.1599H69.19V83.3699H231.09V69.1599Z" fill="#D1D3D4"/>
<path d="M234.84 382.72H65.44C49.73 382.72 37 369.99 37 354.28V111.81C37 96.1001 49.73 83.3701 65.44 83.3701H234.84C250.55 83.3701 263.28 96.1001 263.28 111.81V354.28C263.28 369.99 250.55 382.72 234.84 382.72Z" fill="#EDF0F2" stroke="#D1D3D4" stroke-miterlimit="10"/>
<path d="M244.82 69.16H55.46V29.87C55.46 22.76 61.22 17 68.33 17H231.96C239.07 17 244.83 22.76 244.83 29.87V69.16H244.82Z" fill="#EDF0F2" stroke="#D1D3D4" stroke-miterlimit="10"/>
<path d="M244.83 71.3H55.46V79.8601H244.83V71.3Z" fill="#EDF0F2" stroke="#D1D3D4" stroke-miterlimit="10"/>
<path d="M109.856 211.507V208.26H99.1235V213.079H102.883L102.849 213.421C102.644 215.403 100.969 216.719 98.6108 216.719C95.4321 216.719 93.3643 214.036 93.3643 209.542C93.3643 205.149 95.1758 202.62 98.252 202.62C100.337 202.62 101.96 203.799 102.439 205.611H109.565C109.019 200.552 104.404 196.912 98.2178 196.912C90.6128 196.912 85.9814 201.561 85.9814 209.644C85.9814 217.83 90.6128 222.427 98.4399 222.427C105.601 222.427 109.856 218.257 109.856 211.507ZM129.646 216.241H119.973V197.339H112.727V222H129.646V216.241ZM139.285 197.339H132.039V213.216C132.039 218.838 136.396 222.427 142.908 222.427C149.419 222.427 153.777 218.838 153.777 213.216V197.339H146.531V212.413C146.531 215.01 145.249 216.429 142.908 216.429C140.566 216.429 139.285 215.01 139.285 212.413V197.339ZM169.995 222V203.099H176.489V197.339H156.255V203.099H162.749V222H169.995ZM191.99 222H199.714L191.665 197.339H182.573L174.524 222H181.907L183.188 217.095H190.708L191.99 222ZM186.88 203.03H187.017L189.392 211.985H184.504L186.88 203.03ZM212.788 214.925V208.978H201.526V214.925H212.788ZM98.3032 264V245.099H104.797V239.339H84.563V245.099H91.0571V264H98.3032ZM130.449 264V239.339H123.203V248.705H114.521V239.339H107.275V264H114.521V254.464H123.203V264H130.449ZM141.113 264V239.339H133.867V264H141.113ZM156.357 238.912C148.735 238.912 143.933 243.8 143.933 251.678C143.933 259.557 148.718 264.427 156.357 264.427C163.979 264.427 168.782 259.557 168.782 251.678C168.782 243.8 163.979 238.912 156.357 238.912ZM156.357 244.688C159.382 244.688 161.399 247.406 161.399 251.678C161.399 255.934 159.399 258.651 156.357 258.651C153.315 258.651 151.316 255.934 151.316 251.678C151.316 247.406 153.333 244.688 156.357 244.688ZM178.438 264V251.012H178.574L188.162 264H193.716V239.339H186.88V252.123H186.743L177.224 239.339H171.602V264H178.438ZM214.531 258.241H204.38V254.276H213.899V249.081H204.38V245.099H214.531V239.339H197.134V264H214.531V258.241Z" fill="#CA86BF"/>
</svg>
