<svg width="300" height="400" viewBox="0 0 300 400" fill="none" xmlns="http://www.w3.org/2000/svg">
<rect width="300" height="400" fill="white"/>
<path d="M231.09 69.1599H69.1899V83.3699H231.09V69.1599Z" fill="#D1D3D4"/>
<path d="M234.84 382.72H65.44C49.73 382.72 37 369.99 37 354.28V111.81C37 96.1001 49.73 83.3701 65.44 83.3701H234.84C250.55 83.3701 263.28 96.1001 263.28 111.81V354.28C263.28 369.99 250.55 382.72 234.84 382.72Z" fill="#EDF0F2" stroke="#D1D3D4" stroke-miterlimit="10"/>
<path d="M244.82 69.16H55.46V29.87C55.46 22.76 61.22 17 68.33 17H231.96C239.07 17 244.83 22.76 244.83 29.87V69.16H244.82Z" fill="#EDF0F2" stroke="#D1D3D4" stroke-miterlimit="10"/>
<path d="M244.83 71.3H55.46V79.8601H244.83V71.3Z" fill="#EDF0F2" stroke="#D1D3D4" stroke-miterlimit="10"/>
<path d="M101.174 232.507V229.26H90.4419V234.079H94.2017L94.1675 234.421C93.9624 236.403 92.2876 237.719 89.9292 237.719C86.7505 237.719 84.6826 235.036 84.6826 230.542C84.6826 226.149 86.4941 223.62 89.5703 223.62C91.6553 223.62 93.2788 224.799 93.7573 226.611H100.884C100.337 221.552 95.7227 217.912 89.5361 217.912C81.9312 217.912 77.2998 222.561 77.2998 230.644C77.2998 238.83 81.9312 243.427 89.7583 243.427C96.9189 243.427 101.174 239.257 101.174 232.507ZM120.964 237.241H111.292V218.339H104.045V243H120.964V237.241ZM133.73 243V235.19L142.156 218.339H134.585L130.261 228.337H130.125L125.801 218.339H118.059L126.484 235.19V243H133.73ZM154.307 243.427C160.955 243.427 165.757 239.206 165.791 233.054H158.853C158.63 235.908 156.819 237.736 154.324 237.736C151.316 237.736 149.453 235.104 149.453 230.644C149.453 226.235 151.333 223.603 154.307 223.603C156.819 223.603 158.647 225.466 158.818 228.269H165.757C165.74 222.15 160.818 217.912 154.307 217.912C146.77 217.912 142.07 222.526 142.07 230.661C142.07 238.796 146.753 243.427 154.307 243.427ZM175.789 243V218.339H168.542V243H175.789ZM186.042 243V230.012H186.179L195.767 243H201.321V218.339H194.485V231.123H194.348L184.829 218.339H179.207V243H186.042ZM222.136 237.241H211.985V233.276H221.504V228.081H211.985V224.099H222.136V218.339H204.739V243H222.136V237.241Z" fill="#7637DC"/>
</svg>
