<svg width="300" height="400" viewBox="0 0 300 400" fill="none" xmlns="http://www.w3.org/2000/svg">
<rect width="300" height="400" fill="white"/>
<path d="M231.09 69.1599H69.1899V83.3699H231.09V69.1599Z" fill="#D1D3D4"/>
<path d="M234.84 382.72H65.44C49.73 382.72 37 369.99 37 354.28V111.81C37 96.1001 49.73 83.3701 65.44 83.3701H234.84C250.55 83.3701 263.28 96.1001 263.28 111.81V354.28C263.28 369.99 250.55 382.72 234.84 382.72Z" fill="#EDF0F2" stroke="#D1D3D4" stroke-miterlimit="10"/>
<path d="M244.82 69.16H55.46V29.87C55.46 22.76 61.22 17 68.33 17H231.96C239.07 17 244.83 22.76 244.83 29.87V69.16H244.82Z" fill="#EDF0F2" stroke="#D1D3D4" stroke-miterlimit="10"/>
<path d="M244.83 71.3H55.46V79.8601H244.83V71.3Z" fill="#EDF0F2" stroke="#D1D3D4" stroke-miterlimit="10"/>
<path d="M114.983 190.507V187.26H104.25V192.079H108.01L107.976 192.421C107.771 194.403 106.096 195.719 103.738 195.719C100.559 195.719 98.4912 193.036 98.4912 188.542C98.4912 184.149 100.303 181.62 103.379 181.62C105.464 181.62 107.087 182.799 107.566 184.611H114.692C114.146 179.552 109.531 175.912 103.345 175.912C95.7397 175.912 91.1084 180.561 91.1084 188.644C91.1084 196.83 95.7397 201.427 103.567 201.427C110.728 201.427 114.983 197.257 114.983 190.507ZM125.1 181.688H128.108C130.056 181.688 131.372 183.004 131.372 184.833C131.372 186.696 130.125 187.943 128.091 187.943H125.1V181.688ZM125.1 192.729H127.476L131.372 201H139.473L134.79 191.652C137.371 190.421 138.772 187.619 138.772 184.713C138.772 179.433 135.388 176.339 128.809 176.339H117.854V201H125.1V192.729ZM157.981 201H165.706L157.656 176.339H148.564L140.515 201H147.898L149.18 196.095H156.699L157.981 201ZM152.871 182.03H153.008L155.383 190.985H150.496L152.871 182.03ZM167.927 176.339V201H175.173V194.267H178.694C184.453 194.267 188.367 190.763 188.367 185.329C188.367 179.843 184.675 176.339 179.189 176.339H167.927ZM175.173 181.791H177.258C179.617 181.791 181.052 183.004 181.052 185.346C181.052 187.704 179.617 188.917 177.207 188.917H175.173V181.791ZM208.328 195.241H198.176V191.276H207.695V186.081H198.176V182.099H208.328V176.339H190.93V201H208.328V195.241ZM105.908 235.737C105.925 240.659 109.873 243.427 116.487 243.427C123.049 243.427 127.271 240.214 127.271 235.173C127.271 231.174 125.032 228.901 120.247 228.063L116.863 227.482C114.521 227.072 113.513 226.457 113.513 225.278C113.513 224.047 114.709 223.261 116.606 223.261C118.555 223.261 120.076 224.167 120.127 225.705H126.741C126.707 220.92 123.032 217.912 116.47 217.912C110.591 217.912 106.318 221.057 106.318 226.047C106.318 229.909 108.779 232.507 113.308 233.293L116.572 233.874C119.221 234.353 120.127 234.848 120.127 235.993C120.127 237.189 118.794 238.061 116.624 238.061C114.675 238.061 112.966 237.138 112.761 235.737H105.908ZM147.402 237.241H137.251V233.276H146.77V228.081H137.251V224.099H147.402V218.339H130.005V243H147.402V237.241ZM168.184 237.241H158.032V233.276H167.551V228.081H158.032V224.099H168.184V218.339H150.786V243H168.184V237.241ZM171.567 218.339V243H182.112C189.58 243 193.989 238.386 193.989 230.49C193.989 222.595 189.597 218.339 182.112 218.339H171.567ZM178.813 224.099H181.086C184.556 224.099 186.606 226.337 186.606 230.49C186.606 235.036 184.709 237.241 181.086 237.241H178.813V224.099ZM87.1094 279.241H76.958V275.276H86.4771V270.081H76.958V266.099H87.1094V260.339H69.7119V285H87.1094V279.241ZM89.4849 285H97.1411L101.362 277.566H101.516L105.754 285H113.821L106.216 272.678V272.542L113.855 260.339H105.823L101.926 268.201H101.79L97.9102 260.339H89.4678L96.748 272.507V272.644L89.4849 285ZM129.065 285V266.099H135.559V260.339H115.325V266.099H121.819V285H129.065ZM145.283 265.688H148.291C150.239 265.688 151.555 267.004 151.555 268.833C151.555 270.696 150.308 271.943 148.274 271.943H145.283V265.688ZM145.283 276.729H147.659L151.555 285H159.656L154.973 275.652C157.554 274.421 158.955 271.619 158.955 268.713C158.955 263.433 155.571 260.339 148.992 260.339H138.037V285H145.283V276.729ZM178.164 285H185.889L177.839 260.339H168.748L160.698 285H168.081L169.363 280.095H176.882L178.164 285ZM173.054 266.03H173.191L175.566 274.985H170.679L173.054 266.03ZM198.04 285.427C204.688 285.427 209.49 281.206 209.524 275.054H202.585C202.363 277.908 200.552 279.736 198.057 279.736C195.049 279.736 193.186 277.104 193.186 272.644C193.186 268.235 195.066 265.603 198.04 265.603C200.552 265.603 202.38 267.466 202.551 270.269H209.49C209.473 264.15 204.551 259.912 198.04 259.912C190.503 259.912 185.803 264.526 185.803 272.661C185.803 280.796 190.486 285.427 198.04 285.427ZM224.734 285V266.099H231.228V260.339H210.994V266.099H217.488V285H224.734Z" fill="#3D3D3D"/>
</svg>
