<svg width="300" height="400" viewBox="0 0 300 400" fill="none" xmlns="http://www.w3.org/2000/svg">
<rect width="300" height="400" fill="white"/>
<path d="M231.09 69.1599H69.1899V83.3699H231.09V69.1599Z" fill="#D1D3D4"/>
<path d="M234.84 382.72H65.44C49.73 382.72 37 369.99 37 354.28V111.81C37 96.1001 49.73 83.3701 65.44 83.3701H234.84C250.55 83.3701 263.28 96.1001 263.28 111.81V354.28C263.28 369.99 250.55 382.72 234.84 382.72Z" fill="#EDF0F2" stroke="#D1D3D4" stroke-miterlimit="10"/>
<path d="M244.82 69.16H55.46V29.87C55.46 22.76 61.22 17 68.33 17H231.96C239.07 17 244.83 22.76 244.83 29.87V69.16H244.82Z" fill="#EDF0F2" stroke="#D1D3D4" stroke-miterlimit="10"/>
<path d="M244.83 71.3H55.46V79.8601H244.83V71.3Z" fill="#EDF0F2" stroke="#D1D3D4" stroke-miterlimit="10"/>
<path d="M116.436 211.507V208.26H105.703V213.079H109.463L109.429 213.421C109.224 215.403 107.549 216.719 105.19 216.719C102.012 216.719 99.9438 214.036 99.9438 209.542C99.9438 205.149 101.755 202.62 104.832 202.62C106.917 202.62 108.54 203.799 109.019 205.611H116.145C115.598 200.552 110.984 196.912 104.797 196.912C97.1924 196.912 92.561 201.561 92.561 209.644C92.561 217.83 97.1924 222.427 105.02 222.427C112.18 222.427 116.436 218.257 116.436 211.507ZM126.553 202.688H129.561C131.509 202.688 132.825 204.004 132.825 205.833C132.825 207.696 131.577 208.943 129.543 208.943H126.553V202.688ZM126.553 213.729H128.928L132.825 222H140.925L136.243 212.652C138.823 211.421 140.225 208.619 140.225 205.713C140.225 200.433 136.841 197.339 130.261 197.339H119.307V222H126.553V213.729ZM160.562 216.241H150.41V212.276H159.929V207.081H150.41V203.099H160.562V197.339H143.164V222H160.562V216.241ZM181.343 216.241H171.191V212.276H180.71V207.081H171.191V203.099H181.343V197.339H163.945V222H181.343V216.241ZM191.562 222V209.012H191.699L201.287 222H206.841V197.339H200.005V210.123H199.868L190.349 197.339H184.727V222H191.562ZM130.125 264V245.099H136.619V239.339H116.384V245.099H122.878V264H130.125ZM156.494 258.241H146.343V254.276H155.862V249.081H146.343V245.099H156.494V239.339H139.097V264H156.494V258.241ZM176.147 264H183.872L175.823 239.339H166.731L158.682 264H166.064L167.346 259.095H174.866L176.147 264ZM171.038 245.03H171.174L173.55 253.985H168.662L171.038 245.03Z" fill="#26991C"/>
</svg>
