<svg width="300" height="400" viewBox="0 0 300 400" fill="none" xmlns="http://www.w3.org/2000/svg">
<rect width="300" height="400" fill="white"/>
<path d="M231.09 69.1599H69.1899V83.3699H231.09V69.1599Z" fill="#D1D3D4"/>
<path d="M234.84 382.72H65.44C49.73 382.72 37 369.99 37 354.28V111.81C37 96.1001 49.73 83.3701 65.44 83.3701H234.84C250.55 83.3701 263.28 96.1001 263.28 111.81V354.28C263.28 369.99 250.55 382.72 234.84 382.72Z" fill="#EDF0F2" stroke="#D1D3D4" stroke-miterlimit="10"/>
<path d="M244.82 69.16H55.46V29.87C55.46 22.76 61.22 17 68.33 17H231.96C239.07 17 244.83 22.76 244.83 29.87V69.16H244.82Z" fill="#EDF0F2" stroke="#D1D3D4" stroke-miterlimit="10"/>
<path d="M244.83 71.3H55.46V79.8601H244.83V71.3Z" fill="#EDF0F2" stroke="#D1D3D4" stroke-miterlimit="10"/>
<path d="M90.1855 243V218.339H82.9395V227.705H74.2578V218.339H67.0117V243H74.2578V233.464H82.9395V243H90.1855ZM100.85 243V218.339H93.6035V243H100.85ZM116.794 243C122.075 243 125.493 240.146 125.493 235.822C125.493 232.558 122.708 230.046 119.375 229.96V229.824C122.229 229.465 124.382 227.329 124.382 224.492C124.382 220.646 121.426 218.339 116.384 218.339H104.268V243H116.794ZM111.514 223.312H114.419C116.248 223.312 117.341 224.235 117.341 225.756C117.341 227.243 116.179 228.217 114.316 228.217H111.514V223.312ZM111.514 238.027V232.37H114.658C116.829 232.37 118.127 233.396 118.127 235.156C118.127 237.019 116.846 238.027 114.607 238.027H111.514ZM135.132 243V218.339H127.886V243H135.132ZM137.866 235.737C137.883 240.659 141.831 243.427 148.445 243.427C155.007 243.427 159.229 240.214 159.229 235.173C159.229 231.174 156.99 228.901 152.205 228.063L148.821 227.482C146.479 227.072 145.471 226.457 145.471 225.278C145.471 224.047 146.667 223.261 148.564 223.261C150.513 223.261 152.034 224.167 152.085 225.705H158.699C158.665 220.92 154.99 217.912 148.428 217.912C142.549 217.912 138.276 221.057 138.276 226.047C138.276 229.909 140.737 232.507 145.266 233.293L148.53 233.874C151.179 234.353 152.085 234.848 152.085 235.993C152.085 237.189 150.752 238.061 148.582 238.061C146.633 238.061 144.924 237.138 144.719 235.737H137.866ZM173.601 243.427C180.249 243.427 185.051 239.206 185.085 233.054H178.147C177.925 235.908 176.113 237.736 173.618 237.736C170.61 237.736 168.748 235.104 168.748 230.644C168.748 226.235 170.627 223.603 173.601 223.603C176.113 223.603 177.942 225.466 178.113 228.269H185.051C185.034 222.15 180.112 217.912 173.601 217.912C166.064 217.912 161.365 222.526 161.365 230.661C161.365 238.796 166.047 243.427 173.601 243.427ZM195.083 218.339H187.837V234.216C187.837 239.838 192.195 243.427 198.706 243.427C205.217 243.427 209.575 239.838 209.575 234.216V218.339H202.329V233.413C202.329 236.01 201.047 237.429 198.706 237.429C196.365 237.429 195.083 236.01 195.083 233.413V218.339ZM212.31 235.737C212.327 240.659 216.274 243.427 222.888 243.427C229.451 243.427 233.672 240.214 233.672 235.173C233.672 231.174 231.433 228.901 226.648 228.063L223.264 227.482C220.923 227.072 219.915 226.457 219.915 225.278C219.915 224.047 221.111 223.261 223.008 223.261C224.956 223.261 226.477 224.167 226.528 225.705H233.142C233.108 220.92 229.434 217.912 222.871 217.912C216.992 217.912 212.72 221.057 212.72 226.047C212.72 229.909 215.181 232.507 219.709 233.293L222.974 233.874C225.623 234.353 226.528 234.848 226.528 235.993C226.528 237.189 225.195 238.061 223.025 238.061C221.077 238.061 219.368 237.138 219.163 235.737H212.31Z" fill="#DE3737"/>
</svg>
