<svg width="300" height="400" viewBox="0 0 300 400" fill="none" xmlns="http://www.w3.org/2000/svg">
<rect width="300" height="400" fill="white"/>
<path d="M231.09 69.1599H69.1899V83.3699H231.09V69.1599Z" fill="#D1D3D4"/>
<path d="M234.84 382.72H65.44C49.73 382.72 37 369.99 37 354.28V111.81C37 96.1001 49.73 83.3701 65.44 83.3701H234.84C250.55 83.3701 263.28 96.1001 263.28 111.81V354.28C263.28 369.99 250.55 382.72 234.84 382.72Z" fill="#EDF0F2" stroke="#D1D3D4" stroke-miterlimit="10"/>
<path d="M244.82 69.16H55.46V29.87C55.46 22.76 61.22 17 68.33 17H231.96C239.07 17 244.83 22.76 244.83 29.87V69.16H244.82Z" fill="#EDF0F2" stroke="#D1D3D4" stroke-miterlimit="10"/>
<path d="M244.83 71.3H55.46V79.8601H244.83V71.3Z" fill="#EDF0F2" stroke="#D1D3D4" stroke-miterlimit="10"/>
<path d="M134.106 243V218.339H126.86V227.705H118.179V218.339H110.933V243H118.179V233.464H126.86V243H134.106ZM165.432 243V218.339H157.058L151.555 232.729H151.418L145.898 218.339H137.524V243H143.848V228.713H143.984L149.539 242.709H153.418L158.972 228.713H159.109V243H165.432ZM181.394 243C186.675 243 190.093 240.146 190.093 235.822C190.093 232.558 187.307 230.046 183.975 229.96V229.824C186.829 229.465 188.982 227.329 188.982 224.492C188.982 220.646 186.025 218.339 180.984 218.339H168.867V243H181.394ZM176.113 223.312H179.019C180.847 223.312 181.941 224.235 181.941 225.756C181.941 227.243 180.779 228.217 178.916 228.217H176.113V223.312ZM176.113 238.027V232.37H179.258C181.428 232.37 182.727 233.396 182.727 235.156C182.727 237.019 181.445 238.027 179.207 238.027H176.113Z" fill="#3D3D3D"/>
</svg>
