<svg width="300" height="400" viewBox="0 0 300 400" fill="none" xmlns="http://www.w3.org/2000/svg">
<rect width="300" height="400" fill="white"/>
<path d="M231.09 69.1599H69.1899V83.3699H231.09V69.1599Z" fill="#D1D3D4"/>
<path d="M234.84 382.72H65.44C49.73 382.72 37 369.99 37 354.28V111.81C37 96.1001 49.73 83.3701 65.44 83.3701H234.84C250.55 83.3701 263.28 96.1001 263.28 111.81V354.28C263.28 369.99 250.55 382.72 234.84 382.72Z" fill="#EDF0F2" stroke="#D1D3D4" stroke-miterlimit="10"/>
<path d="M244.82 69.16H55.46V29.87C55.46 22.76 61.22 17 68.33 17H231.96C239.07 17 244.83 22.76 244.83 29.87V69.16H244.82Z" fill="#EDF0F2" stroke="#D1D3D4" stroke-miterlimit="10"/>
<path d="M244.83 71.3H55.46V79.8601H244.83V71.3Z" fill="#EDF0F2" stroke="#D1D3D4" stroke-miterlimit="10"/>
<path d="M75.4028 222V197.339H68.1567V206.705H59.4751V197.339H52.229V222H59.4751V212.464H68.1567V222H75.4028ZM86.0669 197.339H78.8208V213.216C78.8208 218.838 83.1787 222.427 89.6899 222.427C96.2012 222.427 100.559 218.838 100.559 213.216V197.339H93.313V212.413C93.313 215.01 92.0312 216.429 89.6899 216.429C87.3486 216.429 86.0669 215.01 86.0669 212.413V197.339ZM103.977 197.339V222H111.223V215.267H114.744C120.503 215.267 124.417 211.763 124.417 206.329C124.417 200.843 120.725 197.339 115.239 197.339H103.977ZM111.223 202.791H113.308C115.667 202.791 117.102 204.004 117.102 206.346C117.102 208.704 115.667 209.917 113.257 209.917H111.223V202.791ZM144.377 216.241H134.226V212.276H143.745V207.081H134.226V203.099H144.377V197.339H126.98V222H144.377V216.241ZM155.007 202.688H158.015C159.963 202.688 161.279 204.004 161.279 205.833C161.279 207.696 160.032 208.943 157.998 208.943H155.007V202.688ZM155.007 213.729H157.383L161.279 222H169.38L164.697 212.652C167.278 211.421 168.679 208.619 168.679 205.713C168.679 200.433 165.295 197.339 158.716 197.339H147.761V222H155.007V213.729ZM171.277 222H191.118V216.241H179.753V216.104L190.708 201.868V197.339H171.379V203.099H182.266V203.235L171.277 217.454V222ZM201.458 222V197.339H194.211V222H201.458ZM211.711 222V209.012H211.848L221.436 222H226.99V197.339H220.154V210.123H220.017L210.498 197.339H204.875V222H211.711ZM247.805 216.241H237.654V212.276H247.173V207.081H237.654V203.099H247.805V197.339H230.408V222H247.805V216.241ZM154.871 264H162.595L154.546 239.339H145.454L137.405 264H144.788L146.069 259.095H153.589L154.871 264ZM149.761 245.03H149.897L152.273 253.985H147.385L149.761 245.03Z" fill="#69A873"/>
</svg>
