<svg width="300" height="400" viewBox="0 0 300 400" fill="none" xmlns="http://www.w3.org/2000/svg">
<rect width="300" height="400" fill="white"/>
<path d="M231.09 69.1599H69.1899V83.3699H231.09V69.1599Z" fill="#D1D3D4"/>
<path d="M234.84 382.72H65.44C49.73 382.72 37 369.99 37 354.28V111.81C37 96.1001 49.73 83.3701 65.44 83.3701H234.84C250.55 83.3701 263.28 96.1001 263.28 111.81V354.28C263.28 369.99 250.55 382.72 234.84 382.72Z" fill="#EDF0F2" stroke="#D1D3D4" stroke-miterlimit="10"/>
<path d="M244.82 69.16H55.46V29.87C55.46 22.76 61.22 17 68.33 17H231.96C239.07 17 244.83 22.76 244.83 29.87V69.16H244.82Z" fill="#EDF0F2" stroke="#D1D3D4" stroke-miterlimit="10"/>
<path d="M244.83 71.3H55.46V79.8601H244.83V71.3Z" fill="#EDF0F2" stroke="#D1D3D4" stroke-miterlimit="10"/>
<path d="M76.6333 243V218.339H69.3872V243H76.6333ZM86.8872 243V230.012H87.0239L96.6113 243H102.166V218.339H95.3296V231.123H95.1929L85.6738 218.339H80.0513V243H86.8872ZM117.41 217.912C109.788 217.912 104.985 222.8 104.985 230.678C104.985 238.557 109.771 243.427 117.41 243.427C125.032 243.427 129.834 238.557 129.834 230.678C129.834 222.8 125.032 217.912 117.41 217.912ZM117.41 223.688C120.435 223.688 122.451 226.406 122.451 230.678C122.451 234.934 120.452 237.651 117.41 237.651C114.368 237.651 112.368 234.934 112.368 230.678C112.368 226.406 114.385 223.688 117.41 223.688ZM131.97 235.737C131.987 240.659 135.935 243.427 142.549 243.427C149.111 243.427 153.333 240.214 153.333 235.173C153.333 231.174 151.094 228.901 146.309 228.063L142.925 227.482C140.583 227.072 139.575 226.457 139.575 225.278C139.575 224.047 140.771 223.261 142.668 223.261C144.617 223.261 146.138 224.167 146.189 225.705H152.803C152.769 220.92 149.094 217.912 142.532 217.912C136.653 217.912 132.38 221.057 132.38 226.047C132.38 229.909 134.841 232.507 139.37 233.293L142.634 233.874C145.283 234.353 146.189 234.848 146.189 235.993C146.189 237.189 144.856 238.061 142.686 238.061C140.737 238.061 139.028 237.138 138.823 235.737H131.97ZM163.313 243V218.339H156.067V243H163.313ZM179.531 243V224.099H186.025V218.339H165.791V224.099H172.285V243H179.531ZM199.133 217.912C191.511 217.912 186.709 222.8 186.709 230.678C186.709 238.557 191.494 243.427 199.133 243.427C206.755 243.427 211.558 238.557 211.558 230.678C211.558 222.8 206.755 217.912 199.133 217.912ZM199.133 223.688C202.158 223.688 204.175 226.406 204.175 230.678C204.175 234.934 202.175 237.651 199.133 237.651C196.091 237.651 194.092 234.934 194.092 230.678C194.092 226.406 196.108 223.688 199.133 223.688ZM231.296 237.241H221.624V218.339H214.377V243H231.296V237.241Z" fill="#37899B"/>
</svg>
