<svg width="300" height="400" viewBox="0 0 300 400" fill="none" xmlns="http://www.w3.org/2000/svg">
<rect width="300" height="400" fill="white"/>
<path d="M231.09 69.1599H69.1899V83.3699H231.09V69.1599Z" fill="#D1D3D4"/>
<path d="M234.84 382.72H65.44C49.73 382.72 37 369.99 37 354.28V111.81C37 96.1001 49.73 83.3701 65.44 83.3701H234.84C250.55 83.3701 263.28 96.1001 263.28 111.81V354.28C263.28 369.99 250.55 382.72 234.84 382.72Z" fill="#EDF0F2" stroke="#D1D3D4" stroke-miterlimit="10"/>
<path d="M244.82 69.16H55.46V29.87C55.46 22.76 61.22 17 68.33 17H231.96C239.07 17 244.83 22.76 244.83 29.87V69.16H244.82Z" fill="#EDF0F2" stroke="#D1D3D4" stroke-miterlimit="10"/>
<path d="M244.83 71.3H55.46V79.8601H244.83V71.3Z" fill="#EDF0F2" stroke="#D1D3D4" stroke-miterlimit="10"/>
<path d="M98.9697 243V218.339H91.7236V243H98.9697ZM114.214 217.912C106.592 217.912 101.79 222.8 101.79 230.678C101.79 238.557 106.575 243.427 114.214 243.427C121.836 243.427 126.638 238.557 126.638 230.678C126.638 222.8 121.836 217.912 114.214 217.912ZM114.214 223.688C117.239 223.688 119.255 226.406 119.255 230.678C119.255 234.934 117.256 237.651 114.214 237.651C111.172 237.651 109.172 234.934 109.172 230.678C109.172 226.406 111.189 223.688 114.214 223.688ZM129.458 218.339V243H140.002C147.471 243 151.88 238.386 151.88 230.49C151.88 222.595 147.488 218.339 140.002 218.339H129.458ZM136.704 224.099H138.977C142.446 224.099 144.497 226.337 144.497 230.49C144.497 235.036 142.6 237.241 138.977 237.241H136.704V224.099ZM161.963 243V218.339H154.717V243H161.963ZM172.217 243V230.012H172.354L181.941 243H187.495V218.339H180.659V231.123H180.522L171.003 218.339H165.381V243H172.217ZM208.311 237.241H198.159V233.276H207.678V228.081H198.159V224.099H208.311V218.339H190.913V243H208.311V237.241Z" fill="#866060"/>
</svg>
