<svg width="300" height="400" viewBox="0 0 300 400" fill="none" xmlns="http://www.w3.org/2000/svg">
<rect width="300" height="400" fill="white"/>
<path d="M231.09 69.1599H69.1899V83.3699H231.09V69.1599Z" fill="#D1D3D4"/>
<path d="M234.84 382.72H65.44C49.73 382.72 37 369.99 37 354.28V111.81C37 96.1001 49.73 83.3701 65.44 83.3701H234.84C250.55 83.3701 263.28 96.1001 263.28 111.81V354.28C263.28 369.99 250.55 382.72 234.84 382.72Z" fill="#EDF0F2" stroke="#D1D3D4" stroke-miterlimit="10"/>
<path d="M244.82 69.16H55.46V29.87C55.46 22.76 61.22 17 68.33 17H231.96C239.07 17 244.83 22.76 244.83 29.87V69.16H244.82Z" fill="#EDF0F2" stroke="#D1D3D4" stroke-miterlimit="10"/>
<path d="M244.83 71.3H55.46V79.8601H244.83V71.3Z" fill="#EDF0F2" stroke="#D1D3D4" stroke-miterlimit="10"/>
<path d="M115.393 243V218.339H108.147V243H115.393ZM126.057 223.688H129.065C131.013 223.688 132.329 225.004 132.329 226.833C132.329 228.696 131.082 229.943 129.048 229.943H126.057V223.688ZM126.057 234.729H128.433L132.329 243H140.43L135.747 233.652C138.328 232.421 139.729 229.619 139.729 226.713C139.729 221.433 136.345 218.339 129.766 218.339H118.811V243H126.057V234.729ZM154.495 217.912C146.873 217.912 142.07 222.8 142.07 230.678C142.07 238.557 146.855 243.427 154.495 243.427C162.117 243.427 166.919 238.557 166.919 230.678C166.919 222.8 162.117 217.912 154.495 217.912ZM154.495 223.688C157.52 223.688 159.536 226.406 159.536 230.678C159.536 234.934 157.537 237.651 154.495 237.651C151.453 237.651 149.453 234.934 149.453 230.678C149.453 226.406 151.47 223.688 154.495 223.688ZM176.575 243V230.012H176.711L186.299 243H191.853V218.339H185.017V231.123H184.88L175.361 218.339H169.739V243H176.575Z" fill="#242424"/>
</svg>
