<svg width="300" height="400" viewBox="0 0 300 400" fill="none" xmlns="http://www.w3.org/2000/svg">
<rect width="300" height="400" fill="white"/>
<path d="M231.09 69.1599H69.19V83.3699H231.09V69.1599Z" fill="#D1D3D4"/>
<path d="M234.84 382.72H65.44C49.73 382.72 37 369.99 37 354.28V111.81C37 96.1001 49.73 83.3701 65.44 83.3701H234.84C250.55 83.3701 263.28 96.1001 263.28 111.81V354.28C263.28 369.99 250.55 382.72 234.84 382.72Z" fill="#EDF0F2" stroke="#D1D3D4" stroke-miterlimit="10"/>
<path d="M244.82 69.16H55.46V29.87C55.46 22.76 61.22 17 68.33 17H231.96C239.07 17 244.83 22.76 244.83 29.87V69.16H244.82Z" fill="#EDF0F2" stroke="#D1D3D4" stroke-miterlimit="10"/>
<path d="M244.83 71.3H55.46V79.8601H244.83V71.3Z" fill="#EDF0F2" stroke="#D1D3D4" stroke-miterlimit="10"/>
<path d="M110.762 243V236.54L112.693 233.942L118.076 243H126.501L118.008 229.294L126.125 218.339H118.521L110.898 228.798H110.762V218.339H103.516V243H110.762ZM144.497 243H152.222L144.172 218.339H135.081L127.031 243H134.414L135.696 238.095H143.215L144.497 243ZM139.387 224.03H139.524L141.899 232.985H137.012L139.387 224.03ZM167.056 243L174.541 218.339H166.543L162.595 236.13H162.458L158.511 218.339H150.171L157.656 243H167.056ZM189.956 243H197.681L189.631 218.339H180.54L172.49 243H179.873L181.155 238.095H188.674L189.956 243ZM184.846 224.03H184.983L187.358 232.985H182.471L184.846 224.03Z" fill="#664343"/>
</svg>
