<svg width="300" height="400" viewBox="0 0 300 400" fill="none" xmlns="http://www.w3.org/2000/svg">
<rect width="300" height="400" fill="white"/>
<path d="M231.09 69.1602H69.1899V83.3702H231.09V69.1602Z" fill="#D1D3D4"/>
<path d="M234.84 382.72H65.44C49.73 382.72 37 369.99 37 354.28V111.81C37 96.1001 49.73 83.3701 65.44 83.3701H234.84C250.55 83.3701 263.28 96.1001 263.28 111.81V354.28C263.28 369.99 250.55 382.72 234.84 382.72Z" fill="#EDF0F2" stroke="#D1D3D4" stroke-miterlimit="10"/>
<path d="M244.82 69.16H55.46V29.87C55.46 22.76 61.22 17 68.33 17H231.96C239.07 17 244.83 22.76 244.83 29.87V69.16H244.82Z" fill="#EDF0F2" stroke="#D1D3D4" stroke-miterlimit="10"/>
<path d="M244.83 71.2998H55.46V79.8598H244.83V71.2998Z" fill="#EDF0F2" stroke="#D1D3D4" stroke-miterlimit="10"/>
<path d="M101.995 216.241H92.3218V197.339H85.0757V222H101.995V216.241ZM120.999 222H128.723L120.674 197.339H111.582L103.533 222H110.916L112.197 217.095H119.717L120.999 222ZM115.889 203.03H116.025L118.401 211.985H113.513L115.889 203.03ZM140.874 222.427C147.522 222.427 152.324 218.206 152.358 212.054H145.42C145.198 214.908 143.386 216.736 140.891 216.736C137.883 216.736 136.021 214.104 136.021 209.644C136.021 205.235 137.9 202.603 140.874 202.603C143.386 202.603 145.215 204.466 145.386 207.269H152.324C152.307 201.15 147.385 196.912 140.874 196.912C133.337 196.912 128.638 201.526 128.638 209.661C128.638 217.796 133.32 222.427 140.874 222.427ZM167.568 222V203.099H174.062V197.339H153.828V203.099H160.322V222H167.568ZM187.17 196.912C179.548 196.912 174.746 201.8 174.746 209.678C174.746 217.557 179.531 222.427 187.17 222.427C194.792 222.427 199.595 217.557 199.595 209.678C199.595 201.8 194.792 196.912 187.17 196.912ZM187.17 202.688C190.195 202.688 192.212 205.406 192.212 209.678C192.212 213.934 190.212 216.651 187.17 216.651C184.128 216.651 182.129 213.934 182.129 209.678C182.129 205.406 184.146 202.688 187.17 202.688ZM214.292 214.925V208.978H203.03V214.925H214.292ZM87.9639 264C93.2446 264 96.6626 261.146 96.6626 256.822C96.6626 253.558 93.877 251.046 90.5444 250.96V250.824C93.3984 250.465 95.5518 248.329 95.5518 245.492C95.5518 241.646 92.5952 239.339 87.5537 239.339H75.437V264H87.9639ZM82.6831 244.312H85.5884C87.417 244.312 88.5107 245.235 88.5107 246.756C88.5107 248.243 87.3486 249.217 85.4858 249.217H82.6831V244.312ZM82.6831 259.027V253.37H85.8276C87.998 253.37 89.2969 254.396 89.2969 256.156C89.2969 258.019 88.0151 259.027 85.7764 259.027H82.6831ZM115.325 264H123.049L115 239.339H105.908L97.8589 264H105.242L106.523 259.095H114.043L115.325 264ZM110.215 245.03H110.352L112.727 253.985H107.839L110.215 245.03ZM135.2 264.427C141.848 264.427 146.65 260.206 146.685 254.054H139.746C139.524 256.908 137.712 258.736 135.217 258.736C132.209 258.736 130.347 256.104 130.347 251.644C130.347 247.235 132.227 244.603 135.2 244.603C137.712 244.603 139.541 246.466 139.712 249.269H146.65C146.633 243.15 141.711 238.912 135.2 238.912C127.664 238.912 122.964 243.526 122.964 251.661C122.964 259.796 127.646 264.427 135.2 264.427ZM156.682 264V239.339H149.436V264H156.682ZM177.019 258.241H167.346V239.339H160.1V264H177.019V258.241ZM186.658 239.339H179.412V255.216C179.412 260.838 183.77 264.427 190.281 264.427C196.792 264.427 201.15 260.838 201.15 255.216V239.339H193.904V254.413C193.904 257.01 192.622 258.429 190.281 258.429C187.939 258.429 186.658 257.01 186.658 254.413V239.339ZM203.884 256.737C203.901 261.659 207.849 264.427 214.463 264.427C221.025 264.427 225.247 261.214 225.247 256.173C225.247 252.174 223.008 249.901 218.223 249.063L214.839 248.482C212.498 248.072 211.489 247.457 211.489 246.278C211.489 245.047 212.686 244.261 214.583 244.261C216.531 244.261 218.052 245.167 218.103 246.705H224.717C224.683 241.92 221.008 238.912 214.446 238.912C208.567 238.912 204.294 242.057 204.294 247.047C204.294 250.909 206.755 253.507 211.284 254.293L214.548 254.874C217.197 255.353 218.103 255.848 218.103 256.993C218.103 258.189 216.77 259.061 214.6 259.061C212.651 259.061 210.942 258.138 210.737 256.737H203.884Z" fill="#2CB121"/>
</svg>
