<svg width="300" height="400" viewBox="0 0 300 400" fill="none" xmlns="http://www.w3.org/2000/svg">
<rect width="300" height="400" fill="white"/>
<path d="M231.09 69.1599H69.19V83.3699H231.09V69.1599Z" fill="#D1D3D4"/>
<path d="M234.84 382.72H65.44C49.73 382.72 37 369.99 37 354.28V111.81C37 96.1001 49.73 83.3701 65.44 83.3701H234.84C250.55 83.3701 263.28 96.1001 263.28 111.81V354.28C263.28 369.99 250.55 382.72 234.84 382.72Z" fill="#EDF0F2" stroke="#D1D3D4" stroke-miterlimit="10"/>
<path d="M244.82 69.16H55.46V29.87C55.46 22.76 61.22 17 68.33 17H231.96C239.07 17 244.83 22.76 244.83 29.87V69.16H244.82Z" fill="#EDF0F2" stroke="#D1D3D4" stroke-miterlimit="10"/>
<path d="M244.83 71.3H55.46V79.8601H244.83V71.3Z" fill="#EDF0F2" stroke="#D1D3D4" stroke-miterlimit="10"/>
<path d="M101.995 216.241H92.3218V197.339H85.0757V222H101.995V216.241ZM120.999 222H128.723L120.674 197.339H111.582L103.533 222H110.916L112.197 217.095H119.717L120.999 222ZM115.889 203.03H116.025L118.401 211.985H113.513L115.889 203.03ZM140.874 222.427C147.522 222.427 152.324 218.206 152.358 212.054H145.42C145.198 214.908 143.386 216.736 140.891 216.736C137.883 216.736 136.021 214.104 136.021 209.644C136.021 205.235 137.9 202.603 140.874 202.603C143.386 202.603 145.215 204.466 145.386 207.269H152.324C152.307 201.15 147.385 196.912 140.874 196.912C133.337 196.912 128.638 201.526 128.638 209.661C128.638 217.796 133.32 222.427 140.874 222.427ZM167.568 222V203.099H174.062V197.339H153.828V203.099H160.322V222H167.568ZM187.17 196.912C179.548 196.912 174.746 201.8 174.746 209.678C174.746 217.557 179.531 222.427 187.17 222.427C194.792 222.427 199.595 217.557 199.595 209.678C199.595 201.8 194.792 196.912 187.17 196.912ZM187.17 202.688C190.195 202.688 192.212 205.406 192.212 209.678C192.212 213.934 190.212 216.651 187.17 216.651C184.128 216.651 182.129 213.934 182.129 209.678C182.129 205.406 184.146 202.688 187.17 202.688ZM214.292 214.925V208.978H203.03V214.925H214.292ZM96.6626 264V255.267H105.789V249.833H96.6626V245.099H106.746V239.339H89.4165V264H96.6626ZM126.707 258.241H116.555V254.276H126.074V249.081H116.555V245.099H126.707V239.339H109.309V264H126.707V258.241ZM137.336 244.688H140.344C142.292 244.688 143.608 246.004 143.608 247.833C143.608 249.696 142.361 250.943 140.327 250.943H137.336V244.688ZM137.336 255.729H139.712L143.608 264H151.709L147.026 254.652C149.607 253.421 151.008 250.619 151.008 247.713C151.008 242.433 147.625 239.339 141.045 239.339H130.09V264H137.336V255.729ZM161.194 244.688H164.202C166.15 244.688 167.466 246.004 167.466 247.833C167.466 249.696 166.218 250.943 164.185 250.943H161.194V244.688ZM161.194 255.729H163.569L167.466 264H175.566L170.884 254.652C173.464 253.421 174.866 250.619 174.866 247.713C174.866 242.433 171.482 239.339 164.902 239.339H153.948V264H161.194V255.729ZM185.051 264V239.339H177.805V264H185.051ZM195.305 264V251.012H195.442L205.029 264H210.583V239.339H203.748V252.123H203.611L194.092 239.339H188.469V264H195.305Z" fill="#3F7236"/>
</svg>
