<svg width="300" height="400" viewBox="0 0 300 400" fill="none" xmlns="http://www.w3.org/2000/svg">
<rect width="300" height="400" fill="white"/>
<path d="M231.09 69.1599H69.19V83.3699H231.09V69.1599Z" fill="#D1D3D4"/>
<path d="M234.84 382.72H65.44C49.73 382.72 37 369.99 37 354.28V111.81C37 96.1001 49.73 83.3701 65.44 83.3701H234.84C250.55 83.3701 263.28 96.1001 263.28 111.81V354.28C263.28 369.99 250.55 382.72 234.84 382.72Z" fill="#EDF0F2" stroke="#D1D3D4" stroke-miterlimit="10"/>
<path d="M244.82 69.16H55.46V29.87C55.46 22.76 61.22 17 68.33 17H231.96C239.07 17 244.83 22.76 244.83 29.87V69.16H244.82Z" fill="#EDF0F2" stroke="#D1D3D4" stroke-miterlimit="10"/>
<path d="M244.83 71.3H55.46V79.8601H244.83V71.3Z" fill="#EDF0F2" stroke="#D1D3D4" stroke-miterlimit="10"/>
<path d="M76.4282 237.241H66.7554V218.339H59.5093V243H76.4282V237.241ZM95.4321 243H103.157L95.1074 218.339H86.0156L77.9663 243H85.3491L86.6309 238.095H94.1504L95.4321 243ZM90.3223 224.03H90.459L92.8345 232.985H87.9468L90.3223 224.03ZM117.991 243L125.476 218.339H117.478L113.53 236.13H113.394L109.446 218.339H101.106L108.591 243H117.991ZM145.095 237.241H134.944V233.276H144.463V228.081H134.944V224.099H145.095V218.339H127.698V243H145.095V237.241ZM155.315 243V230.012H155.452L165.039 243H170.593V218.339H163.757V231.123H163.621L154.102 218.339H148.479V243H155.315ZM174.011 218.339V243H184.556C192.024 243 196.433 238.386 196.433 230.49C196.433 222.595 192.041 218.339 184.556 218.339H174.011ZM181.257 224.099H183.53C187 224.099 189.05 226.337 189.05 230.49C189.05 235.036 187.153 237.241 183.53 237.241H181.257V224.099ZM216.667 237.241H206.516V233.276H216.035V228.081H206.516V224.099H216.667V218.339H199.27V243H216.667V237.241ZM227.297 223.688H230.305C232.253 223.688 233.569 225.004 233.569 226.833C233.569 228.696 232.322 229.943 230.288 229.943H227.297V223.688ZM227.297 234.729H229.673L233.569 243H241.67L236.987 233.652C239.568 232.421 240.969 229.619 240.969 226.713C240.969 221.433 237.585 218.339 231.006 218.339H220.051V243H227.297V234.729Z" fill="#9B53C7"/>
</svg>
