<svg width="300" height="400" viewBox="0 0 300 400" fill="none" xmlns="http://www.w3.org/2000/svg">
<rect width="300" height="400" fill="white"/>
<path d="M231.09 69.1599H69.19V83.3699H231.09V69.1599Z" fill="#D1D3D4"/>
<path d="M234.84 382.72H65.44C49.73 382.72 37 369.99 37 354.28V111.81C37 96.1001 49.73 83.3701 65.44 83.3701H234.84C250.55 83.3701 263.28 96.1001 263.28 111.81V354.28C263.28 369.99 250.55 382.72 234.84 382.72Z" fill="#EDF0F2" stroke="#D1D3D4" stroke-miterlimit="10"/>
<path d="M244.82 69.16H55.46V29.87C55.46 22.76 61.22 17 68.33 17H231.96C239.07 17 244.83 22.76 244.83 29.87V69.16H244.82Z" fill="#EDF0F2" stroke="#D1D3D4" stroke-miterlimit="10"/>
<path d="M244.83 71.3H55.46V79.8601H244.83V71.3Z" fill="#EDF0F2" stroke="#D1D3D4" stroke-miterlimit="10"/>
<path d="M106.438 216.241H96.7651V197.339H89.519V222H106.438V216.241ZM126.57 216.241H116.418V212.276H125.938V207.081H116.418V203.099H126.57V197.339H109.172V222H126.57V216.241ZM157.861 222V197.339H149.487L143.984 211.729H143.848L138.328 197.339H129.954V222H136.277V207.713H136.414L141.968 221.709H145.847L151.401 207.713H151.538V222H157.861ZM173.123 196.912C165.5 196.912 160.698 201.8 160.698 209.678C160.698 217.557 165.483 222.427 173.123 222.427C180.745 222.427 185.547 217.557 185.547 209.678C185.547 201.8 180.745 196.912 173.123 196.912ZM173.123 202.688C176.147 202.688 178.164 205.406 178.164 209.678C178.164 213.934 176.165 216.651 173.123 216.651C170.081 216.651 168.081 213.934 168.081 209.678C168.081 205.406 170.098 202.688 173.123 202.688ZM195.203 222V209.012H195.339L204.927 222H210.481V197.339H203.645V210.123H203.508L193.989 197.339H188.367V222H195.203ZM113.821 264C119.102 264 122.52 261.146 122.52 256.822C122.52 253.558 119.734 251.046 116.401 250.96V250.824C119.255 250.465 121.409 248.329 121.409 245.492C121.409 241.646 118.452 239.339 113.411 239.339H101.294V264H113.821ZM108.54 244.312H111.445C113.274 244.312 114.368 245.235 114.368 246.756C114.368 248.243 113.206 249.217 111.343 249.217H108.54V244.312ZM108.54 259.027V253.37H111.685C113.855 253.37 115.154 254.396 115.154 256.156C115.154 258.019 113.872 259.027 111.633 259.027H108.54ZM141.182 264H148.906L140.857 239.339H131.765L123.716 264H131.099L132.38 259.095H139.9L141.182 264ZM136.072 245.03H136.208L138.584 253.985H133.696L136.072 245.03ZM168.047 258.241H158.374V239.339H151.128V264H168.047V258.241ZM198.689 264V239.339H190.315L184.812 253.729H184.675L179.155 239.339H170.781V264H177.104V249.713H177.241L182.795 263.709H186.675L192.229 249.713H192.366V264H198.689Z" fill="#D7BD34"/>
</svg>
