<svg width="300" height="400" viewBox="0 0 300 400" fill="none" xmlns="http://www.w3.org/2000/svg">
<rect width="300" height="400" fill="white"/>
<path d="M231.09 69.1599H69.19V83.3699H231.09V69.1599Z" fill="#D1D3D4"/>
<path d="M234.84 382.72H65.44C49.73 382.72 37 369.99 37 354.28V111.81C37 96.1001 49.73 83.3701 65.44 83.3701H234.84C250.55 83.3701 263.28 96.1001 263.28 111.81V354.28C263.28 369.99 250.55 382.72 234.84 382.72Z" fill="#EDF0F2" stroke="#D1D3D4" stroke-miterlimit="10"/>
<path d="M244.82 69.16H55.46V29.87C55.46 22.76 61.22 17 68.33 17H231.96C239.07 17 244.83 22.76 244.83 29.87V69.16H244.82Z" fill="#EDF0F2" stroke="#D1D3D4" stroke-miterlimit="10"/>
<path d="M244.83 71.3H55.46V79.8601H244.83V71.3Z" fill="#EDF0F2" stroke="#D1D3D4" stroke-miterlimit="10"/>
<path d="M77.9492 237.241H68.2764V218.339H61.0303V243H77.9492V237.241ZM87.9297 243V218.339H80.6836V243H87.9297ZM119.255 243V218.339H110.881L105.378 232.729H105.242L99.7217 218.339H91.3477V243H97.6709V228.713H97.8076L103.362 242.709H107.241L112.795 228.713H112.932V243H119.255ZM134.517 217.912C126.895 217.912 122.092 222.8 122.092 230.678C122.092 238.557 126.877 243.427 134.517 243.427C142.139 243.427 146.941 238.557 146.941 230.678C146.941 222.8 142.139 217.912 134.517 217.912ZM134.517 223.688C137.542 223.688 139.558 226.406 139.558 230.678C139.558 234.934 137.559 237.651 134.517 237.651C131.475 237.651 129.475 234.934 129.475 230.678C129.475 226.406 131.492 223.688 134.517 223.688ZM156.597 243V230.012H156.733L166.321 243H171.875V218.339H165.039V231.123H164.902L155.383 218.339H149.761V243H156.597ZM192.69 237.241H182.539V233.276H192.058V228.081H182.539V224.099H192.69V218.339H175.293V243H192.69V237.241ZM202.91 243V230.012H203.047L212.634 243H218.188V218.339H211.353V231.123H211.216L201.697 218.339H196.074V243H202.91ZM239.004 237.241H228.853V233.276H238.372V228.081H228.853V224.099H239.004V218.339H221.606V243H239.004V237.241Z" fill="#E4DC16"/>
</svg>
