<svg width="300" height="400" viewBox="0 0 300 400" fill="none" xmlns="http://www.w3.org/2000/svg">
<rect width="300" height="400" fill="white"/>
<path d="M231.09 69.1599H69.1899V83.3699H231.09V69.1599Z" fill="#D1D3D4"/>
<path d="M234.84 382.72H65.44C49.73 382.72 37 369.99 37 354.28V111.81C37 96.1001 49.73 83.3701 65.44 83.3701H234.84C250.55 83.3701 263.28 96.1001 263.28 111.81V354.28C263.28 369.99 250.55 382.72 234.84 382.72Z" fill="#EDF0F2" stroke="#D1D3D4" stroke-miterlimit="10"/>
<path d="M244.82 69.16H55.46V29.87C55.46 22.76 61.22 17 68.33 17H231.96C239.07 17 244.83 22.76 244.83 29.87V69.16H244.82Z" fill="#EDF0F2" stroke="#D1D3D4" stroke-miterlimit="10"/>
<path d="M244.83 71.3H55.46V79.8601H244.83V71.3Z" fill="#EDF0F2" stroke="#D1D3D4" stroke-miterlimit="10"/>
<path d="M111.172 216.241H101.499V197.339H94.2529V222H111.172V216.241ZM121.152 222V197.339H113.906V222H121.152ZM136.396 196.912C128.774 196.912 123.972 201.8 123.972 209.678C123.972 217.557 128.757 222.427 136.396 222.427C144.019 222.427 148.821 217.557 148.821 209.678C148.821 201.8 144.019 196.912 136.396 196.912ZM136.396 202.688C139.421 202.688 141.438 205.406 141.438 209.678C141.438 213.934 139.438 216.651 136.396 216.651C133.354 216.651 131.355 213.934 131.355 209.678C131.355 205.406 133.372 202.688 136.396 202.688ZM158.477 222V209.012H158.613L168.201 222H173.755V197.339H166.919V210.123H166.782L157.263 197.339H151.641V222H158.477ZM182.659 207.884V197.339H176.848V207.884H182.659ZM185.068 214.737C185.085 219.659 189.033 222.427 195.647 222.427C202.209 222.427 206.431 219.214 206.431 214.173C206.431 210.174 204.192 207.901 199.407 207.063L196.023 206.482C193.682 206.072 192.673 205.457 192.673 204.278C192.673 203.047 193.87 202.261 195.767 202.261C197.715 202.261 199.236 203.167 199.287 204.705H205.901C205.867 199.92 202.192 196.912 195.63 196.912C189.751 196.912 185.479 200.057 185.479 205.047C185.479 208.909 187.939 211.507 192.468 212.293L195.732 212.874C198.381 213.353 199.287 213.848 199.287 214.993C199.287 216.189 197.954 217.061 195.784 217.061C193.835 217.061 192.126 216.138 191.921 214.737H185.068ZM127.681 264V239.339H119.307L113.804 253.729H113.667L108.147 239.339H99.7729V264H106.096V249.713H106.233L111.787 263.709H115.667L121.221 249.713H121.357V264H127.681ZM147.385 264H155.11L147.061 239.339H137.969L129.919 264H137.302L138.584 259.095H146.104L147.385 264ZM142.275 245.03H142.412L144.788 253.985H139.9L142.275 245.03ZM164.167 264V251.012H164.304L173.892 264H179.446V239.339H172.61V252.123H172.473L162.954 239.339H157.332V264H164.167ZM200.261 258.241H190.11V254.276H199.629V249.081H190.11V245.099H200.261V239.339H182.864V264H200.261V258.241Z" fill="#D2CFAE"/>
</svg>
