<svg width="300" height="400" viewBox="0 0 300 400" fill="none" xmlns="http://www.w3.org/2000/svg">
<rect width="300" height="400" fill="white"/>
<path d="M231.09 69.1599H69.1899V83.3699H231.09V69.1599Z" fill="#D1D3D4"/>
<path d="M234.84 382.72H65.44C49.73 382.72 37 369.99 37 354.28V111.81C37 96.1001 49.73 83.3701 65.44 83.3701H234.84C250.55 83.3701 263.28 96.1001 263.28 111.81V354.28C263.28 369.99 250.55 382.72 234.84 382.72Z" fill="#EDF0F2" stroke="#D1D3D4" stroke-miterlimit="10"/>
<path d="M244.82 69.16H55.46V29.87C55.46 22.76 61.22 17 68.33 17H231.96C239.07 17 244.83 22.76 244.83 29.87V69.16H244.82Z" fill="#EDF0F2" stroke="#D1D3D4" stroke-miterlimit="10"/>
<path d="M244.83 71.3H55.46V79.8601H244.83V71.3Z" fill="#EDF0F2" stroke="#D1D3D4" stroke-miterlimit="10"/>
<path d="M107.019 237.241H97.3462V218.339H90.1001V243H107.019V237.241ZM116.658 218.339H109.412V234.216C109.412 239.838 113.77 243.427 120.281 243.427C126.792 243.427 131.15 239.838 131.15 234.216V218.339H123.904V233.413C123.904 236.01 122.622 237.429 120.281 237.429C117.939 237.429 116.658 236.01 116.658 233.413V218.339ZM147.368 243V224.099H153.862V218.339H133.628V224.099H140.122V243H147.368ZM173.738 237.241H163.586V233.276H173.105V228.081H163.586V224.099H173.738V218.339H156.34V243H173.738V237.241ZM184.368 243V218.339H177.122V243H184.368ZM194.622 243V230.012H194.758L204.346 243H209.9V218.339H203.064V231.123H202.927L193.408 218.339H187.786V243H194.622Z" fill="#119737"/>
</svg>
