<svg width="300" height="400" viewBox="0 0 300 400" fill="none" xmlns="http://www.w3.org/2000/svg">
<rect width="300" height="400" fill="white"/>
<path d="M231.09 69.1599H69.1899V83.3699H231.09V69.1599Z" fill="#D1D3D4"/>
<path d="M234.84 382.72H65.44C49.73 382.72 37 369.99 37 354.28V111.81C37 96.1001 49.73 83.3701 65.44 83.3701H234.84C250.55 83.3701 263.28 96.1001 263.28 111.81V354.28C263.28 369.99 250.55 382.72 234.84 382.72Z" fill="#EDF0F2" stroke="#D1D3D4" stroke-miterlimit="10"/>
<path d="M244.82 69.16H55.46V29.87C55.46 22.76 61.22 17 68.33 17H231.96C239.07 17 244.83 22.76 244.83 29.87V69.16H244.82Z" fill="#EDF0F2" stroke="#D1D3D4" stroke-miterlimit="10"/>
<path d="M244.83 71.3H55.46V79.8601H244.83V71.3Z" fill="#EDF0F2" stroke="#D1D3D4" stroke-miterlimit="10"/>
<path d="M108.95 237.241H99.2773V218.339H92.0312V243H108.95V237.241ZM121.716 243V235.19L130.142 218.339H122.571L118.247 228.337H118.11L113.787 218.339H106.045L114.47 235.19V243H121.716ZM130.312 235.737C130.33 240.659 134.277 243.427 140.891 243.427C147.454 243.427 151.675 240.214 151.675 235.173C151.675 231.174 149.436 228.901 144.651 228.063L141.267 227.482C138.926 227.072 137.917 226.457 137.917 225.278C137.917 224.047 139.114 223.261 141.011 223.261C142.959 223.261 144.48 224.167 144.531 225.705H151.145C151.111 220.92 147.437 217.912 140.874 217.912C134.995 217.912 130.723 221.057 130.723 226.047C130.723 229.909 133.184 232.507 137.712 233.293L140.977 233.874C143.625 234.353 144.531 234.848 144.531 235.993C144.531 237.189 143.198 238.061 141.028 238.061C139.08 238.061 137.371 237.138 137.166 235.737H130.312ZM161.655 243V218.339H154.409V243H161.655ZM171.909 243V230.012H172.046L181.633 243H187.188V218.339H180.352V231.123H180.215L170.696 218.339H165.073V243H171.909ZM208.003 237.241H197.852V233.276H207.371V228.081H197.852V224.099H208.003V218.339H190.605V243H208.003V237.241Z" fill="#5D2F81"/>
</svg>
