<svg width="300" height="400" viewBox="0 0 300 400" fill="none" xmlns="http://www.w3.org/2000/svg">
<rect width="300" height="400" fill="white"/>
<path d="M231.09 69.1599H69.1899V83.3699H231.09V69.1599Z" fill="#D1D3D4"/>
<path d="M234.84 382.72H65.44C49.73 382.72 37 369.99 37 354.28V111.81C37 96.1001 49.73 83.3701 65.44 83.3701H234.84C250.55 83.3701 263.28 96.1001 263.28 111.81V354.28C263.28 369.99 250.55 382.72 234.84 382.72Z" fill="#EDF0F2" stroke="#D1D3D4" stroke-miterlimit="10"/>
<path d="M244.82 69.16H55.46V29.87C55.46 22.76 61.22 17 68.33 17H231.96C239.07 17 244.83 22.76 244.83 29.87V69.16H244.82Z" fill="#EDF0F2" stroke="#D1D3D4" stroke-miterlimit="10"/>
<path d="M244.83 71.3H55.46V79.8601H244.83V71.3Z" fill="#EDF0F2" stroke="#D1D3D4" stroke-miterlimit="10"/>
<path d="M126.501 243V218.339H118.127L112.625 232.729H112.488L106.968 218.339H98.5938V243H104.917V228.713H105.054L110.608 242.709H114.487L120.042 228.713H120.178V243H126.501ZM146.206 243H153.931L145.881 218.339H136.79L128.74 243H136.123L137.405 238.095H144.924L146.206 243ZM141.096 224.03H141.233L143.608 232.985H138.721L141.096 224.03ZM166.082 243.427C172.729 243.427 177.532 239.206 177.566 233.054H170.627C170.405 235.908 168.594 237.736 166.099 237.736C163.091 237.736 161.228 235.104 161.228 230.644C161.228 226.235 163.108 223.603 166.082 223.603C168.594 223.603 170.422 225.466 170.593 228.269H177.532C177.515 222.15 172.593 217.912 166.082 217.912C158.545 217.912 153.845 222.526 153.845 230.661C153.845 238.796 158.528 243.427 166.082 243.427ZM194.878 243H202.603L194.553 218.339H185.461L177.412 243H184.795L186.077 238.095H193.596L194.878 243ZM189.768 224.03H189.905L192.28 232.985H187.393L189.768 224.03Z" fill="#85A467"/>
</svg>
