<svg width="300" height="400" viewBox="0 0 300 400" fill="none" xmlns="http://www.w3.org/2000/svg">
<rect width="300" height="400" fill="white"/>
<path d="M231.09 69.1599H69.1899V83.3699H231.09V69.1599Z" fill="#D1D3D4"/>
<path d="M234.84 382.72H65.44C49.73 382.72 37 369.99 37 354.28V111.81C37 96.1001 49.73 83.3701 65.44 83.3701H234.84C250.55 83.3701 263.28 96.1001 263.28 111.81V354.28C263.28 369.99 250.55 382.72 234.84 382.72Z" fill="#EDF0F2" stroke="#D1D3D4" stroke-miterlimit="10"/>
<path d="M244.82 69.16H55.46V29.87C55.46 22.76 61.22 17 68.33 17H231.96C239.07 17 244.83 22.76 244.83 29.87V69.16H244.82Z" fill="#EDF0F2" stroke="#D1D3D4" stroke-miterlimit="10"/>
<path d="M244.83 71.3H55.46V79.8601H244.83V71.3Z" fill="#EDF0F2" stroke="#D1D3D4" stroke-miterlimit="10"/>
<path d="M107.583 222V197.339H99.209L93.7061 211.729H93.5693L88.0493 197.339H79.6753V222H85.9985V207.713H86.1353L91.6895 221.709H95.5688L101.123 207.713H101.26V222H107.583ZM127.288 222H135.012L126.963 197.339H117.871L109.822 222H117.205L118.486 217.095H126.006L127.288 222ZM122.178 203.03H122.314L124.69 211.985H119.802L122.178 203.03ZM158.801 211.507V208.26H148.069V213.079H151.829L151.794 213.421C151.589 215.403 149.915 216.719 147.556 216.719C144.377 216.719 142.31 214.036 142.31 209.542C142.31 205.149 144.121 202.62 147.197 202.62C149.282 202.62 150.906 203.799 151.384 205.611H158.511C157.964 200.552 153.35 196.912 147.163 196.912C139.558 196.912 134.927 201.561 134.927 209.644C134.927 217.83 139.558 222.427 147.385 222.427C154.546 222.427 158.801 218.257 158.801 211.507ZM168.508 222V209.012H168.645L178.232 222H183.787V197.339H176.951V210.123H176.814L167.295 197.339H161.672V222H168.508ZM204.602 216.241H194.451V212.276H203.97V207.081H194.451V203.099H204.602V197.339H187.205V222H204.602V216.241ZM219.692 214.925V208.978H208.43V214.925H219.692ZM105.737 256.737C105.754 261.659 109.702 264.427 116.316 264.427C122.878 264.427 127.1 261.214 127.1 256.173C127.1 252.174 124.861 249.901 120.076 249.063L116.692 248.482C114.351 248.072 113.342 247.457 113.342 246.278C113.342 245.047 114.539 244.261 116.436 244.261C118.384 244.261 119.905 245.167 119.956 246.705H126.57C126.536 241.92 122.861 238.912 116.299 238.912C110.42 238.912 106.147 242.057 106.147 247.047C106.147 250.909 108.608 253.507 113.137 254.293L116.401 254.874C119.05 255.353 119.956 255.848 119.956 256.993C119.956 258.189 118.623 259.061 116.453 259.061C114.504 259.061 112.795 258.138 112.59 256.737H105.737ZM137.08 264V239.339H129.834V264H137.08ZM147.744 239.339H140.498V255.216C140.498 260.838 144.856 264.427 151.367 264.427C157.878 264.427 162.236 260.838 162.236 255.216V239.339H154.99V254.413C154.99 257.01 153.708 258.429 151.367 258.429C149.026 258.429 147.744 257.01 147.744 254.413V239.339ZM193.562 264V239.339H185.188L179.685 253.729H179.548L174.028 239.339H165.654V264H171.978V249.713H172.114L177.668 263.709H181.548L187.102 249.713H187.239V264H193.562Z" fill="#BF4F4F"/>
</svg>
