<svg width="300" height="400" viewBox="0 0 300 400" fill="none" xmlns="http://www.w3.org/2000/svg">
<rect width="300" height="400" fill="white"/>
<path d="M231.09 69.1599H69.1899V83.3699H231.09V69.1599Z" fill="#D1D3D4"/>
<path d="M234.84 382.72H65.44C49.73 382.72 37 369.99 37 354.28V111.81C37 96.1001 49.73 83.3701 65.44 83.3701H234.84C250.55 83.3701 263.28 96.1001 263.28 111.81V354.28C263.28 369.99 250.55 382.72 234.84 382.72Z" fill="#EDF0F2" stroke="#D1D3D4" stroke-miterlimit="10"/>
<path d="M244.82 69.16H55.46V29.87C55.46 22.76 61.22 17 68.33 17H231.96C239.07 17 244.83 22.76 244.83 29.87V69.16H244.82Z" fill="#EDF0F2" stroke="#D1D3D4" stroke-miterlimit="10"/>
<path d="M244.83 71.3H55.46V79.8601H244.83V71.3Z" fill="#EDF0F2" stroke="#D1D3D4" stroke-miterlimit="10"/>
<path d="M140.293 243V218.339H131.919L126.416 232.729H126.279L120.759 218.339H112.385V243H118.708V228.713H118.845L124.399 242.709H128.279L133.833 228.713H133.97V243H140.293ZM155.366 243.427C162.014 243.427 166.816 239.206 166.851 233.054H159.912C159.69 235.908 157.878 237.736 155.383 237.736C152.375 237.736 150.513 235.104 150.513 230.644C150.513 226.235 152.393 223.603 155.366 223.603C157.878 223.603 159.707 225.466 159.878 228.269H166.816C166.799 222.15 161.877 217.912 155.366 217.912C147.83 217.912 143.13 222.526 143.13 230.661C143.13 238.796 147.812 243.427 155.366 243.427ZM182.061 243V224.099H188.555V218.339H168.32V224.099H174.814V243H182.061Z" fill="#3D3D3D"/>
</svg>
