<svg width="300" height="400" viewBox="0 0 300 400" fill="none" xmlns="http://www.w3.org/2000/svg">
<rect width="300" height="400" fill="white"/>
<path d="M231.09 69.1599H69.1899V83.3699H231.09V69.1599Z" fill="#D1D3D4"/>
<path d="M234.84 382.72H65.44C49.73 382.72 37 369.99 37 354.28V111.81C37 96.1001 49.73 83.3701 65.44 83.3701H234.84C250.55 83.3701 263.28 96.1001 263.28 111.81V354.28C263.28 369.99 250.55 382.72 234.84 382.72Z" fill="#EDF0F2" stroke="#D1D3D4" stroke-miterlimit="10"/>
<path d="M244.82 69.16H55.46V29.87C55.46 22.76 61.22 17 68.33 17H231.96C239.07 17 244.83 22.76 244.83 29.87V69.16H244.82Z" fill="#EDF0F2" stroke="#D1D3D4" stroke-miterlimit="10"/>
<path d="M244.83 71.3H55.46V79.8601H244.83V71.3Z" fill="#EDF0F2" stroke="#D1D3D4" stroke-miterlimit="10"/>
<path d="M77.5562 243V218.339H69.1821L63.6792 232.729H63.5425L58.0225 218.339H49.6484V243H55.9717V228.713H56.1084L61.6626 242.709H65.542L71.0962 228.713H71.2329V243H77.5562ZM98.3887 237.241H88.2373V233.276H97.7563V228.081H88.2373V224.099H98.3887V218.339H80.9912V243H98.3887V237.241ZM118.691 237.241H109.019V218.339H101.772V243H118.691V237.241ZM137.695 243H145.42L137.371 218.339H128.279L120.229 243H127.612L128.894 238.095H136.414L137.695 243ZM132.585 224.03H132.722L135.098 232.985H130.21L132.585 224.03ZM157.195 243V224.099H163.689V218.339H143.455V224.099H149.949V243H157.195ZM176.797 217.912C169.175 217.912 164.373 222.8 164.373 230.678C164.373 238.557 169.158 243.427 176.797 243.427C184.419 243.427 189.221 238.557 189.221 230.678C189.221 222.8 184.419 217.912 176.797 217.912ZM176.797 223.688C179.822 223.688 181.838 226.406 181.838 230.678C181.838 234.934 179.839 237.651 176.797 237.651C173.755 237.651 171.755 234.934 171.755 230.678C171.755 226.406 173.772 223.688 176.797 223.688ZM198.877 243V230.012H199.014L208.601 243H214.155V218.339H207.319V231.123H207.183L197.664 218.339H192.041V243H198.877ZM224.819 243V218.339H217.573V243H224.819ZM235.073 243V230.012H235.21L244.797 243H250.352V218.339H243.516V231.123H243.379L233.86 218.339H228.237V243H235.073Z" fill="#2D3196"/>
</svg>
