<svg width="300" height="400" viewBox="0 0 300 400" fill="none" xmlns="http://www.w3.org/2000/svg">
<rect width="300" height="400" fill="white"/>
<path d="M231.09 69.1599H69.1899V83.3699H231.09V69.1599Z" fill="#D1D3D4"/>
<path d="M234.84 382.72H65.44C49.73 382.72 37 369.99 37 354.28V111.81C37 96.1001 49.73 83.3701 65.44 83.3701H234.84C250.55 83.3701 263.28 96.1001 263.28 111.81V354.28C263.28 369.99 250.55 382.72 234.84 382.72Z" fill="#EDF0F2" stroke="#D1D3D4" stroke-miterlimit="10"/>
<path d="M244.82 69.16H55.46V29.87C55.46 22.76 61.22 17 68.33 17H231.96C239.07 17 244.83 22.76 244.83 29.87V69.16H244.82Z" fill="#EDF0F2" stroke="#D1D3D4" stroke-miterlimit="10"/>
<path d="M244.83 71.3H55.46V79.8601H244.83V71.3Z" fill="#EDF0F2" stroke="#D1D3D4" stroke-miterlimit="10"/>
<path d="M136.431 222V197.339H128.057L122.554 211.729H122.417L116.897 197.339H108.523V222H114.846V207.713H114.983L120.537 221.709H124.417L129.971 207.713H130.107V222H136.431ZM147.112 222V197.339H139.866V222H147.112ZM167.449 216.241H157.776V197.339H150.53V222H167.449V216.241ZM177.429 222V215.54L179.36 212.942L184.744 222H193.169L184.675 208.294L192.793 197.339H185.188L177.566 207.798H177.429V197.339H170.183V222H177.429ZM92.1851 264V245.099H98.6792V239.339H78.4448V245.099H84.939V264H92.1851ZM124.331 264V239.339H117.085V248.705H108.403V239.339H101.157V264H108.403V254.464H117.085V264H124.331ZM134.995 264V239.339H127.749V264H134.995ZM137.729 256.737C137.747 261.659 141.694 264.427 148.308 264.427C154.871 264.427 159.092 261.214 159.092 256.173C159.092 252.174 156.853 249.901 152.068 249.063L148.684 248.482C146.343 248.072 145.334 247.457 145.334 246.278C145.334 245.047 146.531 244.261 148.428 244.261C150.376 244.261 151.897 245.167 151.948 246.705H158.562C158.528 241.92 154.854 238.912 148.291 238.912C142.412 238.912 138.14 242.057 138.14 247.047C138.14 250.909 140.601 253.507 145.129 254.293L148.394 254.874C151.042 255.353 151.948 255.848 151.948 256.993C151.948 258.189 150.615 259.061 148.445 259.061C146.497 259.061 144.788 258.138 144.583 256.737H137.729ZM174.626 264V245.099H181.121V239.339H160.886V245.099H167.38V264H174.626ZM200.518 258.241H190.845V239.339H183.599V264H200.518V258.241ZM220.649 258.241H210.498V254.276H220.017V249.081H210.498V245.099H220.649V239.339H203.252V264H220.649V258.241Z" fill="#C430B5"/>
</svg>
