<svg width="300" height="400" viewBox="0 0 300 400" fill="none" xmlns="http://www.w3.org/2000/svg">
<rect width="300" height="400" fill="white"/>
<path d="M231.09 69.1599H69.1899V83.3699H231.09V69.1599Z" fill="#D1D3D4"/>
<path d="M234.84 382.72H65.44C49.73 382.72 37 369.99 37 354.28V111.81C37 96.1001 49.73 83.3701 65.44 83.3701H234.84C250.55 83.3701 263.28 96.1001 263.28 111.81V354.28C263.28 369.99 250.55 382.72 234.84 382.72Z" fill="#EDF0F2" stroke="#D1D3D4" stroke-miterlimit="10"/>
<path d="M244.82 69.16H55.46V29.87C55.46 22.76 61.22 17 68.33 17H231.96C239.07 17 244.83 22.76 244.83 29.87V69.16H244.82Z" fill="#EDF0F2" stroke="#D1D3D4" stroke-miterlimit="10"/>
<path d="M244.83 71.3H55.46V79.8601H244.83V71.3Z" fill="#EDF0F2" stroke="#D1D3D4" stroke-miterlimit="10"/>
<path d="M136.567 243V218.339H128.193L122.69 232.729H122.554L117.034 218.339H108.66V243H114.983V228.713H115.12L120.674 242.709H124.553L130.107 228.713H130.244V243H136.567ZM139.319 235.737C139.336 240.659 143.284 243.427 149.897 243.427C156.46 243.427 160.681 240.214 160.681 235.173C160.681 231.174 158.442 228.901 153.657 228.063L150.273 227.482C147.932 227.072 146.924 226.457 146.924 225.278C146.924 224.047 148.12 223.261 150.017 223.261C151.965 223.261 153.486 224.167 153.538 225.705H160.151C160.117 220.92 156.443 217.912 149.88 217.912C144.001 217.912 139.729 221.057 139.729 226.047C139.729 229.909 142.19 232.507 146.719 233.293L149.983 233.874C152.632 234.353 153.538 234.848 153.538 235.993C153.538 237.189 152.205 238.061 150.034 238.061C148.086 238.061 146.377 237.138 146.172 235.737H139.319ZM191.323 243V218.339H182.949L177.446 232.729H177.31L171.79 218.339H163.416V243H169.739V228.713H169.875L175.43 242.709H179.309L184.863 228.713H185V243H191.323Z" fill="#3D3D3D"/>
</svg>
