<svg width="300" height="400" viewBox="0 0 300 400" fill="none" xmlns="http://www.w3.org/2000/svg">
<rect width="300" height="400" fill="white"/>
<path d="M231.09 69.1602H69.19V83.3702H231.09V69.1602Z" fill="#D1D3D4"/>
<path d="M234.84 382.72H65.44C49.73 382.72 37 369.99 37 354.28V111.81C37 96.1001 49.73 83.3701 65.44 83.3701H234.84C250.55 83.3701 263.28 96.1001 263.28 111.81V354.28C263.28 369.99 250.55 382.72 234.84 382.72Z" fill="#EDF0F2" stroke="#D1D3D4" stroke-miterlimit="10"/>
<path d="M244.82 69.16H55.46V29.87C55.46 22.76 61.22 17 68.33 17H231.96C239.07 17 244.83 22.76 244.83 29.87V69.16H244.82Z" fill="#EDF0F2" stroke="#D1D3D4" stroke-miterlimit="10"/>
<path d="M244.83 71.2998H55.46V79.8598H244.83V71.2998Z" fill="#EDF0F2" stroke="#D1D3D4" stroke-miterlimit="10"/>
<path d="M120.588 243V230.012H120.725L130.312 243H135.867V218.339H129.031V231.123H128.894L119.375 218.339H113.752V243H120.588ZM155.554 243H163.279L155.229 218.339H146.138L138.088 243H145.471L146.753 238.095H154.272L155.554 243ZM150.444 224.03H150.581L152.957 232.985H148.069L150.444 224.03ZM175.43 243.427C182.078 243.427 186.88 239.206 186.914 233.054H179.976C179.753 235.908 177.942 237.736 175.447 237.736C172.439 237.736 170.576 235.104 170.576 230.644C170.576 226.235 172.456 223.603 175.43 223.603C177.942 223.603 179.771 225.466 179.941 228.269H186.88C186.863 222.15 181.941 217.912 175.43 217.912C167.893 217.912 163.193 222.526 163.193 230.661C163.193 238.796 167.876 243.427 175.43 243.427Z" fill="#3D3D3D"/>
</svg>
