<svg width="300" height="400" viewBox="0 0 300 400" fill="none" xmlns="http://www.w3.org/2000/svg">
<rect width="300" height="400" fill="white"/>
<path d="M231.09 69.1602H69.19V83.3702H231.09V69.1602Z" fill="#D1D3D4"/>
<path d="M234.84 382.72H65.44C49.73 382.72 37 369.99 37 354.28V111.81C37 96.1001 49.73 83.3701 65.44 83.3701H234.84C250.55 83.3701 263.28 96.1001 263.28 111.81V354.28C263.28 369.99 250.55 382.72 234.84 382.72Z" fill="#EDF0F2" stroke="#D1D3D4" stroke-miterlimit="10"/>
<path d="M244.82 69.16H55.46V29.87C55.46 22.76 61.22 17 68.33 17H231.96C239.07 17 244.83 22.76 244.83 29.87V69.16H244.82Z" fill="#EDF0F2" stroke="#D1D3D4" stroke-miterlimit="10"/>
<path d="M244.83 71.2998H55.46V79.8598H244.83V71.2998Z" fill="#EDF0F2" stroke="#D1D3D4" stroke-miterlimit="10"/>
<path d="M111.753 175.912C104.131 175.912 99.3286 180.8 99.3286 188.678C99.3286 196.557 104.114 201.427 111.753 201.427C119.375 201.427 124.177 196.557 124.177 188.678C124.177 180.8 119.375 175.912 111.753 175.912ZM111.753 181.688C114.778 181.688 116.794 184.406 116.794 188.678C116.794 192.934 114.795 195.651 111.753 195.651C108.711 195.651 106.711 192.934 106.711 188.678C106.711 184.406 108.728 181.688 111.753 181.688ZM143.916 195.241H134.243V176.339H126.997V201H143.916V195.241ZM153.896 201V176.339H146.65V201H153.896ZM173.003 201L180.488 176.339H172.49L168.542 194.13H168.406L164.458 176.339H156.118L163.604 201H173.003ZM200.107 195.241H189.956V191.276H199.475V186.081H189.956V182.099H200.107V176.339H182.71V201H200.107V195.241ZM125.356 237.241H115.684V218.339H108.438V243H125.356V237.241ZM145.488 237.241H135.337V233.276H144.856V228.081H135.337V224.099H145.488V218.339H128.091V243H145.488V237.241ZM165.142 243H172.866L164.817 218.339H155.725L147.676 243H155.059L156.34 238.095H163.86L165.142 243ZM160.032 224.03H160.168L162.544 232.985H157.656L160.032 224.03ZM182.334 243V234.267H191.46V228.833H182.334V224.099H192.417V218.339H175.088V243H182.334ZM87.1094 279.241H76.958V275.276H86.4771V270.081H76.958V266.099H87.1094V260.339H69.7119V285H87.1094V279.241ZM89.4849 285H97.1411L101.362 277.566H101.516L105.754 285H113.821L106.216 272.678V272.542L113.855 260.339H105.823L101.926 268.201H101.79L97.9102 260.339H89.4678L96.748 272.507V272.644L89.4849 285ZM129.065 285V266.099H135.559V260.339H115.325V266.099H121.819V285H129.065ZM145.283 265.688H148.291C150.239 265.688 151.555 267.004 151.555 268.833C151.555 270.696 150.308 271.943 148.274 271.943H145.283V265.688ZM145.283 276.729H147.659L151.555 285H159.656L154.973 275.652C157.554 274.421 158.955 271.619 158.955 268.713C158.955 263.433 155.571 260.339 148.992 260.339H138.037V285H145.283V276.729ZM178.164 285H185.889L177.839 260.339H168.748L160.698 285H168.081L169.363 280.095H176.882L178.164 285ZM173.054 266.03H173.191L175.566 274.985H170.679L173.054 266.03ZM198.04 285.427C204.688 285.427 209.49 281.206 209.524 275.054H202.585C202.363 277.908 200.552 279.736 198.057 279.736C195.049 279.736 193.186 277.104 193.186 272.644C193.186 268.235 195.066 265.603 198.04 265.603C200.552 265.603 202.38 267.466 202.551 270.269H209.49C209.473 264.15 204.551 259.912 198.04 259.912C190.503 259.912 185.803 264.526 185.803 272.661C185.803 280.796 190.486 285.427 198.04 285.427ZM224.734 285V266.099H231.228V260.339H210.994V266.099H217.488V285H224.734Z" fill="#518F5B"/>
</svg>
