<svg width="300" height="400" viewBox="0 0 300 400" fill="none" xmlns="http://www.w3.org/2000/svg">
<rect width="300" height="400" fill="white"/>
<path d="M231.09 69.1602H69.19V83.3702H231.09V69.1602Z" fill="#D1D3D4"/>
<path d="M234.84 382.72H65.44C49.73 382.72 37 369.99 37 354.28V111.81C37 96.1001 49.73 83.3701 65.44 83.3701H234.84C250.55 83.3701 263.28 96.1001 263.28 111.81V354.28C263.28 369.99 250.55 382.72 234.84 382.72Z" fill="#EDF0F2" stroke="#D1D3D4" stroke-miterlimit="10"/>
<path d="M244.82 69.16H55.46V29.87C55.46 22.76 61.22 17 68.33 17H231.96C239.07 17 244.83 22.76 244.83 29.87V69.16H244.82Z" fill="#EDF0F2" stroke="#D1D3D4" stroke-miterlimit="10"/>
<path d="M244.83 71.2998H55.46V79.8598H244.83V71.2998Z" fill="#EDF0F2" stroke="#D1D3D4" stroke-miterlimit="10"/>
<path d="M83.418 196.912C75.7959 196.912 70.9937 201.8 70.9937 209.678C70.9937 217.557 75.7788 222.427 83.418 222.427C91.04 222.427 95.8423 217.557 95.8423 209.678C95.8423 201.8 91.04 196.912 83.418 196.912ZM83.418 202.688C86.4429 202.688 88.4595 205.406 88.4595 209.678C88.4595 213.934 86.46 216.651 83.418 216.651C80.376 216.651 78.3765 213.934 78.3765 209.678C78.3765 205.406 80.3931 202.688 83.418 202.688ZM126.57 222V197.339H118.196L112.693 211.729H112.556L107.036 197.339H98.6621V222H104.985V207.713H105.122L110.676 221.709H114.556L120.11 207.713H120.247V222H126.57ZM147.402 216.241H137.251V212.276H146.77V207.081H137.251V203.099H147.402V197.339H130.005V222H147.402V216.241ZM174.062 211.507V208.26H163.33V213.079H167.09L167.056 213.421C166.851 215.403 165.176 216.719 162.817 216.719C159.639 216.719 157.571 214.036 157.571 209.542C157.571 205.149 159.382 202.62 162.458 202.62C164.543 202.62 166.167 203.799 166.646 205.611H173.772C173.225 200.552 168.611 196.912 162.424 196.912C154.819 196.912 150.188 201.561 150.188 209.644C150.188 217.83 154.819 222.427 162.646 222.427C169.807 222.427 174.062 218.257 174.062 211.507ZM191.836 222H199.561L191.511 197.339H182.419L174.37 222H181.753L183.035 217.095H190.554L191.836 222ZM186.726 203.03H186.863L189.238 211.985H184.351L186.726 203.03ZM215.198 211.849H218.171C220.222 211.849 221.436 212.806 221.436 214.412C221.436 216.001 220.154 217.061 218.24 217.061C216.121 217.061 214.822 216.053 214.771 214.412H207.866C208.105 219.437 212.104 222.684 218.086 222.684C224.631 222.684 228.801 219.761 228.801 215.147C228.801 211.78 226.426 209.644 222.803 209.251V209.114C225.776 208.584 227.947 206.431 227.947 203.458C227.947 199.288 224.255 196.656 218.428 196.656C212.361 196.656 208.345 199.92 208.328 204.859H214.856C214.856 203.133 216.172 201.937 218.12 201.937C220.103 201.937 221.282 202.894 221.282 204.449C221.282 206.021 220.103 206.995 218.206 206.995H215.198V211.849ZM65.2173 254.344C65.2173 260.36 66.8066 265.111 70.498 269.349H77.1802C74.5825 266.222 72.4805 260.086 72.4805 254.31C72.4805 248.5 74.5825 242.398 77.1802 239.339H70.498C66.8237 243.492 65.2173 248.226 65.2173 254.344ZM86.6479 264V255.267H95.7739V249.833H86.6479V245.099H96.731V239.339H79.4019V264H86.6479ZM106.541 264V239.339H99.2944V264H106.541ZM109.275 256.737C109.292 261.659 113.24 264.427 119.854 264.427C126.416 264.427 130.637 261.214 130.637 256.173C130.637 252.174 128.398 249.901 123.613 249.063L120.229 248.482C117.888 248.072 116.88 247.457 116.88 246.278C116.88 245.047 118.076 244.261 119.973 244.261C121.921 244.261 123.442 245.167 123.494 246.705H130.107C130.073 241.92 126.399 238.912 119.836 238.912C113.958 238.912 109.685 242.057 109.685 247.047C109.685 250.909 112.146 253.507 116.675 254.293L119.939 254.874C122.588 255.353 123.494 255.848 123.494 256.993C123.494 258.189 122.161 259.061 119.99 259.061C118.042 259.061 116.333 258.138 116.128 256.737H109.275ZM156.545 264V239.339H149.299V248.705H140.618V239.339H133.372V264H140.618V254.464H149.299V264H156.545ZM178.455 238.912C170.833 238.912 166.03 243.8 166.03 251.678C166.03 259.557 170.815 264.427 178.455 264.427C186.077 264.427 190.879 259.557 190.879 251.678C190.879 243.8 186.077 238.912 178.455 238.912ZM178.455 244.688C181.479 244.688 183.496 247.406 183.496 251.678C183.496 255.934 181.497 258.651 178.455 258.651C175.413 258.651 173.413 255.934 173.413 251.678C173.413 247.406 175.43 244.688 178.455 244.688ZM200.945 264V239.339H193.699V264H200.945ZM221.282 258.241H211.609V239.339H204.363V264H221.282V258.241ZM234.783 254.344C234.783 248.226 233.176 243.492 229.502 239.339H222.82C225.417 242.416 227.52 248.5 227.52 254.31C227.52 260.086 225.417 266.222 222.82 269.349H229.502C233.193 265.111 234.783 260.36 234.783 254.344Z" fill="#CCB257"/>
</svg>
