<svg width="300" height="400" viewBox="0 0 300 400" fill="none" xmlns="http://www.w3.org/2000/svg">
<rect width="300" height="400" fill="white"/>
<path d="M231.09 69.1602H69.19V83.3702H231.09V69.1602Z" fill="#D1D3D4"/>
<path d="M234.84 382.72H65.44C49.73 382.72 37 369.99 37 354.28V111.81C37 96.1001 49.73 83.3701 65.44 83.3701H234.84C250.55 83.3701 263.28 96.1001 263.28 111.81V354.28C263.28 369.99 250.55 382.72 234.84 382.72Z" fill="#EDF0F2" stroke="#D1D3D4" stroke-miterlimit="10"/>
<path d="M244.82 69.16H55.46V29.87C55.46 22.76 61.22 17 68.33 17H231.96C239.07 17 244.83 22.76 244.83 29.87V69.16H244.82Z" fill="#EDF0F2" stroke="#D1D3D4" stroke-miterlimit="10"/>
<path d="M244.83 71.2998H55.46V79.8598H244.83V71.2998Z" fill="#EDF0F2" stroke="#D1D3D4" stroke-miterlimit="10"/>
<path d="M89.707 197.339V222H96.9531V215.267H100.474C106.233 215.267 110.146 211.763 110.146 206.329C110.146 200.843 106.455 197.339 100.969 197.339H89.707ZM96.9531 202.791H99.0381C101.396 202.791 102.832 204.004 102.832 206.346C102.832 208.704 101.396 209.917 98.9868 209.917H96.9531V202.791ZM126.245 222H133.97L125.92 197.339H116.829L108.779 222H116.162L117.444 217.095H124.963L126.245 222ZM121.135 203.03H121.272L123.647 211.985H118.76L121.135 203.03ZM143.027 222V209.012H143.164L152.751 222H158.306V197.339H151.47V210.123H151.333L141.814 197.339H136.191V222H143.027ZM177.993 222H185.718L177.668 197.339H168.577L160.527 222H167.91L169.192 217.095H176.711L177.993 222ZM172.883 203.03H173.02L175.396 211.985H170.508L172.883 203.03ZM186.931 222H194.587L198.809 214.566H198.962L203.201 222H211.267L203.662 209.678V209.542L211.301 197.339H203.269L199.373 205.201H199.236L195.356 197.339H186.914L194.194 209.507V209.644L186.931 222ZM95.8765 253.507V250.26H85.144V255.079H88.9038L88.8696 255.421C88.6646 257.403 86.9897 258.719 84.6313 258.719C81.4526 258.719 79.3848 256.036 79.3848 251.542C79.3848 247.149 81.1963 244.62 84.2725 244.62C86.3574 244.62 87.981 245.799 88.4595 247.611H95.5859C95.0391 242.552 90.4248 238.912 84.2383 238.912C76.6333 238.912 72.002 243.561 72.002 251.644C72.002 259.83 76.6333 264.427 84.4604 264.427C91.6211 264.427 95.8765 260.257 95.8765 253.507ZM105.994 264V239.339H98.7476V264H105.994ZM116.248 264V251.012H116.384L125.972 264H131.526V239.339H124.69V252.123H124.553L115.034 239.339H109.412V264H116.248ZM134.26 256.737C134.277 261.659 138.225 264.427 144.839 264.427C151.401 264.427 155.623 261.214 155.623 256.173C155.623 252.174 153.384 249.901 148.599 249.063L145.215 248.482C142.874 248.072 141.865 247.457 141.865 246.278C141.865 245.047 143.062 244.261 144.958 244.261C146.907 244.261 148.428 245.167 148.479 246.705H155.093C155.059 241.92 151.384 238.912 144.822 238.912C138.943 238.912 134.67 242.057 134.67 247.047C134.67 250.909 137.131 253.507 141.66 254.293L144.924 254.874C147.573 255.353 148.479 255.848 148.479 256.993C148.479 258.189 147.146 259.061 144.976 259.061C143.027 259.061 141.318 258.138 141.113 256.737H134.26ZM175.754 258.241H165.603V254.276H175.122V249.081H165.603V245.099H175.754V239.339H158.357V264H175.754V258.241ZM185.974 264V251.012H186.111L195.698 264H201.252V239.339H194.417V252.123H194.28L184.761 239.339H179.138V264H185.974ZM227.947 253.507V250.26H217.214V255.079H220.974L220.94 255.421C220.735 257.403 219.06 258.719 216.702 258.719C213.523 258.719 211.455 256.036 211.455 251.542C211.455 247.149 213.267 244.62 216.343 244.62C218.428 244.62 220.051 245.799 220.53 247.611H227.656C227.109 242.552 222.495 238.912 216.309 238.912C208.704 238.912 204.072 243.561 204.072 251.644C204.072 259.83 208.704 264.427 216.531 264.427C223.691 264.427 227.947 260.257 227.947 253.507Z" fill="#D04F4F"/>
</svg>
