<svg width="300" height="400" viewBox="0 0 300 400" fill="none" xmlns="http://www.w3.org/2000/svg">
<rect width="300" height="400" fill="white"/>
<path d="M231.09 69.1602H69.19V83.3702H231.09V69.1602Z" fill="#D1D3D4"/>
<path d="M234.84 382.72H65.44C49.73 382.72 37 369.99 37 354.28V111.81C37 96.1001 49.73 83.3701 65.44 83.3701H234.84C250.55 83.3701 263.28 96.1001 263.28 111.81V354.28C263.28 369.99 250.55 382.72 234.84 382.72Z" fill="#EDF0F2" stroke="#D1D3D4" stroke-miterlimit="10"/>
<path d="M244.82 69.16H55.46V29.87C55.46 22.76 61.22 17 68.33 17H231.96C239.07 17 244.83 22.76 244.83 29.87V69.16H244.82Z" fill="#EDF0F2" stroke="#D1D3D4" stroke-miterlimit="10"/>
<path d="M244.83 71.2998H55.46V79.8598H244.83V71.2998Z" fill="#EDF0F2" stroke="#D1D3D4" stroke-miterlimit="10"/>
<path d="M65.9692 197.339V222H73.2153V215.267H76.7358C82.4951 215.267 86.4087 211.763 86.4087 206.329C86.4087 200.843 82.7173 197.339 77.2314 197.339H65.9692ZM73.2153 202.791H75.3003C77.6587 202.791 79.0942 204.004 79.0942 206.346C79.0942 208.704 77.6587 209.917 75.249 209.917H73.2153V202.791ZM102.507 222H110.232L102.183 197.339H93.0908L85.0415 222H92.4243L93.7061 217.095H101.226L102.507 222ZM97.3975 203.03H97.5342L99.9097 211.985H95.022L97.3975 203.03ZM110.745 214.737C110.762 219.659 114.709 222.427 121.323 222.427C127.886 222.427 132.107 219.214 132.107 214.173C132.107 210.174 129.868 207.901 125.083 207.063L121.699 206.482C119.358 206.072 118.35 205.457 118.35 204.278C118.35 203.047 119.546 202.261 121.443 202.261C123.391 202.261 124.912 203.167 124.963 204.705H131.577C131.543 199.92 127.869 196.912 121.306 196.912C115.427 196.912 111.155 200.057 111.155 205.047C111.155 208.909 113.616 211.507 118.145 212.293L121.409 212.874C124.058 213.353 124.963 213.848 124.963 214.993C124.963 216.189 123.63 217.061 121.46 217.061C119.512 217.061 117.803 216.138 117.598 214.737H110.745ZM134.158 214.737C134.175 219.659 138.123 222.427 144.736 222.427C151.299 222.427 155.52 219.214 155.52 214.173C155.52 210.174 153.281 207.901 148.496 207.063L145.112 206.482C142.771 206.072 141.763 205.457 141.763 204.278C141.763 203.047 142.959 202.261 144.856 202.261C146.804 202.261 148.325 203.167 148.376 204.705H154.99C154.956 199.92 151.282 196.912 144.719 196.912C138.84 196.912 134.568 200.057 134.568 205.047C134.568 208.909 137.029 211.507 141.558 212.293L144.822 212.874C147.471 213.353 148.376 213.848 148.376 214.993C148.376 216.189 147.043 217.061 144.873 217.061C142.925 217.061 141.216 216.138 141.011 214.737H134.158ZM165.5 222V197.339H158.254V222H165.5ZM180.745 196.912C173.123 196.912 168.32 201.8 168.32 209.678C168.32 217.557 173.105 222.427 180.745 222.427C188.367 222.427 193.169 217.557 193.169 209.678C193.169 201.8 188.367 196.912 180.745 196.912ZM180.745 202.688C183.77 202.688 185.786 205.406 185.786 209.678C185.786 213.934 183.787 216.651 180.745 216.651C177.703 216.651 175.703 213.934 175.703 209.678C175.703 205.406 177.72 202.688 180.745 202.688ZM202.825 222V209.012H202.961L212.549 222H218.103V197.339H211.267V210.123H211.13L201.611 197.339H195.989V222H202.825ZM233.398 214.925V208.978H222.136V214.925H233.398ZM86.6479 264V255.267H95.7739V249.833H86.6479V245.099H96.731V239.339H79.4019V264H86.6479ZM116.213 258.241H106.541V239.339H99.2944V264H116.213V258.241ZM129.749 238.912C122.126 238.912 117.324 243.8 117.324 251.678C117.324 259.557 122.109 264.427 129.749 264.427C137.371 264.427 142.173 259.557 142.173 251.678C142.173 243.8 137.371 238.912 129.749 238.912ZM129.749 244.688C132.773 244.688 134.79 247.406 134.79 251.678C134.79 255.934 132.791 258.651 129.749 258.651C126.707 258.651 124.707 255.934 124.707 251.678C124.707 247.406 126.724 244.688 129.749 244.688ZM159.98 249.884H160.117L163.792 264H170.627L176.985 239.339H169.5L166.663 254.925H166.526L162.852 239.339H157.246L153.572 254.925H153.435L150.598 239.339H143.113L149.47 264H156.306L159.98 249.884ZM196.775 258.241H186.624V254.276H196.143V249.081H186.624V245.099H196.775V239.339H179.377V264H196.775V258.241ZM207.405 244.688H210.413C212.361 244.688 213.677 246.004 213.677 247.833C213.677 249.696 212.429 250.943 210.396 250.943H207.405V244.688ZM207.405 255.729H209.78L213.677 264H221.777L217.095 254.652C219.675 253.421 221.077 250.619 221.077 247.713C221.077 242.433 217.693 239.339 211.113 239.339H200.159V264H207.405V255.729Z" fill="#498497"/>
</svg>
