<svg width="300" height="400" viewBox="0 0 300 400" fill="none" xmlns="http://www.w3.org/2000/svg">
<rect width="300" height="400" fill="white"/>
<path d="M231.09 69.1602H69.1899V83.3702H231.09V69.1602Z" fill="#D1D3D4"/>
<path d="M234.84 382.72H65.44C49.73 382.72 37 369.99 37 354.28V111.81C37 96.1001 49.73 83.3701 65.44 83.3701H234.84C250.55 83.3701 263.28 96.1001 263.28 111.81V354.28C263.28 369.99 250.55 382.72 234.84 382.72Z" fill="#EDF0F2" stroke="#D1D3D4" stroke-miterlimit="10"/>
<path d="M244.82 69.16H55.46V29.87C55.46 22.76 61.22 17 68.33 17H231.96C239.07 17 244.83 22.76 244.83 29.87V69.16H244.82Z" fill="#EDF0F2" stroke="#D1D3D4" stroke-miterlimit="10"/>
<path d="M244.83 71.2998H55.46V79.8598H244.83V71.2998Z" fill="#EDF0F2" stroke="#D1D3D4" stroke-miterlimit="10"/>
<path d="M60.3809 176.339V201H67.627V194.267H71.1475C76.9067 194.267 80.8203 190.763 80.8203 185.329C80.8203 179.843 77.1289 176.339 71.6431 176.339H60.3809ZM67.627 181.791H69.7119C72.0703 181.791 73.5059 183.004 73.5059 185.346C73.5059 187.704 72.0703 188.917 69.6606 188.917H67.627V181.791ZM100.781 195.241H90.6299V191.276H100.149V186.081H90.6299V182.099H100.781V176.339H83.3838V201H100.781V195.241ZM121.084 195.241H111.411V176.339H104.165V201H121.084V195.241ZM140.088 201H147.812L139.763 176.339H130.671L122.622 201H130.005L131.287 196.095H138.806L140.088 201ZM134.978 182.03H135.115L137.49 190.985H132.603L134.978 182.03ZM157.28 181.688H160.288C162.236 181.688 163.552 183.004 163.552 184.833C163.552 186.696 162.305 187.943 160.271 187.943H157.28V181.688ZM157.28 192.729H159.656L163.552 201H171.653L166.97 191.652C169.551 190.421 170.952 187.619 170.952 184.713C170.952 179.433 167.568 176.339 160.989 176.339H150.034V201H157.28V192.729ZM197.168 190.507V187.26H186.436V192.079H190.195L190.161 192.421C189.956 194.403 188.281 195.719 185.923 195.719C182.744 195.719 180.676 193.036 180.676 188.542C180.676 184.149 182.488 181.62 185.564 181.62C187.649 181.62 189.272 182.799 189.751 184.611H196.877C196.331 179.552 191.716 175.912 185.53 175.912C177.925 175.912 173.293 180.561 173.293 188.644C173.293 196.83 177.925 201.427 185.752 201.427C192.913 201.427 197.168 197.257 197.168 190.507ZM211.865 175.912C204.243 175.912 199.441 180.8 199.441 188.678C199.441 196.557 204.226 201.427 211.865 201.427C219.487 201.427 224.29 196.557 224.29 188.678C224.29 180.8 219.487 175.912 211.865 175.912ZM211.865 181.688C214.89 181.688 216.907 184.406 216.907 188.678C216.907 192.934 214.907 195.651 211.865 195.651C208.823 195.651 206.824 192.934 206.824 188.678C206.824 184.406 208.84 181.688 211.865 181.688ZM238.987 193.925V187.978H227.725V193.925H238.987ZM112.197 243V230.012H112.334L121.921 243H127.476V218.339H120.64V231.123H120.503L110.984 218.339H105.361V243H112.197ZM138.14 243V218.339H130.894V243H138.14ZM148.804 218.339H141.558V234.216C141.558 239.838 145.916 243.427 152.427 243.427C158.938 243.427 163.296 239.838 163.296 234.216V218.339H156.05V233.413C156.05 236.01 154.768 237.429 152.427 237.429C150.085 237.429 148.804 236.01 148.804 233.413V218.339ZM194.622 243V218.339H186.248L180.745 232.729H180.608L175.088 218.339H166.714V243H173.037V228.713H173.174L178.728 242.709H182.607L188.162 228.713H188.298V243H194.622ZM67.7637 277.737C67.7808 282.659 71.7285 285.427 78.3423 285.427C84.9048 285.427 89.126 282.214 89.126 277.173C89.126 273.174 86.8872 270.901 82.1021 270.063L78.7183 269.482C76.377 269.072 75.3687 268.457 75.3687 267.278C75.3687 266.047 76.5649 265.261 78.4619 265.261C80.4102 265.261 81.9312 266.167 81.9824 267.705H88.5962C88.562 262.92 84.8877 259.912 78.3252 259.912C72.4463 259.912 68.1738 263.057 68.1738 268.047C68.1738 271.909 70.6348 274.507 75.1636 275.293L78.4277 275.874C81.0767 276.353 81.9824 276.848 81.9824 277.993C81.9824 279.189 80.6494 280.061 78.479 280.061C76.5308 280.061 74.8218 279.138 74.6167 277.737H67.7637ZM99.1064 285V260.339H91.8604V285H99.1064ZM102.524 260.339V285H113.069C120.537 285 124.946 280.386 124.946 272.49C124.946 264.595 120.554 260.339 113.069 260.339H102.524ZM109.771 266.099H112.043C115.513 266.099 117.563 268.337 117.563 272.49C117.563 277.036 115.667 279.241 112.043 279.241H109.771V266.099ZM139.609 259.912C131.987 259.912 127.185 264.8 127.185 272.678C127.185 280.557 131.97 285.427 139.609 285.427C147.231 285.427 152.034 280.557 152.034 272.678C152.034 264.8 147.231 259.912 139.609 259.912ZM139.609 265.688C142.634 265.688 144.651 268.406 144.651 272.678C144.651 276.934 142.651 279.651 139.609 279.651C136.567 279.651 134.568 276.934 134.568 272.678C134.568 268.406 136.584 265.688 139.609 265.688ZM162.1 285V260.339H154.854V285H162.1ZM165.518 260.339V285H176.062C183.53 285 187.939 280.386 187.939 272.49C187.939 264.595 183.547 260.339 176.062 260.339H165.518ZM172.764 266.099H175.037C178.506 266.099 180.557 268.337 180.557 272.49C180.557 277.036 178.66 279.241 175.037 279.241H172.764V266.099ZM208.174 279.241H198.022V275.276H207.542V270.081H198.022V266.099H208.174V260.339H190.776V285H208.174V279.241ZM210.874 277.737C210.891 282.659 214.839 285.427 221.453 285.427C228.015 285.427 232.236 282.214 232.236 277.173C232.236 273.174 229.998 270.901 225.212 270.063L221.829 269.482C219.487 269.072 218.479 268.457 218.479 267.278C218.479 266.047 219.675 265.261 221.572 265.261C223.521 265.261 225.042 266.167 225.093 267.705H231.707C231.672 262.92 227.998 259.912 221.436 259.912C215.557 259.912 211.284 263.057 211.284 268.047C211.284 271.909 213.745 274.507 218.274 275.293L221.538 275.874C224.187 276.353 225.093 276.848 225.093 277.993C225.093 279.189 223.76 280.061 221.589 280.061C219.641 280.061 217.932 279.138 217.727 277.737H210.874Z" fill="#B74646"/>
</svg>
