<svg width="300" height="400" viewBox="0 0 300 400" fill="none" xmlns="http://www.w3.org/2000/svg">
<rect width="300" height="400" fill="white"/>
<path d="M231.09 69.1602H69.1899V83.3702H231.09V69.1602Z" fill="#D1D3D4"/>
<path d="M234.84 382.72H65.44C49.73 382.72 37 369.99 37 354.28V111.81C37 96.1001 49.73 83.3701 65.44 83.3701H234.84C250.55 83.3701 263.28 96.1001 263.28 111.81V354.28C263.28 369.99 250.55 382.72 234.84 382.72Z" fill="#EDF0F2" stroke="#D1D3D4" stroke-miterlimit="10"/>
<path d="M244.82 69.16H55.46V29.87C55.46 22.76 61.22 17 68.33 17H231.96C239.07 17 244.83 22.76 244.83 29.87V69.16H244.82Z" fill="#EDF0F2" stroke="#D1D3D4" stroke-miterlimit="10"/>
<path d="M244.83 71.2998H55.46V79.8598H244.83V71.2998Z" fill="#EDF0F2" stroke="#D1D3D4" stroke-miterlimit="10"/>
<path d="M63.3887 218.339V243H70.6348V236.267H74.1553C79.9146 236.267 83.8281 232.763 83.8281 227.329C83.8281 221.843 80.1367 218.339 74.6509 218.339H63.3887ZM70.6348 223.791H72.7197C75.0781 223.791 76.5137 225.004 76.5137 227.346C76.5137 229.704 75.0781 230.917 72.6685 230.917H70.6348V223.791ZM85.708 235.737C85.7251 240.659 89.6729 243.427 96.2866 243.427C102.849 243.427 107.07 240.214 107.07 235.173C107.07 231.174 104.832 228.901 100.046 228.063L96.6626 227.482C94.3213 227.072 93.313 226.457 93.313 225.278C93.313 224.047 94.5093 223.261 96.4062 223.261C98.3545 223.261 99.8755 224.167 99.9268 225.705H106.541C106.506 220.92 102.832 217.912 96.2695 217.912C90.3906 217.912 86.1182 221.057 86.1182 226.047C86.1182 229.909 88.5791 232.507 93.1079 233.293L96.3721 233.874C99.021 234.353 99.9268 234.848 99.9268 235.993C99.9268 237.189 98.5938 238.061 96.4233 238.061C94.4751 238.061 92.7661 237.138 92.561 235.737H85.708ZM122.913 243V235.19L131.338 218.339H123.767L119.443 228.337H119.307L114.983 218.339H107.241L115.667 235.19V243H122.913ZM150.479 237.241H140.806V218.339H133.56V243H150.479V237.241ZM170.132 237.241H160.459V218.339H153.213V243H170.132V237.241ZM180.112 243V218.339H172.866V243H180.112ZM190.776 218.339H183.53V234.216C183.53 239.838 187.888 243.427 194.399 243.427C200.911 243.427 205.269 239.838 205.269 234.216V218.339H198.022V233.413C198.022 236.01 196.741 237.429 194.399 237.429C192.058 237.429 190.776 236.01 190.776 233.413V218.339ZM236.594 243V218.339H228.22L222.717 232.729H222.581L217.061 218.339H208.687V243H215.01V228.713H215.146L220.701 242.709H224.58L230.134 228.713H230.271V243H236.594Z" fill="#CF9A9A"/>
</svg>
