<svg width="300" height="400" viewBox="0 0 300 400" fill="none" xmlns="http://www.w3.org/2000/svg">
<rect width="300" height="400" fill="white"/>
<path d="M231.09 69.1602H69.1899V83.3702H231.09V69.1602Z" fill="#D1D3D4"/>
<path d="M234.84 382.72H65.44C49.73 382.72 37 369.99 37 354.28V111.81C37 96.1001 49.73 83.3701 65.44 83.3701H234.84C250.55 83.3701 263.28 96.1001 263.28 111.81V354.28C263.28 369.99 250.55 382.72 234.84 382.72Z" fill="#EDF0F2" stroke="#D1D3D4" stroke-miterlimit="10"/>
<path d="M244.82 69.16H55.46V29.87C55.46 22.76 61.22 17 68.33 17H231.96C239.07 17 244.83 22.76 244.83 29.87V69.16H244.82Z" fill="#EDF0F2" stroke="#D1D3D4" stroke-miterlimit="10"/>
<path d="M244.83 71.2998H55.46V79.8598H244.83V71.2998Z" fill="#EDF0F2" stroke="#D1D3D4" stroke-miterlimit="10"/>
<path d="M81.9824 197.339V222H89.2285V215.267H92.749C98.5083 215.267 102.422 211.763 102.422 206.329C102.422 200.843 98.7305 197.339 93.2446 197.339H81.9824ZM89.2285 202.791H91.3135C93.6719 202.791 95.1074 204.004 95.1074 206.346C95.1074 208.704 93.6719 209.917 91.2622 209.917H89.2285V202.791ZM118.093 222V214.19L126.519 197.339H118.948L114.624 207.337H114.487L110.164 197.339H102.422L110.847 214.19V222H118.093ZM138.669 222.427C145.317 222.427 150.12 218.206 150.154 212.054H143.215C142.993 214.908 141.182 216.736 138.687 216.736C135.679 216.736 133.816 214.104 133.816 209.644C133.816 205.235 135.696 202.603 138.669 202.603C141.182 202.603 143.01 204.466 143.181 207.269H150.12C150.103 201.15 145.181 196.912 138.669 196.912C131.133 196.912 126.433 201.526 126.433 209.661C126.433 217.796 131.116 222.427 138.669 222.427ZM159.741 222V209.012H159.878L169.465 222H175.02V197.339H168.184V210.123H168.047L158.528 197.339H152.905V222H159.741ZM190.264 196.912C182.642 196.912 177.839 201.8 177.839 209.678C177.839 217.557 182.625 222.427 190.264 222.427C197.886 222.427 202.688 217.557 202.688 209.678C202.688 201.8 197.886 196.912 190.264 196.912ZM190.264 202.688C193.289 202.688 195.305 205.406 195.305 209.678C195.305 213.934 193.306 216.651 190.264 216.651C187.222 216.651 185.222 213.934 185.222 209.678C185.222 205.406 187.239 202.688 190.264 202.688ZM217.385 214.925V208.978H206.123V214.925H217.385ZM115.393 253.507V250.26H104.661V255.079H108.42L108.386 255.421C108.181 257.403 106.506 258.719 104.148 258.719C100.969 258.719 98.9014 256.036 98.9014 251.542C98.9014 247.149 100.713 244.62 103.789 244.62C105.874 244.62 107.498 245.799 107.976 247.611H115.103C114.556 242.552 109.941 238.912 103.755 238.912C96.1499 238.912 91.5186 243.561 91.5186 251.644C91.5186 259.83 96.1499 264.427 103.977 264.427C111.138 264.427 115.393 260.257 115.393 253.507ZM135.662 258.241H125.51V254.276H135.029V249.081H125.51V245.099H135.662V239.339H118.264V264H135.662V258.241ZM145.881 264V251.012H146.018L155.605 264H161.16V239.339H154.324V252.123H154.187L144.668 239.339H139.045V264H145.881ZM176.404 238.912C168.782 238.912 163.979 243.8 163.979 251.678C163.979 259.557 168.765 264.427 176.404 264.427C184.026 264.427 188.828 259.557 188.828 251.678C188.828 243.8 184.026 238.912 176.404 238.912ZM176.404 244.688C179.429 244.688 181.445 247.406 181.445 251.678C181.445 255.934 179.446 258.651 176.404 258.651C173.362 258.651 171.362 255.934 171.362 251.678C171.362 247.406 173.379 244.688 176.404 244.688ZM208.567 258.241H198.894V239.339H191.648V264H208.567V258.241Z" fill="#67A740"/>
</svg>
