<svg width="300" height="400" viewBox="0 0 300 400" fill="none" xmlns="http://www.w3.org/2000/svg">
<rect width="300" height="400" fill="white"/>
<path d="M231.09 69.1602H69.1899V83.3702H231.09V69.1602Z" fill="#D1D3D4"/>
<path d="M234.84 382.72H65.44C49.73 382.72 37 369.99 37 354.28V111.81C37 96.1001 49.73 83.3701 65.44 83.3701H234.84C250.55 83.3701 263.28 96.1001 263.28 111.81V354.28C263.28 369.99 250.55 382.72 234.84 382.72Z" fill="#EDF0F2" stroke="#D1D3D4" stroke-miterlimit="10"/>
<path d="M244.82 69.16H55.46V29.87C55.46 22.76 61.22 17 68.33 17H231.96C239.07 17 244.83 22.76 244.83 29.87V69.16H244.82Z" fill="#EDF0F2" stroke="#D1D3D4" stroke-miterlimit="10"/>
<path d="M244.83 71.2998H55.46V79.8598H244.83V71.2998Z" fill="#EDF0F2" stroke="#D1D3D4" stroke-miterlimit="10"/>
<path d="M62.7905 243.427C64.2773 243.427 65.6958 243.239 67.0117 242.846L68.2422 244.846H74.8047L71.814 239.941C74.0356 237.89 75.1978 234.609 75.1978 230.678C75.1978 222.834 70.3955 217.912 62.7905 217.912C55.1685 217.912 50.3662 222.834 50.3662 230.678C50.3662 238.676 55.1514 243.427 62.7905 243.427ZM62.7905 237.753C59.7485 237.753 57.749 234.951 57.749 230.678C57.749 226.406 59.7485 223.586 62.7905 223.586C65.8154 223.586 67.8149 226.423 67.8149 230.678C67.8149 231.823 67.644 232.9 67.3193 233.908L67.2681 233.84H61.3721L63.6963 237.651C63.4229 237.719 63.1152 237.753 62.7905 237.753ZM85.2808 218.339H78.0347V234.216C78.0347 239.838 82.3926 243.427 88.9038 243.427C95.415 243.427 99.7729 239.838 99.7729 234.216V218.339H92.5269V233.413C92.5269 236.01 91.2451 237.429 88.9038 237.429C86.5625 237.429 85.2808 236.01 85.2808 233.413V218.339ZM120.588 237.241H110.437V233.276H119.956V228.081H110.437V224.099H120.588V218.339H103.191V243H120.588V237.241ZM131.218 223.688H134.226C136.174 223.688 137.49 225.004 137.49 226.833C137.49 228.696 136.243 229.943 134.209 229.943H131.218V223.688ZM131.218 234.729H133.594L137.49 243H145.591L140.908 233.652C143.489 232.421 144.89 229.619 144.89 226.713C144.89 221.433 141.506 218.339 134.927 218.339H123.972V243H131.218V234.729ZM159.468 243.427C166.116 243.427 170.918 239.206 170.952 233.054H164.014C163.792 235.908 161.98 237.736 159.485 237.736C156.477 237.736 154.614 235.104 154.614 230.644C154.614 226.235 156.494 223.603 159.468 223.603C161.98 223.603 163.809 225.466 163.979 228.269H170.918C170.901 222.15 165.979 217.912 159.468 217.912C151.931 217.912 147.231 222.526 147.231 230.661C147.231 238.796 151.914 243.427 159.468 243.427ZM191.101 237.241H180.95V233.276H190.469V228.081H180.95V224.099H191.101V218.339H173.704V243H191.101V237.241ZM207.285 243V224.099H213.779V218.339H193.545V224.099H200.039V243H207.285ZM223.503 243V218.339H216.257V243H223.503ZM233.757 243V230.012H233.894L243.481 243H249.036V218.339H242.2V231.123H242.063L232.544 218.339H226.921V243H233.757Z" fill="#8E445A"/>
</svg>
