<svg width="300" height="400" viewBox="0 0 300 400" fill="none" xmlns="http://www.w3.org/2000/svg">
<rect width="300" height="400" fill="white"/>
<path d="M231.09 69.1602H69.1899V83.3702H231.09V69.1602Z" fill="#D1D3D4"/>
<path d="M234.84 382.72H65.44C49.73 382.72 37 369.99 37 354.28V111.81C37 96.1001 49.73 83.3701 65.44 83.3701H234.84C250.55 83.3701 263.28 96.1001 263.28 111.81V354.28C263.28 369.99 250.55 382.72 234.84 382.72Z" fill="#EDF0F2" stroke="#D1D3D4" stroke-miterlimit="10"/>
<path d="M244.82 69.16H55.46V29.87C55.46 22.76 61.22 17 68.33 17H231.96C239.07 17 244.83 22.76 244.83 29.87V69.16H244.82Z" fill="#EDF0F2" stroke="#D1D3D4" stroke-miterlimit="10"/>
<path d="M244.83 71.2998H55.46V79.8598H244.83V71.2998Z" fill="#EDF0F2" stroke="#D1D3D4" stroke-miterlimit="10"/>
<path d="M53.1177 202.688H56.1255C58.0737 202.688 59.3896 204.004 59.3896 205.833C59.3896 207.696 58.1421 208.943 56.1084 208.943H53.1177V202.688ZM53.1177 213.729H55.4932L59.3896 222H67.4902L62.8076 212.652C65.3882 211.421 66.7896 208.619 66.7896 205.713C66.7896 200.433 63.4058 197.339 56.8262 197.339H45.8716V222H53.1177V213.729ZM85.9985 222H93.7231L85.6738 197.339H76.582L68.5327 222H75.9155L77.1973 217.095H84.7168L85.9985 222ZM80.8887 203.03H81.0254L83.4009 211.985H78.5132L80.8887 203.03ZM94.2358 214.737C94.2529 219.659 98.2007 222.427 104.814 222.427C111.377 222.427 115.598 219.214 115.598 214.173C115.598 210.174 113.359 207.901 108.574 207.063L105.19 206.482C102.849 206.072 101.841 205.457 101.841 204.278C101.841 203.047 103.037 202.261 104.934 202.261C106.882 202.261 108.403 203.167 108.455 204.705H115.068C115.034 199.92 111.36 196.912 104.797 196.912C98.9185 196.912 94.646 200.057 94.646 205.047C94.646 208.909 97.1069 211.507 101.636 212.293L104.9 212.874C107.549 213.353 108.455 213.848 108.455 214.993C108.455 216.189 107.122 217.061 104.951 217.061C103.003 217.061 101.294 216.138 101.089 214.737H94.2358ZM118.333 197.339V222H125.579V215.267H129.099C134.858 215.267 138.772 211.763 138.772 206.329C138.772 200.843 135.081 197.339 129.595 197.339H118.333ZM125.579 202.791H127.664C130.022 202.791 131.458 204.004 131.458 206.346C131.458 208.704 130.022 209.917 127.612 209.917H125.579V202.791ZM153.862 222C159.143 222 162.561 219.146 162.561 214.822C162.561 211.558 159.775 209.046 156.443 208.96V208.824C159.297 208.465 161.45 206.329 161.45 203.492C161.45 199.646 158.494 197.339 153.452 197.339H141.335V222H153.862ZM148.582 202.312H151.487C153.315 202.312 154.409 203.235 154.409 204.756C154.409 206.243 153.247 207.217 151.384 207.217H148.582V202.312ZM148.582 217.027V211.37H151.726C153.896 211.37 155.195 212.396 155.195 214.156C155.195 216.019 153.914 217.027 151.675 217.027H148.582ZM182.351 216.241H172.2V212.276H181.719V207.081H172.2V203.099H182.351V197.339H164.954V222H182.351V216.241ZM192.981 202.688H195.989C197.937 202.688 199.253 204.004 199.253 205.833C199.253 207.696 198.005 208.943 195.972 208.943H192.981V202.688ZM192.981 213.729H195.356L199.253 222H207.354L202.671 212.652C205.251 211.421 206.653 208.619 206.653 205.713C206.653 200.433 203.269 197.339 196.689 197.339H185.735V222H192.981V213.729ZM216.838 202.688H219.846C221.794 202.688 223.11 204.004 223.11 205.833C223.11 207.696 221.863 208.943 219.829 208.943H216.838V202.688ZM216.838 213.729H219.214L223.11 222H231.211L226.528 212.652C229.109 211.421 230.51 208.619 230.51 205.713C230.51 200.433 227.126 197.339 220.547 197.339H209.592V222H216.838V213.729ZM246.899 222V214.19L255.325 197.339H247.754L243.43 207.337H243.293L238.97 197.339H231.228L239.653 214.19V222H246.899ZM89.2285 264V257.54L91.1597 254.942L96.543 264H104.968L96.4746 250.294L104.592 239.339H96.9873L89.3652 249.798H89.2285V239.339H81.9824V264H89.2285ZM124.092 258.241H113.94V254.276H123.459V249.081H113.94V245.099H124.092V239.339H106.694V264H124.092V258.241ZM140.276 264V245.099H146.77V239.339H126.536V245.099H133.03V264H140.276ZM159.878 238.912C152.256 238.912 147.454 243.8 147.454 251.678C147.454 259.557 152.239 264.427 159.878 264.427C167.5 264.427 172.302 259.557 172.302 251.678C172.302 243.8 167.5 238.912 159.878 238.912ZM159.878 244.688C162.903 244.688 164.919 247.406 164.919 251.678C164.919 255.934 162.92 258.651 159.878 258.651C156.836 258.651 154.836 255.934 154.836 251.678C154.836 247.406 156.853 244.688 159.878 244.688ZM181.958 264V251.012H182.095L191.682 264H197.236V239.339H190.4V252.123H190.264L180.745 239.339H175.122V264H181.958ZM218.052 258.241H207.9V254.276H217.419V249.081H207.9V245.099H218.052V239.339H200.654V264H218.052V258.241Z" fill="#D84862"/>
</svg>
