<svg width="300" height="400" viewBox="0 0 300 400" fill="none" xmlns="http://www.w3.org/2000/svg">
<rect width="300" height="400" fill="white"/>
<path d="M231.09 69.1602H69.1899V83.3702H231.09V69.1602Z" fill="#D1D3D4"/>
<path d="M234.84 382.72H65.44C49.73 382.72 37 369.99 37 354.28V111.81C37 96.1001 49.73 83.3701 65.44 83.3701H234.84C250.55 83.3701 263.28 96.1001 263.28 111.81V354.28C263.28 369.99 250.55 382.72 234.84 382.72Z" fill="#EDF0F2" stroke="#D1D3D4" stroke-miterlimit="10"/>
<path d="M244.82 69.16H55.46V29.87C55.46 22.76 61.22 17 68.33 17H231.96C239.07 17 244.83 22.76 244.83 29.87V69.16H244.82Z" fill="#EDF0F2" stroke="#D1D3D4" stroke-miterlimit="10"/>
<path d="M244.83 71.2998H55.46V79.8598H244.83V71.2998Z" fill="#EDF0F2" stroke="#D1D3D4" stroke-miterlimit="10"/>
<path d="M100.969 223.688H103.977C105.925 223.688 107.241 225.004 107.241 226.833C107.241 228.696 105.994 229.943 103.96 229.943H100.969V223.688ZM100.969 234.729H103.345L107.241 243H115.342L110.659 233.652C113.24 232.421 114.641 229.619 114.641 226.713C114.641 221.433 111.257 218.339 104.678 218.339H93.7231V243H100.969V234.729ZM134.978 237.241H124.827V233.276H134.346V228.081H124.827V224.099H134.978V218.339H117.581V243H134.978V237.241ZM145.608 243V218.339H138.362V243H145.608ZM148.342 235.737C148.359 240.659 152.307 243.427 158.921 243.427C165.483 243.427 169.705 240.214 169.705 235.173C169.705 231.174 167.466 228.901 162.681 228.063L159.297 227.482C156.956 227.072 155.947 226.457 155.947 225.278C155.947 224.047 157.144 223.261 159.041 223.261C160.989 223.261 162.51 224.167 162.561 225.705H169.175C169.141 220.92 165.466 217.912 158.904 217.912C153.025 217.912 148.752 221.057 148.752 226.047C148.752 229.909 151.213 232.507 155.742 233.293L159.006 233.874C161.655 234.353 162.561 234.848 162.561 235.993C162.561 237.189 161.228 238.061 159.058 238.061C157.109 238.061 155.4 237.138 155.195 235.737H148.342ZM195.613 243V218.339H188.367V227.705H179.685V218.339H172.439V243H179.685V233.464H188.367V243H195.613ZM206.277 243V218.339H199.031V243H206.277Z" fill="#7C3C47"/>
</svg>
