<svg width="300" height="400" viewBox="0 0 300 400" fill="none" xmlns="http://www.w3.org/2000/svg">
<rect width="300" height="400" fill="white"/>
<path d="M231.09 69.1602H69.1899V83.3702H231.09V69.1602Z" fill="#D1D3D4"/>
<path d="M234.84 382.72H65.44C49.73 382.72 37 369.99 37 354.28V111.81C37 96.1001 49.73 83.3701 65.44 83.3701H234.84C250.55 83.3701 263.28 96.1001 263.28 111.81V354.28C263.28 369.99 250.55 382.72 234.84 382.72Z" fill="#EDF0F2" stroke="#D1D3D4" stroke-miterlimit="10"/>
<path d="M244.82 69.16H55.46V29.87C55.46 22.76 61.22 17 68.33 17H231.96C239.07 17 244.83 22.76 244.83 29.87V69.16H244.82Z" fill="#EDF0F2" stroke="#D1D3D4" stroke-miterlimit="10"/>
<path d="M244.83 71.2998H55.46V79.8598H244.83V71.2998Z" fill="#EDF0F2" stroke="#D1D3D4" stroke-miterlimit="10"/>
<path d="M69.6094 202.688H72.6172C74.5654 202.688 75.8813 204.004 75.8813 205.833C75.8813 207.696 74.6338 208.943 72.6001 208.943H69.6094V202.688ZM69.6094 213.729H71.9849L75.8813 222H83.9819L79.2993 212.652C81.8799 211.421 83.2812 208.619 83.2812 205.713C83.2812 200.433 79.8975 197.339 73.3179 197.339H62.3633V222H69.6094V213.729ZM103.618 216.241H93.4668V212.276H102.986V207.081H93.4668V203.099H103.618V197.339H86.2207V222H103.618V216.241ZM106.318 214.737C106.335 219.659 110.283 222.427 116.897 222.427C123.459 222.427 127.681 219.214 127.681 214.173C127.681 210.174 125.442 207.901 120.657 207.063L117.273 206.482C114.932 206.072 113.923 205.457 113.923 204.278C113.923 203.047 115.12 202.261 117.017 202.261C118.965 202.261 120.486 203.167 120.537 204.705H127.151C127.117 199.92 123.442 196.912 116.88 196.912C111.001 196.912 106.729 200.057 106.729 205.047C106.729 208.909 109.189 211.507 113.718 212.293L116.982 212.874C119.631 213.353 120.537 213.848 120.537 214.993C120.537 216.189 119.204 217.061 117.034 217.061C115.085 217.061 113.376 216.138 113.171 214.737H106.318ZM145.591 222L153.076 197.339H145.078L141.13 215.13H140.994L137.046 197.339H128.706L136.191 222H145.591ZM172.695 216.241H162.544V212.276H172.063V207.081H162.544V203.099H172.695V197.339H155.298V222H172.695V216.241ZM183.325 202.688H186.333C188.281 202.688 189.597 204.004 189.597 205.833C189.597 207.696 188.35 208.943 186.316 208.943H183.325V202.688ZM183.325 213.729H185.701L189.597 222H197.698L193.015 212.652C195.596 211.421 196.997 208.619 196.997 205.713C196.997 200.433 193.613 197.339 187.034 197.339H176.079V222H183.325V213.729ZM216.206 222H223.931L215.881 197.339H206.79L198.74 222H206.123L207.405 217.095H214.924L216.206 222ZM211.096 203.03H211.233L213.608 211.985H208.721L211.096 203.03ZM237.004 214.925V208.978H225.742V214.925H237.004ZM118.333 264V245.099H124.827V239.339H104.592V245.099H111.086V264H118.333ZM134.551 244.688H137.559C139.507 244.688 140.823 246.004 140.823 247.833C140.823 249.696 139.575 250.943 137.542 250.943H134.551V244.688ZM134.551 255.729H136.926L140.823 264H148.923L144.241 254.652C146.821 253.421 148.223 250.619 148.223 247.713C148.223 242.433 144.839 239.339 138.259 239.339H127.305V264H134.551V255.729ZM162.988 238.912C155.366 238.912 150.564 243.8 150.564 251.678C150.564 259.557 155.349 264.427 162.988 264.427C170.61 264.427 175.413 259.557 175.413 251.678C175.413 243.8 170.61 238.912 162.988 238.912ZM162.988 244.688C166.013 244.688 168.03 247.406 168.03 251.678C168.03 255.934 166.03 258.651 162.988 258.651C159.946 258.651 157.947 255.934 157.947 251.678C157.947 247.406 159.963 244.688 162.988 244.688ZM195.151 258.241H185.479V239.339H178.232V264H195.151V258.241Z" fill="#3D3D3D"/>
</svg>
