<svg width="300" height="400" viewBox="0 0 300 400" fill="none" xmlns="http://www.w3.org/2000/svg">
<rect width="300" height="400" fill="white"/>
<path d="M231.09 69.1602H69.19V83.3702H231.09V69.1602Z" fill="#D1D3D4"/>
<path d="M234.84 382.72H65.44C49.73 382.72 37 369.99 37 354.28V111.81C37 96.1001 49.73 83.3701 65.44 83.3701H234.84C250.55 83.3701 263.28 96.1001 263.28 111.81V354.28C263.28 369.99 250.55 382.72 234.84 382.72Z" fill="#EDF0F2" stroke="#D1D3D4" stroke-miterlimit="10"/>
<path d="M244.82 69.16H55.46V29.87C55.46 22.76 61.22 17 68.33 17H231.96C239.07 17 244.83 22.76 244.83 29.87V69.16H244.82Z" fill="#EDF0F2" stroke="#D1D3D4" stroke-miterlimit="10"/>
<path d="M244.83 71.2998H55.46V79.8598H244.83V71.2998Z" fill="#EDF0F2" stroke="#D1D3D4" stroke-miterlimit="10"/>
<path d="M65.7642 202.688H68.772C70.7202 202.688 72.0361 204.004 72.0361 205.833C72.0361 207.696 70.7886 208.943 68.7549 208.943H65.7642V202.688ZM65.7642 213.729H68.1396L72.0361 222H80.1367L75.4541 212.652C78.0347 211.421 79.436 208.619 79.436 205.713C79.436 200.433 76.0522 197.339 69.4727 197.339H58.5181V222H65.7642V213.729ZM105.549 222V197.339H98.3032V206.705H89.6216V197.339H82.3755V222H89.6216V212.464H98.3032V222H105.549ZM120.793 196.912C113.171 196.912 108.369 201.8 108.369 209.678C108.369 217.557 113.154 222.427 120.793 222.427C128.416 222.427 133.218 217.557 133.218 209.678C133.218 201.8 128.416 196.912 120.793 196.912ZM120.793 202.688C123.818 202.688 125.835 205.406 125.835 209.678C125.835 213.934 123.835 216.651 120.793 216.651C117.751 216.651 115.752 213.934 115.752 209.678C115.752 205.406 117.769 202.688 120.793 202.688ZM136.038 197.339V222H146.582C154.05 222 158.459 217.386 158.459 209.49C158.459 201.595 154.067 197.339 146.582 197.339H136.038ZM143.284 203.099H145.557C149.026 203.099 151.077 205.337 151.077 209.49C151.077 214.036 149.18 216.241 145.557 216.241H143.284V203.099ZM168.542 222V197.339H161.296V222H168.542ZM183.787 196.912C176.165 196.912 171.362 201.8 171.362 209.678C171.362 217.557 176.147 222.427 183.787 222.427C191.409 222.427 196.211 217.557 196.211 209.678C196.211 201.8 191.409 196.912 183.787 196.912ZM183.787 202.688C186.812 202.688 188.828 205.406 188.828 209.678C188.828 213.934 186.829 216.651 183.787 216.651C180.745 216.651 178.745 213.934 178.745 209.678C178.745 205.406 180.762 202.688 183.787 202.688ZM215.95 216.241H206.277V197.339H199.031V222H215.95V216.241ZM234.954 222H242.678L234.629 197.339H225.537L217.488 222H224.871L226.152 217.095H233.672L234.954 222ZM229.844 203.03H229.98L232.356 211.985H227.468L229.844 203.03ZM98.2861 244.688H101.294C103.242 244.688 104.558 246.004 104.558 247.833C104.558 249.696 103.311 250.943 101.277 250.943H98.2861V244.688ZM98.2861 255.729H100.662L104.558 264H112.659L107.976 254.652C110.557 253.421 111.958 250.619 111.958 247.713C111.958 242.433 108.574 239.339 101.995 239.339H91.04V264H98.2861V255.729ZM126.724 238.912C119.102 238.912 114.299 243.8 114.299 251.678C114.299 259.557 119.084 264.427 126.724 264.427C134.346 264.427 139.148 259.557 139.148 251.678C139.148 243.8 134.346 238.912 126.724 238.912ZM126.724 244.688C129.749 244.688 131.765 247.406 131.765 251.678C131.765 255.934 129.766 258.651 126.724 258.651C123.682 258.651 121.682 255.934 121.682 251.678C121.682 247.406 123.699 244.688 126.724 244.688ZM141.284 256.737C141.301 261.659 145.249 264.427 151.863 264.427C158.425 264.427 162.646 261.214 162.646 256.173C162.646 252.174 160.408 249.901 155.623 249.063L152.239 248.482C149.897 248.072 148.889 247.457 148.889 246.278C148.889 245.047 150.085 244.261 151.982 244.261C153.931 244.261 155.452 245.167 155.503 246.705H162.117C162.083 241.92 158.408 238.912 151.846 238.912C145.967 238.912 141.694 242.057 141.694 247.047C141.694 250.909 144.155 253.507 148.684 254.293L151.948 254.874C154.597 255.353 155.503 255.848 155.503 256.993C155.503 258.189 154.17 259.061 152 259.061C150.051 259.061 148.342 258.138 148.137 256.737H141.284ZM182.778 258.241H172.627V254.276H182.146V249.081H172.627V245.099H182.778V239.339H165.381V264H182.778V258.241ZM202.432 264H210.156L202.107 239.339H193.015L184.966 264H192.349L193.63 259.095H201.15L202.432 264ZM197.322 245.03H197.458L199.834 253.985H194.946L197.322 245.03Z" fill="#3D3D3D"/>
</svg>
