<svg width="300" height="400" viewBox="0 0 300 400" fill="none" xmlns="http://www.w3.org/2000/svg">
<rect width="300" height="400" fill="white"/>
<path d="M231.09 69.1602H69.19V83.3702H231.09V69.1602Z" fill="#D1D3D4"/>
<path d="M234.84 382.72H65.44C49.73 382.72 37 369.99 37 354.28V111.81C37 96.1001 49.73 83.3701 65.44 83.3701H234.84C250.55 83.3701 263.28 96.1001 263.28 111.81V354.28C263.28 369.99 250.55 382.72 234.84 382.72Z" fill="#EDF0F2" stroke="#D1D3D4" stroke-miterlimit="10"/>
<path d="M244.82 69.16H55.46V29.87C55.46 22.76 61.22 17 68.33 17H231.96C239.07 17 244.83 22.76 244.83 29.87V69.16H244.82Z" fill="#EDF0F2" stroke="#D1D3D4" stroke-miterlimit="10"/>
<path d="M244.83 71.2998H55.46V79.8598H244.83V71.2998Z" fill="#EDF0F2" stroke="#D1D3D4" stroke-miterlimit="10"/>
<path d="M104.114 235.737C104.131 240.659 108.079 243.427 114.692 243.427C121.255 243.427 125.476 240.214 125.476 235.173C125.476 231.174 123.237 228.901 118.452 228.063L115.068 227.482C112.727 227.072 111.719 226.457 111.719 225.278C111.719 224.047 112.915 223.261 114.812 223.261C116.76 223.261 118.281 224.167 118.333 225.705H124.946C124.912 220.92 121.238 217.912 114.675 217.912C108.796 217.912 104.524 221.057 104.524 226.047C104.524 229.909 106.985 232.507 111.514 233.293L114.778 233.874C117.427 234.353 118.333 234.848 118.333 235.993C118.333 237.189 117 238.061 114.829 238.061C112.881 238.061 111.172 237.138 110.967 235.737H104.114ZM143.455 243H151.179L143.13 218.339H134.038L125.989 243H133.372L134.653 238.095H142.173L143.455 243ZM138.345 224.03H138.481L140.857 232.985H135.969L138.345 224.03ZM174.968 232.507V229.26H164.236V234.079H167.996L167.961 234.421C167.756 236.403 166.082 237.719 163.723 237.719C160.544 237.719 158.477 235.036 158.477 230.542C158.477 226.149 160.288 223.62 163.364 223.62C165.449 223.62 167.073 224.799 167.551 226.611H174.678C174.131 221.552 169.517 217.912 163.33 217.912C155.725 217.912 151.094 222.561 151.094 230.644C151.094 238.83 155.725 243.427 163.552 243.427C170.713 243.427 174.968 239.257 174.968 232.507ZM195.237 237.241H185.085V233.276H194.604V228.081H185.085V224.099H195.237V218.339H177.839V243H195.237V237.241Z" fill="#31C598"/>
</svg>
