<svg width="300" height="400" viewBox="0 0 300 400" fill="none" xmlns="http://www.w3.org/2000/svg">
<rect width="300" height="400" fill="white"/>
<path d="M231.09 69.1602H69.19V83.3702H231.09V69.1602Z" fill="#D1D3D4"/>
<path d="M234.84 382.72H65.44C49.73 382.72 37 369.99 37 354.28V111.81C37 96.1001 49.73 83.3701 65.44 83.3701H234.84C250.55 83.3701 263.28 96.1001 263.28 111.81V354.28C263.28 369.99 250.55 382.72 234.84 382.72Z" fill="#EDF0F2" stroke="#D1D3D4" stroke-miterlimit="10"/>
<path d="M244.82 69.16H55.46V29.87C55.46 22.76 61.22 17 68.33 17H231.96C239.07 17 244.83 22.76 244.83 29.87V69.16H244.82Z" fill="#EDF0F2" stroke="#D1D3D4" stroke-miterlimit="10"/>
<path d="M244.83 71.2998H55.46V79.8598H244.83V71.2998Z" fill="#EDF0F2" stroke="#D1D3D4" stroke-miterlimit="10"/>
<path d="M100.593 235.737C100.61 240.659 104.558 243.427 111.172 243.427C117.734 243.427 121.956 240.214 121.956 235.173C121.956 231.174 119.717 228.901 114.932 228.063L111.548 227.482C109.207 227.072 108.198 226.457 108.198 225.278C108.198 224.047 109.395 223.261 111.292 223.261C113.24 223.261 114.761 224.167 114.812 225.705H121.426C121.392 220.92 117.717 217.912 111.155 217.912C105.276 217.912 101.003 221.057 101.003 226.047C101.003 229.909 103.464 232.507 107.993 233.293L111.257 233.874C113.906 234.353 114.812 234.848 114.812 235.993C114.812 237.189 113.479 238.061 111.309 238.061C109.36 238.061 107.651 237.138 107.446 235.737H100.593ZM139.934 243H147.659L139.609 218.339H130.518L122.468 243H129.851L131.133 238.095H138.652L139.934 243ZM134.824 224.03H134.961L137.336 232.985H132.449L134.824 224.03ZM177.788 243V218.339H169.414L163.911 232.729H163.774L158.254 218.339H149.88V243H156.204V228.713H156.34L161.895 242.709H165.774L171.328 228.713H171.465V243H177.788ZM190.144 228.474C191.785 228.474 192.964 229.567 193.083 231.259H187.205C187.341 229.636 188.555 228.474 190.144 228.474ZM193.289 236.882C192.878 238.01 191.733 238.676 190.315 238.676C188.435 238.676 187.102 237.343 187.102 235.498V235.053H199.612V233.156C199.612 227.38 195.835 223.654 189.99 223.654C184.06 223.654 180.352 227.5 180.352 233.669C180.352 239.804 184.026 243.479 190.212 243.479C195.391 243.479 198.945 240.949 199.526 236.882H193.289Z" fill="#3D3D3D"/>
</svg>
