<svg width="300" height="400" viewBox="0 0 300 400" fill="none" xmlns="http://www.w3.org/2000/svg">
<rect width="300" height="400" fill="white"/>
<path d="M231.09 69.1602H69.19V83.3702H231.09V69.1602Z" fill="#D1D3D4"/>
<path d="M234.84 382.72H65.44C49.73 382.72 37 369.99 37 354.28V111.81C37 96.1001 49.73 83.3701 65.44 83.3701H234.84C250.55 83.3701 263.28 96.1001 263.28 111.81V354.28C263.28 369.99 250.55 382.72 234.84 382.72Z" fill="#EDF0F2" stroke="#D1D3D4" stroke-miterlimit="10"/>
<path d="M244.82 69.16H55.46V29.87C55.46 22.76 61.22 17 68.33 17H231.96C239.07 17 244.83 22.76 244.83 29.87V69.16H244.82Z" fill="#EDF0F2" stroke="#D1D3D4" stroke-miterlimit="10"/>
<path d="M244.83 71.2998H55.46V79.8598H244.83V71.2998Z" fill="#EDF0F2" stroke="#D1D3D4" stroke-miterlimit="10"/>
<path d="M110.3 214.737C110.317 219.659 114.265 222.427 120.879 222.427C127.441 222.427 131.663 219.214 131.663 214.173C131.663 210.174 129.424 207.901 124.639 207.063L121.255 206.482C118.914 206.072 117.905 205.457 117.905 204.278C117.905 203.047 119.102 202.261 120.999 202.261C122.947 202.261 124.468 203.167 124.519 204.705H131.133C131.099 199.92 127.424 196.912 120.862 196.912C114.983 196.912 110.71 200.057 110.71 205.047C110.71 208.909 113.171 211.507 117.7 212.293L120.964 212.874C123.613 213.353 124.519 213.848 124.519 214.993C124.519 216.189 123.186 217.061 121.016 217.061C119.067 217.061 117.358 216.138 117.153 214.737H110.3ZM149.641 222H157.366L149.316 197.339H140.225L132.175 222H139.558L140.84 217.095H148.359L149.641 222ZM144.531 203.03H144.668L147.043 211.985H142.156L144.531 203.03ZM173.037 207.884H173.174L176.848 222H183.684L190.042 197.339H182.556L179.719 212.925H179.583L175.908 197.339H170.303L166.628 212.925H166.492L163.655 197.339H156.169L162.527 222H169.363L173.037 207.884ZM57.8687 239.339V264H65.1147V257.267H68.6353C74.3945 257.267 78.3081 253.763 78.3081 248.329C78.3081 242.843 74.6167 239.339 69.1309 239.339H57.8687ZM65.1147 244.791H67.1997C69.5581 244.791 70.9937 246.004 70.9937 248.346C70.9937 250.704 69.5581 251.917 67.1484 251.917H65.1147V244.791ZM94.4067 264H102.131L94.082 239.339H84.9902L76.9409 264H84.3237L85.6055 259.095H93.125L94.4067 264ZM89.2969 245.03H89.4336L91.8091 253.985H86.9214L89.2969 245.03ZM121.272 258.241H111.599V239.339H104.353V264H121.272V258.241ZM151.914 264V239.339H143.54L138.037 253.729H137.9L132.38 239.339H124.006V264H130.33V249.713H130.466L136.021 263.709H139.9L145.454 249.713H145.591V264H151.914ZM172.747 258.241H162.595V254.276H172.114V249.081H162.595V245.099H172.747V239.339H155.349V264H172.747V258.241ZM188.931 264V245.099H195.425V239.339H175.19V245.099H181.685V264H188.931ZM210.703 264V245.099H217.197V239.339H196.963V245.099H203.457V264H210.703ZM230.305 238.912C222.683 238.912 217.881 243.8 217.881 251.678C217.881 259.557 222.666 264.427 230.305 264.427C237.927 264.427 242.729 259.557 242.729 251.678C242.729 243.8 237.927 238.912 230.305 238.912ZM230.305 244.688C233.33 244.688 235.347 247.406 235.347 251.678C235.347 255.934 233.347 258.651 230.305 258.651C227.263 258.651 225.264 255.934 225.264 251.678C225.264 247.406 227.28 244.688 230.305 244.688Z" fill="#759D63"/>
</svg>
