<svg width="300" height="400" viewBox="0 0 300 400" fill="none" xmlns="http://www.w3.org/2000/svg">
<rect width="300" height="400" fill="white"/>
<path d="M231.09 69.1602H69.19V83.3702H231.09V69.1602Z" fill="#D1D3D4"/>
<path d="M234.84 382.72H65.44C49.73 382.72 37 369.99 37 354.28V111.81C37 96.1001 49.73 83.3701 65.44 83.3701H234.84C250.55 83.3701 263.28 96.1001 263.28 111.81V354.28C263.28 369.99 250.55 382.72 234.84 382.72Z" fill="#EDF0F2" stroke="#D1D3D4" stroke-miterlimit="10"/>
<path d="M244.82 69.16H55.46V29.87C55.46 22.76 61.22 17 68.33 17H231.96C239.07 17 244.83 22.76 244.83 29.87V69.16H244.82Z" fill="#EDF0F2" stroke="#D1D3D4" stroke-miterlimit="10"/>
<path d="M244.83 71.2998H55.46V79.8598H244.83V71.2998Z" fill="#EDF0F2" stroke="#D1D3D4" stroke-miterlimit="10"/>
<path d="M62.3633 235.737C62.3804 240.659 66.3281 243.427 72.9419 243.427C79.5044 243.427 83.7256 240.214 83.7256 235.173C83.7256 231.174 81.4868 228.901 76.7017 228.063L73.3179 227.482C70.9766 227.072 69.9683 226.457 69.9683 225.278C69.9683 224.047 71.1646 223.261 73.0615 223.261C75.0098 223.261 76.5308 224.167 76.582 225.705H83.1958C83.1616 220.92 79.4873 217.912 72.9248 217.912C67.0459 217.912 62.7734 221.057 62.7734 226.047C62.7734 229.909 65.2344 232.507 69.7632 233.293L73.0273 233.874C75.6763 234.353 76.582 234.848 76.582 235.993C76.582 237.189 75.249 238.061 73.0786 238.061C71.1304 238.061 69.4214 237.138 69.2163 235.737H62.3633ZM103.857 237.241H93.7061V233.276H103.225V228.081H93.7061V224.099H103.857V218.339H86.46V243H103.857V237.241ZM124.16 237.241H114.487V218.339H107.241V243H124.16V237.241ZM144.292 237.241H134.141V233.276H143.66V228.081H134.141V224.099H144.292V218.339H126.895V243H144.292V237.241ZM154.512 243V230.012H154.648L164.236 243H169.79V218.339H162.954V231.123H162.817L153.298 218.339H147.676V243H154.512ZM180.454 243V218.339H173.208V243H180.454ZM191.118 218.339H183.872V234.216C183.872 239.838 188.23 243.427 194.741 243.427C201.252 243.427 205.61 239.838 205.61 234.216V218.339H198.364V233.413C198.364 236.01 197.083 237.429 194.741 237.429C192.4 237.429 191.118 236.01 191.118 233.413V218.339ZM236.936 243V218.339H228.562L223.059 232.729H222.922L217.402 218.339H209.028V243H215.352V228.713H215.488L221.042 242.709H224.922L230.476 228.713H230.613V243H236.936Z" fill="#30DA41"/>
</svg>
