<svg width="300" height="400" viewBox="0 0 300 400" fill="none" xmlns="http://www.w3.org/2000/svg">
<rect width="300" height="400" fill="white"/>
<path d="M231.09 69.1602H69.1899V83.3702H231.09V69.1602Z" fill="#D1D3D4"/>
<path d="M234.84 382.72H65.44C49.73 382.72 37 369.99 37 354.28V111.81C37 96.1001 49.73 83.3701 65.44 83.3701H234.84C250.55 83.3701 263.28 96.1001 263.28 111.81V354.28C263.28 369.99 250.55 382.72 234.84 382.72Z" fill="#EDF0F2" stroke="#D1D3D4" stroke-miterlimit="10"/>
<path d="M244.82 69.16H55.46V29.87C55.46 22.76 61.22 17 68.33 17H231.96C239.07 17 244.83 22.76 244.83 29.87V69.16H244.82Z" fill="#EDF0F2" stroke="#D1D3D4" stroke-miterlimit="10"/>
<path d="M244.83 71.2998H55.46V79.8598H244.83V71.2998Z" fill="#EDF0F2" stroke="#D1D3D4" stroke-miterlimit="10"/>
<path d="M70.2417 235.737C70.2588 240.659 74.2065 243.427 80.8203 243.427C87.3828 243.427 91.604 240.214 91.604 235.173C91.604 231.174 89.3652 228.901 84.5801 228.063L81.1963 227.482C78.855 227.072 77.8467 226.457 77.8467 225.278C77.8467 224.047 79.043 223.261 80.9399 223.261C82.8882 223.261 84.4092 224.167 84.4604 225.705H91.0742C91.04 220.92 87.3657 217.912 80.8032 217.912C74.9243 217.912 70.6519 221.057 70.6519 226.047C70.6519 229.909 73.1128 232.507 77.6416 233.293L80.9058 233.874C83.5547 234.353 84.4604 234.848 84.4604 235.993C84.4604 237.189 83.1274 238.061 80.957 238.061C79.0088 238.061 77.2998 237.138 77.0947 235.737H70.2417ZM117.512 243V218.339H110.266V227.705H101.584V218.339H94.3384V243H101.584V233.464H110.266V243H117.512ZM128.176 243V218.339H120.93V243H128.176ZM138.84 243V218.339H131.594V243H138.84ZM155.059 243V224.099H161.553V218.339H141.318V224.099H147.812V243H155.059ZM177.053 243H184.778L176.729 218.339H167.637L159.587 243H166.97L168.252 238.095H175.771L177.053 243ZM171.943 224.03H172.08L174.456 232.985H169.568L171.943 224.03ZM194.246 243V236.54L196.177 233.942L201.56 243H209.985L201.492 229.294L209.609 218.339H202.004L194.382 228.798H194.246V218.339H187V243H194.246ZM229.109 237.241H218.958V233.276H228.477V228.081H218.958V224.099H229.109V218.339H211.711V243H229.109V237.241Z" fill="#753E3E"/>
</svg>
