<svg width="300" height="400" viewBox="0 0 300 400" fill="none" xmlns="http://www.w3.org/2000/svg">
<rect width="300" height="400" fill="white"/>
<path d="M231.09 69.1602H69.1899V83.3702H231.09V69.1602Z" fill="#D1D3D4"/>
<path d="M234.84 382.72H65.44C49.73 382.72 37 369.99 37 354.28V111.81C37 96.1001 49.73 83.3701 65.44 83.3701H234.84C250.55 83.3701 263.28 96.1001 263.28 111.81V354.28C263.28 369.99 250.55 382.72 234.84 382.72Z" fill="#EDF0F2" stroke="#D1D3D4" stroke-miterlimit="10"/>
<path d="M244.82 69.16H55.46V29.87C55.46 22.76 61.22 17 68.33 17H231.96C239.07 17 244.83 22.76 244.83 29.87V69.16H244.82Z" fill="#EDF0F2" stroke="#D1D3D4" stroke-miterlimit="10"/>
<path d="M244.83 71.2998H55.46V79.8598H244.83V71.2998Z" fill="#EDF0F2" stroke="#D1D3D4" stroke-miterlimit="10"/>
<path d="M56.9458 235.737C56.9629 240.659 60.9106 243.427 67.5244 243.427C74.0869 243.427 78.3081 240.214 78.3081 235.173C78.3081 231.174 76.0693 228.901 71.2842 228.063L67.9004 227.482C65.5591 227.072 64.5508 226.457 64.5508 225.278C64.5508 224.047 65.7471 223.261 67.644 223.261C69.5923 223.261 71.1133 224.167 71.1646 225.705H77.7783C77.7441 220.92 74.0698 217.912 67.5073 217.912C61.6284 217.912 57.356 221.057 57.356 226.047C57.356 229.909 59.8169 232.507 64.3457 233.293L67.6099 233.874C70.2588 234.353 71.1646 234.848 71.1646 235.993C71.1646 237.189 69.8315 238.061 67.6611 238.061C65.7129 238.061 64.0039 237.138 63.7988 235.737H56.9458ZM81.0425 218.339V243H88.2886V236.267H91.8091C97.5684 236.267 101.482 232.763 101.482 227.329C101.482 221.843 97.7905 218.339 92.3047 218.339H81.0425ZM88.2886 223.791H90.3735C92.7319 223.791 94.1675 225.004 94.1675 227.346C94.1675 229.704 92.7319 230.917 90.3223 230.917H88.2886V223.791ZM111.292 243V218.339H104.045V243H111.292ZM121.956 223.688H124.963C126.912 223.688 128.228 225.004 128.228 226.833C128.228 228.696 126.98 229.943 124.946 229.943H121.956V223.688ZM121.956 234.729H124.331L128.228 243H136.328L131.646 233.652C134.226 232.421 135.627 229.619 135.627 226.713C135.627 221.433 132.244 218.339 125.664 218.339H114.709V243H121.956V234.729ZM145.813 218.339H138.567V234.216C138.567 239.838 142.925 243.427 149.436 243.427C155.947 243.427 160.305 239.838 160.305 234.216V218.339H153.059V233.413C153.059 236.01 151.777 237.429 149.436 237.429C147.095 237.429 145.813 236.01 145.813 233.413V218.339ZM180.642 237.241H170.969V218.339H163.723V243H180.642V237.241ZM190.623 243V218.339H183.376V243H190.623ZM200.876 243V230.012H201.013L210.601 243H216.155V218.339H209.319V231.123H209.182L199.663 218.339H194.041V243H200.876ZM235.842 243H243.567L235.518 218.339H226.426L218.376 243H225.759L227.041 238.095H234.561L235.842 243ZM230.732 224.03H230.869L233.245 232.985H228.357L230.732 224.03Z" fill="#479165"/>
</svg>
