<svg width="300" height="400" viewBox="0 0 300 400" fill="none" xmlns="http://www.w3.org/2000/svg">
<rect width="300" height="400" fill="white"/>
<path d="M231.09 69.1602H69.1899V83.3702H231.09V69.1602Z" fill="#D1D3D4"/>
<path d="M234.84 382.72H65.44C49.73 382.72 37 369.99 37 354.28V111.81C37 96.1001 49.73 83.3701 65.44 83.3701H234.84C250.55 83.3701 263.28 96.1001 263.28 111.81V354.28C263.28 369.99 250.55 382.72 234.84 382.72Z" fill="#EDF0F2" stroke="#D1D3D4" stroke-miterlimit="10"/>
<path d="M244.82 69.16H55.46V29.87C55.46 22.76 61.22 17 68.33 17H231.96C239.07 17 244.83 22.76 244.83 29.87V69.16H244.82Z" fill="#EDF0F2" stroke="#D1D3D4" stroke-miterlimit="10"/>
<path d="M244.83 71.2998H55.46V79.8598H244.83V71.2998Z" fill="#EDF0F2" stroke="#D1D3D4" stroke-miterlimit="10"/>
<path d="M122.297 193.737C122.314 198.659 126.262 201.427 132.876 201.427C139.438 201.427 143.66 198.214 143.66 193.173C143.66 189.174 141.421 186.901 136.636 186.063L133.252 185.482C130.911 185.072 129.902 184.457 129.902 183.278C129.902 182.047 131.099 181.261 132.996 181.261C134.944 181.261 136.465 182.167 136.516 183.705H143.13C143.096 178.92 139.421 175.912 132.859 175.912C126.98 175.912 122.708 179.057 122.708 184.047C122.708 187.909 125.168 190.507 129.697 191.293L132.961 191.874C135.61 192.353 136.516 192.848 136.516 193.993C136.516 195.189 135.183 196.061 133.013 196.061C131.064 196.061 129.355 195.138 129.15 193.737H122.297ZM159.194 201V182.099H165.688V176.339H145.454V182.099H151.948V201H159.194ZM169.175 201.239C171.14 201.239 172.729 199.65 172.729 197.685C172.729 195.719 171.14 194.13 169.175 194.13C167.209 194.13 165.62 195.719 165.62 197.685C165.62 199.65 167.209 201.239 169.175 201.239ZM83.1274 234.267C83.1274 239.975 86.853 243.427 92.8345 243.427C98.833 243.427 102.422 240.231 102.422 234.438V218.339H95.1758V234.387C95.1758 236.335 94.3213 237.36 92.7319 237.36C91.0742 237.36 90.0659 236.198 90.0659 234.267H83.1274ZM118.059 217.912C110.437 217.912 105.635 222.8 105.635 230.678C105.635 238.557 110.42 243.427 118.059 243.427C125.681 243.427 130.483 238.557 130.483 230.678C130.483 222.8 125.681 217.912 118.059 217.912ZM118.059 223.688C121.084 223.688 123.101 226.406 123.101 230.678C123.101 234.934 121.101 237.651 118.059 237.651C115.017 237.651 113.018 234.934 113.018 230.678C113.018 226.406 115.034 223.688 118.059 223.688ZM156.477 243V218.339H149.231V227.705H140.549V218.339H133.303V243H140.549V233.464H149.231V243H156.477ZM166.731 243V230.012H166.868L176.455 243H182.009V218.339H175.173V231.123H175.037L165.518 218.339H159.895V243H166.731ZM190.64 228.884L192.878 218.339H186.555L185.649 228.884H190.64ZM194.827 235.737C194.844 240.659 198.792 243.427 205.405 243.427C211.968 243.427 216.189 240.214 216.189 235.173C216.189 231.174 213.95 228.901 209.165 228.063L205.781 227.482C203.44 227.072 202.432 226.457 202.432 225.278C202.432 224.047 203.628 223.261 205.525 223.261C207.473 223.261 208.994 224.167 209.045 225.705H215.659C215.625 220.92 211.951 217.912 205.388 217.912C199.509 217.912 195.237 221.057 195.237 226.047C195.237 229.909 197.698 232.507 202.227 233.293L205.491 233.874C208.14 234.353 209.045 234.848 209.045 235.993C209.045 237.189 207.712 238.061 205.542 238.061C203.594 238.061 201.885 237.138 201.68 235.737H194.827ZM114.009 270.884H114.146L117.82 285H124.656L131.013 260.339H123.528L120.691 275.925H120.554L116.88 260.339H111.274L107.6 275.925H107.463L104.626 260.339H97.1411L103.499 285H110.334L114.009 270.884ZM144.377 259.912C136.755 259.912 131.953 264.8 131.953 272.678C131.953 280.557 136.738 285.427 144.377 285.427C152 285.427 156.802 280.557 156.802 272.678C156.802 264.8 152 259.912 144.377 259.912ZM144.377 265.688C147.402 265.688 149.419 268.406 149.419 272.678C149.419 276.934 147.419 279.651 144.377 279.651C141.335 279.651 139.336 276.934 139.336 272.678C139.336 268.406 141.353 265.688 144.377 265.688ZM166.868 265.688H169.875C171.824 265.688 173.14 267.004 173.14 268.833C173.14 270.696 171.892 271.943 169.858 271.943H166.868V265.688ZM166.868 276.729H169.243L173.14 285H181.24L176.558 275.652C179.138 274.421 180.54 271.619 180.54 268.713C180.54 263.433 177.156 260.339 170.576 260.339H159.622V285H166.868V276.729ZM196.279 285V266.099H202.773V260.339H182.539V266.099H189.033V285H196.279Z" fill="#CA9837"/>
</svg>
