<svg width="300" height="400" viewBox="0 0 300 400" fill="none" xmlns="http://www.w3.org/2000/svg">
<rect width="300" height="400" fill="white"/>
<path d="M231.09 69.1602H69.1899V83.3702H231.09V69.1602Z" fill="#D1D3D4"/>
<path d="M234.84 382.72H65.44C49.73 382.72 37 369.99 37 354.28V111.81C37 96.1001 49.73 83.3701 65.44 83.3701H234.84C250.55 83.3701 263.28 96.1001 263.28 111.81V354.28C263.28 369.99 250.55 382.72 234.84 382.72Z" fill="#EDF0F2" stroke="#D1D3D4" stroke-miterlimit="10"/>
<path d="M244.82 69.16H55.46V29.87C55.46 22.76 61.22 17 68.33 17H231.96C239.07 17 244.83 22.76 244.83 29.87V69.16H244.82Z" fill="#EDF0F2" stroke="#D1D3D4" stroke-miterlimit="10"/>
<path d="M244.83 71.2998H55.46V79.8598H244.83V71.2998Z" fill="#EDF0F2" stroke="#D1D3D4" stroke-miterlimit="10"/>
<path d="M89.6558 243V224.099H96.1499V218.339H75.9155V224.099H82.4097V243H89.6558ZM111.65 243H119.375L111.326 218.339H102.234L94.1846 243H101.567L102.849 238.095H110.369L111.65 243ZM106.541 224.03H106.677L109.053 232.985H104.165L106.541 224.03ZM127.817 218.339H120.571V234.216C120.571 239.838 124.929 243.427 131.44 243.427C137.952 243.427 142.31 239.838 142.31 234.216V218.339H135.063V233.413C135.063 236.01 133.782 237.429 131.44 237.429C129.099 237.429 127.817 236.01 127.817 233.413V218.339ZM152.974 223.688H155.981C157.93 223.688 159.246 225.004 159.246 226.833C159.246 228.696 157.998 229.943 155.964 229.943H152.974V223.688ZM152.974 234.729H155.349L159.246 243H167.346L162.664 233.652C165.244 232.421 166.646 229.619 166.646 226.713C166.646 221.433 163.262 218.339 156.682 218.339H145.728V243H152.974V234.729ZM176.831 243V218.339H169.585V243H176.831ZM187.085 243V230.012H187.222L196.809 243H202.363V218.339H195.527V231.123H195.391L185.872 218.339H180.249V243H187.085ZM223.179 237.241H213.027V233.276H222.546V228.081H213.027V224.099H223.179V218.339H205.781V243H223.179V237.241Z" fill="#3D3D3D"/>
</svg>
