<svg width="300" height="400" viewBox="0 0 300 400" fill="none" xmlns="http://www.w3.org/2000/svg">
<rect width="300" height="400" fill="white"/>
<path d="M231.09 69.1602H69.1899V83.3702H231.09V69.1602Z" fill="#D1D3D4"/>
<path d="M234.84 382.72H65.44C49.73 382.72 37 369.99 37 354.28V111.81C37 96.1001 49.73 83.3701 65.44 83.3701H234.84C250.55 83.3701 263.28 96.1001 263.28 111.81V354.28C263.28 369.99 250.55 382.72 234.84 382.72Z" fill="#EDF0F2" stroke="#D1D3D4" stroke-miterlimit="10"/>
<path d="M244.82 69.16H55.46V29.87C55.46 22.76 61.22 17 68.33 17H231.96C239.07 17 244.83 22.76 244.83 29.87V69.16H244.82Z" fill="#EDF0F2" stroke="#D1D3D4" stroke-miterlimit="10"/>
<path d="M244.83 71.2998H55.46V79.8598H244.83V71.2998Z" fill="#EDF0F2" stroke="#D1D3D4" stroke-miterlimit="10"/>
<path d="M75.5737 243V224.099H82.0679V218.339H61.8335V224.099H68.3276V243H75.5737ZM107.72 243V218.339H100.474V227.705H91.792V218.339H84.5459V243H91.792V233.464H100.474V243H107.72ZM128.535 237.241H118.384V233.276H127.903V228.081H118.384V224.099H128.535V218.339H111.138V243H128.535V237.241ZM148.188 243H155.913L147.864 218.339H138.772L130.723 243H138.105L139.387 238.095H146.907L148.188 243ZM143.079 224.03H143.215L145.591 232.985H140.703L143.079 224.03ZM164.971 243V230.012H165.107L174.695 243H180.249V218.339H173.413V231.123H173.276L163.757 218.339H158.135V243H164.971ZM190.913 243V218.339H183.667V243H190.913ZM201.167 243V230.012H201.304L210.891 243H216.445V218.339H209.609V231.123H209.473L199.954 218.339H194.331V243H201.167ZM237.261 237.241H227.109V233.276H236.628V228.081H227.109V224.099H237.261V218.339H219.863V243H237.261V237.241Z" fill="#26697E"/>
</svg>
