<svg width="300" height="400" viewBox="0 0 300 400" fill="none" xmlns="http://www.w3.org/2000/svg">
<rect width="300" height="400" fill="white"/>
<path d="M231.09 69.1602H69.1899V83.3702H231.09V69.1602Z" fill="#D1D3D4"/>
<path d="M234.84 382.72H65.44C49.73 382.72 37 369.99 37 354.28V111.81C37 96.1001 49.73 83.3701 65.44 83.3701H234.84C250.55 83.3701 263.28 96.1001 263.28 111.81V354.28C263.28 369.99 250.55 382.72 234.84 382.72Z" fill="#EDF0F2" stroke="#D1D3D4" stroke-miterlimit="10"/>
<path d="M244.82 69.16H55.46V29.87C55.46 22.76 61.22 17 68.33 17H231.96C239.07 17 244.83 22.76 244.83 29.87V69.16H244.82Z" fill="#EDF0F2" stroke="#D1D3D4" stroke-miterlimit="10"/>
<path d="M244.83 71.2998H55.46V79.8598H244.83V71.2998Z" fill="#EDF0F2" stroke="#D1D3D4" stroke-miterlimit="10"/>
<path d="M78.0347 222V203.099H84.5288V197.339H64.2944V203.099H70.7886V222H78.0347ZM94.2529 202.688H97.2607C99.209 202.688 100.525 204.004 100.525 205.833C100.525 207.696 99.2773 208.943 97.2437 208.943H94.2529V202.688ZM94.2529 213.729H96.6284L100.525 222H108.625L103.943 212.652C106.523 211.421 107.925 208.619 107.925 205.713C107.925 200.433 104.541 197.339 97.9614 197.339H87.0068V222H94.2529V213.729ZM118.11 222V197.339H110.864V222H118.11ZM134.055 222C139.336 222 142.754 219.146 142.754 214.822C142.754 211.558 139.968 209.046 136.636 208.96V208.824C139.49 208.465 141.643 206.329 141.643 203.492C141.643 199.646 138.687 197.339 133.645 197.339H121.528V222H134.055ZM128.774 202.312H131.68C133.508 202.312 134.602 203.235 134.602 204.756C134.602 206.243 133.44 207.217 131.577 207.217H128.774V202.312ZM128.774 217.027V211.37H131.919C134.089 211.37 135.388 212.396 135.388 214.156C135.388 216.019 134.106 217.027 131.868 217.027H128.774ZM152.393 197.339H145.146V213.216C145.146 218.838 149.504 222.427 156.016 222.427C162.527 222.427 166.885 218.838 166.885 213.216V197.339H159.639V212.413C159.639 215.01 158.357 216.429 156.016 216.429C153.674 216.429 152.393 215.01 152.393 212.413V197.339ZM187.222 216.241H177.549V197.339H170.303V222H187.222V216.241ZM196.86 197.339H189.614V213.216C189.614 218.838 193.972 222.427 200.483 222.427C206.995 222.427 211.353 218.838 211.353 213.216V197.339H204.106V212.413C204.106 215.01 202.825 216.429 200.483 216.429C198.142 216.429 196.86 215.01 196.86 212.413V197.339ZM214.087 214.737C214.104 219.659 218.052 222.427 224.666 222.427C231.228 222.427 235.449 219.214 235.449 214.173C235.449 210.174 233.21 207.901 228.425 207.063L225.042 206.482C222.7 206.072 221.692 205.457 221.692 204.278C221.692 203.047 222.888 202.261 224.785 202.261C226.733 202.261 228.254 203.167 228.306 204.705H234.919C234.885 199.92 231.211 196.912 224.648 196.912C218.77 196.912 214.497 200.057 214.497 205.047C214.497 208.909 216.958 211.507 221.487 212.293L224.751 212.874C227.4 213.353 228.306 213.848 228.306 214.993C228.306 216.189 226.973 217.061 224.802 217.061C222.854 217.061 221.145 216.138 220.94 214.737H214.087ZM57.4243 264V245.099H63.9185V239.339H43.6841V245.099H50.1782V264H57.4243ZM83.7939 258.241H73.6426V254.276H83.1616V249.081H73.6426V245.099H83.7939V239.339H66.3965V264H83.7939V258.241ZM94.4238 244.688H97.4316C99.3799 244.688 100.696 246.004 100.696 247.833C100.696 249.696 99.4482 250.943 97.4146 250.943H94.4238V244.688ZM94.4238 255.729H96.7993L100.696 264H108.796L104.114 254.652C106.694 253.421 108.096 250.619 108.096 247.713C108.096 242.433 104.712 239.339 98.1323 239.339H87.1777V264H94.4238V255.729ZM118.281 244.688H121.289C123.237 244.688 124.553 246.004 124.553 247.833C124.553 249.696 123.306 250.943 121.272 250.943H118.281V244.688ZM118.281 255.729H120.657L124.553 264H132.654L127.971 254.652C130.552 253.421 131.953 250.619 131.953 247.713C131.953 242.433 128.569 239.339 121.99 239.339H111.035V264H118.281V255.729ZM152.29 258.241H142.139V254.276H151.658V249.081H142.139V245.099H152.29V239.339H134.893V264H152.29V258.241ZM154.99 256.737C155.007 261.659 158.955 264.427 165.569 264.427C172.131 264.427 176.353 261.214 176.353 256.173C176.353 252.174 174.114 249.901 169.329 249.063L165.945 248.482C163.604 248.072 162.595 247.457 162.595 246.278C162.595 245.047 163.792 244.261 165.688 244.261C167.637 244.261 169.158 245.167 169.209 246.705H175.823C175.789 241.92 172.114 238.912 165.552 238.912C159.673 238.912 155.4 242.057 155.4 247.047C155.4 250.909 157.861 253.507 162.39 254.293L165.654 254.874C168.303 255.353 169.209 255.848 169.209 256.993C169.209 258.189 167.876 259.061 165.706 259.061C163.757 259.061 162.048 258.138 161.843 256.737H154.99ZM191.887 264V245.099H198.381V239.339H178.147V245.099H184.641V264H191.887ZM208.105 244.688H211.113C213.062 244.688 214.377 246.004 214.377 247.833C214.377 249.696 213.13 250.943 211.096 250.943H208.105V244.688ZM208.105 255.729H210.481L214.377 264H222.478L217.795 254.652C220.376 253.421 221.777 250.619 221.777 247.713C221.777 242.433 218.394 239.339 211.814 239.339H200.859V264H208.105V255.729ZM231.963 264V239.339H224.717V264H231.963ZM234.697 256.737C234.714 261.659 238.662 264.427 245.276 264.427C251.838 264.427 256.06 261.214 256.06 256.173C256.06 252.174 253.821 249.901 249.036 249.063L245.652 248.482C243.311 248.072 242.302 247.457 242.302 246.278C242.302 245.047 243.499 244.261 245.396 244.261C247.344 244.261 248.865 245.167 248.916 246.705H255.53C255.496 241.92 251.821 238.912 245.259 238.912C239.38 238.912 235.107 242.057 235.107 247.047C235.107 250.909 237.568 253.507 242.097 254.293L245.361 254.874C248.01 255.353 248.916 255.848 248.916 256.993C248.916 258.189 247.583 259.061 245.413 259.061C243.464 259.061 241.755 258.138 241.55 256.737H234.697Z" fill="#2CA87B"/>
</svg>
