<svg width="300" height="400" viewBox="0 0 300 400" fill="none" xmlns="http://www.w3.org/2000/svg">
<rect width="300" height="400" fill="white"/>
<path d="M231.09 69.1602H69.1899V83.3702H231.09V69.1602Z" fill="#D1D3D4"/>
<path d="M234.84 382.72H65.44C49.73 382.72 37 369.99 37 354.28V111.81C37 96.1001 49.73 83.3701 65.44 83.3701H234.84C250.55 83.3701 263.28 96.1001 263.28 111.81V354.28C263.28 369.99 250.55 382.72 234.84 382.72Z" fill="#EDF0F2" stroke="#D1D3D4" stroke-miterlimit="10"/>
<path d="M244.82 69.16H55.46V29.87C55.46 22.76 61.22 17 68.33 17H231.96C239.07 17 244.83 22.76 244.83 29.87V69.16H244.82Z" fill="#EDF0F2" stroke="#D1D3D4" stroke-miterlimit="10"/>
<path d="M244.83 71.2998H55.46V79.8598H244.83V71.2998Z" fill="#EDF0F2" stroke="#D1D3D4" stroke-miterlimit="10"/>
<path d="M79.7778 243L87.2632 218.339H79.2651L75.3174 236.13H75.1807L71.2329 218.339H62.8931L70.3784 243H79.7778ZM102.678 243H110.403L102.354 218.339H93.2617L85.2124 243H92.5952L93.877 238.095H101.396L102.678 243ZM97.5684 224.03H97.7051L100.081 232.985H95.1929L97.5684 224.03ZM129.543 237.241H119.871V218.339H112.625V243H129.543V237.241ZM149.675 237.241H139.524V233.276H149.043V228.081H139.524V224.099H149.675V218.339H132.278V243H149.675V237.241ZM160.305 223.688H163.313C165.261 223.688 166.577 225.004 166.577 226.833C166.577 228.696 165.33 229.943 163.296 229.943H160.305V223.688ZM160.305 234.729H162.681L166.577 243H174.678L169.995 233.652C172.576 232.421 173.977 229.619 173.977 226.713C173.977 221.433 170.593 218.339 164.014 218.339H153.059V243H160.305V234.729ZM184.163 243V218.339H176.917V243H184.163ZM203.85 243H211.575L203.525 218.339H194.434L186.384 243H193.767L195.049 238.095H202.568L203.85 243ZM198.74 224.03H198.877L201.252 232.985H196.365L198.74 224.03ZM220.632 243V230.012H220.769L230.356 243H235.911V218.339H229.075V231.123H228.938L219.419 218.339H213.796V243H220.632Z" fill="#3D3D3D"/>
</svg>
