<svg width="300" height="400" viewBox="0 0 300 400" fill="none" xmlns="http://www.w3.org/2000/svg">
<rect width="300" height="400" fill="white"/>
<path d="M231.09 69.1602H69.19V83.3702H231.09V69.1602Z" fill="#D1D3D4"/>
<path d="M234.84 382.72H65.44C49.73 382.72 37 369.99 37 354.28V111.81C37 96.1001 49.73 83.3701 65.44 83.3701H234.84C250.55 83.3701 263.28 96.1001 263.28 111.81V354.28C263.28 369.99 250.55 382.72 234.84 382.72Z" fill="#EDF0F2" stroke="#D1D3D4" stroke-miterlimit="10"/>
<path d="M244.82 69.16H55.46V29.87C55.46 22.76 61.22 17 68.33 17H231.96C239.07 17 244.83 22.76 244.83 29.87V69.16H244.82Z" fill="#EDF0F2" stroke="#D1D3D4" stroke-miterlimit="10"/>
<path d="M244.83 71.2998H55.46V79.8598H244.83V71.2998Z" fill="#EDF0F2" stroke="#D1D3D4" stroke-miterlimit="10"/>
<path d="M93.2275 222L100.713 197.339H92.7148L88.7671 215.13H88.6304L84.6826 197.339H76.3428L83.8281 222H93.2275ZM110.181 222V197.339H102.935V222H110.181ZM126.399 222V203.099H132.893V197.339H112.659V203.099H119.153V222H126.399ZM148.394 222H156.118L148.069 197.339H138.977L130.928 222H138.311L139.592 217.095H147.112L148.394 222ZM143.284 203.03H143.42L145.796 211.985H140.908L143.284 203.03ZM186.248 222V197.339H177.874L172.371 211.729H172.234L166.714 197.339H158.34V222H164.663V207.713H164.8L170.354 221.709H174.233L179.788 207.713H179.924V222H186.248ZM196.929 222V197.339H189.683V222H196.929ZM207.183 222V209.012H207.319L216.907 222H222.461V197.339H215.625V210.123H215.488L205.969 197.339H200.347V222H207.183ZM139.08 239.339V264H149.624C157.092 264 161.501 259.386 161.501 251.49C161.501 243.595 157.109 239.339 149.624 239.339H139.08ZM146.326 245.099H148.599C152.068 245.099 154.119 247.337 154.119 251.49C154.119 256.036 152.222 258.241 148.599 258.241H146.326V245.099Z" fill="#714C4C"/>
</svg>
