<svg width="300" height="400" viewBox="0 0 300 400" fill="none" xmlns="http://www.w3.org/2000/svg">
<rect width="300" height="400" fill="white"/>
<path d="M231.09 69.1602H69.1899V83.3702H231.09V69.1602Z" fill="#D1D3D4"/>
<path d="M234.84 382.72H65.44C49.73 382.72 37 369.99 37 354.28V111.81C37 96.1001 49.73 83.3701 65.44 83.3701H234.84C250.55 83.3701 263.28 96.1001 263.28 111.81V354.28C263.28 369.99 250.55 382.72 234.84 382.72Z" fill="#EDF0F2" stroke="#D1D3D4" stroke-miterlimit="10"/>
<path d="M244.82 69.16H55.46V29.87C55.46 22.76 61.22 17 68.33 17H231.96C239.07 17 244.83 22.76 244.83 29.87V69.16H244.82Z" fill="#EDF0F2" stroke="#D1D3D4" stroke-miterlimit="10"/>
<path d="M244.83 71.2998H55.46V79.8598H244.83V71.2998Z" fill="#EDF0F2" stroke="#D1D3D4" stroke-miterlimit="10"/>
<path d="M93.2275 222L100.713 197.339H92.7148L88.7671 215.13H88.6304L84.6826 197.339H76.3428L83.8281 222H93.2275ZM110.181 222V197.339H102.935V222H110.181ZM126.399 222V203.099H132.893V197.339H112.659V203.099H119.153V222H126.399ZM148.394 222H156.118L148.069 197.339H138.977L130.928 222H138.311L139.592 217.095H147.112L148.394 222ZM143.284 203.03H143.42L145.796 211.985H140.908L143.284 203.03ZM186.248 222V197.339H177.874L172.371 211.729H172.234L166.714 197.339H158.34V222H164.663V207.713H164.8L170.354 221.709H174.233L179.788 207.713H179.924V222H186.248ZM196.929 222V197.339H189.683V222H196.929ZM207.183 222V209.012H207.319L216.907 222H222.461V197.339H215.625V210.123H215.488L205.969 197.339H200.347V222H207.183ZM132.175 264C137.456 264 140.874 261.146 140.874 256.822C140.874 253.558 138.088 251.046 134.756 250.96V250.824C137.61 250.465 139.763 248.329 139.763 245.492C139.763 241.646 136.807 239.339 131.765 239.339H119.648V264H132.175ZM126.895 244.312H129.8C131.628 244.312 132.722 245.235 132.722 246.756C132.722 248.243 131.56 249.217 129.697 249.217H126.895V244.312ZM126.895 259.027V253.37H130.039C132.209 253.37 133.508 254.396 133.508 256.156C133.508 258.019 132.227 259.027 129.988 259.027H126.895ZM149.077 264H156.323V239.339H149.077L142.891 243.475V249.542L148.94 245.543H149.077V264ZM160.698 247.081V247.218H167.295V247.064C167.295 245.27 168.628 244.005 170.508 244.005C172.371 244.005 173.447 245.047 173.447 246.38C173.447 247.748 172.695 248.927 171.038 250.414L161.125 259.181V264H180.71V258.531H170.474V258.395L176.267 253.268C177.583 252.105 180.42 249.542 180.42 246.158C180.42 241.681 176.746 238.656 170.764 238.656C164.663 238.656 160.698 242.04 160.698 247.081Z" fill="#3D3D3D"/>
</svg>
