<svg width="300" height="400" viewBox="0 0 300 400" fill="none" xmlns="http://www.w3.org/2000/svg">
<rect width="300" height="400" fill="white"/>
<path d="M231.09 69.1602H69.19V83.3702H231.09V69.1602Z" fill="#D1D3D4"/>
<path d="M234.84 382.72H65.44C49.73 382.72 37 369.99 37 354.28V111.81C37 96.1001 49.73 83.3701 65.44 83.3701H234.84C250.55 83.3701 263.28 96.1001 263.28 111.81V354.28C263.28 369.99 250.55 382.72 234.84 382.72Z" fill="#EDF0F2" stroke="#D1D3D4" stroke-miterlimit="10"/>
<path d="M244.82 69.16H55.46V29.87C55.46 22.76 61.22 17 68.33 17H231.96C239.07 17 244.83 22.76 244.83 29.87V69.16H244.82Z" fill="#EDF0F2" stroke="#D1D3D4" stroke-miterlimit="10"/>
<path d="M244.83 71.2998H55.46V79.8598H244.83V71.2998Z" fill="#EDF0F2" stroke="#D1D3D4" stroke-miterlimit="10"/>
<path d="M115.205 201L122.69 176.339H114.692L110.745 194.13H110.608L106.66 176.339H98.3203L105.806 201H115.205ZM132.158 201V176.339H124.912V201H132.158ZM148.376 201V182.099H154.871V176.339H134.636V182.099H141.13V201H148.376ZM174.746 195.241H164.595V191.276H174.114V186.081H164.595V182.099H174.746V176.339H157.349V201H174.746V195.241ZM177.122 201H184.778L188.999 193.566H189.153L193.391 201H201.458L193.853 188.678V188.542L201.492 176.339H193.459L189.563 184.201H189.426L185.547 176.339H177.104L184.385 188.507V188.644L177.122 201ZM97.6367 243H105.361L97.312 218.339H88.2202L80.1709 243H87.5537L88.8354 238.095H96.355L97.6367 243ZM92.5269 224.03H92.6636L95.0391 232.985H90.1514L92.5269 224.03ZM129.15 232.507V229.26H118.418V234.079H122.178L122.144 234.421C121.938 236.403 120.264 237.719 117.905 237.719C114.727 237.719 112.659 235.036 112.659 230.542C112.659 226.149 114.47 223.62 117.546 223.62C119.631 223.62 121.255 224.799 121.733 226.611H128.86C128.313 221.552 123.699 217.912 117.512 217.912C109.907 217.912 105.276 222.561 105.276 230.644C105.276 238.83 109.907 243.427 117.734 243.427C124.895 243.427 129.15 239.257 129.15 232.507ZM138.857 243V230.012H138.994L148.582 243H154.136V218.339H147.3V231.123H147.163L137.644 218.339H132.021V243H138.857ZM164.8 218.339H157.554V234.216C157.554 239.838 161.912 243.427 168.423 243.427C174.934 243.427 179.292 239.838 179.292 234.216V218.339H172.046V233.413C172.046 236.01 170.764 237.429 168.423 237.429C166.082 237.429 164.8 236.01 164.8 233.413V218.339ZM182.026 235.737C182.043 240.659 185.991 243.427 192.605 243.427C199.167 243.427 203.389 240.214 203.389 235.173C203.389 231.174 201.15 228.901 196.365 228.063L192.981 227.482C190.64 227.072 189.631 226.457 189.631 225.278C189.631 224.047 190.828 223.261 192.725 223.261C194.673 223.261 196.194 224.167 196.245 225.705H202.859C202.825 220.92 199.15 217.912 192.588 217.912C186.709 217.912 182.437 221.057 182.437 226.047C182.437 229.909 184.897 232.507 189.426 233.293L192.69 233.874C195.339 234.353 196.245 234.848 196.245 235.993C196.245 237.189 194.912 238.061 192.742 238.061C190.793 238.061 189.084 237.138 188.879 235.737H182.026ZM218 235.925V229.978H206.738V235.925H218ZM91.792 285.427C98.4399 285.427 103.242 281.206 103.276 275.054H96.3379C96.1157 277.908 94.3042 279.736 91.8091 279.736C88.8013 279.736 86.9385 277.104 86.9385 272.644C86.9385 268.235 88.8184 265.603 91.792 265.603C94.3042 265.603 96.1328 267.466 96.3037 270.269H103.242C103.225 264.15 98.3032 259.912 91.792 259.912C84.2554 259.912 79.5557 264.526 79.5557 272.661C79.5557 280.796 84.2383 285.427 91.792 285.427ZM120.588 285H128.313L120.264 260.339H111.172L103.123 285H110.505L111.787 280.095H119.307L120.588 285ZM115.479 266.03H115.615L117.991 274.985H113.103L115.479 266.03ZM128.826 277.737C128.843 282.659 132.791 285.427 139.404 285.427C145.967 285.427 150.188 282.214 150.188 277.173C150.188 273.174 147.949 270.901 143.164 270.063L139.78 269.482C137.439 269.072 136.431 268.457 136.431 267.278C136.431 266.047 137.627 265.261 139.524 265.261C141.472 265.261 142.993 266.167 143.044 267.705H149.658C149.624 262.92 145.95 259.912 139.387 259.912C133.508 259.912 129.236 263.057 129.236 268.047C129.236 271.909 131.697 274.507 136.226 275.293L139.49 275.874C142.139 276.353 143.044 276.848 143.044 277.993C143.044 279.189 141.711 280.061 139.541 280.061C137.593 280.061 135.884 279.138 135.679 277.737H128.826ZM165.723 285V266.099H172.217V260.339H151.982V266.099H158.477V285H165.723ZM181.941 260.339H174.695V276.216C174.695 281.838 179.053 285.427 185.564 285.427C192.075 285.427 196.433 281.838 196.433 276.216V260.339H189.187V275.413C189.187 278.01 187.905 279.429 185.564 279.429C183.223 279.429 181.941 278.01 181.941 275.413V260.339ZM199.167 277.737C199.185 282.659 203.132 285.427 209.746 285.427C216.309 285.427 220.53 282.214 220.53 277.173C220.53 273.174 218.291 270.901 213.506 270.063L210.122 269.482C207.781 269.072 206.772 268.457 206.772 267.278C206.772 266.047 207.969 265.261 209.866 265.261C211.814 265.261 213.335 266.167 213.386 267.705H220C219.966 262.92 216.292 259.912 209.729 259.912C203.85 259.912 199.578 263.057 199.578 268.047C199.578 271.909 202.039 274.507 206.567 275.293L209.832 275.874C212.48 276.353 213.386 276.848 213.386 277.993C213.386 279.189 212.053 280.061 209.883 280.061C207.935 280.061 206.226 279.138 206.021 277.737H199.167Z" fill="#9352C6"/>
</svg>
