<svg width="300" height="400" viewBox="0 0 300 400" fill="none" xmlns="http://www.w3.org/2000/svg">
<rect width="300" height="400" fill="white"/>
<path d="M231.09 69.1602H69.1899V83.3702H231.09V69.1602Z" fill="#D1D3D4"/>
<path d="M234.84 382.72H65.44C49.73 382.72 37 369.99 37 354.28V111.81C37 96.1001 49.73 83.3701 65.44 83.3701H234.84C250.55 83.3701 263.28 96.1001 263.28 111.81V354.28C263.28 369.99 250.55 382.72 234.84 382.72Z" fill="#EDF0F2" stroke="#D1D3D4" stroke-miterlimit="10"/>
<path d="M244.82 69.16H55.46V29.87C55.46 22.76 61.22 17 68.33 17H231.96C239.07 17 244.83 22.76 244.83 29.87V69.16H244.82Z" fill="#EDF0F2" stroke="#D1D3D4" stroke-miterlimit="10"/>
<path d="M244.83 71.2998H55.46V79.8598H244.83V71.2998Z" fill="#EDF0F2" stroke="#D1D3D4" stroke-miterlimit="10"/>
<path d="M106.387 222V214.19L114.812 197.339H107.241L102.917 207.337H102.781L98.457 197.339H90.7153L99.1406 214.19V222H106.387ZM134.431 216.241H124.28V212.276H133.799V207.081H124.28V203.099H134.431V197.339H117.034V222H134.431V216.241ZM145.061 202.688H148.069C150.017 202.688 151.333 204.004 151.333 205.833C151.333 207.696 150.085 208.943 148.052 208.943H145.061V202.688ZM145.061 213.729H147.437L151.333 222H159.434L154.751 212.652C157.332 211.421 158.733 208.619 158.733 205.713C158.733 200.433 155.349 197.339 148.77 197.339H137.815V222H145.061V213.729ZM174.199 222C179.48 222 182.898 219.146 182.898 214.822C182.898 211.558 180.112 209.046 176.78 208.96V208.824C179.634 208.465 181.787 206.329 181.787 203.492C181.787 199.646 178.831 197.339 173.789 197.339H161.672V222H174.199ZM168.918 202.312H171.824C173.652 202.312 174.746 203.235 174.746 204.756C174.746 206.243 173.584 207.217 171.721 207.217H168.918V202.312ZM168.918 217.027V211.37H172.063C174.233 211.37 175.532 212.396 175.532 214.156C175.532 216.019 174.25 217.027 172.012 217.027H168.918ZM201.56 222H209.285L201.235 197.339H192.144L184.094 222H191.477L192.759 217.095H200.278L201.56 222ZM196.45 203.03H196.587L198.962 211.985H194.075L196.45 203.03ZM131.184 264V239.339H122.81L117.307 253.729H117.17L111.65 239.339H103.276V264H109.6V249.713H109.736L115.291 263.709H119.17L124.724 249.713H124.861V264H131.184ZM150.889 264H158.613L150.564 239.339H141.472L133.423 264H140.806L142.087 259.095H149.607L150.889 264ZM145.779 245.03H145.916L148.291 253.985H143.403L145.779 245.03ZM170.388 264V245.099H176.882V239.339H156.648V245.099H163.142V264H170.388ZM196.758 258.241H186.606V254.276H196.125V249.081H186.606V245.099H196.758V239.339H179.36V264H196.758V258.241Z" fill="#AE8787"/>
</svg>
