<svg width="300" height="400" viewBox="0 0 300 400" fill="none" xmlns="http://www.w3.org/2000/svg">
<rect width="300" height="400" fill="white"/>
<path d="M231.09 69.1602H69.1899V83.3702H231.09V69.1602Z" fill="#D1D3D4"/>
<path d="M234.84 382.72H65.44C49.73 382.72 37 369.99 37 354.28V111.81C37 96.1001 49.73 83.3701 65.44 83.3701H234.84C250.55 83.3701 263.28 96.1001 263.28 111.81V354.28C263.28 369.99 250.55 382.72 234.84 382.72Z" fill="#EDF0F2" stroke="#D1D3D4" stroke-miterlimit="10"/>
<path d="M244.82 69.16H55.46V29.87C55.46 22.76 61.22 17 68.33 17H231.96C239.07 17 244.83 22.76 244.83 29.87V69.16H244.82Z" fill="#EDF0F2" stroke="#D1D3D4" stroke-miterlimit="10"/>
<path d="M244.83 71.2998H55.46V79.8598H244.83V71.2998Z" fill="#EDF0F2" stroke="#D1D3D4" stroke-miterlimit="10"/>
<path d="M109.036 243H128.877V237.241H117.512V237.104L128.467 222.868V218.339H109.138V224.099H120.024V224.235L109.036 238.454V243ZM139.216 243V218.339H131.97V243H139.216ZM149.47 243V230.012H149.607L159.194 243H164.749V218.339H157.913V231.123H157.776L148.257 218.339H142.634V243H149.47ZM179.805 243.427C186.453 243.427 191.255 239.206 191.289 233.054H184.351C184.128 235.908 182.317 237.736 179.822 237.736C176.814 237.736 174.951 235.104 174.951 230.644C174.951 226.235 176.831 223.603 179.805 223.603C182.317 223.603 184.146 225.466 184.316 228.269H191.255C191.238 222.15 186.316 217.912 179.805 217.912C172.268 217.912 167.568 222.526 167.568 230.661C167.568 238.796 172.251 243.427 179.805 243.427Z" fill="#3D3D3D"/>
</svg>
