<svg width="300" height="400" viewBox="0 0 300 400" fill="none" xmlns="http://www.w3.org/2000/svg">
<rect width="300" height="400" fill="white"/>
<path d="M231.09 69.1602H69.1899V83.3702H231.09V69.1602Z" fill="#D1D3D4"/>
<path d="M234.84 382.72H65.44C49.73 382.72 37 369.99 37 354.28V111.81C37 96.1001 49.73 83.3701 65.44 83.3701H234.84C250.55 83.3701 263.28 96.1001 263.28 111.81V354.28C263.28 369.99 250.55 382.72 234.84 382.72Z" fill="#EDF0F2" stroke="#D1D3D4" stroke-miterlimit="10"/>
<path d="M244.82 69.16H55.46V29.87C55.46 22.76 61.22 17 68.33 17H231.96C239.07 17 244.83 22.76 244.83 29.87V69.16H244.82Z" fill="#EDF0F2" stroke="#D1D3D4" stroke-miterlimit="10"/>
<path d="M244.83 71.2998H55.46V79.8598H244.83V71.2998Z" fill="#EDF0F2" stroke="#D1D3D4" stroke-miterlimit="10"/>
<path d="M111.292 243H131.133V237.241H119.768V237.104L130.723 222.868V218.339H111.394V224.099H122.28V224.235L111.292 238.454V243ZM162.134 243V218.339H153.76L148.257 232.729H148.12L142.6 218.339H134.226V243H140.549V228.713H140.686L146.24 242.709H150.12L155.674 228.713H155.811V243H162.134ZM181.838 243H189.563L181.514 218.339H172.422L164.373 243H171.755L173.037 238.095H180.557L181.838 243ZM176.729 224.03H176.865L179.241 232.985H174.353L176.729 224.03Z" fill="#3D3D3D"/>
</svg>
