<svg width="48" height="48" viewBox="0 0 48 48" fill="none" xmlns="http://www.w3.org/2000/svg">
<mask id="path-1-inside-1_1382_2617" fill="white">
<rect x="8" y="3" width="32" height="7" rx="1"/>
</mask>
<rect x="8" y="3" width="32" height="7" rx="1" stroke="#333333" stroke-width="4" mask="url(#path-1-inside-1_1382_2617)"/>
<path d="M12.9231 11.3636V9H35.0769V11.3636H38.5385C40.4502 11.3636 42 12.9134 42 14.8252V41C42 43.2091 40.2091 45 38 45H10C7.79086 45 6 43.2091 6 41V15.3636C6 13.1545 7.79086 11.3636 10 11.3636H12.9231Z" stroke="#333333" stroke-width="2"/>
<path d="M15 6.5V8.5" stroke="#333333" stroke-width="2"/>
<path d="M12 6.5V8.5" stroke="#333333" stroke-width="2"/>
<path d="M18 6.5V8.5" stroke="#333333" stroke-width="2"/>
<path d="M21 6.5V8.5" stroke="#333333" stroke-width="2"/>
<path d="M24 6.5V8.5" stroke="#333333" stroke-width="2"/>
<path d="M27 6.5V8.5" stroke="#333333" stroke-width="2"/>
<path d="M30 6.5V8.5" stroke="#333333" stroke-width="2"/>
<path d="M33 6.5V8.5" stroke="#333333" stroke-width="2"/>
<path d="M36 6.5V8.5" stroke="#333333" stroke-width="2"/>
<path d="M6 18H25C26.6569 18 28 19.3431 28 21V36C28 37.6569 26.6569 39 25 39H6V18Z" stroke="#333333" stroke-width="2"/>
<path d="M42 18H37C35.3431 18 34 19.3431 34 21V36C34 37.6569 35.3431 39 37 39H42V18Z" stroke="#333333" stroke-width="2"/>
</svg>
