<svg width="50" height="66" viewBox="0 0 50 66" fill="none" xmlns="http://www.w3.org/2000/svg">
<path d="M43.0791 65.9994C43.4017 64.5283 43.7536 63.2014 43.9882 61.8456C44.6333 57.7783 44.5746 53.7398 42.6686 49.961C42.0235 48.6917 41.0851 47.5091 40.1467 46.4129C37.9181 43.7879 34.7512 42.9514 31.5842 42.1725C27.1563 41.1052 22.6698 41.2783 18.2126 41.9417C12.9636 42.7494 7.86127 44.2206 2.78826 45.7494C2.43637 45.8648 2.11381 46.0667 1.7326 46.1821C1.38072 46.2975 0.999507 46.3841 0.47168 46.3552C0.764917 45.8937 1.02883 45.3744 1.41004 44.9706C3.25744 42.9514 5.63266 41.5667 8.03721 40.2975C12.2892 38.0475 16.805 36.4898 21.4675 35.336C24.1066 34.6725 26.7458 34.4417 29.4142 34.4129C31.1737 34.3841 31.5549 33.9802 31.5842 32.2494C31.6428 29.1341 30.3526 26.6533 27.8894 24.836C26.1593 23.5379 24.3119 22.3841 22.4352 21.3167C19.1802 19.4706 15.8667 17.7398 12.4065 15.8648C13.5208 15.9802 14.4884 15.9802 15.4561 16.1533C19.7374 16.9033 23.872 18.2591 28.036 19.5283C29.7661 20.0475 31.5255 20.5379 33.3729 20.5091C36.7159 20.4514 39.2964 19.1533 40.9971 16.2687C42.4047 13.8744 43.4017 11.336 44.1348 8.71097C44.8972 6.05713 45.4543 3.37444 46.0995 0.691744C46.1581 0.489821 46.2168 0.259052 46.3927 0.0571289C46.4514 0.922513 46.5686 1.7879 46.598 2.65328C46.7446 7.75905 46.0408 12.8071 45.1904 17.8264C44.3694 22.6725 43.3724 27.461 41.9648 32.1629C41.6423 33.2591 41.2904 34.3552 40.9971 35.4514C40.8212 36.0571 41.0265 36.6052 41.4956 37.0379C42.0528 37.586 42.6393 38.1341 43.2844 38.5956C46.422 40.8744 48.2694 43.9321 49.0318 47.6821C50.1461 53.1052 49.3544 58.1821 46.2461 62.8552C45.3957 64.0091 44.3694 65.0475 43.0791 65.9994ZM35.9241 30.1148C36.8918 29.1629 37.9181 28.1821 38.8858 27.1148C39.355 26.5956 39.8242 25.9898 40.1174 25.3552C40.5573 24.4033 40.2054 23.336 39.443 22.7591C38.6806 22.211 37.7129 22.2687 36.8625 23.0187C36.4226 23.3937 36.1001 23.8841 35.7482 24.3167C35.6895 24.2591 35.6309 24.1148 35.5429 23.9994C35.0737 23.4514 34.5459 23.0187 33.7835 23.1629C33.0504 23.3071 32.5812 23.7975 32.3173 24.5187C31.9068 25.6148 32.1707 26.5667 32.9917 27.3456C33.9594 28.2975 34.9564 29.2206 35.9241 30.1148Z" fill="#1BC9BD"/>
<path d="M40.0872 10.9328C40.0579 14.9712 36.9789 18.0289 32.9322 18.0289C29.0322 18.0001 25.8945 14.8558 25.8945 10.9328C25.8945 7.00967 29.0908 3.89429 33.0789 3.89429C37.0082 3.92313 40.1166 7.03852 40.0872 10.9328Z" fill="#1BC9BD"/>
</svg>
